<svg width="430" height="1512" viewBox="0 0 430 1512" fill="none" xmlns="http://www.w3.org/2000/svg">
<path d="M431.987 40.8673C431.921 43.757 431.789 46.6924 431.776 49.582C431.565 210.666 431.38 371.797 431.169 532.881C430.945 704.56 430.721 876.24 430.484 1047.92C430.286 1194.69 430.101 1365.23 429.904 1512C429.904 1512 146.185 1506.31 -3.84179 1512C-3.89452 1511.5 -3.94726 1510.99 -4 1510.49C11.9401 1490.21 27.4979 1467.42 40.5111 1426.14C32.7322 1435.68 25.1247 1443.2 17.0689 1438.7L16.9107 1436.37C18.15 1434.53 19.4026 1432.7 20.6419 1430.86C33.8001 1411.32 46.1409 1386.42 58.442 1361.1C85.3122 1305.74 111.22 1245.15 136.521 1181.39C149.824 1147.86 162.969 1113.55 176.141 1079.38C179.489 1070.67 182.627 1060.99 186.148 1052.41C185.357 1056.45 184.592 1060.62 183.761 1064.57C173.899 1111.4 162.191 1152.27 150.062 1191.57C139.329 1226.34 128.294 1259.96 117.417 1294.18C116.164 1298.12 115.043 1302.53 113.87 1306.75C114.015 1307.48 114.147 1308.17 114.292 1308.9C115.426 1307.3 116.625 1306.15 117.667 1304.04C122.822 1293.58 127.964 1283.03 133.053 1272.16C143.166 1250.51 152.356 1224.46 161.624 1198.73C163.193 1194.37 164.617 1189.37 166.213 1185.02C164.419 1194.83 162.666 1204.74 160.807 1214.42C154.162 1249.18 146.436 1280.92 137.971 1310.19C126.896 1348.48 115.492 1385.64 104.219 1423.29C103.784 1424.76 103.243 1425.82 102.478 1427.79C108.042 1430.49 162.389 1303.26 183.392 1240.51C208.179 1166.49 229.973 1082.87 248.959 989.76C248.787 991.503 248.629 993.292 248.418 994.989C240.653 1059.07 231.001 1119.33 218.713 1174.01C209.695 1214.09 200.321 1253.17 191.131 1292.8C190.222 1296.75 189.404 1300.97 188.626 1305.28C188.244 1307.43 188.073 1310.05 187.796 1312.48C187.928 1312.98 188.046 1313.44 188.178 1313.95C188.916 1312.66 189.747 1311.79 190.393 1310.05C195.548 1296.06 200.862 1282.71 205.74 1267.62C216.274 1235.06 226.743 1202.12 236.935 1168.23C247.008 1134.7 255.419 1096.08 263.211 1055.9C270.647 1017.56 277.965 978.936 285.309 940.362C286.205 935.637 286.864 930.409 287.735 925.638C288.209 923.024 288.934 921.006 289.541 918.713C289.699 919.034 289.871 919.355 290.029 919.676C289.396 931.051 288.829 942.472 288.13 953.801C284.794 1007.97 278.044 1057.23 270.463 1105.25C260.746 1166.81 248.84 1222.95 236.078 1276.98C235.049 1281.34 233.559 1284.36 232.399 1289.13C234.377 1287.76 236.328 1285.92 238.319 1285.14C242.63 1283.4 245.715 1273.95 248.84 1264.92C261.141 1229.37 271.887 1188.78 280.483 1141.49C286.693 1107.36 293.008 1073.47 299.034 1038.93C309.661 977.927 317.901 913.163 323.913 844.684C329.068 786.112 333.406 726.898 336.583 666.674C337.77 644.245 338.324 621.266 338.732 598.424C339.326 565.217 339.669 531.918 339.84 498.618C340.077 452.889 338.812 407.527 337.335 362.119C335.911 318.27 333.894 274.88 330.809 232.178C327.816 190.668 324.73 149.205 320.169 109.347C319.272 101.549 318.257 93.9353 317.11 84.7619C318.745 90.2659 320.05 94.8067 321.395 99.1182C326.299 114.759 331.389 129.757 336.109 146.086C345.786 179.569 351.772 220.665 355.661 266.028C356.729 278.549 358.127 290.704 359.498 302.859C359.815 305.657 360.645 307.766 361.238 310.197C361.502 309.739 361.766 309.234 362.043 308.775C359.393 261.074 357.956 212.501 353.526 164.433C358.905 184.431 363.928 203.511 367.567 226.261C371.14 248.598 374.463 271.486 378.194 293.823C378.194 292.768 378.233 291.667 378.194 290.658C377.297 270.156 376.519 249.607 375.465 229.242C373.395 189.155 368.398 154.342 360.461 124.299C352.787 95.2195 344.006 71.8733 334.078 53.3431C322.871 32.4278 311.295 15.2278 298.915 5.09122C296.568 3.16481 294.208 1.55947 292.151 0C333.722 1.51361 375.544 3.07308 417.365 4.54082C427.003 4.86188 420.187 5.04535 429.825 5.32055C430.55 5.32055 431.275 5.59575 432 5.68749V40.9591L431.987 40.8673Z" fill="#037DED"/>
</svg>

