<?xml version="1.0" encoding="UTF-8"?>
<svg id="Layer_1" xmlns="http://www.w3.org/2000/svg" width="430" height="1050" xmlns:xlink="http://www.w3.org/1999/xlink" viewBox="0 0 430 1050">
  <defs>
    <style>
      .cls-1 {
        fill: none;
      }

      .cls-2 {
        fill: #0d3b7f;
      }

      .cls-3 {
        fill: #072e70;
      }

      .cls-4 {
        fill: #237de9;
      }

      .cls-5 {
        fill: #2945a5;
      }

      .cls-6 {
        fill: #0774e0;
      }

      .cls-7 {
        clip-path: url(#clippath-2);
      }

      .cls-8 {
        clip-path: url(#clippath);
      }

      .cls-9 {
        fill: #237ce8;
      }
    </style>
    <clipPath id="clippath">
      <rect class="cls-1" x="-1050.09" y="531.75" width="1501.49" height="430" transform="translate(-1046.1 447.41) rotate(-90)"/>
    </clipPath>
    <clipPath id="clippath-2">
      <rect class="cls-1" x="-310" y="309.25" width="1050" height="431.5" transform="translate(-310 740) rotate(-90)"/>
    </clipPath>
  </defs>
  <rect class="cls-3" x="-310" y="309.25" width="1050" height="431.5" transform="translate(-310 740) rotate(-90)"/>
  <g class="cls-8">
    <path class="cls-4" d="M-768.56,1168.27h31.65c-.83-.2-1.67-.41-2.5-.61-3.49-.82-6.98-1.55-10.47-2.37-5.35-1.26-10.7-2.57-16.04-3.84-.84-.2-1.7-.28-2.35-1.38-.22-3.73-.38-56.12-.19-63.01.02-.64.13-1.27.21-2.08.37,0,.68-.09.97.01,1.54.55,3.08,1.03,4.61,1.74,8.31,3.84,16.57,8.17,24.84,12.42,9.55,4.92,19.2,9.01,28.81,13.4,6.48,2.96,12.99,5.65,19.46,8.78,15.37,7.43,30.7,15.23,46.08,22.51,10.2,4.83,20.38,10,30.65,14.08.29.11.57.24.86.36h33.57c-3.42-2.04-6.83-4.13-10.23-6.28-12.34-7.83-24.64-16.01-36.95-24.08-.57-.37-1.25-.5-1.61-1.85h-.76s0-.02,0-.03c.25,0,.5,0,.75,0,0,0,0,.03,0,.03,0,0,0-.03,0-.03,2.2,1.06,4.4,2.14,6.6,3.18,10.74,5.07,21.46,10.3,32.23,15.13,7.17,3.22,14.4,5.88,21.61,8.75,4.4,1.75,8.79,3.46,13.19,5.18h39.99c-7.59-5.62-15.17-11.24-22.74-16.96-18.99-14.36-37.9-29.24-56.62-45.23-25.46-21.76-50.78-44.3-75.72-68.75-4.33-4.25-8.77-8.03-13.01-12.67-16.22-17.77-32.73-34.18-49.22-50.69-11.75-11.76-23.49-23.57-35.23-35.38-.76-.77-1.5-1.67-2.3-2.57-.02-2.43-.05-4.61-.05-6.78,0-74.62,0-149.23,0-223.85,0-1.52-.01-3.04.02-4.56.01-.79-.06-1.71.47-2.37.85.36,1.6,1.63,2.39,2.62,10.2,12.77,20.38,25.56,30.58,38.35,48.94,61.37,97.87,122.73,146.81,184.1,4.45,5.59,8.91,11.18,13.37,16.73.64.8,1.22,2.12,2.08,1.72.07-1.4-.46-1.99-.85-2.68-4.28-7.58-8.51-15.32-12.9-22.6-4.52-7.5-8.9-15.31-13.05-23.77-2.38-4.86-4.9-9.39-7.35-14.08-1.46-2.79-2.93-5.56-4.35-8.44-.89-1.8-1.7-3.77-2.22-6.28.47.23.86.65,1.22,1.18,3.66,5.45,7.4,10.61,11.31,15.21,8.56,10.06,16.97,20.65,25.27,31.72,4.24,5.66,8.63,10.82,12.93,16.25,3.57,4.5,7.18,8.83,10.66,13.65,6.7,9.3,13.65,17.6,20.7,25.53.65.73,1.36,1.17,2.06,1.72-.16-.64-.27-1.39-.51-1.8-.73-1.25-1.53-2.34-2.3-3.47-48.15-69.56-96.3-139.12-144.45-208.68-29.85-43.12-59.7-86.24-89.55-129.37-.77-1.11-1.52-2.31-2.15-3.28-.07-.78-.13-1.11-.13-1.45-.01-13.84-.02-27.68-.02-41.53,0-.62-.03-1.4.49-1.77.91.51,1.65,2.07,2.47,3.28,41.58,61.65,83.16,123.32,124.74,184.98,47.88,71.02,95.77,142.03,143.66,213.05,31.41,46.58,62.81,93.18,94.22,139.77.77,1.15,1.54,2.29,2.34,3.36.3.4.64,1.07,1.04.1-.04-.44-.04-.96-.13-1.39-1.81-8.78-3.53-17.64-6.15-25.52-1.41-4.24-2.66-8.73-3.96-13.14-.4-1.35-.72-2.81-1.08-4.22.5.18.76.73,1,1.32,2.39,5.81,4.88,11.44,7.74,16.16,4.03,6.66,8.17,13.01,12.26,19.47.31.49.67.86,1.03,1.18.27.24.57.66.91-.12-.19-2.03-.98-3.28-1.57-4.75-11.88-29.56-23.77-59.1-35.67-88.63-21.53-53.46-43.08-106.91-64.61-160.37-20.71-51.43-41.42-102.87-62.13-154.3-24.56-60.98-49.12-121.94-73.68-182.92-33.43-83-66.86-166-100.29-248.99-13.74-34.12-27.48-68.24-41.23-102.33-.91-2.24-1.47-4.43-1.46-7.61.06-30.05.03-60.1.04-90.15,0-.94.06-1.88.12-3.35.93,1.41,1.35,3.03,1.85,4.44,28.27,78.83,56.53,157.68,84.78,236.53,26.78,74.71,53.55,149.43,80.33,224.14,5.26,14.68,10.53,29.34,15.8,43.99.46,1.27.78,2.9,1.61,3.34.12-1.27-.28-2.14-.57-3.05-1.07-3.33-2.16-6.62-3.24-9.92-3.73-11.44-7.39-23.01-11.22-34.29-4.3-12.65-8.44-25.54-12.39-38.7-7.05-23.49-14.09-47-21.11-70.54-2.75-9.21-5.41-18.55-8.17-27.75-4.03-13.45-8.09-26.86-12.17-40.24-3.01-9.86-6.08-19.62-9.1-29.47-2.37-7.74-4.69-15.54-7.02-23.33-1.69-5.67-3.35-11.38-5.03-17.08-1.13-3.85-2.31-7.63-3.36-11.58-.74-2.77-1.33-5.72-1.91-8.67-.18-.94-.38-2.18.21-3.44.64,1.39,1.29,2.58,1.82,3.99,4.15,10.97,8.36,21.84,12.4,33,6.84,18.87,13.08,38.67,19.45,58.29,4.17,12.84,8.49,25.46,12.79,38.09,6.99,20.51,14.03,40.95,21.05,61.41,1.3,3.79,2.63,7.55,3.94,11.33,2.48,7.16,4.96,14.31,7.42,21.49.79,2.3,1.5,4.75,2.33,6.97,5.22,13.9,9.97,28.55,14.96,42.81,9.74,27.86,19.57,55.58,29.26,83.54,6.79,19.59,13.61,39.11,20.93,57.77.71,1.8,1.37,3.69,2.06,5.51,5.59,14.74,11.16,29.52,16.79,44.21,5.08,13.26,10.25,26.35,15.32,39.62,3.14,8.2,6.39,16.16,9.8,23.82,2.71,6.08,5.42,12.2,7.6,19.22,3.36,10.85,7.31,20.6,11.51,29.91.35.77.8,1.31,1.51,2.45-.25-2.9-.9-4.36-1.4-5.95-16.92-53.88-33.86-107.74-50.78-161.62-.63-2.02-1.21-4.12-1.81-6.18-.04-.03-.08-.07-.12-.1l.05-.12s-.05.12-.05.12c-.02-.14-.04-.27-.05-.4-.15-.42-.31-.84-.46-1.25.09-.09.17-.18.26-.27.07.51.13,1.01.2,1.52.04.1.07.19.11.29.02.07.04.15.06.22.99.72,1.43,2.74,2.04,4.31,24.7,63.47,49.38,126.97,74.06,190.46,2.06,5.29,4.1,10.61,6.18,15.85.42,1.05.73,2.57,1.53,2.58-.17-2.8-1.13-4.67-1.81-6.82-12.75-39.82-25.52-79.6-38.28-119.4-28.69-89.43-57.37-178.87-86.06-268.3-34.25-106.76-68.5-213.52-102.75-320.28-33.18-103.43-66.36-206.87-99.54-310.31-2.09-6.52-1.75-4.45-1.75-12.09-.01-59.59,0-119.17,0-178.76,0-1.35-.02-2.71.02-4.05.03-.96.16-1.91.27-3.16,1.17-.06,2.25-.17,3.33-.17,44.18,0,88.37,0,132.55,0,.55,0,1.09-.04,1.64.02.53.06,1.06.22,1.62.34.47,1.94.91,3.7,1.32,5.51,3.87,17.3,7.74,34.61,11.61,51.91,23.36,104.42,46.72,208.83,70.08,313.25.37,1.67.77,3.31,1.18,4.94.18.72.42,1.37.85,1.3-.28-1.9-.56-3.8-.86-5.68-1.47-9.07-3.07-18.05-4.39-27.22-2.55-17.7-4.93-35.5-7.39-53.26-2.21-15.98-4.53-31.9-6.62-47.96-2.58-19.78-4.92-39.71-7.46-59.52-1.94-15.11-3.58-30.36-4.98-45.74-.39-4.28-.83-8.61-.65-13.04.02-.52-.13-1.42.47-1.43.23,1.16.47,2.38.7,3.61,9.37,49.44,18.75,98.86,28.1,148.32,2.57,13.57,5.32,26.98,7.33,41.01.81,5.63,1.69,11.21,2.57,16.79.28,1.75.63,3.44,1,5.11.16.7.36,1.54.95,1.24.04-.75.18-1.6.12-2.39-.22-2.98-.41-6-.78-8.91-1.3-10.24-2.71-20.41-4.01-30.64-2.48-19.5-4.48-39.25-6.39-59.04-.98-10.22-1.96-20.45-2.89-30.7-1.33-14.54-2.6-29.11-3.92-43.66-1.51-16.7-3.01-33.4-4.55-50.08-1.46-15.86-2.87-31.75-4.47-47.54-2.07-20.4-4.31-40.73-6.48-61.08-.17-1.63-.44-3.21-.17-5.18,2.06-.43,4.12-.54,6.32.14.29,1.81.58,3.53.84,5.28,4.16,28.07,8.31,56.15,12.46,84.22,13.57,91.77,27.14,183.55,40.72,275.32,13.32,90.01,26.65,180,39.96,270.01,15.12,102.2,30.23,204.41,45.33,306.62,9.63,65.14,19.25,130.29,28.88,195.44,1.49,10.11,3.02,20.2,4.51,30.31.2,1.37.36,2.73,1.16,4.31-.45-9.83-1.3-18.71-1.89-27.66-.59-9-1.33-17.96-2-26.94-.67-8.98-1.37-17.95-2.02-26.93-.66-8.97-1.28-17.95-1.92-26.93.39,1.25.67,2.58.89,3.95,9.76,59.37,19.52,118.75,29.29,178.12,1.83,11.11,3.67,22.21,5.51,33.31.15.89.12,2.1.78,2.14.07-.29.21-.58.2-.84-.24-8.25-.46-16.49-.75-24.73-.21-6.05-.51-12.09-.75-18.13-.05-1.34-.06-2.7-.07-4.05,0-1.23-.1-2.49.07-4.42.28,1.25.45,1.81.53,2.42,4.71,34.57,9.42,69.15,14.13,103.72,1.43,10.5,2.85,21.01,4.28,31.51.1.74.19,1.66.85,1.22-.27-6.33-.52-12.69-.83-19.04-.38-7.88-.83-15.74-1.21-23.62-.39-8.05-.72-16.11-1.11-24.15-.38-7.88-.84-15.74-1.22-23.62-.38-7.88-.71-15.77-1.07-23.65-.18-3.86-.39-7.71-.59-11.56-.23-4.52-.48-9.04-.7-13.57-.37-7.88-.7-15.77-1.09-23.65-.39-7.87-.85-15.73-1.23-23.61-.38-7.88-.7-15.77-1.07-23.65-.18-3.86-.39-7.71-.58-11.56-.25-4.86-.5-9.71-.73-14.57-.22-4.53-.39-9.06-.62-13.59-.4-7.87-.84-15.73-1.22-23.61-.39-8.05-.71-16.11-1.1-24.15-.38-7.88-.85-15.73-1.23-23.61-.39-8.05-.7-16.11-1.09-24.15-.54-11.06-1.17-22.1-1.7-33.16-.55-11.23-1.03-22.47-1.54-33.71-.16-3.52-.33-7.04-.52-10.56-.41-7.87-.85-15.73-1.23-23.61-.39-8.05-.7-16.11-1.09-24.16-.38-7.88-.85-15.73-1.24-23.61-.38-7.88-.7-15.77-1.06-23.65-.18-3.86-.37-7.71-.57-11.57-.4-7.87-.82-15.74-1.21-23.62-.38-7.88-.7-15.77-1.09-23.65-.39-7.88-.85-15.73-1.23-23.61-.39-8.05-.72-16.11-1.08-24.16-.17-3.69-.37-7.37-.56-11.06-.24-4.69-.5-9.37-.72-14.07-.22-4.69-.4-9.4-.63-14.09-.39-7.87-.84-15.74-1.22-23.61-.38-7.88-.71-15.77-1.07-23.65-.17-3.69-.37-7.37-.55-11.06-.4-7.87-.82-15.74-1.2-23.62-.38-7.88-.7-15.77-1.09-23.65-.39-7.88-.85-15.73-1.23-23.61-.39-8.05-.72-16.11-1.09-24.16-.17-3.69-.38-7.37-.56-11.06-.25-4.86-.5-9.71-.73-14.57-.22-4.53-.39-9.06-.62-13.59-.39-7.7-.84-15.4-1.21-23.1-.38-7.88-.7-15.77-1.06-23.65-.19-4.02-.41-8.04-.62-12.06-.23-4.52-.47-9.04-.69-13.56-.22-4.7-.39-9.4-.63-14.1-.39-7.87-.84-15.73-1.23-23.61-.39-8.05-.7-16.11-1.1-24.15-.38-7.88-.85-15.73-1.24-23.61-.38-7.88-.7-15.77-1.06-23.65-.19-4.02-.41-8.04-.62-12.06-.24-4.69-.48-9.38-.7-14.07-.21-4.53-.39-9.07-.61-13.59-.4-7.87-.84-15.73-1.23-23.61-.39-8.05-.7-16.11-1.1-24.15-.38-7.88-.85-15.73-1.24-23.61-.38-7.88-.7-15.77-1.06-23.65-.19-4.02-.41-8.04-.62-12.06-.23-4.52-.48-9.04-.69-13.56-.22-4.7-.39-9.4-.63-14.09-.39-7.87-.84-15.73-1.23-23.61-.39-8.05-.7-16.11-1.1-24.15-.38-7.88-.86-15.73-1.24-23.61-.39-8.05-.71-16.11-1.08-24.16-.17-3.69-.37-7.37-.56-11.06-.24-4.69-.5-9.37-.74-14.06-.28-5.53-.57-11.05-.83-16.59-.23-5.03-.44-10.07-.62-15.11-.03-.92.15-1.87.26-3.08,1.12-.04,2.12-.11,3.13-.11,6.33,0,12.65,0,18.98,0v-.06s189.49.07,189.49.07c1.01,0,2.01.07,3.13.11.11,1.2.29,2.16.26,3.08-.18,5.04-.39,10.08-.62,15.11-.26,5.53-.55,11.06-.83,16.59-.24,4.69-.49,9.37-.74,14.06-.19,3.68-.39,7.37-.56,11.06-.37,8.05-.69,16.11-1.08,24.16-.38,7.88-.85,15.73-1.24,23.61-.39,8.05-.7,16.11-1.1,24.15-.38,7.88-.83,15.74-1.23,23.61-.23,4.69-.4,9.4-.63,14.09-.21,4.53-.46,9.04-.69,13.56-.21,4.02-.43,8.04-.62,12.06-.36,7.88-.68,15.78-1.06,23.65-.38,7.88-.85,15.73-1.24,23.61-.39,8.05-.7,16.11-1.1,24.15-.38,7.88-.83,15.74-1.23,23.61-.23,4.52-.4,9.06-.61,13.59-.22,4.69-.46,9.38-.7,14.07-.2,4.02-.43,8.04-.62,12.06-.36,7.88-.68,15.77-1.06,23.65-.38,7.88-.85,15.73-1.24,23.61-.39,8.05-.71,16.11-1.1,24.15-.38,7.88-.83,15.73-1.23,23.61-.23,4.69-.41,9.4-.63,14.1-.21,4.52-.46,9.04-.69,13.56-.21,4.02-.43,8.04-.62,12.06-.36,7.88-.68,15.77-1.06,23.65-.37,7.71-.82,15.4-1.21,23.1-.23,4.52-.4,9.06-.62,13.59-.23,4.86-.49,9.72-.73,14.57-.19,3.69-.39,7.37-.56,11.06-.37,8.05-.7,16.11-1.09,24.16-.38,7.88-.84,15.73-1.23,23.61-.39,7.88-.71,15.77-1.09,23.65-.38,7.88-.8,15.74-1.2,23.62-.19,3.69-.38,7.37-.55,11.06-.36,7.88-.69,15.77-1.07,23.65-.38,7.88-.83,15.74-1.22,23.61-.23,4.69-.41,9.4-.63,14.09-.22,4.69-.48,9.38-.72,14.07-.19,3.69-.39,7.37-.56,11.06-.37,8.05-.69,16.11-1.08,24.16-.38,7.88-.85,15.73-1.23,23.61-.39,7.88-.71,15.77-1.09,23.65-.38,7.88-.8,15.74-1.21,23.62-.2,3.85-.39,7.71-.57,11.57-.36,7.88-.68,15.78-1.06,23.65-.38,7.88-.85,15.73-1.24,23.61-.39,8.05-.7,16.11-1.09,24.16-.38,7.88-.83,15.74-1.23,23.61-.18,3.52-.35,7.04-.52,10.56-.52,11.24-1,22.48-1.54,33.71-.54,11.06-1.16,22.1-1.7,33.16-.4,8.04-.7,16.11-1.09,24.15-.38,7.88-.85,15.73-1.23,23.61-.39,8.05-.71,16.11-1.1,24.15-.38,7.88-.82,15.74-1.22,23.61-.23,4.52-.4,9.06-.62,13.59-.23,4.86-.49,9.71-.73,14.57-.19,3.85-.41,7.7-.58,11.56-.36,7.88-.68,15.77-1.07,23.65-.38,7.88-.85,15.73-1.23,23.61-.39,7.88-.71,15.77-1.09,23.65-.21,4.53-.46,9.04-.7,13.57-.2,3.85-.41,7.7-.59,11.56-.37,7.88-.69,15.78-1.07,23.65-.38,7.88-.84,15.74-1.22,23.62-.39,8.05-.72,16.11-1.11,24.15-.38,7.88-.83,15.74-1.21,23.62-.31,6.35-.56,12.7-.83,19.04.67.44.75-.48.86-1.22,1.43-10.5,2.85-21.01,4.28-31.51,4.71-34.58,9.41-69.15,14.13-103.72.08-.61.25-1.17.53-2.42.17,1.92.08,3.18.07,4.42,0,1.35-.01,2.7-.07,4.05-.24,6.05-.54,12.08-.75,18.13-.29,8.24-.51,16.49-.75,24.73,0,.27.13.56.2.84.65-.04.63-1.24.78-2.14,1.84-11.1,3.68-22.2,5.51-33.31,9.76-59.37,19.52-118.75,29.29-178.12.23-1.37.5-2.7.89-3.95-.64,8.98-1.27,17.96-1.92,26.93-.66,8.98-1.35,17.95-2.02,26.93-.67,8.98-1.41,17.94-2,26.94-.59,8.96-1.44,17.84-1.89,27.66.8-1.58.96-2.94,1.16-4.31,1.49-10.11,3.01-20.2,4.51-30.31,9.63-65.14,19.25-130.29,28.88-195.44,15.11-102.21,30.22-204.42,45.33-306.62,13.31-90.01,26.65-180,39.96-270.01,13.58-91.77,27.14-183.55,40.72-275.32,4.15-28.08,8.31-56.15,12.46-84.22.26-1.75.55-3.47.84-5.28,2.19-.68,4.26-.57,6.32-.14.27,1.97,0,3.55-.17,5.18-2.18,20.35-4.41,40.68-6.48,61.08-1.6,15.79-3.01,31.68-4.47,47.54-1.54,16.68-3.04,33.38-4.55,50.08-1.31,14.55-2.59,29.11-3.92,43.66-.93,10.25-1.91,20.47-2.89,30.7-1.9,19.79-3.91,39.54-6.39,59.04-1.3,10.24-2.71,20.41-4.01,30.64-.37,2.91-.56,5.92-.78,8.91-.06.78.08,1.63.12,2.39.59.3.8-.54.95-1.24.37-1.66.72-3.36,1-5.11.88-5.58,1.77-11.16,2.57-16.79,2.01-14.04,4.76-27.45,7.33-41.01,9.35-49.45,18.73-98.88,28.1-148.32.23-1.23.48-2.45.7-3.61.61.01.45.91.47,1.43.18,4.43-.26,8.76-.65,13.04-1.39,15.38-3.04,30.63-4.98,45.74-2.54,19.81-4.88,39.73-7.46,59.52-2.09,16.06-4.41,31.97-6.62,47.96-2.46,17.76-4.84,35.56-7.39,53.26-1.32,9.17-2.92,18.15-4.39,27.22-.3,1.88-.57,3.79-.86,5.68.44.07.67-.58.85-1.3.41-1.63.81-3.27,1.18-4.94C-30.81-66.54-7.45-170.96,15.91-275.37c3.87-17.3,7.73-34.61,11.61-51.91.41-1.81.85-3.57,1.32-5.51.56-.12,1.09-.28,1.62-.34.55-.06,1.09-.02,1.64-.02,44.18,0,88.37,0,132.55,0,1.08,0,2.16.11,3.33.17.11,1.26.24,2.2.27,3.16.04,1.34.02,2.7.02,4.05,0,59.59,0,119.17,0,178.76,0,7.64.34,5.58-1.75,12.09C133.34-31.48,100.16,71.95,66.98,175.39,32.73,282.15-1.52,388.91-35.77,495.67c-28.69,89.43-57.37,178.86-86.06,268.3-12.76,39.79-25.54,79.58-38.28,119.4-.69,2.14-1.64,4.02-1.81,6.82.8,0,1.11-1.52,1.53-2.58,2.08-5.24,4.13-10.56,6.18-15.85,24.68-63.49,49.36-126.99,74.06-190.46.61-1.57,1.05-3.59,2.04-4.31.02-.07.04-.15.06-.22.04-.1.07-.19.11-.29.07-.51.13-1.02.2-1.52.09.09.17.18.26.27-.15.42-.31.84-.46,1.25-.02.14-.04.27-.05.4,0,0-.05-.12-.05-.12l.05.12s-.08.07-.12.1c-.6,2.07-1.17,4.17-1.81,6.18-16.93,53.87-33.86,107.74-50.78,161.62-.5,1.59-1.16,3.05-1.4,5.95.71-1.14,1.16-1.68,1.51-2.45,4.2-9.31,8.15-19.07,11.51-29.91,2.18-7.03,4.89-13.15,7.6-19.22,3.41-7.66,6.67-15.62,9.8-23.82,5.07-13.27,10.24-26.36,15.32-39.62,5.63-14.68,11.2-29.47,16.79-44.21.69-1.83,1.35-3.71,2.06-5.51,7.33-18.67,14.15-38.18,20.93-57.77,9.68-27.96,19.51-55.68,29.26-83.54,4.99-14.27,9.74-28.92,14.96-42.81.83-2.22,1.54-4.67,2.33-6.97,2.47-7.17,4.95-14.33,7.42-21.49,1.31-3.78,2.64-7.54,3.94-11.33,7.02-20.46,14.06-40.9,21.05-61.41,4.31-12.63,8.62-25.25,12.79-38.09,6.37-19.61,12.61-39.42,19.45-58.29,4.04-11.15,8.25-22.03,12.4-33,.53-1.4,1.18-2.6,1.82-3.99.59,1.26.39,2.5.21,3.44-.58,2.94-1.17,5.9-1.91,8.67-1.05,3.94-2.23,7.73-3.36,11.58-1.67,5.7-3.33,11.41-5.03,17.08-2.33,7.8-4.65,15.59-7.02,23.33-3.01,9.85-6.09,19.61-9.1,29.47-4.08,13.38-8.14,26.78-12.17,40.24-2.76,9.2-5.42,18.54-8.17,27.75-7.02,23.53-14.06,47.05-21.11,70.54-3.95,13.16-8.09,26.05-12.39,38.7-3.83,11.28-7.49,22.85-11.22,34.29-1.08,3.31-2.17,6.6-3.24,9.92-.29.91-.69,1.78-.57,3.05.83-.44,1.15-2.08,1.61-3.34,5.28-14.65,10.54-29.31,15.8-43.99,26.78-74.71,53.55-149.43,80.33-224.14,28.26-78.85,56.52-157.69,84.78-236.53.5-1.41.93-3.03,1.85-4.44.05,1.47.12,2.41.12,3.35,0,30.05-.02,60.1.04,90.15,0,3.18-.56,5.37-1.46,7.61-13.76,34.08-27.49,68.21-41.23,102.33-33.43,83-66.86,166-100.29,248.99-24.56,60.97-49.12,121.94-73.68,182.92-20.71,51.43-41.42,102.87-62.13,154.3-21.53,53.46-43.07,106.91-64.61,160.37-11.9,29.53-23.79,59.06-35.67,88.63-.59,1.47-1.38,2.72-1.57,4.75.34.79.64.36.91.12.36-.32.72-.69,1.03-1.18,4.1-6.46,8.24-12.81,12.26-19.47,2.86-4.72,5.35-10.35,7.74-16.16.24-.59.5-1.14,1-1.32-.36,1.41-.68,2.87-1.08,4.22-1.3,4.41-2.55,8.91-3.96,13.14-2.63,7.88-4.35,16.74-6.15,25.52-.09.43-.09.95-.13,1.39.4.97.75.29,1.04-.1.8-1.06,1.57-2.21,2.34-3.36,31.41-46.59,62.81-93.19,94.22-139.77,47.88-71.02,95.77-142.03,143.66-213.05,41.58-61.66,83.15-123.33,124.74-184.98.82-1.21,1.56-2.77,2.47-3.28.51.37.48,1.15.49,1.77,0,13.84,0,27.68-.02,41.53,0,.33-.06.66-.13,1.45-.63.97-1.38,2.16-2.15,3.28-29.85,43.13-59.7,86.25-89.55,129.37-48.15,69.56-96.3,139.12-144.45,208.68-.78,1.12-1.57,2.22-2.3,3.47-.24.41-.36,1.15-.51,1.8.69-.55,1.41-1,2.06-1.72,7.05-7.93,14-16.24,20.7-25.53,3.47-4.82,7.09-9.15,10.66-13.65,4.31-5.43,8.69-10.59,12.93-16.25,8.29-11.06,16.71-21.65,25.27-31.72,3.91-4.6,7.65-9.76,11.31-15.21.36-.53.75-.95,1.22-1.18-.52,2.52-1.33,4.49-2.22,6.28-1.42,2.88-2.89,5.65-4.35,8.44-2.45,4.69-4.97,9.22-7.35,14.08-4.15,8.46-8.53,16.27-13.05,23.77-4.39,7.29-8.61,15.03-12.9,22.6-.39.69-.92,1.28-.85,2.68.86.41,1.44-.92,2.08-1.72,4.47-5.54,8.92-11.14,13.37-16.73,48.94-61.37,97.87-122.73,146.81-184.1,10.19-12.78,20.38-25.58,30.58-38.35.79-.99,1.54-2.26,2.39-2.62.53.66.45,1.58.47,2.37.03,1.52.02,3.04.02,4.56,0,74.62,0,149.23,0,223.85,0,2.18-.03,4.36-.05,6.78-.8.9-1.53,1.8-2.3,2.57-11.74,11.8-23.48,23.61-35.23,35.38-16.49,16.51-33.01,32.91-49.22,50.69-4.24,4.65-8.68,8.42-13.01,12.67-24.94,24.45-50.26,46.99-75.72,68.75-18.71,16-37.62,30.87-56.62,45.23-7.57,5.72-15.15,11.34-22.74,16.96h39.99c4.4-1.72,8.8-3.43,13.19-5.18,7.21-2.86,14.44-5.53,21.61-8.75,10.76-4.83,21.49-10.06,32.23-15.13,2.2-1.04,4.4-2.12,6.6-3.18,0,0,0,.03,0,.03,0,0,0-.03,0-.03.25,0,.5,0,.75,0,0,0,0,.02,0,.03h-.76c-.35,1.34-1.04,1.47-1.61,1.85-12.31,8.07-24.61,16.25-36.95,24.08-3.4,2.16-6.81,4.25-10.23,6.28H11.76c.29-.12.57-.25.86-.36,10.28-4.08,20.45-9.25,30.65-14.08,15.38-7.27,30.71-15.08,46.08-22.51,6.47-3.12,12.98-5.81,19.46-8.78,9.61-4.39,19.25-8.48,28.81-13.4,8.27-4.25,16.52-8.58,24.84-12.42,1.52-.7,3.07-1.19,4.61-1.74.29-.1.6-.01.97-.01.09.82.19,1.45.21,2.08.19,6.89.04,59.28-.19,63.01-.65,1.11-1.5,1.18-2.35,1.38-5.35,1.28-10.69,2.59-16.04,3.84-3.49.82-6.98,1.55-10.47,2.37-.83.2-1.67.4-2.5.61h33.18V-333.22h-938.43v1501.49Z"/>
  </g>
  <g class="cls-7">
    <g>
      <path class="cls-6" d="M-83.65,484.99c3.26-.17,6.28-1.35,9.38-2.17,16.37-4.33,33.01-5.4,49.86-4.61,12.43.58,24.8,1.67,37.12,3.42,1.22.17,2.48.31,4.42-.3-12.05-5.54-23.59-10.85-35.13-16.15,23.59.25,44.68,9.22,66.18,18.48-.73-1.57-1.74-2.4-2.61-3.32-10.74-11.39-23.04-20.96-35.56-30.27-9.53-7.09-18.64-14.74-28.8-20.95-5.28-3.22-11.03-5.34-16.86-7.28-.88-.29-1.75-.61-2.89-1.01.94-1.19,2.01-.92,2.93-.94,13.25-.29,26.22,1.69,38.94,5.21,19.06,5.27,36.35,14.44,53.06,24.77,42.21,26.1,75.24,61.24,101.14,103.34,4.56,7.4,8.33,15.18,10.3,23.72.05.21.23.39.61.48-4.84-29.84-14.05-58.06-31.19-83.36,2.18,1.76,3.84,3.99,5.58,6.13,29.15,35.89,48.78,76.4,58.67,121.57,4.82,22.02,6.5,44.33,5.58,66.88-.99,24.25-5.34,47.89-13.04,70.82-6.98,20.8-16.89,40.19-31.39,56.91-5.12,5.9-10.76,11.29-17.51,15.36-1.19.72-2.33,1.58-4,1.91.77-1.68,1.97-2.79,3.06-3.93,8.31-8.72,13.6-19.18,17.78-30.33,7.55-20.08,13.59-40.58,17.29-61.73,1.78-10.21,1.95-20.5,1.42-30.84-.47-9.31-1.23-18.55-4.02-27.49-9.07-29.13-25.25-53.46-49.85-71.65-14.24-10.53-30.47-15.85-48.45-14.85-8.95.5-17.26,3.18-25.33,6.92-18.81,8.72-34.09,21.66-47,37.83-8.6,10.77-14.42,23.03-21.01,34.92-12.72,22.96-21.55,47.55-30.14,72.23-5.47,15.72-8.45,32.09-11.5,48.41-3.11,16.64-5.32,33.41-7.11,50.24-2.4,22.6-2.62,45.27-2.52,67.96.07,17.1.71,34.18,1.55,51.25,1.07,21.47,2.6,42.9,5.48,64.21,1.02,7.56,1.97,15.13,2.96,22.7-.16,0-.32,0-.48,0-1.05.47-2.16.21-3.24.22-6.97.03-13.94.02-20.91,0-.77,0-1.57.2-2.3-.22-.78-1.23-.46-2.61-.46-3.92-.01-109.32-.01-218.64-.01-327.97,0-28.04,0-56.08,0-84.12,1.31-3.4,3.94-5.86,6.28-8.47,8.47-9.43,17.49-18.31,26.68-26.72-5.48,1.23-11.14,2.55-16.64,4.48-4.53,1.59-8.94,3.46-13.25,5.59-.94.47-1.89,1.29-3.07.55.02-12.03.04-24.07.06-36.1.66-1.3,1.63-2.27,2.89-3.02,8.72-5.19,17.48-10.31,26.48-15.02,7.41-3.87,14.82-7.64,22.82-10.15,2.86-.9,5.7-1.81,8.52-2.04-2.57.4-5.36.52-8.13.68-16.7.95-33.15,3.42-49.3,7.84-1.11.3-2.28.87-3.3-.25-.01-5.87-.03-11.73-.04-17.6.83-.97,1.81-1.67,3.01-2.18,18.35-7.73,37.56-11.95,57.22-14.62,18.49-2.51,37.06-1.82,55.61-1.68,6.77.05,13.61.7,19.57,2.42-8.2-4.31-17.36-8.06-26.8-11.18-15.82-5.23-32.07-8.49-48.53-10.86-17.09-2.46-34.28-3.16-51.53-2.84-1.26.02-2.51.22-3.76.32-1.61.13-3.32.53-4.71-.79-.03-2.28-.05-4.55-.08-6.83Z"/>
      <path class="cls-2" d="M-83.57,195.69c5.69,1.58,11.53,2.4,17.31,3.52,19.64,3.8,38.51,10.05,56.85,17.9,19.64,8.41,38.48,18.34,56.36,30.08,15.08,9.9,29.53,20.65,43.35,32.22,5.79,4.84,11.28,10.05,16.78,15.22,11.41,10.74,21.88,22.39,32.22,34.15,19.18,21.8,36.18,45.18,50.55,70.44.59,1.04,1.02,2.29,2.36,2.86.48-1.05-.11-1.79-.4-2.54-4.22-11.03-9.09-21.79-13.74-32.65-.55-1.29-1.46-2.42-2.17-3.64-.26-.45-.74-.99-.23-1.49.62-.62,1.16-.04,1.64.33,1.86,1.45,2.84,3.57,3.93,5.55,11.59,20.95,22.69,42.14,31.6,64.41,8,19.98,14.48,40.46,19.99,61.25,4.98,18.8,8.65,37.88,11.74,57.07,1.1,6.81.88,13.75,1.99,20.58,1.48,9.08,2.19,18.26,2.77,27.43.51,8.09.75,16.2.55,24.31,0,.39-.05.8-.18,1.16-.35.92-.42,2.26-1.74,2.19-1.14-.06-1.26-1.21-1.41-2.17-1.55-10.26-3.12-20.52-4.67-30.78-2.64-17.57-5.03-35.19-9.27-52.49-1.09-4.43-2.03-8.9-3.05-13.34-.08-.36-.14-.79-.76-.94-.24,1.37.29,2.63.54,3.88,2.1,10.18,3.18,20.5,4.54,30.79.66,4.98,1.03,10.01,2.12,14.94.17.75.21,1.58.11,2.34-.16,1.19-.99,1.74-2.18,1.68-1.12-.05-1.38-.84-1.49-1.78-2.77-24.27-9.18-47.69-16.55-70.9-4.61-14.51-10.03-28.71-16.73-42.34-4.75-9.66-10.22-18.99-15.72-28.26-11.06-18.65-23.72-36.22-37.31-53.07-7.1-8.81-14.29-17.58-22.11-25.8-5.37-5.65-10.5-11.52-16.1-16.94-13.02-12.59-26.42-24.75-41.11-35.37-5.99-4.33-12.26-8.28-18.39-12.42-1.14-.77-3.07-1.76-2.25-3.09.74-1.2,2.09.58,3.11,1.1,11.24,5.71,22.11,12.06,32.62,19.02,12.88,8.52,25.11,17.88,36.66,28.13.29.25.58.5,1.07.91,0-1.06-.68-1.42-1.12-1.88-5.53-5.72-11.05-11.45-16.7-17.03-13.55-13.37-27.58-26.2-42.64-37.94-18.38-14.33-37.96-26.68-58.4-37.76-17.6-9.55-35.83-17.74-54.7-24.41-9.71-3.43-19.58-6.43-29.64-8.76,0-5.23,0-10.45-.01-15.68Z"/>
      <path class="cls-3" d="M-83.57,491.81c13.99-1.23,27.98-.87,41.96.22,18.38,1.44,36.53,4.33,54.34,9.12,14.53,3.9,28.72,8.78,41.78,16.45.59.34,1.34.49,1.77,1.49-3.53-.66-6.87-1.35-10.23-1.9-8.96-1.47-18.02-1.41-27.06-1.61-26.89-.58-53.39,2.04-79.32,9.51-6.96,2.01-13.79,4.34-20.44,7.24-.92.4-1.78,1.05-2.88.88.03-13.8.06-27.61.09-41.41Z"/>
      <path class="cls-2" d="M429.03,195.19c2.28,6.05,3.85,12.31,5.6,18.52,7.35,26.15,13.55,52.58,18.62,79.27,3.46,18.23,6.79,36.48,8.88,54.94,1.14,10.08,1.71,20.2,2.37,30.32,1.16,17.69,1.59,35.38,1.29,53.09-.19,10.92-1.12,21.81-2.19,32.69-2.1,21.23-5.55,42.24-9.73,63.13-1.25,6.23-2.01,12.4-1.81,18.73.02.61-.16,1.24-.25,1.85-1.51-.62-1.09-1.92-1.02-3.04.24-4.07.54-8.13.62-12.21.01-.51.21-1.08.04-1.25-.32,6.82-.37,13.93-1.32,20.99-2.48,3.79-2.95,8.22-3.87,12.48-2.22,10.32-5.37,20.37-8.28,30.49-.85,2.95-1.76,5.88-2.72,8.79-.36,1.09-.56,2.42-2.25,2.1-.96-.76-.82-1.82-.7-2.83,1.42-11.95,2.6-23.9,2.74-35.95.04-2.96.17-5.95.37-9.27-.18,10.03-2.08,19.5-3.61,29-3.18,19.74-7.42,39.27-12.48,58.61-3.07,11.73-6.62,23.31-10.44,34.81-.57,1.7-.55,4.04-2.99,4.64-.33-1.84.86-3.64.05-5.97-1.53,4.12-2.92,7.85-4.29,11.58-5.53,15.09-12.01,29.77-18.87,44.3-4.78,10.12-9.99,20-15.22,29.88-2,3.77-3.63,7.69-5.06,11.69-3.91,11-8.97,21.5-13.96,32.02-12.58,26.5-26.97,51.99-43.39,76.31-10.58,15.66-21.99,30.69-34.26,45.08-8.49,9.95-17.35,19.54-26.8,28.57-7.42,7.09-15.56,13.28-24.4,18.5-3.27,1.93-6.77,3.31-10.53,4.03-4.66.88-7.36-.27-9.58-4.47-2.53-4.79-3.58-10-2.96-15.33,1.48-12.57,2.76-25.19,6.49-37.37,5.24-17.11,9-34.56,12.48-52.09,1.12-5.63,2.29-11.25,3.43-16.88.11-.52.26-1.04-.37-1.86-.87,2.36-1.67,4.44-2.41,6.55-6.32,18.09-13.86,35.65-22.58,52.71-1.32,2.59-2.77,5.12-4.26,7.63-.64,1.08-1.83,2.6-2.79,2.09-1.14-.6-.57-2.41-.13-3.64,1.5-4.23,3.08-8.43,4.63-12.64,8.63-23.35,16.18-47.04,22.82-71.03,5.72-20.65,10.3-41.54,13.6-62.7,1.51-9.71,2.71-19.45,3.51-29.25.83-10.18,1.95-20.34,2.69-30.53.66-9,1.65-18.01.12-27.34,1.57.52,2.19,1.59,2.87,2.55,3.25,4.61,5.38,9.77,7.29,15.04,6.86,18.84,12.07,38.11,15.15,57.93,1.37,8.85,2.32,17.76,3.13,26.69,1.46,16.26,1.38,32.55,1.29,48.84,0,.68.17,1.42-.46,2.24-1.02-1.29-1.34-2.8-1.84-4.2-2.53-7.14-5.27-14.17-9.64-20.44-.78-1.12-1.46-2.98-3.01-2.54-1.63.47-1.07,2.4-1.07,3.75-.03,10.48-.17,20.96.06,31.43.13,5.88.64,11.78,2.88,17.36.55,1.36,1.42,2.43,2.44,3.43,2.31,2.24,3.67,2.16,6.08.1,7.7-6.57,12.52-15.07,16.46-24.19,5.87-13.61,10.21-27.77,15.26-41.68,7.17-19.76,14.03-39.62,19.56-59.92,4.1-15.05,7.13-30.33,10-45.64,1.08-5.79,2.7-11.51,2.39-17.49-.02-.47.01-.95-.02-1.42-.03-.46,0-1.09-.57-1.15-.79-.09-.72.64-.81,1.16-.79,4.65-1.48,9.32-2.39,13.95-3.05,15.5-7.38,30.6-14.58,44.76-.46.9-.94,1.79-1.86,2.57.69-3.36,1.32-6.74,2.09-10.09,3.17-13.8,6.75-27.51,9.35-41.44,2.46-13.14,4.62-26.32,6.02-39.62,1.27-11.97,1.93-23.96,2.41-35.99.6-15.04.31-30.08.26-45.12-.03-10.23-.39-20.46-.91-30.67-.84-16.56-1.84-33.13-3.81-49.6-1.5-12.57-3.41-25.09-6.31-37.44-.05-.21,0-.45.21-.77,7.52,12.31,12.61,25.7,16.9,39.44.24-.06.48-.12.72-.19-1.8-9.74-3.6-19.49-5.41-29.23l.62-.15c1.87,3.24,3.05,6.8,4.52,10.22,2.12,4.91,4.07,9.9,6.13,14.84.21.51.15,1.51,1.05,1.25.76-.22.49-1.05.35-1.65-1.24-5.61-2.44-11.23-3.74-16.82-3.65-15.72-7.09-31.48-11.04-47.12-3.16-12.5-7.63-24.5-13.61-35.91-3.13-5.97-4.64-12.54-7.17-18.73-6.17-15.06-14.02-29.24-22.43-43.11-12.93-21.34-25.96-42.62-38.95-63.94-.36-.58-.92-1.09-.79-2.09,2.14.82,3.63,2.44,5.27,3.77,11.06,8.97,20.45,19.55,29.42,30.54,16,19.6,30.24,40.46,44.29,61.46.74,1.1,1.66,2.08,2.53,3.1.78.91,1.27.69,1.55-.41.3-1.18.22-2.33-.08-3.5-2.13-8.16-5.09-16.06-8.04-23.94-6.63-17.73-14.58-34.88-23.41-51.59-14.44-27.32-30.78-53.47-49.19-78.32-14.58-19.67-31.15-37.54-48.83-54.39-8.77-8.36-18.18-16-27.39-23.87-5.2-4.44-10.36-8.94-15.5-13.46-1.35-1.18-2.77-2.2-4.47-2.87,14.54,13.53,27.76,28.24,40.43,43.46,12.61,15.16,24.61,30.8,36.2,46.78-8.7-7.81-16.14-17.08-26.86-22.57,10.32,11.82,20.87,23.42,29.35,36.73-.79.21-1.02-.42-1.36-.76-13.31-13.81-28.27-25.73-43.11-37.77-13.45-10.9-27.33-21.24-41.58-31.07-15.49-10.69-31.41-20.71-47.78-29.99-15.62-8.85-31.71-16.8-47.78-24.81-24.25-12.08-49.53-21.38-75.73-28.21-5.61-1.46-11.16-3.14-16.96-4.78,1.27-1.02,2.48-.84,3.63-.86,14.82-.31,29.29,2.33,43.61,5.71,22.23,5.24,44.11,11.69,65.31,20.26,8.17,3.3,16.22,6.9,24.32,10.35.58.25,1.16.53,1.77.64,1.07.19,2.38,1.55,3.15.18.61-1.09-.74-2.1-1.51-2.92-3.62-3.85-7.8-7.11-11.96-10.32-11.34-8.76-23.04-17.01-35.39-24.32-9.83-5.82-19.98-11.01-30.59-15.28-.92-.37-1.83-.77-3.1-1.32,1.18-.67,2.05-.44,2.85-.49,15.05-.86,29.58,1.98,43.95,6.12,12.4,3.58,24.72,7.41,36.81,11.97,2.21.83,4.48,1.49,6.82,1.87.9.15,2.02.79,2.56-.3.54-1.07-.7-1.61-1.3-2.25-2.6-2.72-6.03-4.28-9.18-6.17-13.55-8.15-26.71-16.97-40.83-24.17C39.41,10.58,27.81,5.32,15.87.81c-.58-.22-1.14-.49-1.72-.74.55-.02,1.1-.07,1.65-.07C63.13,0,110.47,0,157.8,0c.63,0,1.25.05,1.88.07,3.4,1.02,4.81,4.19,6.81,6.61,9.81,11.9,19.16,24.15,28.07,36.74,9.28,13.1,18.08,26.52,26.54,40.16,6.76,10.9,13.39,21.88,19.67,33.07,5.04,8.99,9.93,18.06,14.73,27.18,4.14,7.87,8.15,15.81,12.45,23.6,1.21,2.19,2.09,4.54,3.02,6.86-5.68-14-10.36-28.38-15.77-42.48-4.56-11.91-9.31-23.73-14.55-35.36-6.73-14.93-14.03-29.58-21.19-44.31-1.44-2.97-2.83-5.97-4.25-8.95-.49-1.04-1.35-2.27-.07-3.18,1.17-.83,2.23.14,3.16.86,4.23,3.32,7.94,7.19,11.53,11.15,3.53,3.9,7.11,7.76,10.56,11.75,4.79,5.53,9.5,11.12,14.18,16.73,11.65,13.95,22.84,28.26,33.78,42.76,10.14,13.43,19.82,27.21,29.41,41.05,8.24,11.9,16.42,23.85,24.75,35.69.99,1.41,1.68,2.96,2.47,4.47-3.8-7.53-6.2-15.65-9.67-23.32-3.63-8.03-6.97-16.18-10.77-24.14-3.22-6.75-6.5-13.47-9.87-20.14-9.73-19.25-20.45-37.95-31.81-56.29-7-11.31-14.11-22.55-21.59-33.55-8.63-12.69-17.53-25.18-26.95-37.3-1.93-2.48-3.84-4.98-5.7-7.51-.48-.66-.94-1.29-.42-2.13,10.82,0,21.64,0,32.46.01,2.76,1.21,3.72,3.98,5.16,6.24,9.06,14.23,16.86,29.17,24.11,44.39,2.72,5.7,5.61,11.37,7.1,17.58-3.5-13.93-8.16-27.46-13.68-40.7-.15-.36-.25-.75-.38-1.12-.31-.87-.42-1.79.43-2.35,1-.66,1.84-.02,2.45.73,2.03,2.51,3.85,5.18,5.74,7.79,13.16,18.17,26.2,36.42,38.68,55.07,9.46,14.13,18.77,28.35,27.56,42.91,8.79,14.55,17.33,29.26,25.69,44.06,5.73,10.14,11.27,20.39,16.64,30.73,4.14,7.97,8.28,15.93,12.21,24.01,7.82,16.07,15.3,32.3,22.18,48.8,2.91,6.99,5.12,14.23,5.52,21.89.03.63.22,1.23.45,1.82-.83-6.46-2.04-12.86-3.15-19.27-1.91-11.01-3.5-22.07-6.11-32.95-.33-1.38-.84-2.71-1.12-4.1-.24-1.19-.61-2.62.8-3.07,1.48-.47,1.94.99,2.32,2.09,1.35,3.86,2.77,7.7,4.08,11.58,3.13,9.23,6.8,18.28,9.3,27.72.24.9.16,1.9.74,2.71-2.06-6.51-3.4-13.2-4.77-19.88-4.65-22.67-9.03-45.4-14.13-67.98-.27-1.21-1.08-2.63.57-3.59Z"/>
      <path class="cls-6" d="M429.03,195.19c.56,4.86,1.92,9.55,2.95,14.31,5.7,26.38,10.8,52.89,16.23,79.32.04.21-.03.44-.1,1.36-5.69-16.1-11.16-31.57-16.67-47.16-1,.82-.39,1.56-.22,2.2,4.84,18.38,6.97,37.26,10.43,55.89.06.31.07.63.06.94-.03,1.15.25,2.77-1.32,2.82-1.31.04-1.03-1.55-1.09-2.47-.93-15.35-7.85-28.74-13.91-42.38-18.13-40.78-39.48-79.87-62.2-118.24-20.69-34.92-43.63-68.33-67.32-101.25-3.45-4.79-6.93-9.56-10.4-14.33-.45-.62-.79-1.37-2.19-1.8,6.21,15.39,12.32,30.44,14.48,46.7-2.44-5.53-4.82-11.08-7.34-16.57-8.41-18.35-17.99-36.07-28.98-53.01-.3-.46-.53-.96-.79-1.44.55-.03,1.1-.08,1.65-.08C302.68,0,343.05,0,383.43,0c.55,0,1.1.05,1.65.07.91.4,1.51,1.13,1.99,1.95,4.26,7.16,8.64,14.26,12.29,21.77,6.8,14.02,13.05,28.27,18.33,42.94,4.85,13.46,9.32,27.03,13.37,40.74,3.94,13.35,7.36,26.85,10.63,40.38.07.3.03.63.13.93.27.83.27,1.68-.61,2.03-1.02.4-1.57-.39-2-1.19-.88-1.67-1.74-3.36-2.53-5.07-7.33-15.96-15.13-31.67-23.7-47.01-5.19-9.28-10.72-18.34-16.59-27.21-1.4-2.12-2.45-4.44-3.17-5.69,2.97,4.56,4.93,10.73,6.85,16.89,2.44,7.81,4.71,15.68,6.94,23.56.43,1.53.76,3.01.2,4.56,3.33,12.43,6.79,24.83,9.95,37.3,3.9,15.37,7.55,30.79,11.31,46.19.17.69.38,1.36.57,2.04Z"/>
      <path class="cls-3" d="M228.19.07c10.82,13.43,20.96,27.36,30.73,41.56,13.98,20.31,27.1,41.17,39.37,62.54,13.69,23.84,26.07,48.35,36.82,73.68,4.06,9.56,7.88,19.2,11.66,29.63-2.5-2.53-3.91-5.03-5.53-7.35-13.62-19.48-27.08-39.08-40.81-58.47-11.78-16.63-24.3-32.71-37.07-48.59-7.15-8.89-14.34-17.74-21.85-26.32-7.51-8.58-14.84-17.35-23.6-24.75-.71-.6-1.5-1.1-2.47-1.49,10.3,22.46,21.74,44.33,31.32,67.07,9.58,22.76,17.53,46.13,26.08,69.37-1.37.23-1.48-.66-1.77-1.2-3.78-7.08-7.61-14.14-11.29-21.28-14.1-27.38-29.2-54.18-45.82-80.13-9.81-15.32-20.08-30.31-30.96-44.89-7.48-10.03-15.4-19.7-23.33-29.37,12.48-.03,24.95-.07,37.43-.07,10.36,0,20.72.04,31.08.06Z"/>
      <path class="cls-2" d="M407.2,109.66c-1.72-5.88-3.42-11.77-5.16-17.64-3.12-10.48-6.23-20.97-11.32-30.98,3.13,2.19,18.27,26.33,27.4,43.4,8.04,15.04,15.47,30.38,22.78,45.8-11.97-52.53-28.14-103.48-55.82-150.15.46,0,.92,0,1.37,0,1.47.55,2.4,1.67,3.25,2.95,4.08,6.15,8.08,12.36,12.32,18.4.56.8,1.31,1.66.39,2.72-.17,2.6,1.5,4.57,2.41,6.77,7.09,17.26,13.7,34.69,19.61,52.39,6.3,18.9,11.81,38.03,16.51,57.38,4.28,17.58,7.9,35.31,11.07,53.12.07.37.04.76-.39,1.3-1.1-2.53-2.21-5.07-3.31-7.6-10.41-24-22.31-47.24-35.76-69.68-1.67-2.79-2.93-5.86-5.34-8.17Z"/>
      <path class="cls-9" d="M402.4,24.14c-4.69-7.03-9.39-14.06-14.07-21.09-.65-.98-1.26-1.98-1.88-2.98,3.65,0,7.3,0,10.95,0,4.87,10.55,9.76,21.09,14.28,31.79,1.58,3.73,3.01,7.51,3.64,11.62-4.31-6.45-8.61-12.9-12.91-19.35Z"/>
      <path class="cls-2" d="M447.29,636.29c.94-5.89,2.43-11.69,3.07-17.64.06-.52.36-1.07-.48-1.92-7.44,23.41-17.2,45.54-29.97,66.33,1.74-4.25,3.49-8.49,5.21-12.74,8.29-20.4,15.7-41.09,20.13-62.74,1.72-8.4,3.2-16.83,4.09-25.36.04-.38.2-.75.31-1.12,1.02-.29,1.12-1.27,1.42-2.03,9.59-24.29,16.96-49.24,21.83-74.91.37-1.93.84-3.84,1.28-5.76.09-.37.23-.73.42-1.34,1.16,1.09,1.17,2.31,1.12,3.51-.35,8.72-.75,17.43-1.93,26.09-2.35,17.23-5.48,34.31-9.36,51.26-4.28,18.66-9.56,37.03-15.74,55.14-.38,1.1-.55,2.31-1.41,3.21Z"/>
      <path class="cls-3" d="M160.49,616.79c-21.74-44.64-52.56-81.86-91.55-112.52,15.18,5.48,26.87,15.87,38.38,26.55-10.88-15.39-24.41-28.23-38.81-40.26,18.66,11.08,34.78,25.14,49.18,41.28-11.93-16.89-26.7-31.14-41.64-45.19,40.57,29.42,70.83,67,89.64,113.59-5.83-9.3-11.65-18.64-18.2-27.5-6.54-8.84-13.55-17.28-21.45-24.99,15.11,21.21,27.11,43.95,34.43,69.05Z"/>
      <path class="cls-3" d="M338.45,667.32c1.14-2.81,2.27-5.62,3.43-8.43,10.7-25.9,18.58-52.68,24.73-79.99,3.3-14.66,6.01-29.44,8.35-44.28,1.81-11.49,3.27-23.03,4.46-34.6,1.23-12.04,2.27-24.1,2.87-36.19.39-7.78.72-15.56.93-23.34.18-6.77.46-13.53.37-20.3-.19-14.08-.5-28.17-1.46-42.22-1.7-24.91-5.03-49.6-11.25-73.83-.6-2.34-1.24-4.68-1.98-7.47,1.34.81,1.54,1.85,1.98,2.67,13.53,24.8,22.35,51.33,28.76,78.72,4.22,18.01,7.67,36.17,9.85,54.55,1.36,11.47,2.22,22.99,2.6,34.56.23,7.01.46,14.02.27,21.01-.34,12.02-.76,24.05-2.19,36.01-.55,4.59-.91,9.21-1.36,13.77,1.92-2.63,7.38-22.88,10.8-39.41,2.77-13.39,4.97-26.87,7.37-40.34,0,5.63.17,11.28-.05,16.9-.22,5.73-.75,11.45-1.29,17.16-.54,5.71-1.15,11.42-1.93,17.1-.77,5.66-1.79,11.29-2.5,17,4.2-9.3,7.01-19.06,9.46-28.91,2.44-9.81,4.56-19.7,6.91-29.96,1.31,6.44.64,12.48.21,18.46-.7,9.79-2,19.53-3.53,29.25-2.28,14.54-4.99,28.99-8.18,43.35-4.67,20.99-9.89,41.84-17.23,62.08-9.4,25.91-21.29,50.63-36.12,73.91-8.89,13.97-18.83,27.16-29.43,39.85-5.04,6.04-10.42,11.78-15.66,17.65-.35.39-.78.72-1.51.84,1.84-3.24,3.68-6.47,5.52-9.7,8.94-15.69,16.74-31.93,23.89-48.49,9.84-22.78,18.36-46.07,26.06-69.65,5.5-16.85,10.24-33.92,13.09-51.43,1.18-7.27,1.89-14.65.41-22.1-6.25,44.79-28.24,81.87-56.66,115.83Z"/>
      <path class="cls-2" d="M418.2,208.64c-12.98-26.97-27.24-52.79-42.55-78.03-15.24-25.12-31.41-49.63-47.76-74.04,21.93,28.69,42.85,58.06,61.56,89.01-13.98-37.04-29.01-73.58-47.54-108.6,1.69,1.29,2.77,3.06,3.93,4.75,11.17,16.27,20.19,33.77,28.83,51.45,13.1,26.82,24.95,54.18,34.79,82.38,3.53,10.1,6.82,20.29,8.84,30.83.12.61.41,1.2-.1,2.24Z"/>
      <path class="cls-5" d="M430.75,620.81c1.15-.02,1.22-1.07,1.59-1.76,1.72-3.21,3.4-6.44,5.09-9.66-2.66,11.32-6.29,22.34-10.47,33.18-.11.28-.35.51-.77,1.12,1.28-7.95,2.9-15.41,4.57-22.87Z"/>
    </g>
  </g>
</svg>