<?xml version="1.0" encoding="UTF-8"?>
<svg id="Layer_1" xmlns="http://www.w3.org/2000/svg" width="430" height="2250" xmlns:xlink="http://www.w3.org/1999/xlink" viewBox="0 0 430 2250">
  <defs>
    <style>
      .cls-1 {
        fill: #0015ad;
      }

      .cls-2 {
        fill: none;
      }

      .cls-3 {
        fill: #2a43a2;
      }

      .cls-4 {
        fill: #002e72;
      }

      .cls-5 {
        clip-path: url(#clippath);
      }
    </style>
    <clipPath id="clippath">
      <rect class="cls-2" y="0" width="430" height="2250"/>
    </clipPath>
  </defs>
  <rect class="cls-4" y="0" width="430" height="2250"/>
  <g>
    <g>
      <path class="cls-3" d="M40.74,651.86c.49-1.17,1.11-2.31,1.46-3.52,7.26-24.69,12.56-49.79,16.07-75.28,2.03-14.74,4.24-29.46,3.94-44.43-.52-25.62-2.14-51.15-4.92-76.62-3.15-28.85-7.3-57.54-12.74-86.04-8.29-43.45-19.31-86.17-34.39-127.79-1.45-4.01-2.66-8.1-3.94-12.17-.21-.67-.22-1.4.26-2.44.98,1.08,2.05,2.09,2.94,3.24,17.9,23.25,32.28,48.62,45.07,74.95,23.75,48.88,40.58,100.1,50.58,153.46,3.89,20.75,6.34,41.78,8.98,62.75,3.14,24.98,3.94,50.1,3.25,75.26-.99,36.52-3.19,72.94-10.13,108.92-9.7,50.28-25.62,98.27-52.84,142.01-14.17,22.78-31.64,42.82-51.61,60.71-.62.55-1.32,1.02-2.3,1.78V367.97c.64,1.31,1.07,2.16,1.46,3.02,18.78,42.34,32.97,86.17,42.34,131.54,2.53,12.24,2.7,24.7,2.6,37.11-.16,19.81-.21,39.65-1.35,59.41-.95,16.64-3.37,33.19-5.15,49.78-.1.93-.21,1.86-.32,2.79.24.08.48.16.72.24Z"/>
      <path class="cls-3" d="M.36,955.76c-.06-.81-.15-1.45-.15-2.1,0-11.86-.04-23.72.06-35.58,0-1,.7-2.43,1.51-2.93,23.72-14.5,41.87-34.65,57.4-57.26,38.83-56.51,66.97-118.08,86.29-183.79,11.57-39.36,20.53-79.26,25.95-119.93,3.27-24.55,5.22-49.22,5.85-73.99.42-16.5,1.24-33,1.01-49.49-.22-15.44-1.58-30.87-2.45-46.3-.09-1.66-.2-3.32-.3-4.98l.72-.1c1.26,6.96,2.92,13.87,3.71,20.88,3.61,31.76,6.85,63.54,7.64,95.53.93,37.4-.45,74.73-2.55,112.05-.61,10.79-1.73,21.55-2.56,32.33-.15,1.95-.02,3.91.52,6.1.47-.81,1.11-1.56,1.39-2.43,8.86-27.5,18.81-54.67,24.48-83.13,5.15-25.82,8.35-51.83,9.45-78.13.91-21.54.73-43.05-1.31-64.53-2.41-25.41-6.18-50.62-10.98-75.69-6.78-35.43-16.28-70.14-27.32-104.46-2.26-7.02-3.82-14.27-5.68-21.42-.14-.53-.11-1.1.49-2.09.98,1.24,2.07,2.41,2.91,3.73,13.32,20.92,22.76,43.68,31.39,66.79,14.31,38.31,24.32,77.69,30.51,118.16,6.17,40.38,8.47,80.92,7.05,121.67-1.64,46.85-7.32,93.17-19.73,138.51-9.68,35.37-23.73,68.98-40.98,101.27-19.83,37.12-43.4,71.67-71.39,103.15-30.18,33.95-64.67,62.63-104.4,84.85-2.05,1.15-4.33,1.9-6.52,2.79-.59.24-1.25.32-2.01.51Z"/>
    </g>
    <g>
      <path class="cls-1" d="M148.52,222.7c-1.07-1.96-2.21-3.89-3.21-5.89-13.26-26.57-26.98-52.88-43.55-77.58-2.8-4.17-5.72-8.27-8.68-12.33-1.03-1.41-2.36-2.6-3.55-3.9-.24.15-.48.29-.72.44.4,1.06.72,2.15,1.21,3.17,9.59,20.2,19.9,40.1,28.67,60.66,16.95,39.73,28.29,81.21,35.81,123.72,1.99,11.28,3.57,22.63,5.09,33.97-5.31-19.65-10.15-39.44-16.06-58.91-5.95-19.57-12.39-39.04-19.67-58.15-7.28-19.11-15.29-38-24.07-56.46-8.78-18.47-18.3-36.66-28.64-54.3-10.35-17.65-21.59-34.83-33.41-51.53C25.93,48.95,12.94,33.14,0,16.33c2.08.93,3.7,1.49,5.18,2.33,9.59,5.42,17.68,12.71,25.26,20.61,13.52,14.08,24.65,30.04,35.95,45.87,6.23,8.72,12.32,17.54,18.52,26.28.72,1.01,1.76,1.78,3.02,2.38-13.56-33.82-34.6-63.24-54.66-93.23.33-.29.67-.58,1-.87,1.51,1.25,3.16,2.36,4.51,3.76,12.78,13.16,24.23,27.43,34.73,42.46,25.49,36.52,44.88,76.23,61.54,117.38,4.41,10.89,8.44,21.94,12.58,32.93.75,2,1.21,4.11,1.8,6.16-.3.11-.6.21-.9.32Z"/>
      <path class="cls-1" d="M1.01,76.59c69.46,102.97,109.39,217.25,130.02,338.91l-1.06.37c-1.52-5.73-3.12-11.44-4.56-17.19-12.99-51.89-30.47-102.22-52.22-151.08C53.09,202.46,29.32,159.35,1.79,118.31c-.93-1.39-1.53-3.28-1.55-4.94-.13-11.38-.07-22.77-.06-34.15,0-.81.08-1.63.12-2.44.24-.06.48-.13.71-.19Z"/>
    </g>
  </g>
  <g class="cls-5">
    <path class="cls-3" d="M292.18,2249.89c-.99.04-1.99.1-2.98.1-80.89,0-161.79,0-242.68,0-.99,0-1.99-.08-2.98-.12,4.11-3.04,8.94-4.74,13.42-7.08,15.12-7.9,29.62-16.76,43.44-26.73,19.44-14.03,37.71-29.54,56.4-44.52,20.15-16.15,40.05-32.63,59.87-49.19,11.35-9.49,22.7-18.98,33.47-29.16,12.56-11.87,24.58-24.26,36.84-36.42,1.63-1.62,2.78-3.71,4.29-5.46.68-.8,1.22-2.16,2.92-1.11,1.42.88,1.55,1.78,1.28,3.26-1.45,8.01-5.06,14.95-9.92,21.42-11.21,14.92-22.24,29.97-33.36,44.95-1.38,1.86-2.9,3.62-4.4,5.38-.68.8-.84,1.47-.05,2.3.76.79,1.32.28,2.03-.09,3.91-2.08,7.66-4.29,10.8-7.57,9.34-9.75,19.06-19.14,28.22-29.05,17.88-19.34,34.65-39.63,47.69-62.62,9.55-16.84,17.99-34.29,26.66-51.6,9.31-18.6,18.75-37.14,28.14-55.7.54-1.07,1.15-2.11,2.07-3.79,1.12,4.54.03,8.33-.58,12.08-1.83,11.24-6.67,21.47-10.92,31.9-1.65,4.06-3.15,8.19-4.12,12.56,1.78-3.31,3.68-6.56,5.31-9.93,11.01-22.82,20.74-46.17,28.33-70.36,7.04-22.44,12.66-45.22,16.46-68.46,2.17-13.27,3.8-26.6,5.11-39.96.8-8.12,1.32-16.3,1.36-24.45.09-15.93,1.29-31.84.69-47.78-.57-15.22-.88-30.47-2.08-45.65-1.98-24.96-5.61-49.7-11.78-74.02-3.54-13.94-8.09-27.53-13.03-41.01-.06-.15-.35-.22-.94-.57.75,4.79,1.43,9.28,2.14,13.77,2.25,14.03,4.52,28.05,6.57,42.11,1.99,13.64,3.66,27.33,4.36,41.06.65,12.75.84,25.56-.34,38.35-.57,6.22-1.33,12.38-2.29,18.63-1.27-.51-1.11-1.37-1.12-2.1-.12-4.53-.43-9.05-.59-13.56-1.13-32.38-4.5-64.43-12.72-95.86-3.77-14.43-8.27-28.63-13.48-42.62-7.49-20.13-16.48-39.58-26.43-58.59-12.37-23.64-26.54-46.16-43.04-67.16-9.64-12.27-20.22-23.75-31.69-34.33-4.52-4.17-8.88-8.64-14.32-11.73-1.02-.58-2.06-1.62-3.3-.6-1.28,1.05-.33,2.28.04,3.35,3.07,8.89,8.58,16.45,13.66,24.19,10.43,15.89,21.49,31.37,29.9,48.51,9.65,19.66,16.58,40.19,20.18,61.82,1.17,7.06,2.57,14.09,3.86,21.13.02.11.06.22.06.33-.09,1.36.79,3.37-.93,3.81-1.49.38-1.74-1.69-2.19-2.81-9.03-22.94-18.28-45.78-29.93-67.57-12.11-22.66-26.01-44.14-41.91-64.34-14.53-18.46-30.38-35.71-47.41-51.84-9.45-8.95-19.39-17.37-29.68-25.41-19.76-15.44-40.85-28.71-63.21-39.98-23.84-12.02-48.85-20.55-75.31-24.47-13.68-2.02-27.51-2.87-41.32-2.05-29.95,1.78-58.54,9.24-86.06,21.1-15.24,6.57-30.15,13.77-44.61,21.94-1.7.96-3.47,1.78-5.46,2.27,4.2-4.3,8.26-8.75,12.63-12.86,6.19-5.83,12.66-11.36,18.93-17.12,20.39-18.74,41.98-35.84,66.13-49.59,19.3-10.99,39.74-19.35,60.57-26.84,24.68-8.87,49.97-15.55,75.7-20.5,16.12-3.1,32.38-5.42,48.66-7.63,14.41-1.96,28.84-3.78,43.32-5.06,11.42-1.01,22.88-1.71,34.35-2.29,20.89-1.06,41.79-1.06,62.69-1.35,5.17-.07,10.37-.44,15.56-.49,7.86-.07,15.57,1.52,23.35,2.3,4.45.45,8.98.62,13.33,2.26-7.94.69-15.89,1.34-23.82,2.08-8.45.79-16.88,1.71-25.33,2.49-8.23.76-16.48,1.4-24.71,2.15-8.78.8-17.55,1.66-26.33,2.49-3.07.29-6.15.58-9.23.81-1.3.09-2.55.21-2.61,1.85-.06,1.73,1.36,1.36,2.39,1.51,22.96,3.23,45.64,7.8,68.02,13.83,23.62,6.36,46.64,14.45,69.14,24.05,29.18,12.45,56.9,27.6,83.26,45.21,14.69,9.81,28.8,20.44,42.53,31.59,17.28,14.03,33.55,29.11,49.26,44.83,1.01,1.01,1.89,2.15,2.83,3.23,0,9.5-.01,19-.02,28.5-1.6,1.13-2.72-.17-3.81-.9-11.12-7.46-22.35-14.77-33.96-21.45-13.24-7.61-26.45-15.29-41.04-20.17-1.02-.34-1.99-1.01-3.45-.59,1.68,2.53,4.03,4.07,6.45,5.49,14.52,8.54,28.53,17.82,41.56,28.53,11.21,9.21,21.84,19.05,31.95,29.45,1.21,1.24,1.99,2.62,2.33,4.29.02,18.74.04,37.48.05,56.22,0,.55-.13,1.09-.2,1.64-1.89.03-2.61-1.51-3.51-2.7-11.5-15.34-23.66-30.14-36.59-44.28-11.8-12.9-23.77-25.61-36.52-37.64-16.36-15.43-33.16-30.32-50.61-44.5-17.12-13.9-34.87-26.94-52.95-39.56-9.44-6.59-19.21-12.71-28.56-19.44-1.69-1.22-4.13-2.55-3-4.88,1.03-2.12,3.42-.6,5.11-.19,19.37,4.72,38.85,8.98,57.93,14.81,10.06,3.07,20,6.55,30.47,8.11,1.65.25,3.29.44,4.96.4.65-.01,1.43.06,1.75-.66.39-.89-.3-1.46-.88-1.95-3.28-2.82-6.77-5.38-10.54-7.5-18.87-10.6-38.52-19.51-58.9-26.78-31.87-11.37-64.51-20.01-97.62-26.87-18.55-3.84-37.28-6.54-56.19-8.02-5.53-.43-11-.56-16.57,0,2.28,1.79,4.96,2.66,7.5,3.75,34.64,14.86,68.44,31.39,100.85,50.67,20.67,12.3,40.62,25.69,59.66,40.4,1.4,1.08,2.88,2.08,3.97,3.51.4.52.77,1.19.24,1.8-.38.44-1,.41-1.56.3-.99-.19-1.88-.65-2.77-1.09-38.23-18.68-78.55-31.24-119.89-40.76-2.27-.52-4.51-1.16-6.79-1.6-1.01-.19-2.37-.91-2.93.49-.52,1.3.82,1.92,1.66,2.56,3,2.28,6.27,4.16,9.55,6.02,29.83,16.99,60.04,33.3,89.37,51.15,28.92,17.6,56.13,37.55,81.98,59.38,13.37,11.28,26.35,22.98,39.12,34.95,14.06,13.19,27.4,27.09,41.08,40.65,3.45,3.42,6.53,7.22,10.03,10.62.55.54,1.08,1.12,1.4,1.84.22.5.5,1.05.04,1.54-.43.46-1.02.39-1.54.2-1.49-.54-2.64-1.61-3.85-2.57-19.16-15.41-38.63-30.42-59.22-43.91-10.02-6.57-20.35-12.58-31.45-17.17-1.02-.42-2.03-.89-3.11-1.15-.42-.1-.87-.21-1.44.23,0,1.54,1.32,2.33,2.27,3.27,9.5,9.46,19.84,17.99,29.84,26.89,12.07,10.74,24.22,21.39,36.13,32.32,7.92,7.27,15.46,14.91,23.03,22.52,17.06,17.13,32.36,35.78,47.27,54.78.9,1.15,1.53,2.43,1.88,3.84.05,1.22.14,2.43.14,3.65,0,127.18,0,254.36,0,381.54,0,1.11-.05,2.21-.08,3.32-.88,6.37-4.06,11.91-6.61,17.64-7.95,17.93-17.55,35-27.53,51.88-14.44,24.42-30.28,47.9-47.32,70.56-11.84,15.75-24.53,30.81-37.67,45.5-10.85,12.14-22.19,23.81-33.94,35.05-19.05,18.22-39.19,35.17-60.42,50.84-12.92,9.54-26.11,18.67-39.74,27.16-1.82,1.13-3.7,1.94-5.81,2.24Z"/>
  </g>
</svg>