<?xml version="1.0" encoding="UTF-8"?>
<svg id="Layer_1" xmlns="http://www.w3.org/2000/svg" width="430" height="1055" xmlns:xlink="http://www.w3.org/1999/xlink" viewBox="0 0 430 1055">
  <defs>
    <style>
      .cls-1 {
        fill: none;
      }

      .cls-2 {
        fill: #006be3;
      }

      .cls-3 {
        fill: #194dd6;
      }

      .cls-4 {
        fill: #fff200;
      }

      .cls-5 {
        clip-path: url(#clippath);
      }
    </style>
    <clipPath id="clippath">
      <rect class="cls-1" y="0" width="430" height="1055"/>
    </clipPath>
  </defs>
  <rect class="cls-2" y="0" width="430" height="1055"/>
  <g class="cls-5">
    <g>
      <g id="_x33_Xw7vM.tif">
        <g>
          <path class="cls-3" d="M-21.18,877.6c.26.05.58.05.75.18.45.34.83.73,1.23,1.11,16.99,16.27,35.11,31.71,54.41,46.26,17.94,13.53,36.7,26.31,56.86,37.73,10.76,6.1,21.73,11.95,33.06,17.37,2.89,1.38,5.81,2.72,8.78,3.98,12.27,5.19,24.64,10.21,37.51,14.41,2.54.83,5.1,1.64,7.65,2.45.63.2,1.25.51,1.96.23-.04.14-.19.32.15.35.02,0,.08-.07.08-.08-.08-.08-.18-.16-.27-.23-7.72-3.03-15.29-6.29-22.57-9.94-5.66-2.84-10.87-6.17-16-9.57-2.33-1.54-4.58-3.16-6.85-4.75-.33-.23-.59-.52-.9-.8.49-.24.77-.02,1.06.1,1.89.79,3.77,1.59,5.65,2.39,16.32,6.99,33.16,13.08,50.4,18.47,10.9,3.41,22.13,6.02,33.41,8.46,7.83,1.7,15.7,3.29,23.7,4.45,3.86.56,7.74,1.01,11.62,1.48,2.38.28,4.77.51,7.17.73,2.19.2,4.38.37,6.58.51,2.33.14,4.68.2,7.01.34,2.84.16,5.65-.09,8.45-.34,4.79-.43,9.56-.98,14.25-1.87,3.01-.57,6.01-1.18,8.99-1.84,3.33-.74,6.47-1.86,9.42-3.3,4.28-2.09,8.59-4.15,12.53-6.66.54-.34,1.09-.68,1.59-1.05,3.96-2.97,7.72-6.09,11.13-9.47.47-.46.97-.91,1.09-1.52-.4-.3-.67-.05-.94.07-1.9.88-3.77,1.81-5.7,2.65-10.33,4.5-21.32,7.61-32.83,9.56-2.89.49-5.83.81-8.75,1.2-.93.12-1.87.18-3.02.04.78-.54,1.59-.68,2.33-.92,7.18-2.33,13.83-5.39,19.9-9.25,6.27-3.99,11.8-8.55,16.65-13.64,8.13-8.51,14.09-17.88,17.41-28.26.57-1.79.81-3.66,1.15-5.49.44-2.33.44-4.69.47-7.04.1-6.8-1.3-13.41-4.05-19.83-.73-1.71-1.6-3.38-2.5-5.04-1.14-2.11-2.35-4.2-3.57-6.28-1.6-2.73-3.4-5.38-5.46-7.91-1.27-1.56-2.48-3.16-3.79-4.69-5.05-5.92-11.07-11.17-17.8-15.91-2.22-1.56-4.44-3.12-6.75-4.59-1.82-1.17-3.76-2.21-5.66-3.3-.32-.19-.7-.31-1.13-.5.29.71.3.71.6.94,3.71,2.87,7.14,5.94,10.39,9.13,1.47,1.44,2.89,2.93,4.31,4.41.44.45.79.96.95,1.58-.33-.25-.68-.49-1-.75-13.36-10.5-28.43-19.18-44.73-26.54-16.09-7.26-32.87-13.27-50.49-17.77-3.01-.77-6.06-1.44-9.11-2.12-.86-.19-1.75-.27-2.63-.42-.46-.08-.92-.19-1.36-.47,1.99-.04,3.98-.07,5.98-.12,5.38-.13,10.72.24,16.04.88,4.56.55,9.11,1.14,13.61,1.92,15.21,2.63,30.15,6.02,44.8,10.2,13.49,3.85,26.67,8.25,39.38,13.52,11.25,4.66,22.09,9.85,32.28,15.88,4.26,2.52,8.42,5.12,12.11,8.18.47.39.94.78,1.41,1.18-.34.34-.49.02-.68-.04-.18-.07-.32-.2-.48-.3-3.91-2.42-7.75-4.92-11.75-7.24-7.12-4.14-14.66-7.76-22.41-11.11-.59-.25-1.13-.66-1.88-.57-.2-.41-.55-.38-.96-.24-.02-.12-.04-.23-.06-.35-.06,0-.12.01-.18.02.1.1.2.19.3.29.31.09.61.17.92.26.04.48.58.56.96.76,5.52,2.9,10.8,6.06,15.9,9.4.36.23.69.49,1.21.87-.89-.05-1.29-.46-1.78-.69-.53-.25-1.03-.55-1.54-.82-.51-.27-1.03-.55-1.55-.82-.52-.27-1.04-.54-1.56-.8-.58-.29-1.17-.58-1.75-.87-.53-.26-1.05-.52-1.58-.77-.53-.26-1.06-.51-1.59-.76-.53-.25-1.06-.5-1.6-.75s-1.08-.49-1.62-.73c-.54-.24-1.09-.47-1.64-.7-.55-.23-1.09-.46-1.65-.68-.55-.22-1.11-.44-1.67-.65-.56-.22-1.11-.43-1.67-.65-.56-.21-1.12-.42-1.68-.63-.63-.23-1.26-.44-1.89-.66-.57-.2-1.13-.4-1.7-.59-.57-.19-1.14-.38-1.72-.56-.57-.18-1.15-.36-1.73-.53-.58-.17-1.16-.35-1.74-.51-.57-.16-1.14-.3-2-.52.67.7,1.4.84,2.04,1.09,4.63,1.82,9.16,3.78,13.58,5.91,21.73,10.48,39.93,23.98,54.77,40.35,1.93,2.13,3.58,4.41,5.35,6.63.37.46.69.95,1.07,1.4.07.08.36.04.54.05,0,.11,0,.23.01.34-.02-.1-.04-.21-.05-.31-1.63-3.85-3.7-7.54-6.05-11.14-3.82-5.86-8.35-11.33-13.95-16.22-.13-.12-.25-.25-.38-.38.3-.3.47,0,.64.08.23.11.42.27.63.42,5.81,3.99,11.06,8.38,15.67,13.26,2.4,2.54,4.7,5.13,6.74,7.87.24.33.52.63.98.9-.08-.27-.13-.55-.25-.8-1.33-2.76-2.82-5.46-4.54-8.09-.28-.42-.53-.86-.98-1.6,1,.47,1.39.96,1.85,1.38,4.62,4.29,8.86,8.81,12.87,13.46,10.44,12.12,18.96,25.02,25.16,38.86,3.84,8.57,6.74,17.34,8.64,26.32.79,3.73,1.37,7.47,1.86,11.23.14,1.09.09,2.19.18,3.28.05.59.23,1.17.36,1.76v18.4c-.12.58-.34,1.16-.35,1.74-.06,2.57-.39,5.12-.83,7.67-.97,5.64-2.3,11.22-4.06,16.73-.93,2.91-2.01,5.79-3.02,8.68h-224.81c-.41-.52-1.12-.57-1.77-.73-10.15-2.43-20.06-5.42-29.97-8.39-9.53-2.85-18.92-5.99-28.13-9.45-3.67-1.38-7.38-2.69-11.05-4.06-3.18-1.19-6.33-2.41-9.49-3.63-2.85-1.1-5.66-2.27-8.29-3.68-.79-.42-1.52-.93-2.23-1.44-.21-.15-.26-.44-.49-.85.64.12,1.04.16,1.41.27,2.45.72,4.9,1.44,7.35,2.17,3.8,1.14,7.57,2.32,11.39,3.42,3.49,1,7.04,1.89,10.55,2.84,4.49,1.22,9.01,2.38,13.66,3.18,5.85,1,11.71,1.96,17.58,2.88,3.59.56,7.22.85,10.88.72.38-.01.86.1,1.04-.38-.37-.47-1.01-.71-1.64-.9-1.92-.6-3.82-1.25-5.8-1.7-8.32-1.92-16.65-3.85-25.01-5.65-10.77-2.32-21.32-5.16-31.85-8.05-10.15-2.78-20.11-5.97-29.98-9.32-9.43-3.2-18.74-6.62-27.88-10.32-16.03-6.5-31.29-14.04-46.2-22.02-9.19-4.92-18.26-10-27.09-15.33-2.85-1.72-5.69-3.45-8.34-5.38-.81-.59-1.71-1.1-2.62-1.59-2.74-1.47-5.5-2.92-8.25-4.37-.27-.14-.55-.27-.82-.4.09.42.35.71.65.97,1.26,1.09,2.54,2.16,3.78,3.26,10.87,9.63,22.4,18.73,34.69,27.21,13.65,9.42,28.17,17.91,43.41,25.64,13.84,7.02,28.19,13.26,43.39,18.22,1.97.64,3.94,1.3,5.89,1.98.4.14.98.2,1.01.71l.04.05c-.12-.05-.23-.13-.35-.16-9.01-2.03-17.83-4.47-26.5-7.29-8.73-2.84-17.34-5.87-25.59-9.52-11.13-4.92-22.05-10.12-32.82-15.52-.44-.22-.91-.4-1.37-.6,0,.36.14.59.36.75,1.17.85,2.33,1.71,3.55,2.51,15.36,10.12,31.86,18.92,49.22,26.71,7.43,3.33,15.07,6.36,22.82,9.2,1.25.46,2.43,1.01,3.63,1.55.27.12.48.34,1,.72-.75-.03-1.14,0-1.49-.08-1.38-.34-2.75-.71-4.11-1.08-10.73-2.95-21.25-6.33-31.66-9.93-11.87-4.11-23.46-8.66-34.76-13.67-21.38-9.48-41.05-20.83-59.17-33.91-.36-.26-.7-.53-1.11-.73-.19-.09-.5-.03-.76-.04,0-22.56,0-45.12,0-67.67.45-.02.78.15,1.08.4.72.58,1.46,1.16,2.19,1.74,10.46,8.26,21.36,16.12,33.04,23.27,12.5,7.65,25.56,14.63,39.29,20.82,6.16,2.78,12.49,5.3,19.13,7.3.44.13.84.34,1.27.52.1-.02.2-.03.29-.04l-.31.02c.33-.44-.15-.59-.47-.74-2.13-1.01-4.28-1.98-6.41-3-6.55-3.12-13.06-6.31-19.31-9.81-14.51-8.12-27.9-17.29-40.2-27.47-9.89-8.18-19.12-16.81-27.69-25.87-.37-.39-.74-.8-1.17-1.14-.15-.12-.49-.08-.74-.11,0-6.79,0-13.58,0-20.37ZM320.5,1036.22s-.05-.03-.05-.03c-.27.13-.53.34-.82.39-3.61.64-7.28,1.06-10.96,1.28-2.73.17-5.48.29-8.21.22-3.42-.09-6.82-.41-10.25-.62-.49-.08-.99-.21-1.47.08.51-.03,1.02-.07,1.53-.1.18.15.33.37.54.43.65.17,1.33.28,2,.39,7.93,1.27,15.93,1.8,24.03,1.39,5.78-.29,11.5-.9,17.16-1.9,7.96-1.41,15.57-3.63,22.94-6.39,12.66-4.74,23.96-10.98,33.45-19.19,5.34-4.62,9.95-9.66,13.47-15.28,4.72-7.53,7.4-15.53,8.26-23.91.13-1.24-.14-2.51-.27-3.76-.02-.2-.28-.38-.53-.71-.66,2.15-1.21,4.13-1.89,6.07-.68,1.95-1.46,3.88-2.28,5.79-.81,1.89-1.62,3.79-3.02,5.81,0-.57-.03-.85,0-1.11.29-1.9.63-3.8.89-5.7.72-5.38.27-10.72-1.01-16.01-.28-1.15-.58-2.33-1.47-3.68-.05.52-.09.72-.09.92.05,2.53-.34,5.02-.79,7.52-1.41,7.87-4.46,15.33-8.89,22.44-.3.48-.71.92-1.07,1.37l.05.04c-.21-.45.02-.85.19-1.27,2.2-5.27,3.58-10.67,4.11-16.21.32-3.33.5-6.67-.28-9.98-.04-.18.04-.45-.49-.48-.45,2.34-.87,4.7-1.38,7.04-.5,2.32-1.3,4.59-2.24,6.82-.95,2.27-1.95,4.53-3.41,6.71-.13-.14-.2-.18-.19-.21.14-.58.26-1.17.45-1.75,1.47-4.57,2.4-9.22,2.65-13.93.33-6.1-.39-12.14-2-18.1-.66-2.46-1.49-4.89-2.87-7.18-.15-.24-.39-.45-.85-.95.66,3.22,1.14,6.09,1.33,8.98.28,4.34.18,7.16-.46,8.9-.16-.6-.31-1.01-.38-1.42-1.16-7.3-3.21-14.43-6.46-21.32-1.57-3.33-3.2-6.65-5.45-9.73-3.22-4.41-6.85-8.59-10.93-12.53-.29-.28-.62-.53-1.24-1.06.19.53.23.73.34.91.49.78,1,1.56,1.49,2.34,2.82,4.52,5.1,9.21,6.47,14.15,1.67,6.03,2.02,12.13,1.37,18.28-.16,1.47-.34,2.94-.56,4.41-.31,2.06-.62,4.13-1.02,6.18-.84,4.33-2.03,8.6-3.46,12.82-3.2,9.44-8.34,18.05-16.91,25.22-2.37,1.98-4.71,3.99-7.42,5.7-1.02.65-2.02,1.32-3.05,1.96-3.13,1.97-6.36,3.84-9.78,5.47-3.13,1.49-6.37,2.79-9.79,3.85-5.85,1.8-11.8,3.3-17.93,4.35-.59.1-1.17.23-1.75.34,1.03.22,2.03.28,3.03.31,10.68.4,21.17-.48,31.39-3.03,2.42-.6,4.84-1.21,7.09-2.16h-.01c.12.22.16.43-.14.57-.59.28-1.17.57-1.78.82-6.36,2.55-13.05,4.36-19.95,5.72-4.48.88-9.04,1.43-13.59,1.99-.32.04-.72.04-.55.55,2.98.11,6,.36,9.02.3,6.2-.13,12.37-.44,18.52-1.16,10.05-1.18,19.83-3.12,29.25-6.15.31-.1.66-.12.99-.18l-.04-.04c.03.43-.46.51-.78.65-2.66,1.14-5.3,2.32-8.02,3.37-6.76,2.6-13.78,4.66-20.97,6.38-12.87,3.08-26,4.68-39.46,4.46-3.51-.06-7.01-.2-10.52-.29-.7-.02-1.41-.12-2.56.09,12.7,2.82,25.11,2.93,37.63,1.59-.68.25-1.37.42-2.08.53-4.13.6-8.28,1.04-12.5,1.06-1.17,0-2.34.07-3.5.14-.28.02-.55.15-1.24.36,1.18.16,1.92.33,2.65.36,4.88.21,9.76.24,14.64-.07,1.37-.09,2.74-.15,4.12-.23Z"/>
          <path class="cls-3" d="M-21.18,1016.56c.31.1.68.13.9.3.55.41,1.03.88,1.54,1.32,8.29,7.24,16.69,14.39,25.8,20.99,7.32,5.3,14.85,10.42,22.93,14.99.38.21.88.36.9.83H-21.18c0-12.81,0-25.62,0-38.44Z"/>
          <path class="cls-3" d="M-21.18,990.94c.25.06.58.06.75.19.39.3.71.67,1.05,1.01,14.79,14.91,32.19,27.58,51.97,38.2,3.42,1.84,6.94,3.56,10.41,5.34.97.5,2.01.94,2.73,1.73-.78.35-1.3-.06-1.82-.24-4.16-1.44-8.34-2.87-12.33-4.6-6.65-2.88-13.32-5.72-19.9-8.7-10.72-4.86-20.94-10.33-30.9-16.1-.58-.34-1.06-.91-1.96-.73,0-5.37,0-10.73,0-16.1Z"/>
          <path class="cls-3" d="M290.26,1037.44c-.51.03-1.02.07-1.53.1.49-.28.98-.16,1.48-.08,0,0,.05-.02.05-.02Z"/>
          <path class="cls-3" d="M339.04,868.18c.41-.15.77-.17.96.23,0,0,.02-.02.02-.02-.31-.09-.61-.17-.92-.26l-.06.04Z"/>
          <path class="cls-3" d="M401.74,921.18c.02.1.04.21.05.31,0-.11-.02-.22-.01-.34,0,0-.04.02-.04.02Z"/>
          <path class="cls-3" d="M339.1,868.14c-.1-.1-.2-.19-.3-.29.06,0,.12-.01.18-.02.02.12.04.23.06.35,0,0,.06-.04.06-.04Z"/>
          <path class="cls-3" d="M181,1001.36c.09.08.18.15.27.23,0,0-.05.08-.08.08-.34-.03-.18-.21-.15-.35,0,0-.04.04-.04.04Z"/>
          <path class="cls-3" d="M74.81,966.12l.31-.02c-.1.01-.19.03-.29.04,0,0-.01-.02-.01-.02Z"/>
          <path class="cls-3" d="M117.91,1030.82c.1,0,.2,0,.3-.01-.09.02-.18.04-.27.06,0,0-.04-.05-.04-.05Z"/>
          <path class="cls-3" d="M320.5,1036.22c.35-.08.7-.17,1.2-.28-.43.45-.84.28-1.24.25,0,0,.04.03.04.03Z"/>
          <path class="cls-3" d="M319.93,1033.88c-.05-.03-.1-.06-.15-.08.06-.02.13-.05.19-.04.05,0,.1.05.15.08-.06.02-.13.03-.19.05Z"/>
          <path class="cls-3" d="M323.37,1035.82c-.05,0-.11,0-.16,0,0,0,0-.05-.01-.08.05,0,.11,0,.16,0,0,0,0,.05.01.08Z"/>
          <path class="cls-3" d="M391.69,991.92c-.05.08-.09.17-.14.25-.04-.05-.08-.1-.13-.14.11-.02.21-.05.32-.07,0,0-.05-.04-.05-.04Z"/>
          <path class="cls-3" d="M341.37,1015.39c.17.02.33.04.5.06,0,.01,0,.02,0,.03-.17-.03-.33-.05-.5-.08,0,0,0,0,0,0Z"/>
          <path class="cls-3" d="M363.13,1017.86c.07-.08.13-.19.22-.22.06-.02.18.08.27.13-.05.03-.11.08-.16.08-.12,0-.25-.02-.37-.03,0,0,.04.04.04.04Z"/>
        </g>
      </g>
      <path class="cls-4" d="M-21.18,979.77c.26,0,.57-.05.76.04.4.2.75.48,1.11.73,18.11,13.08,37.78,24.43,59.17,33.91,11.31,5.01,22.9,9.56,34.76,13.67,10.41,3.6,20.93,6.99,31.66,9.93,1.36.37,2.73.74,4.11,1.08.35.09.75.04,1.49.08-.52-.38-.72-.6-1-.72-1.2-.53-2.39-1.09-3.63-1.55-7.75-2.85-15.38-5.87-22.82-9.2-17.36-7.79-33.86-16.59-49.22-26.71-1.22-.8-2.38-1.66-3.55-2.51-.22-.16-.36-.39-.36-.75.46.2.93.38,1.37.6,10.77,5.4,21.69,10.59,32.82,15.52,8.25,3.65,16.86,6.68,25.59,9.52,8.67,2.82,17.49,5.26,26.5,7.29.13.03.24.1.35.15.09-.02.18-.04.27-.06-.1,0-.2,0-.3.01-.04-.5-.61-.57-1.01-.71-1.95-.68-3.92-1.34-5.89-1.98-15.2-4.96-29.56-11.2-43.39-18.22-15.23-7.73-29.76-16.22-43.41-25.64-12.29-8.48-23.82-17.58-34.69-27.21-1.24-1.1-2.53-2.17-3.78-3.26-.3-.26-.56-.54-.65-.97.27.13.55.26.82.4,2.75,1.45,5.51,2.9,8.25,4.37.91.49,1.82,1,2.62,1.59,2.64,1.93,5.48,3.66,8.34,5.38,8.83,5.33,17.9,10.41,27.09,15.33,14.91,7.98,30.17,15.52,46.2,22.02,9.14,3.7,18.44,7.12,27.88,10.32,9.87,3.35,19.83,6.55,29.98,9.32,10.53,2.88,21.09,5.73,31.85,8.05,8.36,1.8,16.69,3.73,25.01,5.65,1.97.46,3.88,1.11,5.8,1.7.63.19,1.27.43,1.64.9-.18.48-.67.37-1.04.38-3.67.13-7.3-.16-10.88-.72-5.87-.92-11.73-1.88-17.58-2.88-4.65-.79-9.16-1.96-13.66-3.18-3.52-.95-7.06-1.84-10.55-2.84-3.82-1.09-7.59-2.28-11.39-3.42-2.45-.73-4.89-1.46-7.35-2.17-.37-.11-.77-.15-1.41-.27.23.41.28.7.49.85.71.51,1.44,1.02,2.23,1.44,2.63,1.41,5.44,2.58,8.29,3.68,3.16,1.22,6.31,2.44,9.49,3.63,3.67,1.37,7.39,2.68,11.05,4.06,9.21,3.47,18.6,6.6,28.13,9.45,9.91,2.97,19.82,5.96,29.97,8.39.65.16,1.36.2,1.77.73H30.89c-.02-.46-.52-.61-.9-.83-8.09-4.57-15.61-9.68-22.93-14.99-9.11-6.6-17.51-13.76-25.8-20.99-.51-.44-.99-.91-1.54-1.32-.22-.17-.6-.2-.9-.3,0-3.18,0-6.35,0-9.53.9-.18,1.38.39,1.96.73,9.97,5.77,20.18,11.25,30.9,16.1,6.58,2.98,13.25,5.82,19.9,8.7,3.99,1.73,8.17,3.16,12.33,4.6.52.18,1.04.59,1.82.24-.73-.79-1.76-1.23-2.73-1.73-3.47-1.78-6.99-3.5-10.41-5.34-19.78-10.62-37.18-23.29-51.97-38.2-.34-.34-.66-.71-1.05-1.01-.17-.13-.49-.13-.75-.19,0-3.72,0-7.45,0-11.17Z"/>
      <path class="cls-4" d="M286.98,964.58c9.44-3.69,16.81-9.24,22.73-16.05,3.31-3.81,6.16-7.84,8.32-12.16,2.09-4.17,3.51-8.47,4.3-12.92.5-2.81.82-5.63.82-8.48,0-2.8-.27-5.56-.97-8.3-.04-.15-.04-.3-.06-.47.15.03.32.02.38.07.96,1,1.91,2,2.53,3.18,1.9,3.6,3.16,7.35,4.06,11.18.67,2.85,1.1,5.73,1.05,8.62-.07,4.6-.88,9.11-2.82,13.47-1.35,3.03-2.93,5.97-4.95,8.76-.22.3-.55.56-.82.84l.04.03c-.22-.5.12-.92.31-1.36.66-1.6,1.18-3.22,1.43-4.9.19-1.3.15-2.59.08-3.85-.49-.17-.58.05-.67.24-.38.78-.75,1.57-1.12,2.36-3.16,6.79-8.19,12.55-15.03,17.32-2.24,1.56-4.66,2.94-7.28,4.07-.98.42-1.95.9-3.12.93l.05.04c.28-.2.53-.43.85-.59,6.91-3.52,12.09-8.28,15.78-14.08.53-.83.94-1.71,1.41-2.6-.66-.14-.76.25-.97.46-4.69,4.74-10.47,8.45-17,11.46-2.41,1.11-4.95,1.99-7.64,2.6-.58.13-1.14.29-1.74.09l.05.05Z"/>
      <path class="cls-4" d="M326.77,896.58c-9.95-7.78-21.54-13.6-34.82-17.92,1.12-.36,1.74-.21,2.35-.1,4.08.73,8.02,1.77,11.77,3.25.41.16.85.29,1.27.42.04.01.11-.05.28-.12-.17-.2-.3-.41-.49-.59-3.73-3.28-7.6-6.45-11.89-9.28-1.11-.74-2.37-1.33-3.57-1.98-.37-.2-.8-.33-1.27-.74.89,0,1.48.16,2.09.33,2.59.69,4.98,1.7,7.33,2.78,10.23,4.71,18.4,11.1,24.39,19.21.97,1.31,1.72,2.72,2.55,4.09.1.17.32.36,0,.65Z"/>
    </g>
  </g>
</svg>