<?xml version="1.0" encoding="UTF-8"?>
<svg id="Layer_1" xmlns="http://www.w3.org/2000/svg" width="430" height="1550" viewBox="0 0 430 1550">
  <defs>
    <style>
      .cls-1 {
        fill: #006be3;
      }

      .cls-2 {
        fill: #237de9;
      }
    </style>
  </defs>
  <rect class="cls-1" x="0" width="430" height="1550"/>
  <g id="Mg7scG.tif">
    <path class="cls-2" d="M430,44.44c-.07,2.97-.2,5.95-.2,8.92-.21,164.87-.39,329.73-.6,494.6-.22,175.7-.45,351.39-.67,527.09-.19,150.22-.38,324.73-.57,474.95,0,0-279.82-5.81-427.8,0-.05-.52-.11-1.04-.16-1.57,15.72-20.76,31.07-44.09,43.89-86.32-7.67,9.76-15.18,17.48-23.12,12.86-.05-.8-.11-1.61-.16-2.41,1.23-1.88,2.46-3.76,3.69-5.65,12.97-19.98,25.15-45.49,37.28-71.4,26.5-56.66,52.05-118.66,77.01-183.91,13.12-34.31,26.09-69.4,39.07-104.41,3.3-8.91,6.4-18.84,9.87-27.58-.78,4.15-1.53,8.39-2.35,12.44-9.72,47.94-21.27,89.73-33.24,129.97-10.58,35.6-21.46,69.99-32.19,104.99-1.23,4.02-2.33,8.56-3.5,12.86.14.74.28,1.48.42,2.21,1.11-1.64,2.3-2.82,3.32-4.99,5.08-10.71,10.16-21.49,15.17-32.62,9.97-22.13,19.04-48.82,28.18-75.14,1.55-4.46,2.95-9.58,4.52-14.03-1.77,10.04-3.5,20.19-5.33,30.1-6.56,35.57-14.17,68.05-22.52,98-10.93,39.2-22.17,77.23-33.28,115.73-.43,1.49-.96,2.6-1.72,4.62,5.49,2.75,59.09-127.42,79.81-191.64,24.45-75.77,45.95-161.35,64.66-256.64-.18,1.78-.33,3.6-.53,5.33-7.66,65.55-17.17,127.26-29.3,183.2-8.89,41.02-18.14,81.03-27.2,121.55-.9,4.02-1.71,8.35-2.47,12.75-.38,2.2-.55,4.88-.82,7.35.13.5.25,1,.38,1.51.73-1.31,1.55-2.22,2.18-4,5.08-14.33,10.32-27.99,15.13-43.43,10.39-33.35,20.72-67.01,30.77-101.72,9.93-34.29,18.23-73.82,25.92-114.98,7.33-39.24,14.55-78.76,21.79-118.22.88-4.81,1.53-10.2,2.4-15.05.47-2.65,1.18-4.74,1.79-7.09.16.33.32.65.48.98-.62,11.65-1.19,23.34-1.88,34.94-3.29,55.43-9.95,105.87-17.42,154.99-9.58,62.97-21.33,120.46-33.91,175.74-1.02,4.46-2.48,7.55-3.63,12.46,1.95-1.4,3.88-3.27,5.84-4.09,4.25-1.78,7.3-11.47,10.38-20.71,12.13-36.39,22.72-77.9,31.22-126.29,6.13-34.92,12.36-69.6,18.29-104.96,10.47-62.43,18.6-128.73,24.54-198.78,5.08-59.93,9.36-120.55,12.5-182.17,1.17-22.97,1.72-46.47,2.12-69.83.58-33.99.92-68.07,1.09-102.12.23-46.78-1.02-93.23-2.48-139.69-1.41-44.85-3.4-89.26-6.44-132.96-2.95-42.47-5.99-84.91-10.49-125.68-.88-7.97-1.89-15.76-3.02-25.17,1.62,5.62,2.89,10.26,4.23,14.68,4.84,16.02,9.85,31.37,14.51,48.07,9.54,34.24,15.45,76.32,19.28,122.74,1.06,12.79,2.44,25.25,3.79,37.69.31,2.88,1.13,5.03,1.71,7.52.26-.49.53-.98.79-1.47-2.61-48.83-4.03-98.51-8.4-147.72,5.31,20.47,10.26,39.97,13.85,63.26,3.53,22.87,6.8,46.27,10.48,69.15,0-1.08.04-2.19,0-3.24-.88-20.96-1.65-42-2.69-62.86-2.05-41.01-6.97-76.64-14.79-107.39-7.56-29.76-16.23-53.65-26.02-72.62-11.05-21.39-22.47-38.99-34.68-49.4-2.31-1.97-4.64-3.63-6.68-5.21,41,1.55,82.25,3.13,123.49,4.66,9.5.35,2.78.51,12.29.78.71.02,1.43.26,2.14.4v36.1Z"/>
  </g>
</svg>