<?xml version="1.0" encoding="UTF-8"?>
<svg id="Layer_1" xmlns="http://www.w3.org/2000/svg" width="430" height="585.05" viewBox="0 0 430 585.05">
  <defs>
    <style>
      .cls-1 {
        fill-rule: evenodd;
      }

      .cls-1, .cls-2 {
        fill: #002e72;
      }

      .cls-3 {
        fill: #fef237;
        font-family: GasoekOne-Regular, 'Gasoek One';
        font-size: 26.97px;
      }

      .cls-4 {
        fill: #fbfbfb;
      }
    </style>
  </defs>
  <g>
    <g>
      <circle class="cls-4" cx="215" cy="292.53" r="135.89"/>
      <path class="cls-2" d="M215,430.95c-76.33,0-138.42-62.1-138.42-138.42s62.1-138.42,138.42-138.42,138.42,62.1,138.42,138.42-62.1,138.42-138.42,138.42ZM215,159.17c-73.53,0-133.35,59.82-133.35,133.35s59.82,133.35,133.35,133.35,133.35-59.82,133.35-133.35-59.82-133.35-133.35-133.35Z"/>
    </g>
    <g>
      <circle class="cls-4" cx="215" cy="292.53" r="117.07"/>
      <path class="cls-1" d="M158.55,194.48c.39,0,.77-.1,1.11-.29,16.36-9.23,35.25-14.49,55.37-14.49s39.01,5.27,55.37,14.49c.34.19.72.29,1.11.29h0c2.22,0,3.02-2.8,1.09-3.89-17-9.62-36.64-15.11-57.57-15.11s-40.57,5.49-57.57,15.11c-1.93,1.09-1.12,3.89,1.09,3.89h0ZM116.66,237.18c.19-.34.29-.72.29-1.11h0c0-2.22-2.8-3.02-3.89-1.09-9.62,17-15.11,36.64-15.11,57.57s5.49,40.57,15.11,57.57c1.09,1.93,3.89,1.12,3.89-1.09h0c0-.39-.1-.77-.29-1.11-9.23-16.36-14.49-35.25-14.49-55.37s5.27-39.01,14.49-55.37ZM159.65,390.91c-.34-.19-.72-.29-1.11-.29h0c-2.22,0-3.02,2.8-1.09,3.89,17,9.62,36.64,15.11,57.57,15.11s40.57-5.49,57.57-15.11c1.93-1.09,1.12-3.89-1.09-3.89h0c-.39,0-.77.1-1.11.29-16.36,9.23-35.25,14.49-55.37,14.49s-39.01-5.27-55.37-14.49ZM313.38,347.92c-.19.34-.29.72-.29,1.11h0c0,2.22,2.8,3.02,3.89,1.09,9.62-17,15.11-36.64,15.11-57.57s-5.49-40.57-15.11-57.57c-1.09-1.93-3.89-1.12-3.89,1.09h0c0,.39.1.77.29,1.11,9.23,16.36,14.49,35.25,14.49,55.37s-5.27,39.01-14.49,55.37Z"/>
    </g>
    <g>
      <path class="cls-2" d="M292.24,334.57h-3.46c-.33.74-.55,1.44-.93,2.05-.48.78-1.23,1.28-2.16,1.36-.6.05-.71.34-.71.85,0,3.18,0,6.36,0,9.54,0,.44.14.64.6.73,1.96.4,3,1.71,3,3.73,0,1.07,0,2.15,0,3.28.29.07.54.14.79.19,1.7.35,2.84,1.79,2.79,3.53-.05,1.65-1.31,3.09-2.96,3.31-.45.06-.64.22-.62.69.03.98,0,1.95,0,3.08.54,0,1.04-.01,1.54,0,1.25.04,2.03.72,2.03,1.74,0,.88-.61,1.6-1.5,1.68-.49.05-.98.05-1.46.04-.41,0-.64.11-.62.58.03.88-.02,1.76.03,2.64.01.2.29.54.48.55,1.8.19,3.29,1.95,3.09,3.9-.04.44,0,.88-.01,1.32-.03,1.01-.74,1.75-1.68,1.78-.86.02-1.81-.74-1.75-1.64.08-1.28-.17-1.99-1.59-2.37-1.34-.36-1.89-1.67-2.05-3.16-.93,0-1.85,0-2.77,0-2.68,0-3.6-.69-4.38-3.26-.05-.17-.31-.35-.5-.38-1.68-.31-2.72-1.36-3.06-3.03-.04-.22-.3-.53-.5-.56-1.97-.31-2.86-1.6-3.19-3.5-.65-.03-1.3-.04-1.95-.1-.96-.1-1.55-.77-1.53-1.71.01-.89.6-1.53,1.54-1.63.63-.06,1.26-.07,1.97-.11.01-.29.04-.55.04-.8,0-1.76,0-3.52,0-5.28,0-1.33.19-1.17-1.23-1.2-.39,0-.78-.03-1.16-.12-.69-.17-1.14-.77-1.16-1.51-.03-.77.39-1.45,1.09-1.64.42-.12.86-.15,1.3-.16,1.34-.02,2.69-.04,4.03,0,.6.02.78-.21.74-.76-.02-.34-.01-.68,0-1.03.04-1.08.67-1.74,1.65-1.76,1-.02,1.74.66,1.81,1.71.04.58,0,1.16,0,1.78h3.63c.01-.31.03-.57.03-.83,0-5.45-.01-10.91.02-16.36,0-.72-.22-.94-.92-.89-.71.05-1.42.03-2.13,0-.41-.01-.59.12-.69.55-.35,1.66-1.31,2.75-3.06,3.02-.43.06-.55.29-.54.7.03.98.01,1.96,0,2.93,0,1.82-1.12,3.18-2.9,3.52-.41.08-.59.22-.7.66-.48,2.02-1.75,2.98-3.85,3-.86,0-1.71.03-2.57,0-.53-.02-.75.13-.72.7.04.88.01,1.76,0,2.64,0,2.04-1.06,3.38-3.05,3.78-.44.09-.62.26-.61.72.03.81.04,1.61,0,2.42-.03.57.22.71.74.69.51-.02,1.03,0,1.53.1.8.16,1.42.94,1.39,1.66-.03.72-.62,1.43-1.4,1.57-.52.09-1.07.1-1.6.1-.4,0-.59.09-.67.54-.32,1.83-1.49,2.94-3.33,3.01-1.9.08-3.81.03-5.72-.02-.77-.02-1.34-.61-1.52-1.37-.14-.55.23-1.45.83-1.74.42-.2.94-.27,1.41-.29,1.32-.03,2.64,0,3.96,0,.29,0,.58-.03.94-.05,0-1.14,0-2.24,0-3.33,0-1.2,0-2.4,0-3.59,0-1.93,1.09-3.3,2.98-3.68.52-.1.69-.32.67-.83-.03-.78-.03-1.57,0-2.35.02-.51-.18-.69-.69-.68-1.52.02-3.03.02-4.55,0-1.27-.02-1.99-.7-1.94-1.78.04-.97.74-1.59,1.89-1.65.51-.03,1.02,0,1.64,0,0-1.16.02-2.28-.02-3.39,0-.12-.32-.31-.51-.33-.56-.07-1.13-.01-1.68-.1-.8-.13-1.28-.73-1.32-1.53-.04-.84.4-1.53,1.21-1.68.73-.14,1.49-.15,2.28-.23.01-.21.04-.43.04-.64,0-3.13-.02-6.26.02-9.39,0-.67-.21-.87-.84-.82-.41.04-.83,0-1.24-.03-.85-.09-1.43-.71-1.47-1.55-.04-.86.42-1.54,1.26-1.73.47-.1.96-.13,1.45-.14,1.2-.02,2.4-.04,3.59,0,.66.03.9-.16.88-.85-.05-1.47-.02-2.93-.01-4.4,0-1.12.71-1.9,1.69-1.9.98,0,1.75.85,1.77,1.95q.03,1.65,1.72,1.65c.44,0,.88-.03,1.32,0,.53.04.7-.21.67-.69-.02-.37,0-.73,0-1.1.02-1.03.77-1.83,1.7-1.83.92,0,1.74.82,1.76,1.82.02,1.56,0,3.13,0,4.7,0,.17.02.34.04.62,1.12,0,2.23.01,3.35-.02.12,0,.29-.29.33-.47.43-1.95,1.67-3,3.66-3.03,1.12-.02,2.24,0,3.5,0,0-.63-.01-1.19,0-1.74.03-1.08.79-1.89,1.74-1.88.93.02,1.65.8,1.7,1.85,0,.1,0,.2,0,.29.01,1.31.03,1.26,1.24,1.67,1.51.52,2.18,1.72,2.41,3.3.23.01.46.03.7.03,3.13,0,6.26-.01,9.39.01.6,0,.83-.15.79-.78-.05-.73-.05-1.47,0-2.2.04-.59-.2-.77-.76-.76-1.86.02-3.72-.06-5.57.03-2.6.12-4.03-.9-4.57-3.52-.69-.05-1.4-.05-2.09-.18-.89-.16-1.38-.81-1.38-1.64,0-.83.53-1.46,1.41-1.61.5-.09,1.02-.09,1.53-.08.43,0,.62-.12.61-.58-.03-.88.02-1.76-.03-2.64-.01-.21-.25-.52-.44-.57-2.05-.58-2.76-1.33-3.15-3.46h-3.68c0,.56,0,1.09,0,1.62-.02,1.09-.68,1.83-1.67,1.86-1,.03-1.75-.74-1.77-1.84-.01-.53,0-1.07,0-1.7-1.17,0-2.26-.02-3.35.02-.14,0-.35.29-.38.46-.06.41-.01.83-.02,1.24-.03,1.08-.72,1.81-1.72,1.8-.97,0-1.69-.76-1.72-1.82-.01-.53,0-1.07,0-1.75-1.08,0-2.1.06-3.11-.02-.76-.06-1.57-.17-2.24-.49-1.23-.58-1.78-1.7-1.83-3.04-.04-1.03-.02-2.05,0-3.08,0-.4-.15-.55-.53-.62-1.89-.36-3.01-1.63-3.03-3.39-.01-1.84,1.07-3.09,3-3.5.17-.03.33-.09.55-.16,0-.56-.01-1.12,0-1.67.03-1.07.74-1.79,1.73-1.79,1.02,0,1.7.69,1.71,1.79.02,1.49.04,2.98-.01,4.47-.03.73.24.93.92.9.92-.05,1.84-.01,2.84-.01,0-.39,0-.65,0-.92,0-2.62,0-5.23,0-7.85,0-1.18.68-1.97,1.7-2,1.04-.03,1.74.77,1.75,2.01q.01,1.59,1.6,1.59c.54,0,1.08.04,1.61-.03.2-.03.5-.31.51-.49.05-.85.03-1.71.02-2.57,0-.17-.02-.34-.04-.63-.54,0-1.06.02-1.59,0-1.09-.04-1.84-.66-1.93-1.54-.1-.97.47-1.74,1.44-1.87.48-.06.98-.07,1.46-.04.52.02.68-.19.66-.69-.03-.81-.03-1.61,0-2.42.02-.45-.13-.65-.58-.74-1.92-.36-2.99-1.64-3-3.56,0-1.69.03-3.38,0-5.06-.03-1.16.77-1.86,1.71-1.88,1.02-.02,1.75.78,1.76,1.93.01,1.47.03,2.94,0,4.4-.02.62.13.9.81.84.7-.05,1.42-.04,2.13,0,.56.03.82-.13.75-.74-.04-.39-.03-.78,0-1.17.1-.99.89-1.74,1.78-1.71.92.03,1.67.79,1.68,1.79.02,3.03.03,6.06,0,9.1-.02,1.63-1.23,2.95-2.88,3.23-.53.09-.75.29-.72.85.05.8.03,1.61,0,2.42,0,.41.14.58.55.58.88,0,1.76.03,2.64-.02.2-.01.51-.27.55-.47.37-1.67,1.29-2.77,3.04-3.05.38-.06.56-.22.53-.62-.03-.41-.03-.83,0-1.25.06-1.05.8-1.77,1.78-1.75,1.01.02,1.66.71,1.68,1.81.01.55,0,1.11,0,1.64.86.07,1.6.08,2.31.22.77.14,1.32.9,1.3,1.64-.02.76-.57,1.45-1.37,1.58-.53.09-1.07.09-1.61.08-.43,0-.59.16-.66.58-.3,1.67-1.26,2.61-3,2.96-.4.08-.56.25-.56.69.02,2.05.02,4.11,0,6.16,0,.4.16.54.53.63,2.17.49,3.06,1.64,3.06,3.88,0,3.2,0,6.41,0,9.61,0,.34-.09.71.45.85,2.14.56,2.77,1.25,3.23,3.48.97,0,1.96,0,2.95,0,1.29,0,2.55.22,3.3,1.37.43.66.8,1.5.82,2.28.09,2.88.04,5.77.03,8.66,0,1.13-.78,1.98-1.76,1.95-1-.03-1.67-.79-1.69-1.92q-.02-1.69-1.72-1.69s-.1,0-.15,0c-.54,0-1.17-.15-1.58.08-.33.19-.38.86-.57,1.31-.7,1.66-2.04,2.27-3.39,2.2-1.67-.08-2.97-1.2-3.28-2.76-.13-.66-.38-.89-1.05-.85-.88.06-1.76.03-2.64,0-1.92-.06-3.19-1.16-3.56-3.04-.03-.14-.07-.28-.12-.5h-3.59c0,1.16-.01,2.25.02,3.34,0,.14.23.38.38.41,1.97.3,2.89,1.55,3.21,3.52.5,0,1.03-.01,1.55,0,.83.02,1.67-.01,2.48.11,1.69.25,2.72,1.25,3.03,2.93.1.52.3.63.76.62.76-.02,1.52,0,2.27,0,2.62,0,3.73.9,4.28,3.53,1.08,0,2.17.02,3.27-.02.13,0,.35-.29.37-.47.06-.43,0-.88.03-1.32.04-1.05.71-1.71,1.71-1.71.97,0,1.7.69,1.72,1.72.03,1.27,0,2.54,0,3.81,0,2.2,0,4.4,0,6.6,0,1.23-.69,2.01-1.75,2-1.06-.01-1.68-.73-1.7-1.96,0-.05,0-.1,0-.15q0-1.24-1.18-1.64c-1.36-.46-2.07-1.47-2.42-2.81-.06-.23-.26-.58-.44-.61-1.97-.3-2.89-1.56-3.22-3.49ZM279.67,363.36c1.59,0,3.18-.02,4.76.01.55.01.71-.17.71-.71-.02-3.18-.02-6.35,0-9.53,0-.54-.17-.72-.71-.71-3.18.02-6.35.02-9.53,0-.54,0-.72.17-.71.71.02,3.18.02,6.35,0,9.53,0,.55.17.72.72.71,1.59-.03,3.18-.01,4.76-.01ZM274.2,298.64c.27.04.46.09.65.09,3.2,0,6.41,0,9.61.01.56,0,.69-.22.69-.74-.02-3.15,0-6.31-.01-9.46,0-.21-.04-.42-.06-.67-3.52,0-6.96,0-10.41,0-.49,0-.46.31-.46.64,0,1.42,0,2.84,0,4.25,0,1.93,0,3.86,0,5.88ZM265.31,331.08c1.59,0,3.18,0,4.77,0,.41,0,.63-.06.73-.56.33-1.63,1.26-2.73,2.99-2.98.46-.07.6-.31.59-.75-.02-.78-.03-1.57,0-2.35.02-.59-.23-.75-.79-.75-1.96.02-3.91.02-5.87,0-.47,0-.66.14-.75.64-.3,1.66-1.29,2.67-2.97,2.89-1.15.15-2.34.11-3.51.1-.52,0-.69.18-.67.68.03.76.04,1.52,0,2.27-.03.6.17.82.79.81,1.56-.03,3.13-.01,4.69-.01ZM263.55,334.57c-.38,1.88-1.27,3.21-3.28,3.49-.17.02-.4.34-.41.53-.04.88,0,1.76-.03,2.64-.01.46.18.58.61.58,2.05-.01,4.1-.01,6.15,0,.38,0,.55-.11.63-.51.31-1.72,1.32-2.69,3.03-3.03.19-.04.48-.29.49-.46.04-1.07.02-2.13.02-3.24h-7.21ZM285.14,368.75q0-1.94-1.94-1.94t-1.8,1.79q0,1.95,1.94,1.95,1.8,0,1.8-1.8Z"/>
      <path class="cls-2" d="M202.47,313.02c-.77-.06-1.48-.06-2.17-.19-.88-.17-1.34-.81-1.31-1.68.03-.81.51-1.47,1.37-1.54,1.36-.11,2.73-.08,4.1-.1.32,0,.64-.03.95,0,.52.06.71-.15.79-.68.22-1.46,1.42-2.65,2.86-2.85.47-.07.69-.21.67-.73-.04-.83-.03-1.66,0-2.49.01-.43-.14-.6-.57-.66-1.8-.27-2.99-1.66-3-3.49-.01-2.15-.02-4.3,0-6.46,0-.54-.16-.76-.71-.87-1.82-.35-3.05-1.93-2.92-3.65.14-1.79,1.59-3.19,3.47-3.23,2.18-.05,4.35-.03,6.53-.02.53,0,.77-.14.85-.72.25-1.62,1.73-2.84,3.4-2.9,1.53-.06,3.05,1.02,3.39,2.61.19.87.55,1.04,1.36,1.02,2.96-.05,5.92-.03,8.88,0,.65,0,.94-.17.88-.87-.06-.68-.05-1.37,0-2.05.05-.61-.16-.85-.78-.95-1.94-.33-3.27-2.35-2.75-4.21.4-1.42,1.31-2.39,2.84-2.62.5-.07.71-.27.68-.8-.04-.83,0-1.66-.03-2.49,0-.19-.18-.52-.32-.54-2.07-.27-3.02-1.6-3.38-3.54h-10.62c-.23.59-.4,1.2-.69,1.75-.52.99-1.37,1.6-2.49,1.72-.54.06-.61.33-.61.78.01,2.67,0,5.33,0,8,0,1.26-.64,2.04-1.69,2.07-1.03.03-1.76-.83-1.76-2.1,0-6.16,0-12.32,0-18.49,0-.29,0-.58,0-.9-.29-.07-.53-.12-.76-.17-1.61-.31-2.76-1.66-2.8-3.3-.02-.61-.01-1.22,0-1.83.03-1.03.7-1.75,1.66-1.78.9-.03,1.71.71,1.8,1.68.04.44.03.88,0,1.32-.03.46.16.59.6.59,3.2-.01,6.41-.02,9.61,0,.6,0,.68-.29.67-.76,0-2.13,0-4.25,0-6.38,0-1.55.71-2.69,2.11-3.32,1.28-.58,2.57-.42,3.64.49,1.03.87,1.54,2.03,1.21,3.41-.33,1.39-1.16,2.4-2.62,2.65-.72.13-.94.41-.89,1.09.05.73.03,1.47,0,2.2-.01.48.19.63.66.62,2.05-.02,4.11-.01,6.16,0,2.23,0,3.43.97,3.97,3.14.05.2.34.44.56.49,1.68.36,2.68,1.34,2.97,3.01.07.38.21.57.61.55.41-.02.83-.02,1.25,0,1.03.07,1.71.69,1.79,1.6.06.81-.57,1.57-1.53,1.76-.33.07-.68.06-1.02.07-.31.01-.63,0-1.08,0,0,1.01,0,1.96,0,2.9.01.96,0,1.89-.62,2.72-.59.79-1.31,1.31-2.28,1.44-.51.07-.71.27-.67.8.05.8.03,1.61,0,2.42-.01.41.09.64.56.63.88-.02,1.76.02,2.64-.03.19-.01.49-.29.53-.49.37-1.67,1.29-2.75,3.04-3.04.2-.03.45-.33.5-.55.45-1.65,1.35-2.79,3.14-3.07.19-.03.45-.29.49-.48.49-2.12,1.76-3.17,3.94-3.18.88,0,1.76-.01,2.64,0,.42.01.64-.1.62-.57-.02-.86-.02-1.71,0-2.57,0-.44-.2-.58-.61-.64-1.75-.27-3.07-1.81-3.05-3.5.02-1.71,1.36-3.16,3.15-3.42,1.68-.25,3.26.81,3.8,2.55.09.28.14.57.22.88.71.06,1.44.08,2.15.2.85.15,1.37.89,1.31,1.76-.06.83-.65,1.46-1.49,1.54-.49.05-.98.05-1.47.04-.44-.01-.6.17-.59.61.03.95.01,1.91,0,2.86,0,2.1-1.46,3.63-3.55,3.7-.98.03-1.96.03-2.93,0-.53-.01-.75.13-.72.7.04.97.01,1.95.01,2.98h7.28c0-.51,0-.99,0-1.47,0-1.23.69-2.01,1.75-2,1.06,0,1.69.73,1.69,1.95,0,1.44.03,2.89-.01,4.33-.02.65.16.96.86.89.41-.04.83-.02,1.24.03.84.1,1.5.8,1.56,1.6.05.71-.56,1.53-1.35,1.69-.57.11-1.16.12-1.74.13-.41,0-.57.16-.55.56.02.39,0,.78,0,1.17-.03,1.1-.7,1.8-1.71,1.79-.98-.01-1.71-.76-1.73-1.8-.02-1.54-.03-3.08,0-4.62.02-.59-.19-.75-.75-.75-3.13.02-6.26.02-9.39,0-.61,0-.82.2-.8.8.04.78-.02,1.57.03,2.35.01.22.23.6.4.62,2.03.31,2.96,1.62,3.3,3.61.59,0,1.18-.03,1.76,0,.98.06,1.61.64,1.69,1.5.09.96-.43,1.67-1.46,1.85-.64.11-1.3.1-2.07.16,0,1.01,0,2.03,0,3.05,0,2.27-.95,3.45-3.15,4.01-.21.05-.45.42-.47.65-.05,1.02-.07,2.06-.01,3.08.09,1.57-1.48,3.4-3.17,3.42-1.1.01-2.2.05-3.3.05-.53,0-.75.17-.73.72.04.81.02,1.61.01,2.42,0,.4.15.57.57.56.51,0,1.03,0,1.53.09.93.15,1.58.94,1.52,1.76-.07.89-.74,1.6-1.71,1.58-1.14-.03-1.94.04-2.24,1.49-.24,1.14-1.28,1.86-2.54,2.05-.21.03-.42.1-.7.18,0,.54,0,1.08,0,1.61-.02,1.14-.7,1.86-1.72,1.86-1.04,0-1.71-.71-1.71-1.86,0-.8-.06-1.63.11-2.4.32-1.43,1.23-2.37,2.73-2.61.55-.09.72-.31.7-.86-.04-.97-.01-1.94-.01-3-.62,0-1.15.03-1.68,0-.71-.05-1.34-.25-1.68-.98-.28-.62-.29-1.28.18-1.71.41-.38,1.03-.58,1.59-.72.46-.11.97-.02,1.52-.02v-3.74c-1.09,0-2.2-.01-3.31.02-.11,0-.29.25-.31.41-.39,2.26-2.11,3.23-4.22,3.19-3.13-.06-6.26-.03-9.39-.03-.21,0-.43.04-.71.07,0,1.11-.02,2.19.02,3.26,0,.15.23.39.38.42,1.99.32,2.93,1.59,3.23,3.57,1.11,0,2.23.01,3.34-.02.11,0,.29-.29.31-.46.04-.46,0-.93.02-1.39.05-1.01.77-1.7,1.75-1.69.91.01,1.66.72,1.68,1.69.03,1.88.05,3.77,0,5.65-.05,1.58-1.36,2.96-2.95,3.18-.47.07-.63.25-.62.7.01,1,0,1.99,0,3.03h3.69c0-.54,0-1.05,0-1.55.03-1.16.75-1.93,1.77-1.92,1.02,0,1.67.73,1.7,1.89,0,.07,0,.15,0,.22q0,1.24,1.18,1.65c1.43.49,2.41,1.82,2.42,3.33,0,.59.02,1.17,0,1.76-.04.98-.82,1.75-1.73,1.74-.94,0-1.65-.75-1.7-1.76-.03-.58.14-1.41-.17-1.66-.37-.31-1.15-.17-1.75-.18-1.56-.02-3.13,0-4.69,0-.42,0-.65.1-.75.57-.39,1.86-1.54,2.89-3.43,3.05-.72.06-1.47.02-2.18-.1-.88-.15-1.44-.92-1.38-1.71.05-.84.65-1.47,1.55-1.58.46-.05.93-.05,1.39-.03.42.02.64-.12.64-.57,0-2.08,0-4.16,0-6.24,0-.38-.16-.54-.55-.61-1.64-.27-2.68-1.29-2.99-2.98-.08-.43-.25-.57-.63-.63-1.71-.27-2.62-1.35-2.99-2.99-.05-.2-.34-.49-.54-.5-.88-.05-1.76-.05-2.64,0-.18,0-.49.27-.5.42-.04,1.05-.02,2.09-.02,3.25.56,0,1.06-.02,1.57,0,1.46.07,2.32,1.2,1.83,2.39-.27.65-.73,1.03-1.45,1.05-.63.02-1.25,0-1.95,0,0,.66,0,1.17,0,1.68-.02,1.12-.79,1.96-1.77,1.95-.98,0-1.67-.79-1.69-1.91,0-.2-.02-.39,0-.59.09-.74-.12-1.09-.96-1.24-1.33-.24-2.13-1.21-2.52-2.49-.09-.28-.13-.57-.2-.87ZM209.67,298.66c.24.03.45.07.67.07,3.15,0,6.3-.01,9.45.01.61,0,.73-.26.73-.79-.01-3.1,0-6.2,0-9.31,0-.24-.04-.48-.06-.72h-10.78v10.73ZM234.82,266.36c0-1.07-.02-2.06,0-3.06.01-.46-.14-.64-.61-.69-.89-.09-1.66-.52-2.13-1.27-.42-.66-.68-1.42-1.05-2.21-.07,0-.26-.02-.45-.03-5.54,0-11.09,0-16.63-.01-.59,0-.84.15-.79.78.05.63.01,1.27.01,1.9q0,1.07,1.07,1.07c4.35,0,8.69.01,13.04,0,1.72,0,2.96.71,3.63,2.32.16.37.21.79.32,1.2h3.59ZM234.76,287.85c.11.05.16.09.2.09,3.4,0,6.8.02,10.19,0,.17,0,.47-.32.48-.51.05-.85,0-1.71.03-2.57.01-.47-.17-.65-.64-.64-1,.02-2,0-3.01,0-1.43-.01-2.49-.67-3.15-1.91-.26-.48-.35-1.05-.51-1.57h-3.59v7.11ZM227.55,287.86c0,1.15-.02,2.2.02,3.24,0,.16.31.43.49.44.9.04,1.81.05,2.71,0,.18-.01.49-.32.5-.5.05-.9.05-1.81,0-2.71,0-.16-.29-.44-.46-.45-1.04-.04-2.09-.02-3.26-.02Z"/>
      <path class="cls-2" d="M180.93,313.02c-.16,1.19-.59,2.21-1.59,2.89-1.1.75-2.29.84-3.48.28-1.3-.62-1.98-1.72-2.05-3.15-.05-1.02-.02-2.05,0-3.08,0-.36-.06-.58-.49-.65-1.95-.34-3.2-1.9-3.06-3.75.14-1.8,1.62-3.14,3.58-3.21,1-.04,2.01-.02,3.01,0,.44,0,.61-.14.6-.59-.02-.88.02-1.76-.03-2.64-.01-.2-.29-.53-.47-.54-1.92-.16-3.25-2.1-3.16-4.04.09-1.93.02-3.86.02-5.79,0-.26,0-.52,0-.83h-7.22c-.03.14-.06.28-.08.42-.39,1.94-1.66,3.02-3.63,3.08-.95.03-1.91.02-2.86,0-.49-.01-.71.13-.69.66.03.81.03,1.61,0,2.42-.02.51.15.68.67.68,1.22,0,2.45-.03,3.66.12,1.63.2,2.85,1.66,2.86,3.3.02,1.78.02,3.57,0,5.36,0,1.07-.73,1.82-1.7,1.82-.98,0-1.71-.74-1.73-1.8-.02-1.56-.02-3.13,0-4.69,0-.51-.15-.7-.67-.67-.78.03-1.57.04-2.35,0-.58-.03-.76.16-.75.75.03,2.49.01,4.99.01,7.48,0,1.81.03,3.62-.01,5.43-.01.63.15.84.81.83,2.54-.04,5.09-.02,7.63,0,.39,0,.78.05,1.15.15.78.21,1.27.99,1.18,1.8-.08.77-.69,1.4-1.48,1.47-.51.04-1.03,0-1.54.07-.2.03-.53.25-.53.4-.05,1.07-.02,2.14-.02,3.25h14.47c0-.52,0-1.02,0-1.53.02-1.14.74-1.94,1.76-1.95,1.05,0,1.7.73,1.71,1.95,0,.48,0,.97,0,1.52.35.02.61.05.86.05,1.44,0,2.89-.02,4.33,0,.79.01,1.5.27,1.85,1.07.28.66.2,1.33-.32,1.83-.26.25-.65.43-1.01.5-.45.09-.92.06-1.39.05-.41,0-.63.06-.74.56-.33,1.63-1.27,2.72-3,2.98-.4.06-.55.25-.61.66-.24,1.58-1.36,2.7-2.95,2.92-.49.07-.61.28-.58.71.02.41.02.83,0,1.25-.05.93-.81,1.69-1.69,1.72-.92.03-1.71-.74-1.74-1.72-.02-.68-.03-1.37,0-2.05.08-1.51,1.27-2.89,2.81-3.15.59-.1.77-.32.74-.9-.05-.76-.03-1.52,0-2.27.02-.49-.12-.72-.65-.7-.81.03-1.61.02-2.42,0-.42,0-.6.15-.67.57-.34,1.83-1.79,3.08-3.5,3.06-1.7-.02-3.12-1.23-3.45-3.03-.09-.49-.28-.6-.71-.59-.81.01-1.61.01-2.42,0-.38,0-.6.07-.69.53-.39,2-1.72,3.08-3.76,3.1-.65,0-1.32-.01-1.96-.14-.8-.15-1.27-.85-1.25-1.66.02-.81.53-1.44,1.36-1.57.55-.08,1.12-.02,1.68-.09.19-.03.5-.27.5-.42.04-1.07.02-2.14.02-3.24-.29-.07-.53-.13-.76-.18-1.45-.29-2.51-1.4-2.8-2.85-.05-.25-.28-.61-.49-.66-1.93-.46-2.78-1.31-3.14-3.28-.01-.07-.05-.13-.1-.28-.54,0-1.1.03-1.65,0-.78-.05-1.45-.35-1.71-1.15-.21-.64-.15-1.35.41-1.74.45-.31,1.06-.49,1.61-.52,1.44-.08,1.45-.04,1.45-1.51,0-.71,0-1.41,0-2.17-.26-.07-.48-.14-.71-.19-1.54-.32-2.56-1.36-2.82-2.89-.06-.37-.15-.59-.57-.58-.71.01-1.42,0-2.13,0-.32,0-.63.03-.99.05v3.57c.71.06,1.41.08,2.1.18.85.12,1.41.86,1.38,1.71-.03.85-.65,1.57-1.5,1.6-1.59.05-3.18.06-4.77.04-.68-.01-.95.17-.93.9.05,2.1.02,4.21.01,6.31,0,1.98-1.47,3.5-3.42,3.59-1.66.07-3.36-1.37-3.55-3-.23-1.98.94-3.6,2.88-3.95.46-.08.68-.23.66-.74-.04-.8-.04-1.61,0-2.42.02-.52-.18-.68-.68-.68-1.08.01-2.15.02-3.23-.03-1.74-.09-3.19-1.54-3.29-3.26-.04-.66-.03-1.32,0-1.98.04-.96.84-1.72,1.75-1.72.97,0,1.65.7,1.69,1.75q.06,1.78,1.83,1.78c1.61,0,3.23-.02,4.84.01.56.01.73-.19.71-.72-.03-.78-.02-1.57,0-2.35.01-.45-.16-.64-.62-.71-1.72-.24-3.01-1.76-3.02-3.51,0-3.28,0-6.55,0-9.83,0-.27,0-.53,0-.9-1.17,0-2.29,0-3.4.01-.11,0-.3.19-.32.31-.29,1.98-1.52,2.97-3.42,3.25-.02,0-.04.03-.14.1,0,.42,0,.91,0,1.39,0,1.24-.67,2.02-1.72,2.03-1.09.01-1.73-.71-1.73-1.98,0-3.77,0-7.53,0-11.3,0-1.01,0-.99-.98-1.01-.48-.01-.98-.04-1.45-.15-.68-.17-1.25-1-1.22-1.66.04-.73.66-1.48,1.4-1.58.55-.08,1.13,0,1.68-.09.21-.03.5-.28.55-.48.49-2.06,1.72-3.1,3.83-3.12.65,0,1.32.02,1.96.14.76.14,1.21.82,1.2,1.62,0,.8-.48,1.45-1.25,1.58-.57.1-1.17.04-1.75.12-.19.03-.5.26-.5.41-.04,1.07-.02,2.14-.02,3.22.14.05.22.1.31.12,1.84.29,2.93,1.32,3.24,3.18.03.15.27.38.41.39,1.07.03,2.14.02,3.19.02.68-2.5,1.76-3.56,3.63-3.6,1.82-.04,2.96,1.05,3.71,3.6,1.02,0,2.07.02,3.11-.02.16,0,.44-.27.45-.43.04-1.04.02-2.09.02-3.26-.61,0-1.13.03-1.66,0-.77-.05-1.42-.31-1.78-1.07-.29-.6-.21-1.17.19-1.64.25-.3.63-.51,1-.66.28-.11.63-.07.94-.07,1.11-.01,1.11,0,1.42-1.07.4-1.35,1.51-2.32,2.91-2.43.48-.04.55-.28.55-.67,0-1.54,0-3.08,0-4.62,0-1.17.69-1.98,1.7-2,1.03-.03,1.73.79,1.74,2.02q.01,1.55,1.59,1.59c1.09.02,1.67.39,1.94,1.23.22.67-.03,1.48-.69,1.84-.41.23-.91.3-1.39.36-.45.06-.92.01-1.4.01-.13,1.22-.55,2.22-1.52,2.88-.41.28-.91.49-1.4.58-.51.09-.69.26-.68.79.03,1.98.03,3.96,0,5.94,0,.54.15.75.7.73.81-.03,1.62.01,2.42-.03.2-.01.53-.23.56-.39.35-1.88,1.47-2.91,3.33-3.19.07-.01.13-.05.28-.11,0-1.7,0-3.44,0-5.17,0-.96.49-1.61,1.3-1.8,1.12-.26,2.06.43,2.13,1.59.03.46-.04.94.03,1.39.03.2.3.47.5.5.48.08.98.01,1.46.06.91.09,1.53.7,1.59,1.53.06.89-.45,1.58-1.38,1.79-.35.08-.72.09-1.08.11-.34.02-.67,0-1.11,0,0,1.17-.01,2.26.02,3.35,0,.12.28.34.44.34.93.03,1.86.04,2.79,0,.17,0,.44-.27.49-.45.52-2.14,1.75-3.13,3.97-3.14,1.52,0,3.03-.01,4.55,0,.79,0,1.5.19,1.9.98.5.97.01,2.13-1.06,2.35-.57.12-1.16.11-1.75.11-.41,0-.58.16-.58.56,0,3.3,0,6.6.02,9.9,0,.18.32.5.52.52,2.03.21,3.19,2.23,3.08,3.85-.07,1.04-.01,2.1-.01,3.28.63,0,1.2-.03,1.77,0,.79.04,1.44.36,1.7,1.16.21.65.13,1.33-.43,1.74-.41.3-.96.43-1.47.52-.47.08-.97.02-1.57.02,0,1.17-.02,2.29.02,3.4,0,.12.32.32.51.33.81.04,1.61.02,2.42.02,2.62,0,3.74.9,4.3,3.46.72.06,1.45.07,2.16.21.91.17,1.4.93,1.32,1.83-.08.81-.7,1.43-1.55,1.47-.88.04-1.77.06-2.64-.04-1.48-.17-2.46-1.37-2.88-3.43h-3.61ZM155.84,287.9c-.28-.01-.47-.03-.67-.03-3.15,0-6.31.01-9.46-.01-.63,0-.78.21-.78.8.02,3.08.03,6.16,0,9.24,0,.71.25.86.89.86,3.08-.02,6.16,0,9.24-.01.26,0,.51-.05.78-.07v-10.76Z"/>
      <path class="cls-2" d="M188.16,334.62c0-.6,0-1.11,0-1.62.02-1.14.74-1.92,1.78-1.91,1.03,0,1.66.71,1.68,1.89q.03,1.63,1.67,1.64c1.66,0,3.33-.02,4.99.01.56.01.75-.18.7-.72-.03-.36-.01-.73,0-1.1.04-1.05.7-1.71,1.7-1.72.94,0,1.7.72,1.75,1.7.03.56,0,1.12,0,1.75h7.29c0-1.21-.02-2.42,0-3.63.03-1.63,1.24-3.04,2.84-3.36,2.3-.47,4.14,1.35,4.23,3.37.05,1.22.03,2.45,0,3.67-.04,1.7-1.23,3.1-2.9,3.38-.59.1-.75.33-.74.9.03,1.93.03,3.86,0,5.79,0,.58.18.79.75.77.81-.03,1.61-.02,2.42,0,.38,0,.53-.13.61-.53.41-2.01,1.72-3.07,3.77-3.09.68,0,1.37.02,2.03.15.77.16,1.21.86,1.19,1.64-.02.76-.52,1.4-1.3,1.54-.52.09-1.07.11-1.6.09-.5-.01-.71.14-.69.67.04.81.03,1.61,0,2.42-.02.51.14.69.66.68,1.49-.03,2.98-.03,4.47,0,.75.01,1.46.18,1.84.95.51,1.03.02,2.15-1.11,2.38-.52.11-1.07.11-1.6.09-.47-.01-.67.14-.66.62.02,1.02,0,2.04,0,3.14,1.68,0,3.24,0,4.8,0,.36,0,.73.03,1.08.12.83.2,1.29.82,1.27,1.65-.02.79-.48,1.41-1.28,1.55-.71.12-1.45.12-2.02.17-.42.83-.66,1.7-1.2,2.3-.48.54-1.25.92-1.96,1.14-.54.17-.7.35-.69.87.02,1.59.02,3.18-.02,4.77-.02.8-.59,1.44-1.29,1.58-.86.17-1.61-.15-1.95-.92-.15-.34-.16-.75-.19-1.14-.03-.46,0-.92,0-1.41h-10.86c0,1.14-.01,2.27.03,3.41,0,.1.36.27.55.28.93.03,1.86,0,2.79.02,2.32.03,3.79,1.52,3.8,3.83,0,.93.02,1.86,0,2.79-.01.47.21.57.62.57,2.03-.01,4.06-.01,6.09,0,.45,0,.6-.16.6-.6-.02-1-.01-2,0-3.01.01-1.77,1.11-3.15,2.86-3.47.55-.1.72-.32.7-.86-.04-.85-.01-1.71,0-2.57,0-2.05,1.04-3.36,3.05-3.79.38-.08.55-.2.63-.63.31-1.81,1.51-2.88,3.35-3.01.73-.05,1.47-.03,2.19.04.87.08,1.42.78,1.42,1.66,0,.88-.57,1.55-1.44,1.65-.67.07-1.35.08-2.04.12-.06.26-.09.48-.15.68-.41,1.49-1.28,2.51-2.88,2.75-.41.06-.66.19-.66.68.02,2.05.01,4.11,0,6.16,0,.44.22.58.61.66,1.88.36,3,1.74,3.01,3.66,0,.51.02,1.03,0,1.54-.04.98-.8,1.75-1.72,1.75-.94,0-1.66-.74-1.72-1.74-.03-.59.1-1.39-.23-1.71-.3-.3-1.11-.11-1.69-.14-.1,0-.2,0-.29,0-.44.01-.98-.12-1.29.09-.28.19-.32.75-.46,1.15-.52,1.46-1.75,2.36-3.45,2.37-4.06.03-8.12.02-12.18,0-.8,0-1.47-.29-1.83-1.1-.28-.64-.19-1.29.29-1.68.43-.35,1.06-.59,1.62-.63,1.54-.11,1.55-.06,1.54-1.6,0-.61-.01-1.22-.03-1.83,0-.09-.06-.18-.1-.3h-10.76c0,.95-.02,1.89,0,2.83.03.92-.07,1.79-.57,2.6-.55.88-1.3,1.5-2.34,1.59-.96.09-1.95.08-2.9-.02-.72-.08-1.28-.89-1.29-1.58,0-.73.58-1.49,1.33-1.62.52-.09,1.07-.1,1.6-.09.5.01.71-.15.7-.67-.03-.81-.03-1.61,0-2.42.02-.51-.18-.67-.68-.67-2.64.02-5.28.01-7.92,0-.85,0-1.6-.19-2.03-1.03-.43-.85.02-2.02.95-2.24.61-.15,1.26-.15,1.89-.16.43,0,.62-.15.62-.59-.01-2.05-.01-4.11,0-6.16,0-.4-.15-.58-.56-.58-.51,0-1.03,0-1.54-.06-.85-.1-1.55-.88-1.55-1.67,0-.77.68-1.62,1.49-1.64,2.15-.05,4.3-.08,6.44.04,1.27.07,2.45,1.41,2.65,2.79.09.6.33.71.85.69.95-.03,1.89,0,2.94,0,0-.69,0-1.29,0-1.89s0-1.16,0-1.86c-.65,0-1.23.03-1.8,0-.75-.05-1.38-.35-1.65-1.12-.22-.65-.15-1.33.39-1.74.4-.3.95-.45,1.46-.54.49-.09,1.01-.02,1.53-.02.22-1.48.81-2.63,2.16-3.26.57-.27,1.52-1.24,1.8-1.79.57-1.11,1.39-1.88,2.68-2.04.14-.02.29-.06.43-.1.04-.01.08-.05.18-.12,0-1.03.02-2.1-.02-3.17,0-.15-.27-.41-.43-.41-.95-.04-1.91-.03-2.86,0-.14,0-.39.18-.4.3-.28,1.97-1.48,3-3.37,3.33-.05,0-.09.05-.2.11,0,.5.01,1.03,0,1.56-.03,1.08-.79,1.87-1.78,1.85-1.01-.02-1.66-.72-1.68-1.83,0-.56,0-1.12,0-1.69.02-1.76,1.24-3.18,2.99-3.43.44-.06.57-.23.57-.66-.02-2.05-.02-4.11,0-6.16,0-.44-.14-.62-.59-.6-.83.02-1.66.03-2.49,0-.53-.02-.67.21-.66.7.02,1.52.01,3.03,0,4.55,0,1.22-.67,1.94-1.73,1.92-1.04-.02-1.71-.78-1.72-1.96,0-.48,0-.97,0-1.55-1.16,0-2.25-.02-3.34.02-.13,0-.36.31-.37.48-.04.88,0,1.76-.02,2.64,0,.41.2.57.58.57.46,0,.93,0,1.39.03.89.06,1.58.73,1.65,1.57.07.75-.54,1.56-1.38,1.74-.49.11-1.02.14-1.52.12-.53-.02-.76.13-.74.69.04.76.04,1.52,0,2.27-.03.6.23.76.78.75,1.61,0,3.23-.02,4.84.04,1.02.03,1.69.91,1.56,1.9-.09.69-.61,1.38-1.3,1.39-2.22.05-4.45.13-6.65-.05-1.49-.12-2.67-1.84-2.68-3.42-.01-2.15-.03-4.3,0-6.45.01-.63-.2-.81-.8-.77-.46.03-.93,0-1.39-.07-.83-.15-1.33-.76-1.37-1.57-.03-.82.43-1.49,1.26-1.65.71-.14,1.44-.14,2.27-.21,0-1.1.02-2.22-.03-3.33,0-.12-.38-.32-.59-.32-1.49-.03-2.99.03-4.47-.04-.54-.03-1.2-.22-1.57-.58-.96-.94-.47-2.38.84-2.72.35-.09.72-.12,1.08-.12,1.54-.01,3.08,0,4.74,0ZM220.42,363.32c.03-.17.06-.31.06-.46,0-3.28,0-6.55.02-9.83,0-.57-.31-.6-.75-.6-3.13.01-6.26.02-9.39,0-.58,0-.75.17-.74.75.03,3.15.01,6.31.01,9.46,0,.21.03.43.05.68h10.73ZM209.73,341.8c0-1.17.02-2.21-.02-3.26,0-.16-.29-.44-.46-.45-.9-.05-1.81-.05-2.71,0-.19.01-.51.31-.52.48-.05.92-.04,1.85,0,2.78,0,.15.26.42.41.43,1.07.04,2.14.02,3.3.02ZM195.26,366.81c0,1.18-.02,2.25.02,3.31,0,.15.27.4.43.41.92.04,1.85.04,2.77,0,.17,0,.47-.29.48-.45.05-.92.05-1.85,0-2.77,0-.17-.29-.46-.45-.47-1.04-.04-2.09-.02-3.25-.02Z"/>
      <path class="cls-2" d="M295.77,259.19c0,1.07,0,2.14,0,3.21,0,.5.35.44.66.44,1.49,0,2.98,0,4.47,0,.67,0,1.31.1,1.72.76.67,1.07.21,2.31-1.02,2.56-.68.14-1.41.13-2.11.12-1.37,0-2.74.05-4.1-.11-1.72-.2-2.71-1.2-3.03-2.91-.09-.48-.27-.62-.71-.6-.44.01-.88.01-1.32-.02-.88-.07-1.57-.75-1.64-1.59-.06-.74.56-1.57,1.4-1.72.69-.12,1.4-.13,2.04-.19.28-.67.48-1.35.84-1.94.5-.83,1.27-1.32,2.26-1.46.23-.03.6-.33.61-.51.04-2.25.03-4.49.03-6.88-1.15,0-2.26-.01-3.37.02-.11,0-.29.29-.31.47-.05.41-.01.83-.03,1.25-.03,1.07-.74,1.82-1.72,1.81-.95,0-1.72-.77-1.74-1.82-.03-1.49,0-2.98-.01-4.47,0-.26-.02-.52-.04-.83h-3.58c-.03.24-.07.46-.07.67,0,1.96,0,3.91-.01,5.87,0,.54.16.76.73.84,1.56.21,2.83,1.74,2.86,3.34.03,1.64-1.14,3.16-2.7,3.47-.48.09-.97.14-1.45.14-4.28,0-8.56,0-12.84,0-.27,0-.53,0-.87,0-.02.31-.04.57-.04.83,0,1.47,0,2.93,0,4.4,0,1.11-.81,1.96-1.79,1.93-.99-.02-1.66-.79-1.68-1.92q-.03-1.62-1.67-1.68c-1.16-.04-1.92-.69-1.95-1.66-.03-.89.72-1.66,1.79-1.79.36-.04.74-.04,1.1,0,.53.05.76-.12.74-.69-.03-.78-.03-1.57,0-2.35.02-.51-.2-.69-.7-.68-.78.02-1.57.02-2.35,0-.48-.01-.73.13-.68.66.04.39.02.78,0,1.17-.05.96-.84,1.74-1.74,1.76-.97.01-1.69-.74-1.72-1.8,0-.07,0-.15,0-.22-.01-1.35-.01-1.34-1.22-1.76-.84-.29-1.47-.83-1.92-1.61-.71-1.23-.58-2.56-.41-3.86.12-.89,1.01-1.44,1.83-1.33.96.13,1.49.74,1.53,1.75q.06,1.76,1.85,1.76c1.61,0,3.23-.02,4.84,0,.52,0,.7-.18.68-.68-.02-.78-.02-1.57,0-2.35.01-.47-.15-.69-.65-.76-1.64-.22-2.95-1.73-2.97-3.4-.02-1.19,0-2.38,0-3.6-.78-.06-1.48-.07-2.17-.18-.91-.14-1.43-.87-1.37-1.78.05-.85.66-1.47,1.56-1.54.49-.04.98,0,1.46-.06.19-.03.49-.27.5-.42.04-1.05.02-2.09.02-3.26-.58,0-1.11.02-1.64,0-.96-.05-1.66-.55-1.85-1.28-.2-.73.03-1.48.68-1.86.34-.2.77-.27,1.17-.31.5-.05,1.01-.01,1.58-.01v-3.71c-1.12,0-2.21-.01-3.31.02-.13,0-.33.26-.35.42-.05.43-.01.88-.02,1.32-.03,1.06-.69,1.75-1.67,1.76-.98,0-1.73-.73-1.77-1.77-.02-.54,0-1.07,0-1.74-1.17,0-2.3-.01-3.44.02-.1,0-.28.31-.28.48-.02,2.08-.03,4.16,0,6.23,0,.2.27.51.47.57,2.3.64,3.16,1.74,3.16,4.16,0,.9,0,1.81,0,2.71,0,1.93-1.2,3.38-3.12,3.64-.84.11-1.71.07-2.55-.02-.81-.09-1.43-.86-1.43-1.61,0-.71.58-1.46,1.35-1.61.54-.11,1.11-.12,1.67-.11.49,0,.64-.18.63-.65-.02-.83-.01-1.66,0-2.49,0-.36-.08-.57-.49-.67-2.06-.51-2.75-1.25-3.24-3.47-1.07,0-2.16-.02-3.25.03-.14,0-.36.35-.37.55-.04.88-.08,1.76-.01,2.64.18,2.2-1.45,3.97-3.89,3.96-.88,0-1.76.01-2.64,0-.4,0-.61.09-.69.54-.29,1.64-1.26,2.6-2.94,2.92-.44.08-.6.26-.6.72.03,1.52.01,3.03,0,4.55,0,1.19-.67,1.96-1.69,1.99-1.07.03-1.74-.74-1.74-2,0-1.47-.03-2.94.01-4.4.02-.63-.2-.81-.8-.78-.48.03-.98,0-1.45-.09-.78-.14-1.37-.86-1.39-1.57-.02-.74.58-1.51,1.39-1.65.69-.12,1.4-.12,2-.16.36-.77.63-1.52,1.04-2.19.49-.77,1.28-1.15,2.2-1.32.21-.04.49-.29.54-.5.44-1.65,1.32-2.8,3.12-3.08.2-.03.47-.32.52-.53.38-1.78,1.35-2.73,3.1-3.07.18-.03.42-.36.42-.57.04-.98.02-1.96.02-2.93,0-1.91,1.24-3.33,3.12-3.67.21-.04.46-.37.51-.6.08-.4.02-.83.03-1.24.03-1.03.71-1.76,1.66-1.8.91-.03,1.74.78,1.79,1.78.02.39.03.79,0,1.17-.05.53.19.67.68.66,3.15-.01,6.31-.02,9.46,0,.63,0,.79-.24.79-.83-.02-2.64.03-5.28-.02-7.92-.02-1.25.62-1.96,1.71-2.05,1.01-.08,1.77.86,1.77,2.09,0,2.64.01,5.28,0,7.92,0,.52.09.76.69.84,1.6.21,2.82,1.68,2.85,3.32.02,1.03.02,2.05,0,3.08-.01.5.15.72.67.7.83-.02,1.66-.02,2.49,0,.43,0,.63-.15.6-.6-.03-.41-.02-.83,0-1.25.04-.98.8-1.75,1.72-1.75.95,0,1.68.73,1.71,1.74.02.66.03,1.32,0,1.98-.08,1.88-1.67,3.29-3.77,3.34-.93.02-1.86.02-2.79,0-.41,0-.63.08-.63.56.02,2.05.01,4.11,0,6.16,0,.39.14.6.53.62,1.96.13,3.21,2.17,3.15,4.02-.09,3.2-.02,6.41-.03,9.61,0,.42.04.69.58.68,3.28-.02,6.55-.01,9.83-.01.12,0,.23-.04.43-.08,0-1.13.02-2.25-.02-3.36,0-.14-.31-.34-.5-.38-1.91-.36-3.02-1.68-3.03-3.63,0-.9,0-1.81,0-2.71,0-2.62.94-3.75,3.56-4.23,0-.54-.02-1.09,0-1.65.04-1.09.65-1.81,1.57-1.87,1.08-.07,1.83.58,1.89,1.67.03.6,0,1.2,0,1.84h3.7c0-.6-.02-1.17,0-1.74.03-.82.59-1.57,1.24-1.73.78-.2,1.53.03,1.92.71.2.34.28.78.29,1.18.03,1.49.03,2.98,0,4.47,0,.53.15.76.71.74.97-.03,1.95,0,2.82,0,.28-.69.46-1.31.76-1.85.82-1.46,2.45-2.03,4.11-1.52,1.46.45,2.53,2.04,2.4,3.56-.13,1.57-1.4,2.97-2.97,3.18-.57.07-.66.36-.65.83.01,2.05,0,4.11,0,6.16,0,2.16-.96,3.33-3.09,3.79-.14.03-.28.09-.48.15ZM249.19,226.83c-1.17,0-2.24-.02-3.31.02-.14,0-.38.34-.39.53-.04.85-.01,1.71-.02,2.57,0,.39.15.59.56.59.88,0,1.76.03,2.64-.03.18-.01.49-.31.5-.49.05-1.02.02-2.05.02-3.19Z"/>
      <path class="cls-2" d="M184.42,212.54c.28-.72.43-1.36.75-1.88.87-1.39,2.19-1.89,3.79-1.55,1.35.29,2.37,1.43,2.66,2.9.04.21.24.53.41.56,2.02.32,2.97,1.61,3.29,3.6,1.1,0,2.19.02,3.28-.02.13,0,.35-.27.37-.43.17-1.63,1.55-3.07,3.57-3.15,0-.57-.01-1.15,0-1.73.03-1.1.77-1.85,1.78-1.83,1,.02,1.64.73,1.66,1.84,0,.51,0,1.03,0,1.54-.01,1.87-1.14,3.2-2.96,3.56-.22.04-.55.29-.56.46-.05,1.07-.03,2.14-.03,3.3,1.16,0,2.25.01,3.34-.02.12,0,.33-.21.35-.35.35-1.97,1.53-3.03,3.58-3.2,0-1.76-.01-3.52,0-5.28.01-1.37,1.04-2.13,2.31-1.76.68.2.95.72,1.11,1.34.03.12.02.24.02.36q.06,1.72,1.8,1.72c2.74,0,5.48,0,8.22,0,.27,0,.53,0,.82,0,.08-.33.13-.61.21-.89.42-1.41,1.31-2.33,2.79-2.58.42-.07.61-.21.71-.65.4-1.92,1.76-3.04,3.73-3.07,2.81-.03,5.62-.02,8.44,0,.83,0,1.52.31,1.88,1.14.3.68.14,1.33-.36,1.74-.41.33-1.04.54-1.58.55-2.54.06-5.09.02-7.63.02q-1.08,0-1.09,1.09c0,.85,0,1.7,0,2.63.65,0,1.18-.03,1.71,0,.74.06,1.37.31,1.72,1.05.3.63.22,1.22-.21,1.71-.26.29-.65.49-1.02.62-.31.11-.68.06-1.02.06-6.06,0-12.13.01-18.19-.01-.73,0-1.02.18-.95.94.06.73.04,1.47,0,2.2-.02.49.17.63.64.62,1.96-.02,3.91-.01,5.87,0,2.53,0,3.58.8,4.31,3.2.06.18.34.39.54.42.5.07,1.03.01,1.54.06.83.08,1.43.73,1.49,1.56.06.75-.46,1.55-1.22,1.71-.73.15-1.49.16-2.3.24v7.13h3.63v-1.28c0-1.32-.02-2.64,0-3.96.02-.95.54-1.58,1.42-1.79.73-.17,1.5.15,1.83.85.15.32.2.7.2,1.06.02,1.61-.06,3.23.02,4.84.1,1.94-1.41,3.84-3.76,3.78-1.1-.03-2.19,0-3.41,0,0,.58,0,1.08,0,1.58,0,1.18-.72,2.01-1.76,2.01-1.01,0-1.69-.79-1.71-1.97q-.03-1.62-1.63-1.62c-4.01,0-8.02.01-12.03-.01-.67,0-.92.18-.87.87.05.75.03,1.52,0,2.27-.01.41.1.63.54.69,1.76.24,2.69,1.36,3.06,3.01.08.37.21.53.59.59,1.75.26,2.97,1.67,2.99,3.44,0,.61.02,1.22,0,1.83-.05.98-.77,1.67-1.7,1.67-.9,0-1.67-.72-1.73-1.66-.04-.58,0-1.17,0-1.91-1.09,0-2.13.07-3.16-.02-.78-.07-1.61-.2-2.3-.55-1.15-.58-1.68-1.67-1.72-2.95-.04-1.17,0-2.34,0-3.61-1.18,0-2.29-.02-3.4.03-.14,0-.31.41-.37.66-.37,1.64-1.73,2.79-3.39,2.84-1.62.05-3.1-1.09-3.49-2.7-.5-2.05.99-4.17,3.11-4.26,2.17-.08,4.35-.04,6.53-.06.31,0,.62-.04,1.02-.06,0-1.17,0-2.29,0-3.41,0-1.94,1.19-3.33,3.09-3.68.2-.04.5-.35.5-.54.04-2.1.02-4.2.03-6.31,0-.48-.28-.55-.67-.55-1.1,0-2.2.03-3.3-.06-1.72-.13-2.91-1.23-3.18-2.92-.08-.5-.3-.56-.72-.57-1.17-.01-2.35.03-3.51-.12-1.65-.22-2.69-1.28-2.95-2.91-.09-.53-.32-.62-.77-.62-2.67.01-5.33.03-7.99-.02-.52,0-1.12-.2-1.53-.51-.51-.39-.73-1.02-.44-1.71.33-.8.97-1.14,1.77-1.2.53-.04,1.07,0,1.54,0ZM220.41,234.07c.03-.17.08-.29.08-.41,0-3.3,0-6.6.01-9.9,0-.59-.35-.59-.77-.59-3.1,0-6.21.02-9.31-.01-.68,0-.8.24-.8.85.03,3.1.01,6.21.01,9.31,0,.24.03.47.04.74h10.73Z"/>
      <path class="cls-2" d="M170.19,219.66c.41-2.23,1.47-3.27,3.57-3.48.01-.24.04-.5.04-.75,0-1.52-.01-3.03,0-4.55.01-.95.53-1.61,1.32-1.79.82-.19,1.57.09,1.92.83.15.31.2.7.21,1.06.02,1.49.03,2.98,0,4.47,0,.57.2.8.77.76.41-.03.83-.02,1.25.02.9.08,1.51.69,1.59,1.54.08.77-.51,1.55-1.35,1.76-.3.08-.62.12-.94.12-1.59.01-3.17,0-4.9,0,0,.33,0,.61,0,.89,0,3.2-.05,6.41.02,9.61.03,1.61-1.05,3.55-3.07,3.77-.63.07-.54.52-.54.92,0,4.18,0,8.36,0,12.54,0,.34.03.68.05,1.06h3.55c.12-.41.19-.82.35-1.2.67-1.62,1.89-2.38,3.75-2.36,1.02,0,2.05,0,2.97,0,.32-.74.53-1.42.88-2.01.82-1.37,2.59-1.88,4.2-1.28,1.38.52,2.4,2.2,2.19,3.63-.23,1.6-1.55,2.95-3.09,3.06-1.02.07-2.05.05-3.08.07-.31,0-.63.03-1.01.06,0,1.81,0,3.57,0,5.32,0,.61-.17,1.38.13,1.77.24.31,1.08.14,1.66.19,1.06.09,1.72.68,1.76,1.6.05.97-.53,1.72-1.62,1.79-.96.06-1.98.06-2.9-.17-1.44-.36-2.19-1.46-2.48-2.89-.04-.2-.26-.51-.42-.53-1.83-.24-2.77-1.37-3.18-3.07-.03-.14-.07-.28-.11-.45h-3.51c-.05.22-.11.45-.16.68-.3,1.53-1.59,2.78-3.14,2.81-3.1.06-6.21.05-9.31.02-.97,0-1.64-.7-1.71-1.58-.06-.83.57-1.59,1.51-1.77.31-.06.63-.09.94-.09,2.47,0,4.94,0,7.41,0,.26,0,.53,0,.88,0,0-.31,0-.55,0-.79,0-3.13,0-6.26.02-9.39,0-.48-.06-.72-.65-.79-1.39-.18-2.27-1.06-2.74-2.34-.13-.34-.18-.71-.29-1.16-1.07,0-2.16-.01-3.25.02-.13,0-.35.24-.38.4-.33,1.75-1.31,2.84-3.11,3.14-.17.03-.38.27-.43.45-.63,2.28-1.77,3.16-4.11,3.16-.53,0-1.08,0-1.6-.1-.84-.15-1.4-.87-1.38-1.65.02-.74.57-1.43,1.37-1.58.52-.1,1.07-.11,1.6-.1.41,0,.6-.11.68-.55.29-1.69,1.32-2.67,3.04-3.01.19-.04.43-.29.48-.48.42-1.69,1.27-2.89,3.17-3.06.16-.01.4-.33.43-.52.07-.48,0-.98.04-1.46.05-.94.66-1.59,1.54-1.64.98-.06,1.74.48,1.87,1.46.09.64.02,1.31.02,2.02h3.53c.28-.67.5-1.34.85-1.94.52-.89,1.34-1.42,2.38-1.51.44-.04.58-.23.58-.65-.01-2.05-.02-4.11,0-6.16,0-.5-.21-.63-.66-.62-.49.01-.98.02-1.46-.05-.86-.12-1.43-.76-1.46-1.57-.03-.82.46-1.53,1.31-1.69.71-.14,1.44-.14,2.21-.21Z"/>
      <path class="cls-2" d="M155.8,352.43c-1.7,0-3.36,0-5.02,0-.82,0-1.55-.19-1.93-1.04-.38-.85.05-1.93.93-2.22.34-.11.72-.17,1.08-.17,1.54-.02,3.08-.02,4.62,0,2.11.02,3.38,1.08,3.84,3.11.05.21.32.48.52.52,1.6.3,2.67,1.3,3.04,2.88.06.26.26.66.45.69,1.99.32,2.94,1.58,3.24,3.55.97,0,1.94,0,2.92,0,1.35-.01,2.65.2,3.41,1.43.42.67.73,1.52.75,2.3.08,3.22.03,6.45.03,9.68v.94c.54,0,1.04-.01,1.54,0,.99.03,1.75.51,1.97,1.23.33,1.09-.4,2.16-1.58,2.2-1.54.05-3.08.06-4.62.01-.71-.02-.98.22-.91.92.04.34.02.68,0,1.03-.07.95-.81,1.67-1.71,1.68-.89,0-1.68-.73-1.71-1.68-.05-1.54-.03-3.08-.05-4.62,0-.26,0-.53,0-.87h-.86c-2.54,0-5.08,0-7.63,0-.39,0-.78-.05-1.15-.16-.62-.18-1.11-.92-1.1-1.58,0-.66.5-1.38,1.13-1.55.37-.1.77-.14,1.15-.15,2.49-.01,4.99,0,7.48,0,.29,0,.58,0,1,0,0-.53,0-.98,0-1.44,0-1.69-.02-3.37,0-5.06,0-.58-.12-.85-.78-.93-1.37-.17-2.48-1.37-2.77-2.95-.08-.42-.23-.57-.63-.63-1.72-.27-2.63-1.34-2.99-2.99-.05-.21-.27-.51-.45-.54-2-.32-2.91-1.6-3.24-3.58Z"/>
      <path class="cls-2" d="M139.66,230.47c-1.9-.12-3.83-.06-5.69-.39-3.45-.62-6.42-3.81-6.67-7.3-.22-3.2-.25-6.45,0-9.65.3-4.04,3.72-7.36,7.76-7.62,3.16-.2,6.35-.2,9.51.03,4.09.3,7.47,4.19,7.55,8.41.05,2.61.05,5.23,0,7.85-.08,4.56-3.78,8.31-8.42,8.53-1.34.06-2.69,0-4.03,0v.13ZM148.76,217.9s-.05,0-.07,0c0-1.27,0-2.54,0-3.81-.02-2.53-2.03-4.96-4.55-5.12-2.85-.19-5.72-.24-8.57-.05-3.01.2-4.97,2.57-4.98,5.59,0,2.37-.02,4.74,0,7.12.04,2.85,2.39,5.24,5.23,5.29,2.54.05,5.09.04,7.63,0,2.44-.04,4.63-1.74,5.04-4.12.28-1.6.19-3.26.27-4.89Z"/>
      <path class="cls-2" d="M290.44,230.25c-1.61,0-3.24.14-4.83-.03-3.86-.4-7.1-3.53-7.48-7.4-.26-2.69-.2-5.42-.14-8.12.03-1.25.19-2.57.65-3.71,1.44-3.57,4.26-5.42,8.05-5.59,2.82-.13,5.67-.07,8.49.12,3.78.26,7.3,3.6,7.59,7.38.25,3.23.27,6.5.02,9.72-.34,4.31-3.97,7.51-8.32,7.71-1.34.06-2.69,0-4.03,0v-.09ZM281.39,217.85c0,1.22,0,2.45,0,3.67.02,2.91,2.32,5.32,5.21,5.38,2.57.05,5.14.05,7.7,0,2.84-.06,5.18-2.48,5.2-5.32.02-2.49.02-4.99,0-7.48-.02-2.52-2.06-4.97-4.56-5.14-2.87-.19-5.77-.23-8.64-.04-2.98.2-4.9,2.56-4.91,5.56,0,1.12,0,2.25,0,3.37Z"/>
      <path class="cls-2" d="M152.24,368.69c-.12,1.9-.07,3.83-.4,5.69-.6,3.37-3.79,6.37-7.17,6.62-3.16.23-6.36.27-9.51.04-4.04-.29-7.01-2.96-7.74-6.94-.65-3.56-.64-7.23-.01-10.79.73-4.12,3.82-6.78,8.05-7.06,2.99-.19,6.02-.17,9,.09,4.31.38,7.6,4.19,7.66,8.52.02,1.27,0,2.54,0,3.81.04,0,.08,0,.11,0ZM148.75,368.73s-.05,0-.07,0c0-1.22,0-2.45,0-3.67,0-2.95-2.29-5.35-5.24-5.42-2.52-.06-5.04-.06-7.55,0-2.97.07-5.28,2.49-5.3,5.47-.02,2.4-.02,4.79,0,7.19.02,2.93,2.34,5.35,5.27,5.42,2.52.07,5.04.06,7.55,0,2.54-.06,4.66-1.76,5.09-4.25.27-1.55.18-3.16.25-4.74Z"/>
      <path class="cls-2" d="M256.3,313.01c0,.56,0,1.07,0,1.58-.02,1.15-.72,1.91-1.76,1.91-1.05,0-1.67-.69-1.69-1.87q-.03-1.67-1.71-1.67c-.63,0-1.27,0-2.02,0,0,.55,0,1.05,0,1.55-.01,1.24-.67,1.99-1.76,1.99-1.07,0-1.68-.7-1.69-1.94,0-.51,0-1.03,0-1.54.02-1.74,1.13-3.1,2.84-3.39.55-.09.73-.3.7-.85-.04-.97-.01-1.94-.01-3.01-.64,0-1.19.03-1.75,0-.93-.06-1.5-.48-1.72-1.23-.2-.68,0-1.46.62-1.81.42-.24.96-.36,1.45-.37,2.54-.04,5.08-.02,7.63-.02.29,0,.57,0,.96,0,0-.61,0-1.14,0-1.67.02-1.15.74-1.9,1.78-1.89,1.03.01,1.65.72,1.66,1.9,0,1.49.03,2.98,0,4.47-.01.58.19.77.76.74.48-.02.98.01,1.45.1.82.14,1.47.94,1.44,1.69-.03.81-.75,1.54-1.6,1.63-.07,0-.15.03-.22.02-1.18-.19-1.86.12-2.16,1.47-.25,1.12-1.25,1.83-2.46,2.04-.22.04-.43.1-.74.17Z"/>
      <path class="cls-2" d="M155.81,341.8c.21-1.34.67-2.49,1.9-3.09.53-.26,1.15-.39,1.74-.44.97-.07,1.95-.03,2.93-.02.41,0,.63-.07.72-.58.31-1.61,1.25-2.68,2.93-2.95.49-.08.63-.31.63-.78-.03-1.51-.05-3.03-.03-4.54.02-1.37,1.07-2.2,2.27-1.83.63.2,1.03.64,1.16,1.29.04.21.04.44.05.66.02.44-.11.98.1,1.29.19.28.74.31,1.14.44,1.41.46,2.44,2.01,2.35,3.53-.09,1.53-1.27,2.98-2.78,3.17-1.18.15-2.39.12-3.58.1-.63-.01-.88.16-.84.82.05.9.02,1.81.01,2.71,0,2.1-1.38,3.62-3.49,3.64-5.35.05-10.7.03-16.05,0-1.17,0-1.85-.72-1.82-1.75.03-1.01.77-1.66,2.01-1.67,2.61-.02,5.23,0,7.84,0,.26,0,.53,0,.82,0Z"/>
      <path class="cls-2" d="M180.92,359.62v3.75c.81,0,1.58-.02,2.35,0,.71.02,1.42.02,2.11.15,1.53.29,2.71,1.82,2.68,3.41-.02,1.59-1.3,3.16-2.84,3.37-.58.08-.76.29-.85.85-.25,1.56-1.52,2.65-3.31,2.81-.77.07-1.56.02-2.33-.1-.84-.13-1.31-.8-1.31-1.61,0-.8.49-1.44,1.33-1.6.52-.1,1.07-.1,1.6-.1.42,0,.63-.1.61-.58-.03-.88-.03-1.76,0-2.64.01-.41-.17-.54-.53-.62-2.09-.48-3.02-1.65-3.02-3.78,0-.93.02-1.86-.02-2.79,0-.2-.23-.53-.39-.55-2-.29-2.93-1.58-3.3-3.53-.94,0-1.88.01-2.83,0-.95-.02-1.91,0-2.85-.12-.89-.11-1.45-.9-1.39-1.77.06-.83.7-1.47,1.57-1.54.49-.04.98-.04,1.47-.04.4,0,.57-.17.55-.58-.02-.39-.01-.78,0-1.17.03-1.09.71-1.82,1.71-1.83.96-.01,1.7.76,1.73,1.81,0,.02,0,.05,0,.07,0,.49-.14,1.07.07,1.44.17.29.79.31,1.2.48,1.27.52,2.06,1.45,2.28,2.82.07.44.25.56.67.55,1.52-.02,3.03-.02,4.55,0,1.23.02,1.97.66,1.98,1.69.01,1.02-.68,1.68-1.85,1.74-.53.02-1.06,0-1.67,0Z"/>
      <path class="cls-2" d="M188.07,226.83c0,1.15-.03,2.18.02,3.2,0,.19.29.49.49.53,1.9.36,3.04,1.69,3.05,3.62,0,.54.01,1.08,0,1.61-.03,1.04-.72,1.73-1.69,1.74-.93,0-1.71-.74-1.76-1.71-.03-.56,0-1.12,0-1.76-.3-.01-.56-.04-.82-.04-1.96,0-3.91-.02-5.87,0-2.59.03-4.22-1.73-4.05-4.04.03-.44-.01-.88.01-1.32.05-1.01.8-1.75,1.74-1.72.9.02,1.64.76,1.7,1.7.02.34.04.69,0,1.03-.1.74.23.93.91.89.75-.05,1.51-.02,2.27-.01.39,0,.58-.16.57-.57-.02-.88-.01-1.76,0-2.64,0-.38-.16-.5-.53-.51-.58-.01-1.17-.02-1.74-.13-.82-.17-1.45-1.03-1.37-1.75.1-.84.79-1.54,1.67-1.55,3.15-.02,6.3-.05,9.46.03,1.67.04,3.06,1.6,3.13,3.31.03.61.02,1.22,0,1.83-.04,1.05-.78,1.79-1.75,1.78-1.02-.01-1.66-.71-1.69-1.81q-.04-1.7-1.75-1.7c-.63,0-1.26,0-1.99,0Z"/>
      <path class="cls-2" d="M137.83,348.98c-.36,2.58-2.1,3.54-4.16,3.47-1.49-.05-2.98,0-4.47-.02-.7,0-1.35-.13-1.77-.82-.6-1-.17-2.2.97-2.48.54-.13,1.11-.15,1.67-.13.56.02.71-.19.7-.72-.02-1.98-.02-3.96,0-5.94,0-.45-.15-.65-.59-.74-1.98-.42-3.06-1.76-3.06-3.78,0-1.64-.01-3.28,0-4.91,0-.87.55-1.58,1.28-1.76.81-.2,1.6.08,1.95.78.16.31.21.7.22,1.05.02,1.49.02,2.98,0,4.47,0,.51.1.78.7.86,1.62.21,2.9,1.71,2.94,3.36.03,1.03.03,2.05,0,3.08-.02.52.17.69.67.68,1.52-.02,3.03,0,4.55,0,.66,0,1.25.15,1.64.76.63.97.19,2.29-.95,2.56-.72.17-1.49.16-2.29.23Z"/>
      <path class="cls-2" d="M295.81,374.06c-.77-.06-1.49-.06-2.17-.19-.84-.15-1.31-.81-1.3-1.62,0-.81.5-1.42,1.33-1.6.38-.08.77-.09,1.16-.09,1.04-.01,1.04,0,1.05-1.01,0-2.05-.03-4.11.01-6.16.03-1.39.65-2.5,1.9-3.17,1.19-.64,2.38-.57,3.54.13,1.08.66,1.82,2.19,1.62,3.39-.24,1.47-1.33,2.7-2.72,2.92-.71.11-.95.38-.89,1.08.06.73.03,1.47,0,2.2-.01.42.14.64.57.67,1.86.13,3.16,2.07,3.07,3.85-.08,1.56-.01,3.13-.02,4.69,0,1.2-.75,2.04-1.77,2.01-1.04-.03-1.66-.78-1.67-2,0-.07,0-.15,0-.22,0-1.2,0-1.18-1.11-1.53-1.61-.52-2.31-1.76-2.59-3.35Z"/>
      <path class="cls-2" d="M263.48,366.84c.8.07,1.51.08,2.2.19.82.14,1.35.87,1.33,1.68-.02.86-.62,1.53-1.48,1.63-.34.04-.68.03-1.02.05-.31.01-.62.03-.82.04-.34.76-.57,1.46-.94,2.07-.47.79-1.23,1.26-2.15,1.37-.61.07-.82.33-.79.95.05.9.02,1.81.01,2.71,0,2.06-1.55,3.67-3.5,3.65-1.97-.01-3.48-1.6-3.48-3.66,0-1.15,0-2.3,0-3.44.01-1.75,1.1-3.08,2.82-3.41.45-.09.67-.22.79-.73.37-1.61,1.33-2.67,3.05-2.94.2-.03.45-.34.49-.56.08-.4.02-.83.03-1.24.03-1.08.72-1.81,1.71-1.8.96.01,1.71.77,1.75,1.8.02.53,0,1.07,0,1.65Z"/>
      <path class="cls-2" d="M195.33,291.6c.67,0,1.3-.03,1.93,0,.87.06,1.49.72,1.54,1.57.05.9-.49,1.66-1.4,1.74-.99.08-2.02.16-2.97-.06-1.45-.33-2.34-1.37-2.58-2.86-.08-.47-.26-.61-.7-.6-.97.02-1.95,0-3.07,0,0,.58,0,1.1,0,1.62-.01,1.16-.7,1.93-1.73,1.94-1.05,0-1.71-.72-1.71-1.93,0-1.51-.02-3.03,0-4.54,0-.47-.14-.65-.63-.64-.53.01-1.07-.01-1.59-.12-.84-.16-1.47-.97-1.42-1.71.05-.84.78-1.58,1.7-1.61,1.51-.04,3.03-.05,4.54-.01.7.02,1.07-.14.95-.92-.05-.29-.02-.59,0-.88.04-1.01.83-1.82,1.76-1.81.98,0,1.69.75,1.7,1.82.01,1.56-.01,3.13.02,4.69,0,.24.24.65.42.68,2,.31,2.92,1.59,3.27,3.62Z"/>
      <path class="cls-2" d="M141.5,259.1c0-.58,0-1.13,0-1.69,0-2.35,0-4.69,0-7.04,0-1.09.75-1.87,1.74-1.88,1.01,0,1.67.71,1.7,1.81.02.53-.13,1.25.15,1.54.27.28,1,.14,1.52.18.87.06,1.53.41,1.87,1.28.27.68-.01,1.21-.45,1.66-.24.24-.61.4-.94.48-.37.09-.78.06-1.17.06-.98.01-.98.01-.98.97,0,2.03,0,4.06,0,6.09,0,2.09-1.33,3.62-3.36,3.7-1.57.06-3.26-.85-3.61-3.05-.07-.41-.24-.54-.62-.53-.46,0-.93,0-1.39-.03-.89-.07-1.58-.74-1.65-1.58-.07-.77.58-1.57,1.46-1.75.33-.07.67-.1,1.01-.11,1.49-.02,2.98-.02,4.47-.02.04,0,.09-.03.24-.08Z"/>
      <path class="cls-2" d="M245.66,208.97c0-.6-.01-1.18,0-1.77.02-1.06.75-1.83,1.71-1.82.93,0,1.7.82,1.74,1.83,0,.05,0,.1,0,.15.01.49-.14,1.08.08,1.43.18.29.83.27,1.24.44,1.19.5,1.94,1.39,2.17,2.66.08.46.23.67.68.76,1.91.39,3.01,1.78,3.01,3.75,0,.49.02.98,0,1.47-.05.95-.88,1.75-1.76,1.75-.93,0-1.65-.76-1.69-1.77q-.07-1.86-1.92-1.86c-1.83,0-3.67-.04-5.5-.02-2.12.02-3.36-1.97-3.42-3.37-.07-1.75,1.32-3.3,3.15-3.56.14-.02.28-.04.5-.06Z"/>
      <path class="cls-2" d="M298.48,356.12c-1.02-.05-2.05-.04-3.07-.15-1.78-.19-3.06-1.64-3.09-3.42-.01-.98-.03-1.96,0-2.93.02-.56-.18-.76-.71-.86-1.99-.36-3.28-2.29-2.83-4.16.4-1.68,2.09-2.96,3.66-2.77,1.94.23,3.3,1.67,3.31,3.56,0,.98.03,1.95,0,2.93-.02.47.11.7.61.78,1.71.27,2.62,1.35,2.98,3,.04.2.34.45.56.48.48.08.97.03,1.46.07.88.07,1.55.78,1.59,1.62.03.63-.61,1.71-1.48,1.73-1,.02-2,.08-3,.13Z"/>
      <path class="cls-2" d="M130.67,327.34c-.53,0-1.06.02-1.59,0-.81-.04-1.45-.36-1.81-1.14-.3-.65-.1-1.2.32-1.68.2-.22.49-.42.78-.49.42-.11.87-.14,1.3-.11.7.05,1.05-.08,1.21-.91.28-1.44,1.26-2.39,2.73-2.6.95-.14,1.94-.11,2.9,0,.83.1,1.29.87,1.24,1.73-.05.83-.63,1.45-1.49,1.53-.51.05-1.02.04-1.54.04-.37,0-.52.15-.52.53.02,1.02,0,2.05,0,3.14.27.07.52.14.77.19,1.6.33,2.75,1.7,2.76,3.34.01,1.78.01,3.57,0,5.35,0,1.1-.68,1.8-1.69,1.8-.95,0-1.73-.77-1.75-1.79-.02-1.59,0-3.18,0-4.76,0-.34-.01-.58-.47-.66-1.82-.32-2.75-1.3-3.08-3.13-.02-.09-.05-.18-.09-.37Z"/>
      <path class="cls-2" d="M292.26,273.55c-.75-.06-1.45-.06-2.14-.18-.84-.14-1.47-.95-1.42-1.7.05-.79.71-1.53,1.56-1.59,1.05-.07,2.1-.04,3.15-.05.86,0,1.71-.03,2.57.02,1.98.11,3.34,1.55,3.37,3.53.01.98.02,1.95,0,2.93,0,.46.13.69.64.77,1.76.28,2.97,1.74,2.99,3.53,0,.56.02,1.13,0,1.69-.05.99-.81,1.72-1.75,1.71-.98-.01-1.65-.71-1.69-1.75,0-.05,0-.1,0-.15-.01-.49.13-1.06-.08-1.43-.17-.29-.78-.31-1.19-.46-1.26-.46-1.98-1.39-2.27-2.66-.11-.48-.26-.72-.81-.81-1.6-.26-2.53-1.39-2.9-3.39Z"/>
      <path class="cls-2" d="M180.85,266.33c.21-.56.34-1.11.6-1.6.86-1.61,2.56-2.25,4.31-1.66,1.4.47,2.48,2.18,2.29,3.65-.22,1.74-1.58,3.03-3.36,3.11-1.24.05-2.48.01-3.51.01-.46.92-.74,1.75-1.24,2.4-.93,1.21-2.63,1.52-4.04.88-1.31-.59-2.26-2.17-2.09-3.48.2-1.6,1.38-2.93,2.95-3.11,1.35-.15,2.72-.14,4.09-.2Z"/>
      <path class="cls-2" d="M267.12,212.51c-.72-.05-1.4-.03-2.06-.16-.93-.17-1.53-.92-1.47-1.73.06-.92.74-1.58,1.76-1.61,1.54-.04,3.08-.04,4.61,0,.65.02.89-.19.81-.84-.04-.36-.03-.73,0-1.1.06-.92.83-1.68,1.71-1.7.92-.02,1.71.73,1.72,1.73.03,1.86.04,3.71,0,5.57-.03,1.6-1.27,3-2.87,3.23-.55.08-.7.28-.66.79.03.39.03.78,0,1.17-.06.93-.9,1.74-1.77,1.74-.91,0-1.67-.77-1.68-1.77-.02-1.59,0-3.17-.02-4.76,0-.19-.05-.38-.08-.58Z"/>
      <path class="cls-2" d="M195.35,321.21c0-.85,0-1.71,0-2.56.01-1.16.72-1.93,1.75-1.92,1.04.01,1.67.72,1.7,1.88,0,.02,0,.05,0,.07.02,1.37.02,1.38,1.24,1.82,1.35.48,2.07,1.5,2.35,2.85.09.43.25.56.66.55.53-.01,1.08,0,1.6.08.78.13,1.28.75,1.32,1.53.04.81-.43,1.46-1.22,1.69-.14.04-.28.11-.42.11-2.02-.03-4.05.05-6.06-.13-1.68-.15-2.89-1.71-2.92-3.41-.01-.85,0-1.71,0-2.56Z"/>
      <path class="cls-2" d="M241.92,320.15c-1.6,0-3.18,0-4.77,0-.36,0-.73-.05-1.08-.14-.7-.19-1.27-.97-1.25-1.63.03-.68.63-1.4,1.33-1.56.26-.06.53-.09.8-.1,1.59,0,3.18-.01,4.77,0,2.07.02,3.32,1.07,3.76,3.08.05.21.33.47.55.53,2.09.52,3.08,1.76,3.08,3.92,0,.42.01.83,0,1.25-.03,1.01-.81,1.82-1.74,1.83-.96,0-1.68-.76-1.71-1.82,0-.1,0-.2,0-.29-.02-.44.1-.97-.1-1.28-.17-.26-.74-.25-1.12-.38-1.19-.43-1.92-1.3-2.29-2.49-.09-.27-.14-.56-.22-.9Z"/>
      <path class="cls-2" d="M198.8,267.37c0,.81,0,1.61,0,2.42,0,1.94-1.07,3.23-2.98,3.58-.4.07-.54.25-.62.65-.44,1.99-1.7,2.99-3.74,3.02-.51,0-1.03.02-1.54-.01-.99-.07-1.71-.76-1.76-1.64-.04-.77.61-1.51,1.51-1.71.69-.16,2.19-1.23,2.56-1.83.58-.94,1.35-1.63,2.49-1.74.57-.06.65-.33.64-.82-.02-1.54-.03-3.08,0-4.62.02-1.31,1.08-2.07,2.3-1.7.68.21,1.11.76,1.13,1.54.02.95,0,1.91,0,2.86h0Z"/>
      <path class="cls-2" d="M130.58,311.17c0,2.32,0,4.64,0,6.97,0,1.2-.65,1.97-1.68,1.99-1.01.02-1.78-.84-1.78-2.01,0-4.62,0-9.24,0-13.86,0-.9.48-1.58,1.22-1.8.81-.23,1.6.01,1.97.7.17.33.25.74.25,1.12.02,2.3.01,4.6.01,6.89Z"/>
      <path class="cls-2" d="M148.59,270.03c.65,0,1.18-.02,1.72,0,1.1.05,1.77.66,1.82,1.62.05.93-.52,1.57-1.58,1.77-.24.04-.48.05-.73.05-3.2,0-6.4,0-9.6,0-.12,0-.24,0-.37,0-1.2-.08-1.91-.76-1.88-1.8.03-1.02.72-1.63,1.94-1.64,1.49-.02,2.98-.02,4.47,0,.56.01.82-.17.77-.75-.03-.36-.01-.73,0-1.1.03-1,.75-1.76,1.68-1.78.87-.02,1.72.79,1.77,1.73.03.58,0,1.17,0,1.89Z"/>
      <path class="cls-2" d="M249.11,367.93c0,.73,0,1.47,0,2.2,0,2.22-1.36,3.75-3.56,3.84-1.73.07-3.47.04-5.21,0-.7-.01-1.35-.24-1.69-.96-.29-.61-.23-1.19.13-1.74.4-.6,1.02-.72,1.67-.73,1.44-.02,2.89-.03,4.33,0,.65.02.91-.15.89-.85-.05-1.42-.02-2.84-.01-4.25,0-1.34.65-2.11,1.74-2.07,1.07.04,1.71.83,1.71,2.13,0,.81,0,1.61,0,2.42Z"/>
      <path class="cls-2" d="M263.58,272.77c0-.32-.01-.64,0-.95.04-1.04.79-1.78,1.76-1.77.99.02,1.64.7,1.68,1.75.07,1.78.07,1.77,1.89,1.78,1.29.01,2.59,0,3.87.11.91.08,1.44.82,1.42,1.66-.02.9-.61,1.53-1.56,1.64-.44.05-.88.06-1.32.03-.53-.03-.7.19-.66.69.03.39.03.78,0,1.17-.06.98-.92,1.8-1.82,1.75-.94-.05-1.61-.79-1.64-1.81,0-.2,0-.39,0-.59q0-1.09-1.07-1.36c-1.37-.34-2.49-1.77-2.55-3.24-.01-.29,0-.59,0-.88Z"/>
      <path class="cls-2" d="M195.31,302.26c-.73-.05-1.39-.06-2.04-.14-.89-.1-1.48-.81-1.47-1.7.02-.85.61-1.56,1.48-1.62.92-.05,1.86-.07,2.77.03,1.29.15,2.47,1.41,2.7,2.84.09.54.29.68.8.66.51-.02,1.03,0,1.53.1.77.14,1.36.87,1.36,1.59,0,.71-.57,1.46-1.34,1.61-.54.11-1.11.13-1.67.11-.49,0-.66.18-.63.64.02.39.01.78,0,1.17-.04,1.05-.7,1.73-1.67,1.74-.99,0-1.75-.7-1.77-1.75-.03-1.61,0-3.22-.01-4.84,0-.14-.02-.29-.04-.48Z"/>
      <path class="cls-2" d="M241.92,356.18c1.18,0,2.25.02,3.32-.02.14,0,.38-.28.4-.45.06-.43.02-.88.03-1.32.02-.94.57-1.63,1.36-1.73,1-.13,1.83.32,1.99,1.28.19,1.14.29,2.33-.19,3.46-.53,1.24-1.44,2.08-2.81,2.15-1.6.07-3.22.09-4.82-.07-1.5-.15-2.64-1.6-2.71-3.12-.03-.66-.02-1.32,0-1.98.03-1.05.69-1.73,1.67-1.74,1-.01,1.72.7,1.76,1.75.02.56,0,1.12,0,1.8Z"/>
      <path class="cls-2" d="M159.32,330.97c0,1.87-1.5,3.49-3.41,3.52-1.58.03-3.17-.9-3.55-2.97-.09-.48-.25-.69-.74-.66-.44.03-.88.02-1.32-.02-.88-.08-1.51-.7-1.6-1.54-.08-.75.52-1.53,1.35-1.77.12-.03.24-.1.35-.1,2.02.03,4.06-.04,6.07.14,1.67.15,2.85,1.71,2.85,3.39Z"/>
      <path class="cls-2" d="M197.12,205.35c1.1,0,2.2-.02,3.3,0,.86.02,1.55.35,1.9,1.22.29.7.06,1.32-.44,1.71-.4.31-1,.47-1.53.5-1.54.09-1.54.05-1.54,1.6,0,1.48-1.02,2.33-2.28,1.91-.72-.24-1.16-.93-1.17-1.84q-.03-1.6-1.6-1.64c-1.21-.03-1.91-.62-1.95-1.62-.04-1.05.71-1.79,1.94-1.83,1.12-.04,2.25,0,3.37,0Z"/>
      <path class="cls-2" d="M249.11,251.92c0,.6,0,1.1,0,1.61-.02,1.18-.69,1.93-1.72,1.94-1.08,0-1.71-.69-1.73-1.9q-.02-1.6-1.59-1.65c-.83-.03-1.52-.28-1.9-1.1-.3-.65-.16-1.26.31-1.67.39-.34.97-.62,1.48-.63,2.27-.07,4.54-.06,6.81-.02,1.41.02,2.2,1.07,1.8,2.27-.24.71-.83,1.11-1.77,1.15-.51.02-1.02,0-1.67,0Z"/>
      <path class="cls-2" d="M231.12,334.54c.85.08,1.58.08,2.29.22.81.16,1.33.86,1.32,1.62-.01.8-.58,1.46-1.41,1.63-.17.03-.34.06-.51.06-2.27,0-4.54,0-6.81,0-.72,0-1.34-.21-1.7-.92-.3-.61-.25-1.18.11-1.73.38-.6,1-.74,1.65-.78.48-.03.97,0,1.59,0,0-.64-.03-1.24,0-1.84.05-.83.6-1.48,1.33-1.63.85-.18,1.53.09,1.92.83.15.29.18.65.2.98.03.53,0,1.06,0,1.58Z"/>
      <path class="cls-2" d="M133.33,266.33c1.04.06,2.1.05,3.13.2.88.13,1.36.87,1.29,1.76-.06.83-.64,1.48-1.51,1.51-1.58.06-3.17.07-4.76.03-.7-.02-1,.2-.91.91.04.29,0,.59,0,.88-.02,1.02-.52,1.62-1.48,1.77-.85.13-1.7-.32-1.86-1.25-.27-1.52-.34-3.06.72-4.4.78-.99,1.85-1.31,3.03-1.35.78-.03,1.56,0,2.34,0,0-.02,0-.04,0-.06Z"/>
      <path class="cls-2" d="M195.25,259.15c0,.57,0,1.1,0,1.63-.02,1.12-.7,1.85-1.72,1.87-1.04.01-1.7-.69-1.72-1.84,0-.49,0-.98,0-1.46.02-2.12,1.35-3.58,3.46-3.66,1.75-.07,3.51-.04,5.27-.01,1.01.02,1.6.49,1.86,1.35.17.58-.14,1.43-.77,1.75-.41.21-.92.31-1.39.32-1.39.04-2.78.01-4.17.02-.24,0-.47.02-.8.04Z"/>
      <path class="cls-2" d="M244.88,345.25c-.81,0-1.61.01-2.42,0-.41,0-.57.14-.55.56.02.44.02.88,0,1.32-.05.97-.84,1.75-1.74,1.74-.93-.01-1.66-.77-1.69-1.76-.02-.51,0-1.03,0-1.54,0-2.18,1.37-3.66,3.55-3.74,1.71-.06,3.42-.03,5.13,0,.83.01,1.5.35,1.83,1.2.27.67.07,1.27-.4,1.66-.37.32-.94.49-1.44.55-.75.09-1.51.02-2.27.02h0Z"/>
      <path class="cls-2" d="M176.52,341.77c2.09-.08,3.95.78,4.38,3.3.02.14.32.32.51.34.51.06,1.02.01,1.53.06.76.07,1.34.61,1.47,1.31.15.81-.21,1.54-.93,1.89-1.58.76-4.37.1-5.37-1.32-.31-.44-.53-1-.63-1.53-.09-.49-.31-.59-.73-.57-.44.02-.88.02-1.32-.03-.9-.11-1.58-.8-1.63-1.6-.05-.78.58-1.54,1.49-1.73.4-.08.82-.08,1.23-.12Z"/>
      <path class="cls-2" d="M158.56,212.51c-.5-.07-1.02-.09-1.51-.22-.69-.18-1.18-.9-1.18-1.6,0-.74.53-1.45,1.26-1.59.55-.1,1.11-.1,1.67-.1.4,0,.61-.11.69-.54.36-1.9,1.64-3.01,3.6-3.1.68-.03,1.37,0,2.03.12.88.16,1.41.92,1.35,1.74-.07.88-.7,1.6-1.63,1.55-1.21-.06-1.89.15-2.31,1.51-.56,1.8-2.22,2.24-3.99,2.23Z"/>
      <path class="cls-2" d="M245.62,334.62c.07-1.16.48-2.09,1.32-2.75,1.45-1.15,3.13-.89,4.76-.6.64.11,1,.93.94,1.66-.06.73-.45,1.28-1.15,1.44-.75.17-1.53.17-2.24.24-.23.59-.39,1.18-.67,1.71-.49.94-1.29,1.55-2.35,1.67-.87.1-1.76.1-2.63.04-.86-.05-1.52-.76-1.58-1.56-.06-.74.55-1.53,1.39-1.73.35-.08.72-.1,1.08-.12.36-.02.72,0,1.13,0Z"/>
      <path class="cls-2" d="M143.28,323.89c1.12,0,2.24-.02,3.37,0,1.13.02,1.93.73,1.95,1.67.02.9-.81,1.74-1.89,1.76-2.29.04-4.59.03-6.88,0-.76-.01-1.45-.29-1.74-1.09-.25-.67-.2-1.37.37-1.81.39-.3.96-.48,1.46-.51,1.12-.07,2.24-.02,3.36-.02Z"/>
      <path class="cls-2" d="M146.78,237.54c-1.12,0-2.25.02-3.37,0-.82-.02-1.45-.33-1.78-1.15-.27-.67-.08-1.27.39-1.67.4-.33.99-.58,1.5-.59,2.22-.06,4.45-.05,6.67-.02,1.59.02,2.43,1.39,1.68,2.64-.39.65-1.04.78-1.71.79-1.12.02-2.25,0-3.37,0h0Z"/>
      <path class="cls-2" d="M202.45,280.75c0,.54.01,1.07,0,1.6-.03,1.08-.78,1.86-1.77,1.84-1.01-.02-1.66-.72-1.68-1.82-.01-.56,0-1.12,0-1.69.02-1.89,1.39-3.34,3.28-3.45.73-.04,1.47-.04,2.2.01.89.07,1.48.73,1.52,1.59.04.83-.45,1.53-1.3,1.7-.69.13-1.4.14-2.24.22Z"/>
      <path class="cls-2" d="M274.2,378.3c0,.45.01.79,0,1.13-.04,1-.79,1.74-1.73,1.73-.88-.01-1.65-.76-1.71-1.69-.03-.44-.03-.88,0-1.32.03-.46-.18-.6-.6-.6-.51,0-1.03,0-1.53-.05-.77-.08-1.34-.7-1.42-1.45-.08-.81.35-1.63,1.07-1.8,1.3-.31,2.63-.34,3.87.22,1.67.76,2.18,2.19,2.05,3.82Z"/>
      <path class="cls-2" d="M162.95,224.06c0,.34.03.69,0,1.03-.09.96-.92,1.74-1.79,1.7-.93-.04-1.61-.78-1.67-1.79-.03-.58.1-1.33-.2-1.68-.26-.29-1.05-.12-1.6-.16-1.06-.07-1.71-.65-1.8-1.58-.08-.83.53-1.65,1.5-1.77,2.42-.32,4.25,0,5.17,1.98.31.68.38,1.48.55,2.23-.05.01-.1.02-.15.03Z"/>
      <path class="cls-2" d="M274.38,308.64c0-.34-.01-.68,0-1.02.05-.93.65-1.58,1.52-1.66.88-.08,1.65.42,1.84,1.31.12.54.1,1.11.1,1.67,0,.44.15.6.59.6.53,0,1.08,0,1.6.09.82.15,1.34.79,1.36,1.57.02.81-.49,1.58-1.35,1.64-1.12.08-2.3.08-3.38-.16-1.32-.29-2.21-1.64-2.28-3-.02-.34,0-.68,0-1.02Z"/>
      <path class="cls-2" d="M213.24,323.67c-.66,0-1.32.04-1.98,0-.84-.06-1.49-.76-1.53-1.59-.04-.73.5-1.61,1.26-1.66,1.5-.1,3.01-.11,4.5,0,.79.05,1.37.99,1.31,1.7-.07.83-.78,1.52-1.65,1.57-.63.04-1.27,0-1.9,0,0,0,0,0,0-.01Z"/>
      <path class="cls-2" d="M134.25,255.46c-.66,0-1.32.04-1.97,0-.86-.06-1.47-.76-1.5-1.6-.03-.87.5-1.64,1.37-1.7,1.4-.09,2.82-.09,4.22,0,.91.06,1.44.83,1.39,1.74-.04.86-.64,1.5-1.53,1.57-.65.05-1.32,0-1.97,0,0,0,0,0,0,0Z"/>
      <path class="cls-2" d="M180.94,208.78c-.66,0-1.32.04-1.97,0-.88-.06-1.48-.72-1.53-1.58-.05-.81.46-1.63,1.29-1.69,1.47-.11,2.96-.11,4.43,0,.88.07,1.34.88,1.28,1.76-.06.82-.65,1.42-1.52,1.51-.34.04-.68.03-1.02.03-.32,0-.63,0-.95,0,0,0,0-.02,0-.03Z"/>
      <path class="cls-2" d="M274.38,237.57c0-.59-.02-1.17,0-1.76.04-.93.61-1.53,1.53-1.66.78-.11,1.73.42,1.8,1.26.12,1.47.13,2.97,0,4.44-.08.89-.96,1.36-1.85,1.25-.84-.1-1.43-.73-1.47-1.63-.03-.63,0-1.27,0-1.9,0,0,0,0,0,0Z"/>
      <path class="cls-2" d="M177.27,237.62c0,.59.02,1.17,0,1.76-.03,1.02-.67,1.69-1.61,1.73-.95.04-1.78-.62-1.83-1.6-.07-1.26-.07-2.54,0-3.8.05-.91.97-1.64,1.81-1.58.95.07,1.6.75,1.63,1.74.02.59,0,1.17,0,1.76Z"/>
      <path class="cls-2" d="M238.48,255.56c0-.58-.02-1.17,0-1.75.03-1,.7-1.68,1.63-1.7.95-.03,1.76.65,1.79,1.63.05,1.24.05,2.49,0,3.73-.04.92-.89,1.65-1.76,1.62-.94-.03-1.63-.72-1.67-1.7-.02-.61,0-1.22,0-1.83Z"/>
      <path class="cls-2" d="M260.03,266.37c0-.59-.01-1.17,0-1.75.03-1.04.68-1.73,1.67-1.75.91-.02,1.75.73,1.78,1.68.04,1.19.04,2.39,0,3.58-.03,1.01-.84,1.74-1.82,1.7-.98-.04-1.61-.72-1.63-1.78-.01-.56,0-1.12,0-1.68Z"/>
      <path class="cls-2" d="M130.58,241.26c0,.56,0,1.12,0,1.68-.02,1.04-.69,1.74-1.66,1.77-.9.03-1.76-.74-1.79-1.68-.04-1.19-.04-2.39,0-3.58.03-1.02.82-1.72,1.81-1.7.97.02,1.61.7,1.64,1.76.01.59,0,1.17,0,1.76Z"/>
      <path class="cls-2" d="M152.25,248.43c.72.05,1.48.05,2.21.18.74.13,1.34.94,1.32,1.63-.02.68-.61,1.5-1.32,1.54-1.47.09-2.96.1-4.43,0-.8-.05-1.33-.84-1.34-1.59,0-.74.55-1.46,1.34-1.6.71-.12,1.45-.12,2.22-.17Z"/>
      <path class="cls-2" d="M238.4,216.2c.61,0,1.22-.03,1.83,0,.96.06,1.63.72,1.69,1.6.05.77-.53,1.63-1.4,1.69-1.42.11-2.86.1-4.29-.01-.84-.07-1.46-1-1.39-1.71.08-.82.78-1.48,1.66-1.57.07,0,.15-.01.22-.01.56,0,1.12,0,1.68,0,0,0,0,0,0,0Z"/>
      <path class="cls-2" d="M170.25,259.22c0-.59-.01-1.17,0-1.76.03-1.07.76-1.8,1.74-1.78.95.02,1.67.75,1.69,1.76.02,1.15.02,2.3,0,3.45-.02,1.07-.73,1.77-1.74,1.76-.98,0-1.66-.69-1.69-1.74-.02-.56,0-1.12,0-1.69Z"/>
      <path class="cls-2" d="M184.62,377.61c0-.58-.02-1.17,0-1.75.04-.97.74-1.68,1.65-1.71.89-.02,1.73.68,1.77,1.61.06,1.26.06,2.53,0,3.8-.04.9-.93,1.64-1.78,1.6-.94-.05-1.61-.73-1.64-1.72-.02-.61,0-1.22,0-1.83Z"/>
      <path class="cls-2" d="M137.76,244.85c0,.56.01,1.12,0,1.68-.02,1.06-.67,1.74-1.64,1.76-.98.02-1.77-.7-1.8-1.72-.03-1.19-.04-2.39,0-3.58.03-.94.9-1.71,1.79-1.68.95.03,1.61.71,1.65,1.71.02.61,0,1.22,0,1.83Z"/>
      <path class="cls-2" d="M299.4,302.28c.77.06,1.53.06,2.27.18.73.12,1.27.85,1.28,1.57.01.69-.54,1.55-1.25,1.59-1.52.09-3.05.09-4.57,0-.7-.04-1.28-.92-1.27-1.59.01-.68.59-1.45,1.3-1.57.74-.12,1.5-.13,2.24-.18Z"/>
      <path class="cls-2" d="M252.76,298.64c-.75-.05-1.51-.05-2.25-.18-.72-.12-1.29-.87-1.31-1.56-.02-.71.56-1.58,1.32-1.62,1.5-.09,3.01-.08,4.51,0,.71.04,1.27.89,1.27,1.58,0,.68-.57,1.43-1.28,1.59-.37.09-.77.1-1.16.12-.36.02-.73,0-1.1,0,0,.02,0,.03,0,.05Z"/>
      <path class="cls-2" d="M159.31,363.26c0,.61.02,1.22,0,1.83-.04.98-.74,1.67-1.68,1.69-.89.02-1.7-.7-1.74-1.64-.05-1.22-.04-2.45,0-3.67.03-1.01.78-1.68,1.77-1.66.94.01,1.62.69,1.66,1.69.02.59,0,1.17,0,1.76Z"/>
      <path class="cls-2" d="M148.58,338.06c-.56,0-1.13.03-1.69,0-1.04-.06-1.68-.63-1.75-1.52-.08-.96.43-1.73,1.49-1.82,1.38-.11,2.78-.08,4.15.04.89.08,1.36.81,1.34,1.65-.02.86-.58,1.51-1.5,1.61-.68.07-1.37.01-2.05.01,0,.01,0,.02,0,.03Z"/>
      <path class="cls-2" d="M238.29,368.66c.01.96-.68,1.68-1.63,1.7-.97.02-1.85-.8-1.83-1.71.02-.85.85-1.66,1.73-1.68.96-.03,1.72.72,1.73,1.69Z"/>
      <path class="cls-2" d="M245.47,260.95c.01.95-.69,1.67-1.64,1.69-.94.02-1.78-.73-1.82-1.64-.03-.86.83-1.73,1.72-1.76.94-.02,1.72.74,1.73,1.7Z"/>
      <path class="cls-2" d="M130.58,260.96c0,.95-.7,1.68-1.64,1.69-.96.02-1.78-.73-1.82-1.64-.03-.86.83-1.74,1.73-1.76.94-.02,1.72.75,1.73,1.7Z"/>
      <path class="cls-2" d="M189.9,255.47c-.93,0-1.77-.83-1.74-1.72.03-.91.87-1.67,1.81-1.65.96.02,1.65.72,1.65,1.68,0,.99-.72,1.7-1.72,1.69Z"/>
      <path class="cls-2" d="M260.03,207.01c.04-.9.86-1.66,1.74-1.62.88.04,1.76.95,1.71,1.78-.05.91-.88,1.65-1.83,1.62-.97-.03-1.67-.79-1.62-1.78Z"/>
      <path class="cls-2" d="M301.22,294.96c-.97,0-1.72-.75-1.71-1.7,0-.93.74-1.66,1.67-1.67.95-.01,1.76.75,1.77,1.67.01.9-.8,1.7-1.73,1.7Z"/>
      <path class="cls-2" d="M197.12,284.42c.94,0,1.67.72,1.68,1.66.01.95-.76,1.74-1.7,1.74-.89,0-1.75-.85-1.75-1.73,0-.92.81-1.68,1.77-1.68Z"/>
      <path class="cls-2" d="M150.4,316.5c-.95,0-1.74-.8-1.71-1.72.03-.86.86-1.67,1.72-1.68.92-.01,1.72.79,1.72,1.72,0,.97-.74,1.69-1.73,1.68Z"/>
      <path class="cls-2" d="M184.44,278.91c0,.95-.78,1.74-1.71,1.74-.86,0-1.76-.9-1.75-1.75.01-.86.83-1.65,1.72-1.66.99-.02,1.73.69,1.74,1.67Z"/>
      <path class="cls-2" d="M232.99,352.63c.97,0,1.74.75,1.74,1.69,0,.93-.8,1.69-1.75,1.68-.94-.01-1.67-.73-1.69-1.66-.02-.96.73-1.71,1.7-1.71Z"/>
      <path class="cls-2" d="M150.45,323.69c-.96,0-1.75-.74-1.76-1.67-.01-.88.85-1.74,1.74-1.74.89,0,1.67.78,1.7,1.68.02.97-.71,1.73-1.67,1.74Z"/>
      <path class="cls-2" d="M154,262.65c-.99,0-1.7-.73-1.68-1.73.02-.91.78-1.67,1.69-1.68.89,0,1.78.86,1.78,1.72,0,.89-.85,1.69-1.78,1.68Z"/>
      <path class="cls-2" d="M198.8,232.23c0,.94-.79,1.75-1.71,1.74-.89-.01-1.75-.88-1.73-1.75.02-.88.8-1.64,1.71-1.66.99-.01,1.73.7,1.74,1.67Z"/>
      <path class="cls-2" d="M186.32,302.14c-.97,0-1.7-.74-1.69-1.71,0-.92.74-1.65,1.68-1.66.94,0,1.75.76,1.76,1.68,0,.92-.79,1.69-1.74,1.69Z"/>
      <path class="cls-2" d="M173.69,275.35c-.02.94-.83,1.69-1.78,1.66-.93-.03-1.66-.79-1.65-1.71.01-.94.84-1.72,1.78-1.67.92.04,1.68.83,1.66,1.73Z"/>
      <path class="cls-2" d="M220.35,271.72c.01.94-.79,1.73-1.73,1.72-.92-.01-1.7-.78-1.7-1.68,0-.94.78-1.71,1.74-1.71.93,0,1.68.74,1.7,1.67Z"/>
      <path class="cls-2" d="M146.86,244.93c.93.01,1.76.84,1.73,1.72-.03.9-.87,1.66-1.81,1.64-.95-.02-1.64-.73-1.64-1.69,0-.99.72-1.69,1.72-1.68Z"/>
      <path class="cls-2" d="M215.02,241.31c.88-.02,1.76.81,1.78,1.69.02.85-.86,1.71-1.75,1.72-.93,0-1.68-.72-1.7-1.65-.02-.96.71-1.73,1.67-1.76Z"/>
      <path class="cls-2" d="M297.63,330.86c-.93,0-1.77-.81-1.77-1.69,0-.86.92-1.74,1.78-1.73.93.02,1.7.82,1.68,1.77-.01.94-.73,1.64-1.69,1.64Z"/>
      <path class="cls-2" d="M245.47,329.19c0,.99-.73,1.68-1.74,1.66-.91-.02-1.7-.78-1.72-1.66-.01-.85.88-1.74,1.75-1.75.93,0,1.71.79,1.7,1.74Z"/>
      <path class="cls-2" d="M299.33,235.8c.02.97-.72,1.72-1.69,1.73-.89,0-1.77-.84-1.77-1.7,0-.85.9-1.72,1.78-1.71.92.01,1.67.76,1.68,1.68Z"/>
      <path class="cls-2" d="M159.5,242.99c.01-.95.81-1.72,1.75-1.68.9.04,1.75.9,1.71,1.76-.04.86-.88,1.65-1.75,1.65-.96,0-1.72-.77-1.7-1.72Z"/>
      <path class="cls-2" d="M159.49,264.52c.01-.92.75-1.65,1.69-1.65.91,0,1.76.81,1.77,1.69,0,.86-.89,1.73-1.77,1.72-.91,0-1.7-.83-1.69-1.76Z"/>
      <path class="cls-2" d="M238.29,350.74c-.01.97-.79,1.71-1.74,1.67-.88-.04-1.71-.85-1.72-1.68-.01-.85.88-1.72,1.76-1.73.94,0,1.71.77,1.7,1.73Z"/>
      <path class="cls-2" d="M252.85,289.7c0-.96.75-1.72,1.71-1.72.89,0,1.76.88,1.74,1.74-.02.85-.85,1.66-1.72,1.67-.98.02-1.72-.71-1.73-1.69Z"/>
      <path class="cls-2" d="M245.47,379.4c.01.96-.73,1.74-1.68,1.76-.87.02-1.77-.85-1.78-1.71,0-.87.87-1.7,1.77-1.7.96,0,1.68.71,1.69,1.65Z"/>
      <path class="cls-2" d="M193.47,330.86c-.94-.01-1.66-.73-1.67-1.67,0-.94.78-1.75,1.71-1.74.88,0,1.75.88,1.74,1.75-.01.91-.83,1.67-1.78,1.66Z"/>
      <path class="cls-2" d="M198.99,228.63c.01-.95.8-1.73,1.74-1.7.88.03,1.75.92,1.72,1.77-.03.85-.88,1.64-1.75,1.63-.99,0-1.72-.73-1.71-1.71Z"/>
      <path class="cls-2" d="M191.62,296.88c0,.97-.77,1.72-1.73,1.69-.9-.02-1.75-.89-1.72-1.75.03-.86.87-1.65,1.74-1.66.96,0,1.72.75,1.71,1.71Z"/>
      <path class="cls-2" d="M232.98,345.23c-.96,0-1.71-.78-1.69-1.73.02-.89.79-1.66,1.69-1.67.89-.02,1.75.82,1.74,1.71,0,.92-.8,1.7-1.74,1.69Z"/>
      <path class="cls-2" d="M164.81,230.34c-.94.02-1.74-.75-1.75-1.68,0-.9.83-1.73,1.73-1.72.89,0,1.68.78,1.71,1.67.03.94-.72,1.72-1.68,1.74Z"/>
      <path class="cls-2" d="M225.79,273.44c-.95-.02-1.73-.83-1.69-1.76.04-.92.82-1.65,1.74-1.62.94.02,1.68.76,1.69,1.68,0,.93-.8,1.73-1.75,1.71Z"/>
      <path class="cls-2" d="M159.31,228.67c-.01.96-.8,1.7-1.75,1.67-.95-.03-1.72-.83-1.68-1.75.03-.86.86-1.66,1.73-1.65.93,0,1.72.81,1.71,1.73Z"/>
      <path class="cls-2" d="M252.64,350.74c0,.97-.77,1.71-1.74,1.67-.89-.03-1.7-.82-1.71-1.67-.01-.86.85-1.72,1.75-1.73.95,0,1.7.76,1.7,1.73Z"/>
      <path class="cls-2" d="M299.33,289.7c0,.96-.77,1.71-1.73,1.69-.87-.02-1.71-.84-1.73-1.67-.02-.85.87-1.73,1.75-1.74.95,0,1.72.76,1.71,1.72Z"/>
      <path class="cls-2" d="M245.47,350.7c.01.97-.73,1.73-1.7,1.72-.9,0-1.77-.85-1.76-1.71,0-.86.91-1.71,1.79-1.7.93.02,1.66.76,1.67,1.69Z"/>
      <path class="cls-2" d="M200.72,295.17c.9.02,1.76.88,1.73,1.74-.03.87-.92,1.7-1.81,1.66-.98-.04-1.68-.79-1.65-1.77.03-.92.8-1.65,1.73-1.63Z"/>
      <path class="cls-2" d="M152.13,264.58c-.02.94-.83,1.73-1.75,1.69-.89-.04-1.69-.84-1.69-1.7,0-.9.82-1.71,1.74-1.7.98,0,1.72.75,1.7,1.72Z"/>
      <path class="cls-2" d="M299.33,296.85c0,.96-.75,1.72-1.7,1.72-.89,0-1.77-.86-1.75-1.72.01-.84.84-1.65,1.71-1.69.94-.04,1.73.73,1.74,1.68Z"/>
      <path class="cls-2" d="M164.77,216.21c.97-.01,1.73.72,1.73,1.68,0,.91-.83,1.74-1.73,1.72-.87-.02-1.68-.81-1.7-1.69-.03-.94.73-1.7,1.7-1.72Z"/>
      <path class="cls-2" d="M139.69,237.74c.93.01,1.75.84,1.72,1.72-.03.9-.88,1.67-1.81,1.64-.95-.03-1.64-.74-1.63-1.7,0-.98.73-1.68,1.72-1.67Z"/>
      <path class="cls-2" d="M225.84,330.86c-.97.02-1.73-.72-1.73-1.68,0-.9.84-1.74,1.73-1.72.88.02,1.68.8,1.7,1.68.03.94-.73,1.7-1.7,1.72Z"/>
      <path class="cls-2" d="M238.29,228.67c0,.94-.72,1.65-1.67,1.67-.89.01-1.78-.81-1.79-1.68-.01-.85.89-1.73,1.76-1.73.93,0,1.71.79,1.7,1.74Z"/>
      <path class="cls-2" d="M137.76,235.81c.01.98-.73,1.72-1.7,1.71-.91,0-1.76-.84-1.74-1.71.01-.84.83-1.65,1.71-1.69.94-.04,1.72.73,1.73,1.69Z"/>
      <path class="cls-2" d="M130.58,296.88c0,.93-.73,1.66-1.66,1.68-.89.02-1.77-.8-1.79-1.68-.02-.86.86-1.72,1.75-1.72.96,0,1.71.75,1.7,1.72Z"/>
      <path class="cls-2" d="M137.76,296.85c.01.98-.72,1.72-1.7,1.72-.89,0-1.76-.85-1.75-1.71.01-.85.82-1.65,1.71-1.69.95-.04,1.72.71,1.74,1.68Z"/>
      <path class="cls-2" d="M152.13,257.42c-.03.94-.86,1.71-1.77,1.66-.9-.06-1.68-.85-1.67-1.72.01-.89.86-1.71,1.76-1.68.97.02,1.7.79,1.68,1.74Z"/>
      <path class="cls-2" d="M198.99,250.21c0-.97.74-1.72,1.7-1.72.89,0,1.76.85,1.75,1.72-.01.87-.9,1.71-1.78,1.68-.94-.03-1.66-.76-1.67-1.68Z"/>
      <path class="cls-2" d="M288.57,235.85c-.01.92-.82,1.7-1.75,1.68-.94-.02-1.67-.75-1.68-1.67,0-.92.78-1.72,1.71-1.73.92,0,1.73.81,1.72,1.72Z"/>
      <path class="cls-2" d="M144.94,243c0,.97-.75,1.72-1.7,1.71-.92-.01-1.75-.83-1.74-1.72.02-.84.83-1.65,1.71-1.68.94-.04,1.73.73,1.73,1.69Z"/>
      <path class="cls-2" d="M284.98,379.44c0,.92-.8,1.73-1.72,1.73-.91,0-1.71-.82-1.7-1.75.01-.9.76-1.64,1.69-1.66.96-.02,1.73.74,1.74,1.68Z"/>
      <path class="cls-2" d="M166.5,350.74c-.01.93-.82,1.7-1.76,1.67-.95-.03-1.72-.84-1.68-1.75.04-.89.83-1.65,1.72-1.65.92,0,1.73.82,1.71,1.73Z"/>
      <path class="cls-2" d="M267.02,311.2c.02.94-.74,1.73-1.69,1.74-.89.01-1.75-.83-1.75-1.71,0-.9.83-1.7,1.75-1.7.92,0,1.67.74,1.69,1.66Z"/>
      <path class="cls-2" d="M170.09,268.16c0,.95-.77,1.69-1.75,1.67-.93-.01-1.67-.75-1.68-1.67,0-.92.81-1.75,1.72-1.75.91,0,1.71.82,1.71,1.75Z"/>
      <path class="cls-2" d="M223.94,332.79c-.01.92-.85,1.74-1.75,1.71-.93-.03-1.7-.86-1.68-1.78.02-.92.76-1.63,1.71-1.63.97,0,1.73.75,1.71,1.7Z"/>
      <path class="cls-2" d="M281.39,357.96c.04-.91-.75-1.74-1.68-1.76-.9-.02-1.7.71-1.76,1.61-.06.92.69,1.73,1.65,1.78.93.06,1.75-.69,1.79-1.64Z"/>
      <path class="cls-2" d="M279.68,291.6c-.97,0-1.73.74-1.73,1.69,0,.91.75,1.66,1.67,1.68.97.02,1.75-.71,1.76-1.66.02-.96-.73-1.71-1.7-1.71Z"/>
      <path class="cls-2" d="M215.07,294.98c.91,0,1.77-.86,1.74-1.74-.03-.91-.86-1.67-1.8-1.65-.94.02-1.66.74-1.66,1.68,0,.96.77,1.72,1.72,1.71Z"/>
      <path class="cls-2" d="M150.41,294.98c.92.02,1.68-.71,1.72-1.63.04-.97-.68-1.73-1.65-1.75-.96-.02-1.76.72-1.78,1.65-.02.9.78,1.72,1.72,1.73Z"/>
      <path class="cls-2" d="M215.02,356.2c-.96.03-1.69.8-1.67,1.76.02.92.78,1.65,1.71,1.65.9,0,1.77-.86,1.75-1.72-.02-.87-.91-1.71-1.79-1.69Z"/>
      <path class="cls-2" d="M213.35,228.62c-.02.97.71,1.71,1.69,1.73.9.01,1.77-.83,1.77-1.69,0-.87-.89-1.73-1.77-1.72-.9,0-1.67.78-1.69,1.68Z"/>
      <path class="cls-2" d="M295.76,217.88c-.14-3.11-2.29-5.31-5.34-5.28-3.25.03-5.26,2.45-5.28,5.33-.02,2.91,2.36,5.24,5.29,5.24,2.94,0,5.35-2.38,5.33-5.29Z"/>
      <path class="cls-2" d="M144.94,368.69c.01-2.95-2.35-5.32-5.3-5.31-2.89.01-5.29,2.38-5.33,5.25-.04,2.86,2.36,5.35,5.31,5.34,3.17-.01,5.33-2.44,5.32-5.28Z"/>
      <path class="cls-2" d="M281.39,357.96c-.04.94-.86,1.69-1.79,1.64-.96-.06-1.7-.87-1.65-1.78.06-.89.86-1.63,1.76-1.61.92.02,1.71.85,1.68,1.76Z"/>
      <path class="cls-2" d="M279.68,291.6c.97,0,1.72.76,1.7,1.71-.02.95-.79,1.68-1.76,1.66-.92-.02-1.67-.77-1.67-1.68,0-.95.76-1.7,1.73-1.69Z"/>
      <path class="cls-2" d="M215.07,294.98c-.96,0-1.72-.75-1.72-1.71,0-.94.72-1.66,1.66-1.68.94-.02,1.77.75,1.8,1.65.03.87-.83,1.73-1.74,1.74Z"/>
      <path class="cls-2" d="M150.41,294.98c-.93-.02-1.74-.83-1.72-1.73.02-.93.83-1.68,1.78-1.65.97.02,1.69.79,1.65,1.75-.04.92-.8,1.65-1.72,1.63Z"/>
      <path class="cls-2" d="M215.02,356.2c.88-.02,1.76.81,1.79,1.69.02.85-.85,1.71-1.75,1.72-.93,0-1.68-.72-1.71-1.65-.03-.96.71-1.73,1.67-1.76Z"/>
      <path class="cls-2" d="M213.35,228.62c.02-.9.79-1.67,1.69-1.68.88,0,1.76.84,1.77,1.72,0,.86-.87,1.71-1.77,1.69-.98-.01-1.71-.76-1.69-1.73Z"/>
      <path class="cls-2" d="M144.94,217.87c0,2.94-2.29,5.26-5.23,5.29-2.94.03-5.45-2.34-5.38-5.24.07-2.96,2.03-5.28,5.3-5.33,3.18-.05,5.32,2.44,5.32,5.28Z"/>
      <path class="cls-2" d="M295.76,217.88c.02,2.91-2.39,5.3-5.33,5.29-2.93,0-5.3-2.34-5.29-5.24.02-2.88,2.03-5.3,5.28-5.33,3.05-.02,5.2,2.17,5.34,5.28Z"/>
      <path class="cls-2" d="M144.94,368.69c0,2.84-2.16,5.27-5.32,5.28-2.95,0-5.35-2.48-5.31-5.34.04-2.87,2.45-5.24,5.33-5.25,2.95-.01,5.31,2.36,5.3,5.31Z"/>
    </g>
  </g>
  <text class="cls-3" transform="translate(246.12 137.43) rotate(13.01)"><tspan x="0" y="0"></tspan></text>
  <text class="cls-3" transform="translate(254.99 139.2) rotate(18.3)"><tspan x="0" y="0">D</tspan></text>
  <text class="cls-3" transform="translate(273.81 145.47) rotate(25.06)"><tspan x="0" y="0">e</tspan></text>
  <text class="cls-3" transform="translate(289.49 152.82) rotate(31.1)"><tspan x="0" y="0">s</tspan></text>
  <text class="cls-3" transform="translate(303.2 161.02) rotate(37.09)"><tspan x="0" y="0">c</tspan></text>
  <text class="cls-3" transform="translate(316.9 171.36) rotate(43.2)"><tspan x="0" y="0">a</tspan></text>
  <text class="cls-3" transform="translate(329.1 182.87) rotate(48.77)"><tspan x="0" y="0">r</tspan></text>
  <text class="cls-3" transform="translate(338.55 193.46) rotate(54.61)"><tspan x="0" y="0">g</tspan></text>
  <text class="cls-3" transform="translate(349.08 208.31) rotate(60.93)"><tspan x="0" y="0">a</tspan></text>
  <text class="cls-3" transform="translate(357.12 223.13) rotate(65.21)"><tspan x="0" y="0"> </tspan></text>
  <text class="cls-3" transform="translate(360.02 229.28) rotate(68.31)"><tspan x="0" y="0">l</tspan></text>
  <text class="cls-3" transform="translate(363.89 238.58) rotate(73.22)"><tspan x="0" y="0">a</tspan></text>
  <text class="cls-3" transform="translate(368.58 254.77) rotate(77.52)"><tspan x="0" y="0"> </tspan></text>
  <text class="cls-3" transform="translate(370.27 261.24) rotate(82.07)"><tspan x="0" y="0">g</tspan></text>
  <text class="cls-3" transform="translate(372.79 279.25) rotate(88.54)"><tspan x="0" y="0">u</tspan></text>
  <text class="cls-3" transform="translate(373.08 297.19) rotate(93.26)"><tspan x="0" y="0"></tspan></text>
  <text class="cls-3" transform="translate(372.77 305.79) rotate(97.85)"><tspan x="0" y="0">a</tspan></text>
  <text class="cls-3" transform="translate(370.29 322.48) rotate(102.14)"><tspan x="0" y="0"> </tspan></text>
  <text class="cls-3" transform="translate(369.07 329.09) rotate(106.44)"><tspan x="0" y="0">a</tspan></text>
  <text class="cls-3" transform="translate(364.41 345.14) rotate(112.82)"><tspan x="0" y="0">q</tspan></text>
  <text class="cls-3" transform="translate(357.37 361.92) rotate(119.36)"><tspan x="0" y="0">u</tspan></text>
  <text class="cls-3" transform="translate(348.42 377.47) rotate(124.16)"><tspan x="0" y="0"></tspan></text>
  <text class="cls-3" transform="translate(343.53 384.7) rotate(127.4)"><tspan x="0" y="0">!</tspan></text>
  <text class="cls-3" transform="translate(337.91 392.01) rotate(130.29)"><tspan x="0" y="0"> </tspan></text>
  <text class="cls-3" transform="translate(333.54 397.21) rotate(133.17)"><tspan x="0" y="0"></tspan></text>
  <text class="cls-3" transform="translate(327.54 404) rotate(138.39)"><tspan x="0" y="0">D</tspan></text>
  <text class="cls-3" transform="translate(312.68 417.14) rotate(145.09)"><tspan x="0" y="0">e</tspan></text>
  <text class="cls-3" transform="translate(298.47 427.05) rotate(151.11)"><tspan x="0" y="0">s</tspan></text>
  <text class="cls-3" transform="translate(284.5 434.82) rotate(157.14)"><tspan x="0" y="0">c</tspan></text>
  <text class="cls-3" transform="translate(268.69 441.51) rotate(163.32)"><tspan x="0" y="0">a</tspan></text>
  <text class="cls-3" transform="translate(252.62 446.28) rotate(168.96)"><tspan x="0" y="0">r</tspan></text>
  <text class="cls-3" transform="translate(238.74 449.11) rotate(174.83)"><tspan x="0" y="0">g</tspan></text>
  <text class="cls-3" transform="translate(220.62 450.74) rotate(-178.93)"><tspan x="0" y="0">a</tspan></text>
  <text class="cls-3" transform="translate(203.74 450.25) rotate(-174.71)"><tspan x="0" y="0"> </tspan></text>
  <text class="cls-3" transform="translate(196.96 449.68) rotate(-171.63)"><tspan x="0" y="0">l</tspan></text>
  <text class="cls-3" transform="translate(187 448.37) rotate(-166.74)"><tspan x="0" y="0">a</tspan></text>
  <text class="cls-3" transform="translate(170.59 444.32) rotate(-162.43)"><tspan x="0" y="0"> </tspan></text>
  <text class="cls-3" transform="translate(164.17 442.55) rotate(-157.87)"><tspan x="0" y="0">g</tspan></text>
  <text class="cls-3" transform="translate(147.33 435.72) rotate(-151.34)"><tspan x="0" y="0">u</tspan></text>
  <text class="cls-3" transform="translate(131.67 426.96) rotate(-146.53)"><tspan x="0" y="0"></tspan></text>
  <text class="cls-3" transform="translate(124.37 422.35) rotate(-141.92)"><tspan x="0" y="0">a</tspan></text>
  <text class="cls-3" transform="translate(111.2 411.81) rotate(-137.68)"><tspan x="0" y="0"> </tspan></text>
  <text class="cls-3" transform="translate(106.13 407.46) rotate(-133.44)"><tspan x="0" y="0">a</tspan></text>
  <text class="cls-3" transform="translate(94.57 395.36) rotate(-127.14)"><tspan x="0" y="0">q</tspan></text>
  <text class="cls-3" transform="translate(83.56 380.85) rotate(-120.64)"><tspan x="0" y="0">u</tspan></text>
  <text class="cls-3" transform="translate(74.57 365.32) rotate(-115.81)"><tspan x="0" y="0"></tspan></text>
  <text class="cls-3" transform="translate(70.76 357.48) rotate(-112.55)"><tspan x="0" y="0">!</tspan></text>
  <text class="cls-3" transform="translate(67.25 348.97) rotate(-109.64)"><tspan x="0" y="0"> </tspan></text>
  <text class="cls-3" transform="translate(64.93 342.58) rotate(-106.71)"><tspan x="0" y="0"></tspan></text>
  <text class="cls-3" transform="translate(62.07 333.98) rotate(-101.42)"><tspan x="0" y="0">D</tspan></text>
  <text class="cls-3" transform="translate(58.19 314.54) rotate(-94.7)"><tspan x="0" y="0">e</tspan></text>
  <text class="cls-3" transform="translate(56.78 297.24) rotate(-88.75)"><tspan x="0" y="0">s</tspan></text>
  <text class="cls-3" transform="translate(57.07 281.28) rotate(-82.8)"><tspan x="0" y="0">c</tspan></text>
  <text class="cls-3" transform="translate(59.2 264.25) rotate(-76.64)"><tspan x="0" y="0">a</tspan></text>
  <text class="cls-3" transform="translate(63.11 247.94) rotate(-70.99)"><tspan x="0" y="0">r</tspan></text>
  <text class="cls-3" transform="translate(67.6 234.51) rotate(-65.09)"><tspan x="0" y="0">g</tspan></text>
  <text class="cls-3" transform="translate(75.29 218) rotate(-58.75)"><tspan x="0" y="0">a</tspan></text>
  <text class="cls-3" transform="translate(84.19 203.66) rotate(-54.49)"><tspan x="0" y="0"> </tspan></text>
  <text class="cls-3" transform="translate(88.09 198.11) rotate(-51.42)"><tspan x="0" y="0">l</tspan></text>
  <text class="cls-3" transform="translate(94.24 190.15) rotate(-46.58)"><tspan x="0" y="0">a</tspan></text>
  <text class="cls-3" transform="translate(105.98 178) rotate(-42.33)"><tspan x="0" y="0"> </tspan></text>
  <text class="cls-3" transform="translate(110.76 173.31) rotate(-37.82)"><tspan x="0" y="0">g</tspan></text>
  <text class="cls-3" transform="translate(125.09 162.16) rotate(-31.33)"><tspan x="0" y="0">u</tspan></text>
  <text class="cls-3" transform="translate(140.51 152.99) rotate(-26.51)"><tspan x="0" y="0"></tspan></text>
  <text class="cls-3" transform="translate(148.14 148.98) rotate(-21.87)"><tspan x="0" y="0">a</tspan></text>
  <text class="cls-3" transform="translate(163.85 142.86) rotate(-17.58)"><tspan x="0" y="0"> </tspan></text>
  <text class="cls-3" transform="translate(170.17 140.64) rotate(-13.28)"><tspan x="0" y="0">a</tspan></text>
  <text class="cls-3" transform="translate(186.43 136.74) rotate(-6.93)"><tspan x="0" y="0">q</tspan></text>
  <text class="cls-3" transform="translate(204.55 134.6) rotate(-.93)"><tspan x="0" y="0">u</tspan></text>
  <text class="cls-3" transform="translate(222.47 134.55) rotate(4.27)"><tspan x="0" y="0"></tspan></text>
  <text class="cls-3" transform="translate(231.15 135.19) rotate(7.5)"><tspan x="0" y="0">!</tspan></text>
</svg>