<?xml version="1.0" encoding="UTF-8"?>
<svg id="Layer_1" xmlns="http://www.w3.org/2000/svg" width="430" height="1500" xmlns:xlink="http://www.w3.org/1999/xlink" viewBox="0 0 430 1500">
  <defs>
    <style>
      .cls-1 {
        fill: none;
      }

      .cls-2 {
        fill: #006be3;
      }

      .cls-3 {
        clip-path: url(#clippath-1);
      }

      .cls-4 {
        fill: #237de9;
      }

      .cls-5 {
        clip-path: url(#clippath);
      }
    </style>
    <clipPath id="clippath">
      <rect class="cls-1" x="-535.75" y="534.25" width="1501.49" height="430" transform="translate(-534.25 964.25) rotate(-90)"/>
    </clipPath>
    <clipPath id="clippath-1">
      <rect class="cls-1" x="-535.75" y="534.25" width="1501.49" height="430" transform="translate(-534.25 964.25) rotate(-90)"/>
    </clipPath>
  </defs>
  <rect class="cls-2" x="-535.75" y="534.25" width="1501.49" height="430" transform="translate(-534.25 964.25) rotate(-90)"/>
  <g class="cls-5">
    <path class="cls-4" d="M-254.22,1170.77h31.65c-.83-.2-1.67-.41-2.5-.61-3.49-.82-6.98-1.55-10.47-2.37-5.35-1.26-10.7-2.57-16.04-3.84-.84-.2-1.7-.28-2.35-1.38-.22-3.73-.38-56.12-.19-63.01.02-.64.13-1.27.21-2.08.37,0,.68-.09.97.01,1.54.55,3.08,1.03,4.61,1.74,8.31,3.84,16.57,8.17,24.84,12.42,9.55,4.92,19.2,9.01,28.81,13.4,6.48,2.96,12.99,5.65,19.46,8.78,15.37,7.43,30.7,15.23,46.08,22.51,10.2,4.83,20.38,10,30.65,14.08.29.11.57.24.86.36h33.57c-3.42-2.04-6.83-4.13-10.23-6.28-12.34-7.83-24.64-16.01-36.95-24.08-.57-.37-1.25-.5-1.61-1.85h-.76s0-.02,0-.03c.25,0,.5,0,.75,0,0,0,0,.03,0,.03,0,0,0-.03,0-.03,2.2,1.06,4.4,2.14,6.6,3.18,10.74,5.07,21.46,10.3,32.23,15.13,7.17,3.22,14.4,5.88,21.61,8.75,4.4,1.75,8.79,3.46,13.19,5.18H.76c-7.59-5.62-15.17-11.24-22.74-16.96-18.99-14.36-37.9-29.24-56.62-45.23-25.46-21.76-50.78-44.3-75.72-68.75-4.33-4.25-8.77-8.03-13.01-12.67-16.22-17.77-32.73-34.18-49.22-50.69-11.75-11.76-23.49-23.57-35.23-35.38-.76-.77-1.5-1.67-2.3-2.57-.02-2.43-.05-4.61-.05-6.78,0-74.62,0-149.23,0-223.85,0-1.52-.01-3.04.02-4.56.01-.79-.06-1.71.47-2.37.85.36,1.6,1.63,2.39,2.62,10.2,12.77,20.38,25.56,30.58,38.35,48.94,61.37,97.87,122.73,146.81,184.1,4.45,5.59,8.91,11.18,13.37,16.73.64.8,1.22,2.12,2.08,1.72.07-1.4-.46-1.99-.85-2.68-4.28-7.58-8.51-15.32-12.9-22.6-4.52-7.5-8.9-15.31-13.05-23.77-2.38-4.86-4.9-9.39-7.35-14.08-1.46-2.79-2.93-5.56-4.35-8.44-.89-1.8-1.7-3.77-2.22-6.28.47.23.86.65,1.22,1.18,3.66,5.45,7.4,10.61,11.31,15.21,8.56,10.06,16.97,20.65,25.27,31.72,4.24,5.66,8.63,10.82,12.93,16.25,3.57,4.5,7.18,8.83,10.66,13.65,6.7,9.3,13.65,17.6,20.7,25.53.65.73,1.36,1.17,2.06,1.72-.16-.64-.27-1.39-.51-1.8-.73-1.25-1.53-2.34-2.3-3.47-48.15-69.56-96.3-139.12-144.45-208.68-29.85-43.12-59.7-86.24-89.55-129.37-.77-1.11-1.52-2.31-2.15-3.28-.07-.78-.13-1.11-.13-1.45-.01-13.84-.02-27.68-.02-41.53,0-.62-.03-1.4.49-1.77.91.51,1.65,2.07,2.47,3.28,41.58,61.65,83.16,123.32,124.74,184.98,47.88,71.02,95.77,142.03,143.66,213.05,31.41,46.58,62.81,93.18,94.22,139.77.77,1.15,1.54,2.29,2.34,3.36.3.4.64,1.07,1.04.1-.04-.44-.04-.96-.13-1.39-1.81-8.78-3.53-17.64-6.15-25.52-1.41-4.24-2.66-8.73-3.96-13.14-.4-1.35-.72-2.81-1.08-4.22.5.18.76.73,1,1.32,2.39,5.81,4.88,11.44,7.74,16.16,4.03,6.66,8.17,13.01,12.26,19.47.31.49.67.86,1.03,1.18.27.24.57.66.91-.12-.19-2.03-.98-3.28-1.57-4.75-11.88-29.56-23.77-59.1-35.67-88.63-21.53-53.46-43.08-106.91-64.61-160.37-20.71-51.43-41.42-102.87-62.13-154.3-24.56-60.98-49.12-121.94-73.68-182.92-33.43-83-66.86-166-100.29-248.99-13.74-34.12-27.48-68.24-41.23-102.33-.91-2.24-1.47-4.43-1.46-7.61.06-30.05.03-60.1.04-90.15,0-.94.06-1.88.12-3.35.93,1.41,1.35,3.03,1.85,4.44,28.27,78.83,56.53,157.68,84.78,236.53,26.78,74.71,53.55,149.43,80.33,224.14,5.26,14.68,10.53,29.34,15.8,43.99.46,1.27.78,2.9,1.61,3.34.12-1.27-.28-2.14-.57-3.05-1.07-3.33-2.16-6.62-3.24-9.92-3.73-11.44-7.39-23.01-11.22-34.29-4.3-12.65-8.44-25.54-12.39-38.7-7.05-23.49-14.09-47-21.11-70.54-2.75-9.21-5.41-18.55-8.17-27.75-4.03-13.45-8.09-26.86-12.17-40.24-3.01-9.86-6.08-19.62-9.1-29.47-2.37-7.74-4.69-15.54-7.02-23.33-1.69-5.67-3.35-11.38-5.03-17.08-1.13-3.85-2.31-7.63-3.36-11.58-.74-2.77-1.33-5.72-1.91-8.67-.18-.94-.38-2.18.21-3.44.64,1.39,1.29,2.58,1.82,3.99,4.15,10.97,8.36,21.84,12.4,33,6.84,18.87,13.08,38.67,19.45,58.29,4.17,12.84,8.49,25.46,12.79,38.09,6.99,20.51,14.03,40.95,21.05,61.41,1.3,3.79,2.63,7.55,3.94,11.33,2.48,7.16,4.96,14.31,7.42,21.49.79,2.3,1.5,4.75,2.33,6.97,5.22,13.9,9.97,28.55,14.96,42.81,9.74,27.86,19.57,55.58,29.26,83.54,6.79,19.59,13.61,39.11,20.93,57.77.71,1.8,1.37,3.69,2.06,5.51,5.59,14.74,11.16,29.52,16.79,44.21,5.08,13.26,10.25,26.35,15.32,39.62,3.14,8.2,6.39,16.16,9.8,23.82,2.71,6.08,5.42,12.2,7.6,19.22,3.36,10.85,7.31,20.6,11.51,29.91.35.77.8,1.31,1.51,2.45-.25-2.9-.9-4.36-1.4-5.95-16.92-53.88-33.86-107.74-50.78-161.62-.63-2.02-1.21-4.12-1.81-6.18-.04-.03-.08-.07-.12-.1l.05-.12s-.05.12-.05.12c-.02-.14-.04-.27-.05-.4-.15-.42-.31-.84-.46-1.25.09-.09.17-.18.26-.27.07.51.13,1.01.2,1.52.04.1.07.19.11.29.02.07.04.15.06.22.99.72,1.43,2.74,2.04,4.31,24.7,63.47,49.38,126.97,74.06,190.46,2.06,5.29,4.1,10.61,6.18,15.85.42,1.05.73,2.57,1.53,2.58-.17-2.8-1.13-4.67-1.81-6.82-12.75-39.82-25.52-79.6-38.28-119.4-28.69-89.43-57.37-178.87-86.06-268.3-34.25-106.76-68.5-213.52-102.75-320.28-33.18-103.43-66.36-206.87-99.54-310.31-2.09-6.52-1.75-4.45-1.75-12.09-.01-59.59,0-119.17,0-178.76,0-1.35-.02-2.71.02-4.05.03-.96.16-1.91.27-3.16,1.17-.06,2.25-.17,3.33-.17,44.18,0,88.37,0,132.55,0,.55,0,1.09-.04,1.64.02.53.06,1.06.22,1.62.34.47,1.94.91,3.7,1.32,5.51,3.87,17.3,7.74,34.61,11.61,51.91C-78.42-168.46-55.06-64.04-31.7,40.37c.37,1.67.77,3.31,1.18,4.94.18.72.42,1.37.85,1.3-.28-1.9-.56-3.8-.86-5.68-1.47-9.07-3.07-18.05-4.39-27.22-2.55-17.7-4.93-35.5-7.39-53.26-2.21-15.98-4.53-31.9-6.62-47.96-2.58-19.78-4.92-39.71-7.46-59.52-1.94-15.11-3.58-30.36-4.98-45.74-.39-4.28-.83-8.61-.65-13.04.02-.52-.13-1.42.47-1.43.23,1.16.47,2.38.7,3.61,9.37,49.44,18.75,98.86,28.1,148.32,2.57,13.57,5.32,26.98,7.33,41.01.81,5.63,1.69,11.21,2.57,16.79.28,1.75.63,3.44,1,5.11.16.7.36,1.54.95,1.24.04-.75.18-1.6.12-2.39-.22-2.98-.41-6-.78-8.91-1.3-10.24-2.71-20.41-4.01-30.64-2.48-19.5-4.48-39.25-6.39-59.04-.98-10.22-1.96-20.45-2.89-30.7-1.33-14.54-2.6-29.11-3.92-43.66-1.51-16.7-3.01-33.4-4.55-50.08-1.46-15.86-2.87-31.75-4.47-47.54-2.07-20.4-4.31-40.73-6.48-61.08-.17-1.63-.44-3.21-.17-5.18,2.06-.43,4.12-.54,6.32.14.29,1.81.58,3.53.84,5.28,4.16,28.07,8.31,56.15,12.46,84.22C-21.23-148.96-7.66-57.18,5.91,34.59c13.32,90.01,26.65,180,39.96,270.01,15.12,102.2,30.23,204.41,45.33,306.62,9.63,65.14,19.25,130.29,28.88,195.44,1.49,10.11,3.02,20.2,4.51,30.31.2,1.37.36,2.73,1.16,4.31-.45-9.83-1.3-18.71-1.89-27.66-.59-9-1.33-17.96-2-26.94-.67-8.98-1.37-17.95-2.02-26.93-.66-8.97-1.28-17.95-1.92-26.93.39,1.25.67,2.58.89,3.95,9.76,59.37,19.52,118.75,29.29,178.12,1.83,11.11,3.67,22.21,5.51,33.31.15.89.12,2.1.78,2.14.07-.29.21-.58.2-.84-.24-8.25-.46-16.49-.75-24.73-.21-6.05-.51-12.09-.75-18.13-.05-1.34-.06-2.7-.07-4.05,0-1.23-.1-2.49.07-4.42.28,1.25.45,1.81.53,2.42,4.71,34.57,9.42,69.15,14.13,103.72,1.43,10.5,2.85,21.01,4.28,31.51.1.74.19,1.66.85,1.22-.27-6.33-.52-12.69-.83-19.04-.38-7.88-.83-15.74-1.21-23.62-.39-8.05-.72-16.11-1.11-24.15-.38-7.88-.84-15.74-1.22-23.62-.38-7.88-.71-15.77-1.07-23.65-.18-3.86-.39-7.71-.59-11.56-.23-4.52-.48-9.04-.7-13.57-.37-7.88-.7-15.77-1.09-23.65-.39-7.87-.85-15.73-1.23-23.61-.38-7.88-.7-15.77-1.07-23.65-.18-3.86-.39-7.71-.58-11.56-.25-4.86-.5-9.71-.73-14.57-.22-4.53-.39-9.06-.62-13.59-.4-7.87-.84-15.73-1.22-23.61-.39-8.05-.71-16.11-1.1-24.15-.38-7.88-.85-15.73-1.23-23.61-.39-8.05-.7-16.11-1.09-24.15-.54-11.06-1.17-22.1-1.7-33.16-.55-11.23-1.03-22.47-1.54-33.71-.16-3.52-.33-7.04-.52-10.56-.41-7.87-.85-15.73-1.23-23.61-.39-8.05-.7-16.11-1.09-24.16-.38-7.88-.85-15.73-1.24-23.61-.38-7.88-.7-15.77-1.06-23.65-.18-3.86-.37-7.71-.57-11.57-.4-7.87-.82-15.74-1.21-23.62-.38-7.88-.7-15.77-1.09-23.65-.39-7.88-.85-15.73-1.23-23.61-.39-8.05-.72-16.11-1.08-24.16-.17-3.69-.37-7.37-.56-11.06-.24-4.69-.5-9.37-.72-14.07-.22-4.69-.4-9.4-.63-14.09-.39-7.87-.84-15.74-1.22-23.61-.38-7.88-.71-15.77-1.07-23.65-.17-3.69-.37-7.37-.55-11.06-.4-7.87-.82-15.74-1.2-23.62-.38-7.88-.7-15.77-1.09-23.65-.39-7.88-.85-15.73-1.23-23.61-.39-8.05-.72-16.11-1.09-24.16-.17-3.69-.38-7.37-.56-11.06-.25-4.86-.5-9.71-.73-14.57-.22-4.53-.39-9.06-.62-13.59-.39-7.7-.84-15.4-1.21-23.1-.38-7.88-.7-15.77-1.06-23.65-.19-4.02-.41-8.04-.62-12.06-.23-4.52-.47-9.04-.69-13.56-.22-4.7-.39-9.4-.63-14.1-.39-7.87-.84-15.73-1.23-23.61-.39-8.05-.7-16.11-1.1-24.15-.38-7.88-.85-15.73-1.24-23.61-.38-7.88-.7-15.77-1.06-23.65-.19-4.02-.41-8.04-.62-12.06-.24-4.69-.48-9.38-.7-14.07-.21-4.53-.39-9.07-.61-13.59-.4-7.87-.84-15.73-1.23-23.61-.39-8.05-.7-16.11-1.1-24.15-.38-7.88-.85-15.73-1.24-23.61-.38-7.88-.7-15.77-1.06-23.65-.19-4.02-.41-8.04-.62-12.06-.23-4.52-.48-9.04-.69-13.56-.22-4.7-.39-9.4-.63-14.09-.39-7.87-.84-15.73-1.23-23.61-.39-8.05-.7-16.11-1.1-24.15-.38-7.88-.86-15.73-1.24-23.61-.39-8.05-.71-16.11-1.08-24.16-.17-3.69-.37-7.37-.56-11.06-.24-4.69-.5-9.37-.74-14.06-.28-5.53-.57-11.05-.83-16.59-.23-5.03-.44-10.07-.62-15.11-.03-.92.15-1.87.26-3.08,1.12-.04,2.12-.11,3.13-.11,6.33,0,12.65,0,18.98,0v-.06s189.49.07,189.49.07c1.01,0,2.01.07,3.13.11.11,1.2.29,2.16.26,3.08-.18,5.04-.39,10.08-.62,15.11-.26,5.53-.55,11.06-.83,16.59-.24,4.69-.49,9.37-.74,14.06-.19,3.68-.39,7.37-.56,11.06-.37,8.05-.69,16.11-1.08,24.16-.38,7.88-.85,15.73-1.24,23.61-.39,8.05-.7,16.11-1.1,24.15-.38,7.88-.83,15.74-1.23,23.61-.23,4.69-.4,9.4-.63,14.09-.21,4.53-.46,9.04-.69,13.56-.21,4.02-.43,8.04-.62,12.06-.36,7.88-.68,15.78-1.06,23.65-.38,7.88-.85,15.73-1.24,23.61-.39,8.05-.7,16.11-1.1,24.15-.38,7.88-.83,15.74-1.23,23.61-.23,4.52-.4,9.06-.61,13.59-.22,4.69-.46,9.38-.7,14.07-.2,4.02-.43,8.04-.62,12.06-.36,7.88-.68,15.77-1.06,23.65-.38,7.88-.85,15.73-1.24,23.61-.39,8.05-.71,16.11-1.1,24.15-.38,7.88-.83,15.73-1.23,23.61-.23,4.69-.41,9.4-.63,14.1-.21,4.52-.46,9.04-.69,13.56-.21,4.02-.43,8.04-.62,12.06-.36,7.88-.68,15.77-1.06,23.65-.37,7.71-.82,15.4-1.21,23.1-.23,4.52-.4,9.06-.62,13.59-.23,4.86-.49,9.72-.73,14.57-.19,3.69-.39,7.37-.56,11.06-.37,8.05-.7,16.11-1.09,24.16-.38,7.88-.84,15.73-1.23,23.61-.39,7.88-.71,15.77-1.09,23.65-.38,7.88-.8,15.74-1.2,23.62-.19,3.69-.38,7.37-.55,11.06-.36,7.88-.69,15.77-1.07,23.65-.38,7.88-.83,15.74-1.22,23.61-.23,4.69-.41,9.4-.63,14.09-.22,4.69-.48,9.38-.72,14.07-.19,3.69-.39,7.37-.56,11.06-.37,8.05-.69,16.11-1.08,24.16-.38,7.88-.85,15.73-1.23,23.61-.39,7.88-.71,15.77-1.09,23.65-.38,7.88-.8,15.74-1.21,23.62-.2,3.85-.39,7.71-.57,11.57-.36,7.88-.68,15.78-1.06,23.65-.38,7.88-.85,15.73-1.24,23.61-.39,8.05-.7,16.11-1.09,24.16-.38,7.88-.83,15.74-1.23,23.61-.18,3.52-.35,7.04-.52,10.56-.52,11.24-1,22.48-1.54,33.71-.54,11.06-1.16,22.1-1.7,33.16-.4,8.04-.7,16.11-1.09,24.15-.38,7.88-.85,15.73-1.23,23.61-.39,8.05-.71,16.11-1.1,24.15-.38,7.88-.82,15.74-1.22,23.61-.23,4.52-.4,9.06-.62,13.59-.23,4.86-.49,9.71-.73,14.57-.19,3.85-.41,7.7-.58,11.56-.36,7.88-.68,15.77-1.07,23.65-.38,7.88-.85,15.73-1.23,23.61-.39,7.88-.71,15.77-1.09,23.65-.21,4.53-.46,9.04-.7,13.57-.2,3.85-.41,7.7-.59,11.56-.37,7.88-.69,15.78-1.07,23.65-.38,7.88-.84,15.74-1.22,23.62-.39,8.05-.72,16.11-1.11,24.15-.38,7.88-.83,15.74-1.21,23.62-.31,6.35-.56,12.7-.83,19.04.67.44.75-.48.86-1.22,1.43-10.5,2.85-21.01,4.28-31.51,4.71-34.58,9.41-69.15,14.13-103.72.08-.61.25-1.17.53-2.42.17,1.92.08,3.18.07,4.42,0,1.35-.01,2.7-.07,4.05-.24,6.05-.54,12.08-.75,18.13-.29,8.24-.51,16.49-.75,24.73,0,.27.13.56.2.84.65-.04.63-1.24.78-2.14,1.84-11.1,3.68-22.2,5.51-33.31,9.76-59.37,19.52-118.75,29.29-178.12.23-1.37.5-2.7.89-3.95-.64,8.98-1.27,17.96-1.92,26.93-.66,8.98-1.35,17.95-2.02,26.93-.67,8.98-1.41,17.94-2,26.94-.59,8.96-1.44,17.84-1.89,27.66.8-1.58.96-2.94,1.16-4.31,1.49-10.11,3.01-20.2,4.51-30.31,9.63-65.14,19.25-130.29,28.88-195.44,15.11-102.21,30.22-204.42,45.33-306.62,13.31-90.01,26.65-180,39.96-270.01,13.58-91.77,27.14-183.55,40.72-275.32,4.15-28.08,8.31-56.15,12.46-84.22.26-1.75.55-3.47.84-5.28,2.19-.68,4.26-.57,6.32-.14.27,1.97,0,3.55-.17,5.18-2.18,20.35-4.41,40.68-6.48,61.08-1.6,15.79-3.01,31.68-4.47,47.54-1.54,16.68-3.04,33.38-4.55,50.08-1.31,14.55-2.59,29.11-3.92,43.66-.93,10.25-1.91,20.47-2.89,30.7-1.9,19.79-3.91,39.54-6.39,59.04-1.3,10.24-2.71,20.41-4.01,30.64-.37,2.91-.56,5.92-.78,8.91-.06.78.08,1.63.12,2.39.59.3.8-.54.95-1.24.37-1.66.72-3.36,1-5.11.88-5.58,1.77-11.16,2.57-16.79,2.01-14.04,4.76-27.45,7.33-41.01,9.35-49.45,18.73-98.88,28.1-148.32.23-1.23.48-2.45.7-3.61.61.01.45.91.47,1.43.18,4.43-.26,8.76-.65,13.04-1.39,15.38-3.04,30.63-4.98,45.74-2.54,19.81-4.88,39.73-7.46,59.52-2.09,16.06-4.41,31.97-6.62,47.96-2.46,17.76-4.84,35.56-7.39,53.26-1.32,9.17-2.92,18.15-4.39,27.22-.3,1.88-.57,3.79-.86,5.68.44.07.67-.58.85-1.3.41-1.63.81-3.27,1.18-4.94,23.36-104.41,46.72-208.83,70.08-313.25,3.87-17.3,7.73-34.61,11.61-51.91.41-1.81.85-3.57,1.32-5.51.56-.12,1.09-.28,1.62-.34.55-.06,1.09-.02,1.64-.02,44.18,0,88.37,0,132.55,0,1.08,0,2.16.11,3.33.17.11,1.26.24,2.2.27,3.16.04,1.34.02,2.7.02,4.05,0,59.59,0,119.17,0,178.76,0,7.64.34,5.58-1.75,12.09-33.18,103.44-66.36,206.87-99.54,310.31-34.25,106.76-68.5,213.52-102.75,320.28-28.69,89.43-57.37,178.86-86.06,268.3-12.76,39.79-25.54,79.58-38.28,119.4-.69,2.14-1.64,4.02-1.81,6.82.8,0,1.11-1.52,1.53-2.58,2.08-5.24,4.13-10.56,6.18-15.85,24.68-63.49,49.36-126.99,74.06-190.46.61-1.57,1.05-3.59,2.04-4.31.02-.07.04-.15.06-.22.04-.1.07-.19.11-.29.07-.51.13-1.02.2-1.52.09.09.17.18.26.27-.15.42-.31.84-.46,1.25-.02.14-.04.27-.05.4,0,0-.05-.12-.05-.12l.05.12s-.08.07-.12.1c-.6,2.07-1.17,4.17-1.81,6.18-16.93,53.87-33.86,107.74-50.78,161.62-.5,1.59-1.16,3.05-1.4,5.95.71-1.14,1.16-1.68,1.51-2.45,4.2-9.31,8.15-19.07,11.51-29.91,2.18-7.03,4.89-13.15,7.6-19.22,3.41-7.66,6.67-15.62,9.8-23.82,5.07-13.27,10.24-26.36,15.32-39.62,5.63-14.68,11.2-29.47,16.79-44.21.69-1.83,1.35-3.71,2.06-5.51,7.33-18.67,14.15-38.18,20.93-57.77,9.68-27.96,19.51-55.68,29.26-83.54,4.99-14.27,9.74-28.92,14.96-42.81.83-2.22,1.54-4.67,2.33-6.97,2.47-7.17,4.95-14.33,7.42-21.49,1.31-3.78,2.64-7.54,3.94-11.33,7.02-20.46,14.06-40.9,21.05-61.41,4.31-12.63,8.62-25.25,12.79-38.09,6.37-19.61,12.61-39.42,19.45-58.29,4.04-11.15,8.25-22.03,12.4-33,.53-1.4,1.18-2.6,1.82-3.99.59,1.26.39,2.5.21,3.44-.58,2.94-1.17,5.9-1.91,8.67-1.05,3.94-2.23,7.73-3.36,11.58-1.67,5.7-3.33,11.41-5.03,17.08-2.33,7.8-4.65,15.59-7.02,23.33-3.01,9.85-6.09,19.61-9.1,29.47-4.08,13.38-8.14,26.78-12.17,40.24-2.76,9.2-5.42,18.54-8.17,27.75-7.02,23.53-14.06,47.05-21.11,70.54-3.95,13.16-8.09,26.05-12.39,38.7-3.83,11.28-7.49,22.85-11.22,34.29-1.08,3.31-2.17,6.6-3.24,9.92-.29.91-.69,1.78-.57,3.05.83-.44,1.15-2.08,1.61-3.34,5.28-14.65,10.54-29.31,15.8-43.99,26.78-74.71,53.55-149.43,80.33-224.14,28.26-78.85,56.52-157.69,84.78-236.53.5-1.41.93-3.03,1.85-4.44.05,1.47.12,2.41.12,3.35,0,30.05-.02,60.1.04,90.15,0,3.18-.56,5.37-1.46,7.61-13.76,34.08-27.49,68.21-41.23,102.33-33.43,83-66.86,166-100.29,248.99-24.56,60.97-49.12,121.94-73.68,182.92-20.71,51.43-41.42,102.87-62.13,154.3-21.53,53.46-43.07,106.91-64.61,160.37-11.9,29.53-23.79,59.06-35.67,88.63-.59,1.47-1.38,2.72-1.57,4.75.34.79.64.36.91.12.36-.32.72-.69,1.03-1.18,4.1-6.46,8.24-12.81,12.26-19.47,2.86-4.72,5.35-10.35,7.74-16.16.24-.59.5-1.14,1-1.32-.36,1.41-.68,2.87-1.08,4.22-1.3,4.41-2.55,8.91-3.96,13.14-2.63,7.88-4.35,16.74-6.15,25.52-.09.43-.09.95-.13,1.39.4.97.75.29,1.04-.1.8-1.06,1.57-2.21,2.34-3.36,31.41-46.59,62.81-93.19,94.22-139.77,47.88-71.02,95.77-142.03,143.66-213.05,41.58-61.66,83.15-123.33,124.74-184.98.82-1.21,1.56-2.77,2.47-3.28.51.37.48,1.15.49,1.77,0,13.84,0,27.68-.02,41.53,0,.33-.06.66-.13,1.45-.63.97-1.38,2.16-2.15,3.28-29.85,43.13-59.7,86.25-89.55,129.37-48.15,69.56-96.3,139.12-144.45,208.68-.78,1.12-1.57,2.22-2.3,3.47-.24.41-.36,1.15-.51,1.8.69-.55,1.41-1,2.06-1.72,7.05-7.93,14-16.24,20.7-25.53,3.47-4.82,7.09-9.15,10.66-13.65,4.31-5.43,8.69-10.59,12.93-16.25,8.29-11.06,16.71-21.65,25.27-31.72,3.91-4.6,7.65-9.76,11.31-15.21.36-.53.75-.95,1.22-1.18-.52,2.52-1.33,4.49-2.22,6.28-1.42,2.88-2.89,5.65-4.35,8.44-2.45,4.69-4.97,9.22-7.35,14.08-4.15,8.46-8.53,16.27-13.05,23.77-4.39,7.29-8.61,15.03-12.9,22.6-.39.69-.92,1.28-.85,2.68.86.41,1.44-.92,2.08-1.72,4.47-5.54,8.92-11.14,13.37-16.73,48.94-61.37,97.87-122.73,146.81-184.1,10.19-12.78,20.38-25.58,30.58-38.35.79-.99,1.54-2.26,2.39-2.62.53.66.45,1.58.47,2.37.03,1.52.02,3.04.02,4.56,0,74.62,0,149.23,0,223.85,0,2.18-.03,4.36-.05,6.78-.8.9-1.53,1.8-2.3,2.57-11.74,11.8-23.48,23.61-35.23,35.38-16.49,16.51-33.01,32.91-49.22,50.69-4.24,4.65-8.68,8.42-13.01,12.67-24.94,24.45-50.26,46.99-75.72,68.75-18.71,16-37.62,30.87-56.62,45.23-7.57,5.72-15.15,11.34-22.74,16.96h39.99c4.4-1.72,8.8-3.43,13.19-5.18,7.21-2.86,14.44-5.53,21.61-8.75,10.76-4.83,21.49-10.06,32.23-15.13,2.2-1.04,4.4-2.12,6.6-3.18,0,0,0,.03,0,.03,0,0,0-.03,0-.03.25,0,.5,0,.75,0,0,0,0,.02,0,.03h-.76c-.35,1.34-1.04,1.47-1.61,1.85-12.31,8.07-24.61,16.25-36.95,24.08-3.4,2.16-6.81,4.25-10.23,6.28h33.57c.29-.12.57-.25.86-.36,10.28-4.08,20.45-9.25,30.65-14.08,15.38-7.27,30.71-15.08,46.08-22.51,6.47-3.12,12.98-5.81,19.46-8.78,9.61-4.39,19.25-8.48,28.81-13.4,8.27-4.25,16.52-8.58,24.84-12.42,1.52-.7,3.07-1.19,4.61-1.74.29-.1.6-.01.97-.01.09.82.19,1.45.21,2.08.19,6.89.04,59.28-.19,63.01-.65,1.11-1.5,1.18-2.35,1.38-5.35,1.28-10.69,2.59-16.04,3.84-3.49.82-6.98,1.55-10.47,2.37-.83.2-1.67.4-2.5.61h33.18V-330.72H-254.22v1501.49Z"/>
  </g>
  <g class="cls-3">
    <path class="cls-4" d="M684.22,1169.78h-31.65c.83.2,1.67.41,2.5.61,3.49.82,6.98,1.55,10.47,2.37,5.35,1.26,10.7,2.57,16.04,3.84.84.2,1.7.28,2.35,1.38.22,3.73.38,56.12.19,63.01-.02.64-.13,1.27-.21,2.08-.37,0-.68.09-.97-.01-1.54-.55-3.08-1.03-4.61-1.74-8.31-3.84-16.57-8.17-24.84-12.42-9.55-4.92-19.2-9.01-28.81-13.4-6.48-2.96-12.99-5.65-19.46-8.78-15.37-7.43-30.7-15.23-46.08-22.51-10.2-4.83-20.38-10-30.65-14.08-.29-.11-.57-.24-.86-.36h-33.57c3.42,2.04,6.83,4.13,10.23,6.28,12.34,7.83,24.64,16.01,36.95,24.08.57.37,1.25.5,1.61,1.85h.76s0,.02,0,.03c-.25,0-.5,0-.75,0,0,0,0-.03,0-.03,0,0,0,.03,0,.03-2.2-1.06-4.4-2.14-6.6-3.18-10.74-5.07-21.46-10.3-32.23-15.13-7.17-3.22-14.4-5.88-21.61-8.75-4.4-1.75-8.79-3.46-13.19-5.18h-39.99c7.59,5.62,15.17,11.24,22.74,16.96,18.99,14.36,37.9,29.24,56.62,45.23,25.46,21.76,50.78,44.3,75.72,68.75,4.33,4.25,8.77,8.03,13.01,12.67,16.22,17.77,32.73,34.18,49.22,50.69,11.75,11.76,23.49,23.57,35.23,35.38.76.77,1.5,1.67,2.3,2.57.02,2.43.05,4.61.05,6.78,0,74.62,0,149.23,0,223.85,0,1.52.01,3.04-.02,4.56-.01.79.06,1.71-.47,2.37-.85-.36-1.6-1.63-2.39-2.62-10.2-12.77-20.38-25.56-30.58-38.35-48.94-61.37-97.87-122.73-146.81-184.1-4.45-5.59-8.91-11.18-13.37-16.73-.64-.8-1.22-2.12-2.08-1.72-.07,1.4.46,1.99.85,2.68,4.28,7.58,8.51,15.32,12.9,22.6,4.52,7.5,8.9,15.31,13.05,23.77,2.38,4.86,4.9,9.39,7.35,14.08,1.46,2.79,2.93,5.56,4.35,8.44.89,1.8,1.7,3.77,2.22,6.28-.47-.23-.86-.65-1.22-1.18-3.66-5.45-7.4-10.61-11.31-15.21-8.56-10.06-16.97-20.65-25.27-31.72-4.24-5.66-8.63-10.82-12.93-16.25-3.57-4.5-7.18-8.83-10.66-13.65-6.7-9.3-13.65-17.6-20.7-25.53-.65-.73-1.36-1.17-2.06-1.72.16.64.27,1.39.51,1.8.73,1.25,1.53,2.34,2.3,3.47,48.15,69.56,96.3,139.12,144.45,208.68,29.85,43.12,59.7,86.24,89.55,129.37.77,1.11,1.52,2.31,2.15,3.28.07.78.13,1.11.13,1.45.01,13.84.02,27.68.02,41.53,0,.62.03,1.4-.49,1.77-.91-.51-1.65-2.07-2.47-3.28-41.58-61.65-83.16-123.32-124.74-184.98-47.88-71.02-95.77-142.03-143.66-213.05-31.41-46.58-62.81-93.18-94.22-139.77-.77-1.15-1.54-2.29-2.34-3.36-.3-.4-.64-1.07-1.04-.1.04.44.04.96.13,1.39,1.81,8.78,3.53,17.64,6.15,25.52,1.41,4.24,2.66,8.73,3.96,13.14.4,1.35.72,2.81,1.08,4.22-.5-.18-.76-.73-1-1.32-2.39-5.81-4.88-11.44-7.74-16.16-4.03-6.66-8.17-13.01-12.26-19.47-.31-.49-.67-.86-1.03-1.18-.27-.24-.57-.66-.91.12.19,2.03.98,3.28,1.57,4.75,11.88,29.56,23.77,59.09,35.67,88.63,21.53,53.46,43.08,106.91,64.61,160.37,20.71,51.43,41.42,102.87,62.13,154.3,24.56,60.98,49.12,121.94,73.68,182.92,33.43,83,66.86,166,100.29,248.99,13.74,34.12,27.48,68.24,41.23,102.33.91,2.24,1.47,4.43,1.46,7.61-.06,30.05-.03,60.1-.04,90.15,0,.94-.06,1.88-.12,3.35-.93-1.41-1.35-3.03-1.85-4.44-28.27-78.83-56.53-157.68-84.78-236.53-26.78-74.71-53.55-149.43-80.33-224.14-5.26-14.68-10.53-29.34-15.8-43.99-.46-1.27-.78-2.9-1.61-3.34-.12,1.27.28,2.14.57,3.05,1.07,3.33,2.16,6.62,3.24,9.92,3.73,11.44,7.39,23.01,11.22,34.29,4.3,12.65,8.44,25.54,12.39,38.7,7.05,23.49,14.09,47,21.11,70.54,2.75,9.21,5.41,18.55,8.17,27.75,4.03,13.45,8.09,26.86,12.17,40.24,3.01,9.86,6.08,19.62,9.1,29.47,2.37,7.74,4.69,15.54,7.02,23.33,1.69,5.67,3.35,11.38,5.03,17.08,1.13,3.85,2.31,7.63,3.36,11.58.74,2.77,1.33,5.72,1.91,8.67.18.94.38,2.18-.21,3.44-.64-1.39-1.29-2.58-1.82-3.99-4.15-10.97-8.36-21.84-12.4-33-6.84-18.87-13.08-38.67-19.45-58.29-4.17-12.84-8.49-25.46-12.79-38.09-6.99-20.51-14.03-40.95-21.05-61.41-1.3-3.79-2.63-7.55-3.94-11.33-2.48-7.16-4.96-14.31-7.42-21.49-.79-2.3-1.5-4.75-2.33-6.97-5.22-13.9-9.97-28.55-14.96-42.81-9.74-27.86-19.57-55.58-29.26-83.54-6.79-19.59-13.61-39.11-20.93-57.77-.71-1.8-1.37-3.69-2.06-5.51-5.59-14.74-11.16-29.52-16.79-44.21-5.08-13.26-10.25-26.35-15.32-39.62-3.14-8.2-6.39-16.16-9.8-23.82-2.71-6.08-5.42-12.2-7.6-19.22-3.36-10.85-7.31-20.6-11.51-29.91-.35-.77-.8-1.31-1.51-2.45.25,2.9.9,4.36,1.4,5.95,16.92,53.88,33.86,107.74,50.78,161.62.63,2.02,1.21,4.12,1.81,6.18.04.03.08.07.12.1l-.05.12s.05-.12.05-.12c.02.14.04.27.05.4.15.42.31.84.46,1.25-.09.09-.17.18-.26.27-.07-.51-.13-1.01-.2-1.52-.04-.1-.07-.19-.11-.29-.02-.07-.04-.15-.06-.22-.99-.72-1.43-2.74-2.04-4.31-24.7-63.47-49.38-126.97-74.06-190.46-2.06-5.29-4.1-10.61-6.18-15.85-.42-1.05-.73-2.57-1.53-2.58.17,2.8,1.13,4.67,1.81,6.82,12.75,39.82,25.52,79.6,38.28,119.4,28.69,89.43,57.37,178.87,86.06,268.3,34.25,106.76,68.5,213.52,102.75,320.28,33.18,103.43,66.36,206.87,99.54,310.31,2.09,6.52,1.75,4.45,1.75,12.09.01,59.59,0,119.17,0,178.76,0,1.35.02,2.71-.02,4.05-.03.96-.16,1.91-.27,3.16-1.17.06-2.25.17-3.33.17-44.18,0-88.37,0-132.55,0-.55,0-1.09.04-1.64-.02-.53-.06-1.06-.22-1.62-.34-.47-1.94-.91-3.7-1.32-5.51-3.87-17.3-7.74-34.61-11.61-51.91-23.36-104.42-46.72-208.83-70.08-313.25-.37-1.67-.77-3.31-1.18-4.94-.18-.72-.42-1.37-.85-1.3.28,1.9.56,3.8.86,5.68,1.47,9.07,3.07,18.05,4.39,27.22,2.55,17.7,4.93,35.5,7.39,53.26,2.21,15.98,4.53,31.9,6.62,47.96,2.58,19.78,4.92,39.71,7.46,59.52,1.94,15.11,3.58,30.36,4.98,45.74.39,4.28.83,8.61.65,13.04-.02.52.13,1.42-.47,1.43-.23-1.16-.47-2.38-.7-3.61-9.37-49.44-18.75-98.86-28.11-148.32-2.57-13.57-5.32-26.98-7.33-41.01-.81-5.63-1.69-11.21-2.57-16.79-.28-1.75-.63-3.44-1-5.11-.16-.7-.36-1.54-.95-1.24-.04.75-.18,1.6-.12,2.39.22,2.98.41,6,.78,8.91,1.3,10.24,2.71,20.41,4.01,30.64,2.48,19.5,4.48,39.25,6.39,59.04.98,10.22,1.96,20.45,2.89,30.7,1.33,14.54,2.6,29.11,3.92,43.66,1.51,16.7,3.01,33.4,4.55,50.08,1.46,15.86,2.87,31.75,4.47,47.54,2.07,20.4,4.31,40.73,6.48,61.08.17,1.63.44,3.21.17,5.18-2.06.43-4.12.54-6.32-.14-.29-1.81-.58-3.53-.84-5.28-4.16-28.07-8.31-56.15-12.46-84.22-13.57-91.77-27.14-183.55-40.72-275.32-13.32-90.01-26.65-180-39.96-270.01-15.12-102.2-30.23-204.41-45.33-306.62-9.63-65.14-19.25-130.29-28.88-195.44-1.49-10.11-3.02-20.2-4.51-30.31-.2-1.37-.36-2.73-1.16-4.31.45,9.83,1.3,18.71,1.89,27.66.59,9,1.33,17.96,2,26.94.67,8.98,1.37,17.95,2.02,26.93.66,8.97,1.28,17.95,1.92,26.93-.39-1.25-.67-2.58-.89-3.95-9.76-59.37-19.52-118.75-29.29-178.12-1.83-11.11-3.67-22.21-5.51-33.31-.15-.89-.12-2.1-.78-2.14-.07.29-.21.58-.2.84.24,8.25.46,16.49.75,24.73.21,6.05.51,12.09.75,18.13.05,1.34.06,2.7.07,4.05,0,1.23.1,2.49-.07,4.42-.28-1.25-.45-1.81-.53-2.42-4.71-34.57-9.42-69.15-14.13-103.72-1.43-10.5-2.85-21.01-4.28-31.51-.1-.74-.19-1.66-.85-1.22.27,6.33.52,12.69.83,19.04.38,7.88.83,15.74,1.21,23.62.39,8.05.72,16.11,1.11,24.15.38,7.88.84,15.74,1.22,23.62.38,7.88.71,15.77,1.07,23.65.18,3.86.39,7.71.59,11.56.23,4.52.48,9.04.7,13.57.37,7.88.7,15.77,1.09,23.65.39,7.87.85,15.73,1.23,23.61.38,7.88.7,15.77,1.07,23.65.18,3.86.39,7.71.58,11.56.25,4.86.5,9.71.73,14.57.22,4.53.39,9.06.62,13.59.4,7.87.84,15.73,1.22,23.61.39,8.05.71,16.11,1.1,24.15.38,7.88.85,15.73,1.23,23.61.39,8.05.7,16.11,1.09,24.15.54,11.06,1.17,22.1,1.7,33.16.55,11.23,1.03,22.47,1.54,33.71.16,3.52.33,7.04.52,10.56.41,7.87.85,15.73,1.23,23.61.39,8.05.7,16.11,1.09,24.16.38,7.88.85,15.73,1.24,23.61.38,7.88.7,15.77,1.06,23.65.18,3.86.37,7.71.57,11.57.4,7.87.82,15.74,1.21,23.62.38,7.88.7,15.77,1.09,23.65.39,7.88.85,15.73,1.23,23.61.39,8.05.72,16.11,1.08,24.16.17,3.69.37,7.37.56,11.06.24,4.69.5,9.37.72,14.07.22,4.69.4,9.4.63,14.09.39,7.87.84,15.74,1.22,23.61.38,7.88.71,15.77,1.07,23.65.17,3.69.37,7.37.55,11.06.4,7.87.82,15.74,1.2,23.62.38,7.88.7,15.77,1.09,23.65.39,7.88.85,15.73,1.23,23.61.39,8.05.72,16.11,1.09,24.16.17,3.69.38,7.37.56,11.06.25,4.86.5,9.71.73,14.57.22,4.53.39,9.06.62,13.59.39,7.7.84,15.4,1.21,23.1.38,7.88.7,15.77,1.06,23.65.19,4.02.41,8.04.62,12.06.23,4.52.47,9.04.69,13.56.22,4.7.39,9.4.63,14.1.39,7.87.84,15.73,1.23,23.61.39,8.05.7,16.11,1.1,24.15.38,7.88.85,15.73,1.24,23.61.38,7.88.7,15.77,1.06,23.65.19,4.02.41,8.04.62,12.06.24,4.69.48,9.38.7,14.07.21,4.53.39,9.07.61,13.59.4,7.87.84,15.73,1.23,23.61.39,8.05.7,16.11,1.1,24.15.38,7.88.85,15.73,1.24,23.61.38,7.88.7,15.77,1.06,23.65.19,4.02.41,8.04.62,12.06.23,4.52.48,9.04.69,13.56.22,4.7.39,9.4.63,14.09.39,7.87.84,15.73,1.23,23.61.39,8.05.7,16.11,1.1,24.15.38,7.88.86,15.73,1.24,23.61.39,8.05.71,16.11,1.08,24.16.17,3.69.37,7.37.56,11.06.24,4.69.5,9.37.74,14.06.28,5.53.57,11.05.83,16.59.23,5.03.44,10.07.62,15.11.03.92-.15,1.87-.26,3.08-1.12.04-2.12.11-3.13.11-6.33,0-12.65,0-18.98,0v.06s-189.49-.07-189.49-.07c-1.01,0-2.01-.07-3.13-.11-.11-1.2-.29-2.16-.26-3.08.18-5.04.39-10.08.62-15.11.26-5.53.55-11.06.83-16.59.24-4.69.49-9.37.74-14.06.19-3.68.39-7.37.56-11.06.37-8.05.69-16.11,1.08-24.16.38-7.88.85-15.73,1.24-23.61.39-8.05.7-16.11,1.1-24.15.38-7.88.83-15.74,1.23-23.61.23-4.69.4-9.4.63-14.09.21-4.53.46-9.04.69-13.56.21-4.02.43-8.04.62-12.06.36-7.88.68-15.78,1.06-23.65.38-7.88.85-15.73,1.24-23.61.39-8.05.7-16.11,1.1-24.15.38-7.88.83-15.74,1.23-23.61.23-4.52.4-9.06.61-13.59.22-4.69.46-9.38.7-14.07.2-4.02.43-8.04.62-12.06.36-7.88.68-15.77,1.06-23.65.38-7.88.85-15.73,1.24-23.61.39-8.05.71-16.11,1.1-24.15.38-7.88.83-15.73,1.23-23.61.23-4.69.41-9.4.63-14.1.21-4.52.46-9.04.69-13.56.21-4.02.43-8.04.62-12.06.36-7.88.68-15.77,1.06-23.65.37-7.71.82-15.4,1.21-23.1.23-4.52.4-9.06.62-13.59.23-4.86.49-9.72.73-14.57.19-3.69.39-7.37.56-11.06.37-8.05.7-16.11,1.09-24.16.38-7.88.84-15.73,1.23-23.61.39-7.88.71-15.77,1.09-23.65.38-7.88.8-15.74,1.2-23.62.19-3.69.38-7.37.55-11.06.36-7.88.69-15.77,1.07-23.65.38-7.88.83-15.74,1.22-23.61.23-4.69.41-9.4.63-14.09.22-4.69.48-9.38.72-14.07.19-3.69.39-7.37.56-11.06.37-8.05.69-16.11,1.08-24.16.38-7.88.85-15.73,1.23-23.61.39-7.88.71-15.77,1.09-23.65.38-7.88.8-15.74,1.21-23.62.2-3.85.39-7.71.57-11.57.36-7.88.68-15.78,1.06-23.65.38-7.88.85-15.73,1.24-23.61.39-8.05.7-16.11,1.09-24.16.38-7.88.83-15.74,1.23-23.61.18-3.52.35-7.04.52-10.56.52-11.24,1-22.48,1.54-33.71.54-11.06,1.16-22.1,1.7-33.16.4-8.04.7-16.11,1.09-24.15.38-7.88.85-15.73,1.23-23.61.39-8.05.71-16.11,1.1-24.15.38-7.88.82-15.74,1.22-23.61.23-4.52.4-9.06.62-13.59.23-4.86.49-9.71.73-14.57.19-3.85.41-7.7.58-11.56.36-7.88.68-15.77,1.07-23.65.38-7.88.85-15.73,1.23-23.61.39-7.88.71-15.77,1.09-23.65.21-4.53.46-9.04.7-13.57.2-3.85.41-7.7.59-11.56.37-7.88.69-15.78,1.07-23.65.38-7.88.84-15.74,1.22-23.62.39-8.05.72-16.11,1.11-24.15.38-7.88.83-15.74,1.21-23.62.31-6.35.56-12.7.83-19.04-.67-.44-.75.48-.86,1.22-1.43,10.5-2.85,21.01-4.28,31.51-4.71,34.58-9.41,69.15-14.13,103.72-.08.61-.25,1.17-.53,2.42-.17-1.92-.08-3.18-.07-4.42,0-1.35.01-2.7.07-4.05.24-6.05.54-12.08.75-18.13.29-8.24.51-16.49.75-24.73,0-.27-.13-.56-.2-.84-.65.04-.63,1.24-.78,2.14-1.84,11.1-3.68,22.2-5.51,33.31-9.76,59.37-19.52,118.75-29.29,178.12-.23,1.37-.5,2.7-.89,3.95.64-8.98,1.27-17.96,1.92-26.93.66-8.98,1.35-17.95,2.02-26.93.67-8.98,1.41-17.94,2-26.94.59-8.96,1.44-17.84,1.89-27.66-.8,1.58-.96,2.94-1.16,4.31-1.49,10.11-3.01,20.2-4.51,30.31-9.63,65.14-19.25,130.29-28.88,195.44-15.11,102.21-30.22,204.42-45.33,306.62-13.31,90.01-26.65,180-39.96,270.01-13.58,91.77-27.14,183.55-40.72,275.32-4.15,28.08-8.31,56.15-12.46,84.22-.26,1.75-.55,3.47-.84,5.28-2.19.68-4.26.57-6.32.14-.27-1.97,0-3.55.17-5.18,2.18-20.35,4.41-40.68,6.48-61.08,1.6-15.79,3.01-31.68,4.47-47.54,1.54-16.68,3.04-33.38,4.55-50.08,1.31-14.55,2.59-29.11,3.92-43.66.93-10.25,1.91-20.47,2.89-30.7,1.9-19.79,3.91-39.54,6.39-59.04,1.3-10.24,2.71-20.41,4.01-30.64.37-2.91.56-5.92.78-8.91.06-.78-.08-1.63-.12-2.39-.59-.3-.8.54-.95,1.24-.37,1.66-.72,3.36-1,5.11-.88,5.58-1.77,11.16-2.57,16.79-2.01,14.04-4.76,27.45-7.33,41.01-9.35,49.45-18.73,98.88-28.1,148.32-.23,1.23-.48,2.45-.7,3.61-.61-.01-.45-.91-.47-1.43-.18-4.43.26-8.76.65-13.04,1.39-15.38,3.04-30.63,4.98-45.74,2.54-19.81,4.88-39.73,7.46-59.52,2.09-16.06,4.41-31.97,6.62-47.96,2.46-17.76,4.84-35.56,7.39-53.26,1.32-9.17,2.92-18.15,4.39-27.22.3-1.88.57-3.79.86-5.68-.44-.07-.67.58-.85,1.3-.41,1.63-.81,3.27-1.18,4.94-23.36,104.41-46.72,208.83-70.08,313.25-3.87,17.3-7.73,34.61-11.61,51.91-.41,1.81-.85,3.57-1.32,5.51-.56.12-1.09.28-1.62.34-.55.06-1.09.02-1.64.02-44.18,0-88.37,0-132.55,0-1.08,0-2.16-.11-3.33-.17-.11-1.26-.24-2.2-.27-3.16-.04-1.34-.02-2.7-.02-4.05,0-59.59,0-119.17,0-178.76,0-7.64-.34-5.58,1.75-12.09,33.18-103.44,66.36-206.87,99.54-310.31,34.25-106.76,68.5-213.52,102.74-320.28,28.69-89.43,57.37-178.86,86.06-268.3,12.76-39.79,25.54-79.58,38.28-119.4.69-2.14,1.64-4.02,1.81-6.82-.8,0-1.11,1.52-1.53,2.58-2.08,5.24-4.13,10.56-6.18,15.85-24.68,63.49-49.36,126.99-74.06,190.46-.61,1.57-1.05,3.59-2.04,4.31-.02.07-.04.15-.06.22-.04.1-.07.19-.11.29-.07.51-.13,1.02-.2,1.52-.09-.09-.17-.18-.26-.27.15-.42.31-.84.46-1.25.02-.14.04-.27.05-.4,0,0,.05.12.05.12l-.05-.12s.08-.07.12-.1c.6-2.07,1.17-4.17,1.81-6.18,16.93-53.87,33.86-107.74,50.78-161.62.5-1.59,1.16-3.05,1.4-5.95-.71,1.14-1.16,1.68-1.51,2.45-4.2,9.31-8.15,19.07-11.51,29.91-2.18,7.03-4.89,13.15-7.6,19.22-3.41,7.66-6.67,15.62-9.8,23.82-5.07,13.27-10.24,26.36-15.32,39.62-5.63,14.68-11.2,29.47-16.79,44.21-.69,1.83-1.35,3.71-2.06,5.51-7.33,18.67-14.15,38.18-20.93,57.77-9.68,27.96-19.51,55.68-29.26,83.54-4.99,14.27-9.74,28.92-14.96,42.81-.83,2.22-1.54,4.67-2.33,6.97-2.47,7.17-4.95,14.33-7.42,21.49-1.31,3.78-2.64,7.54-3.94,11.33-7.02,20.46-14.06,40.9-21.05,61.41-4.31,12.63-8.62,25.25-12.79,38.09-6.37,19.61-12.61,39.42-19.45,58.29-4.04,11.15-8.25,22.03-12.4,33-.53,1.4-1.18,2.6-1.82,3.99-.59-1.26-.39-2.5-.21-3.44.58-2.94,1.17-5.9,1.91-8.67,1.05-3.94,2.23-7.73,3.36-11.58,1.67-5.7,3.33-11.41,5.03-17.08,2.33-7.8,4.65-15.59,7.02-23.33,3.01-9.85,6.09-19.61,9.1-29.47,4.08-13.38,8.14-26.78,12.17-40.24,2.76-9.2,5.42-18.54,8.17-27.75,7.02-23.53,14.06-47.05,21.11-70.54,3.95-13.16,8.09-26.05,12.39-38.7,3.83-11.28,7.49-22.85,11.22-34.29,1.08-3.31,2.17-6.6,3.24-9.92.29-.91.69-1.78.57-3.05-.83.44-1.15,2.08-1.61,3.34-5.28,14.65-10.54,29.31-15.8,43.99-26.78,74.71-53.55,149.43-80.33,224.14-28.26,78.85-56.52,157.69-84.78,236.53-.5,1.41-.93,3.03-1.85,4.44-.05-1.47-.12-2.41-.12-3.35,0-30.05.02-60.1-.04-90.15,0-3.18.56-5.37,1.46-7.61,13.76-34.08,27.49-68.21,41.23-102.33,33.43-83,66.86-166,100.29-248.99,24.56-60.97,49.12-121.94,73.68-182.92,20.71-51.43,41.42-102.87,62.13-154.3,21.53-53.46,43.07-106.91,64.61-160.37,11.9-29.53,23.79-59.06,35.67-88.63.59-1.47,1.38-2.72,1.57-4.75-.34-.79-.64-.36-.91-.12-.36.32-.72.69-1.03,1.18-4.1,6.46-8.24,12.81-12.26,19.47-2.86,4.72-5.35,10.35-7.74,16.16-.24.59-.5,1.14-1,1.32.36-1.41.68-2.87,1.08-4.22,1.3-4.41,2.55-8.91,3.96-13.14,2.63-7.88,4.35-16.74,6.15-25.52.09-.43.09-.95.13-1.39-.4-.97-.75-.29-1.04.1-.8,1.06-1.57,2.21-2.34,3.36-31.41,46.59-62.81,93.19-94.22,139.77-47.88,71.02-95.77,142.03-143.66,213.05-41.58,61.66-83.15,123.33-124.74,184.98-.82,1.21-1.56,2.77-2.47,3.28-.51-.37-.48-1.15-.49-1.77,0-13.84,0-27.68.02-41.53,0-.33.06-.66.13-1.45.63-.97,1.38-2.16,2.15-3.28,29.85-43.13,59.7-86.25,89.55-129.37,48.15-69.56,96.3-139.12,144.45-208.68.78-1.12,1.57-2.22,2.3-3.47.24-.41.36-1.15.51-1.8-.69.55-1.41,1-2.06,1.72-7.05,7.93-14,16.24-20.7,25.53-3.47,4.82-7.09,9.15-10.66,13.65-4.31,5.43-8.69,10.59-12.93,16.25-8.29,11.06-16.71,21.65-25.27,31.72-3.91,4.6-7.65,9.76-11.31,15.21-.36.53-.75.95-1.22,1.18.52-2.52,1.33-4.49,2.22-6.28,1.42-2.88,2.89-5.65,4.35-8.44,2.45-4.69,4.97-9.22,7.35-14.08,4.15-8.46,8.53-16.27,13.05-23.77,4.39-7.29,8.61-15.03,12.9-22.6.39-.69.92-1.28.85-2.68-.86-.41-1.44.92-2.08,1.72-4.47,5.54-8.92,11.14-13.37,16.73-48.94,61.37-97.87,122.73-146.81,184.1-10.19,12.78-20.38,25.58-30.58,38.35-.79.99-1.54,2.26-2.39,2.62-.53-.66-.45-1.58-.47-2.37-.03-1.52-.02-3.04-.02-4.56,0-74.62,0-149.23,0-223.85,0-2.18.03-4.36.05-6.78.8-.9,1.53-1.8,2.3-2.57,11.74-11.8,23.48-23.61,35.23-35.38,16.49-16.51,33.01-32.91,49.22-50.69,4.24-4.65,8.68-8.42,13.01-12.67,24.94-24.45,50.26-46.99,75.72-68.75,18.71-16,37.62-30.87,56.62-45.23,7.57-5.72,15.15-11.34,22.74-16.96h-39.99c-4.4,1.72-8.8,3.43-13.19,5.18-7.21,2.86-14.44,5.53-21.61,8.75-10.76,4.83-21.49,10.06-32.23,15.13-2.2,1.04-4.4,2.12-6.6,3.18,0,0,0-.03,0-.03,0,0,0,.03,0,.03-.25,0-.5,0-.75,0,0,0,0-.02,0-.03h.76c.35-1.34,1.04-1.47,1.61-1.85,12.31-8.07,24.61-16.25,36.95-24.08,3.4-2.16,6.81-4.25,10.23-6.28h-33.57c-.29.12-.57.25-.86.36-10.28,4.08-20.45,9.25-30.65,14.08-15.38,7.27-30.71,15.08-46.08,22.51-6.47,3.12-12.98,5.81-19.46,8.78-9.61,4.39-19.25,8.48-28.81,13.4-8.27,4.25-16.52,8.58-24.84,12.42-1.52.7-3.07,1.19-4.61,1.74-.29.1-.6.01-.97.01-.09-.82-.19-1.45-.21-2.08-.19-6.89-.04-59.28.19-63.01.65-1.11,1.5-1.18,2.35-1.38,5.35-1.28,10.69-2.59,16.04-3.84,3.49-.82,6.98-1.55,10.47-2.37.83-.2,1.67-.4,2.5-.61h-33.18s0,1501.49,0,1501.49h938.43s0-1501.49,0-1501.49Z"/>
  </g>
</svg>