<?xml version="1.0" encoding="UTF-8"?>
<svg id="Layer_1" xmlns="http://www.w3.org/2000/svg" viewBox="0 0 1920 1500">
  <defs>
    <style>
      .cls-1 {
        fill: #4fb5ee;
      }

      .cls-2 {
        fill: #fdf137;
      }

      .cls-3 {
        fill: #2a43a2;
      }

      .cls-4 {
        fill: #002e72;
      }

      .cls-5 {
        fill: #2a44a2;
      }
    </style>
  </defs>
  <rect class="cls-4" width="1920" height="1500"/>
  <g>
    <g>
      <path class="cls-1" d="M61.49,982.61c.69-1.64,1.55-3.24,2.05-4.94,10.19-34.63,17.62-69.85,22.54-105.6,2.85-20.68,5.95-41.33,5.53-62.33-.72-35.94-3-71.76-6.9-107.49-4.42-40.47-10.24-80.72-17.87-120.7-11.63-60.95-27.09-120.88-48.25-179.27-2.04-5.62-3.73-11.36-5.53-17.07-.3-.94-.31-1.96.36-3.42,1.38,1.51,2.88,2.93,4.12,4.54,25.1,32.62,45.28,68.21,63.22,105.14,33.31,68.58,56.93,140.42,70.96,215.28,5.46,29.11,8.9,58.62,12.59,88.02,4.4,35.04,5.52,70.28,4.56,105.58-1.39,51.23-4.47,102.32-14.2,152.79-13.6,70.54-35.94,137.86-74.13,199.22-19.88,31.95-44.39,60.07-72.4,85.16-.87.78-1.85,1.44-3.22,2.49v-755.65c.89,1.84,1.51,3.02,2.05,4.24,26.34,59.4,46.25,120.88,59.39,184.52,3.55,17.17,3.79,34.65,3.65,52.07-.23,27.79-.3,55.62-1.89,83.35-1.34,23.34-4.73,46.56-7.22,69.83-.14,1.3-.29,2.61-.44,3.91.34.11.68.23,1.02.34Z"/>
      <path class="cls-1" d="M4.84,1408.93c-.09-1.13-.21-2.04-.21-2.94-.01-16.64-.06-33.27.09-49.91.01-1.41.98-3.41,2.12-4.11,33.28-20.34,58.73-48.61,80.52-80.32,54.48-79.27,93.94-165.64,121.05-257.83,16.24-55.21,28.8-111.19,36.41-168.25,4.59-34.44,7.32-69.05,8.21-103.79.59-23.14,1.74-46.3,1.41-69.43-.31-21.66-2.22-43.3-3.43-64.95-.13-2.33-.28-4.65-.43-6.98l1.01-.14c1.77,9.76,4.09,19.46,5.21,29.29,5.06,44.55,9.61,89.14,10.72,134.02,1.3,52.46-.63,104.84-3.58,157.19-.85,15.14-2.43,30.23-3.59,45.35-.21,2.73-.03,5.49.73,8.56.66-1.13,1.56-2.19,1.95-3.41,12.42-38.58,26.38-76.7,34.34-116.62,7.22-36.21,11.71-72.71,13.26-109.61,1.27-30.22,1.02-60.39-1.83-90.52-3.38-35.65-8.67-71.01-15.4-106.18-9.51-49.7-22.83-98.4-38.33-146.54-3.17-9.85-5.36-20.02-7.97-30.05-.19-.74-.15-1.54.68-2.93,1.37,1.74,2.9,3.38,4.08,5.24,18.68,29.35,31.93,61.28,44.04,93.7,20.07,53.74,34.12,108.99,42.8,165.76,8.66,56.65,11.88,113.52,9.89,170.68-2.3,65.72-10.28,130.7-27.68,194.3-13.58,49.62-33.29,96.76-57.49,142.06-27.81,52.07-60.88,100.54-100.14,144.7-42.34,47.62-90.72,87.86-146.45,119.03-2.88,1.61-6.08,2.66-9.15,3.91-.83.34-1.75.45-2.82.72Z"/>
    </g>
    <g>
      <path class="cls-2" d="M212.68,380.57c-1.51-2.75-3.11-5.46-4.51-8.27-18.6-37.27-37.84-74.18-61.09-108.83-3.93-5.85-8.02-11.6-12.18-17.29-1.45-1.98-3.31-3.65-4.98-5.47-.34.21-.68.41-1.02.62.56,1.48,1.01,3.02,1.69,4.44,13.46,28.34,27.92,56.25,40.22,85.09,23.78,55.74,39.69,113.92,50.23,173.56,2.8,15.82,5.01,31.75,7.14,47.65-7.45-27.56-14.24-55.33-22.54-82.64-8.34-27.46-17.37-54.76-27.59-81.57-10.22-26.8-21.45-53.3-33.77-79.21-12.32-25.91-25.67-51.43-40.18-76.17-14.51-24.75-30.29-48.86-46.87-72.29-16.54-23.37-34.75-45.55-52.91-69.13,2.92,1.3,5.2,2.09,7.26,3.26,13.46,7.61,24.8,17.84,35.44,28.91,18.97,19.76,34.58,42.15,50.43,64.34,8.74,12.23,17.28,24.6,25.99,36.86,1.01,1.42,2.47,2.5,4.23,3.34-19.03-47.44-48.54-88.72-76.68-130.79.47-.41.93-.81,1.4-1.22,2.12,1.75,4.43,3.31,6.33,5.27,17.94,18.46,33.99,38.48,48.71,59.57,35.75,51.23,62.97,106.94,86.32,164.66,6.18,15.28,11.84,30.77,17.65,46.2,1.06,2.8,1.69,5.76,2.52,8.65-.42.15-.84.3-1.26.44Z"/>
      <path class="cls-2" d="M5.75,175.61c97.44,144.45,153.45,304.76,182.39,475.44l-1.48.52c-2.14-8.04-4.38-16.05-6.4-24.12-18.22-72.79-42.74-143.39-73.25-211.93-28.2-63.33-61.54-123.8-100.16-181.38-1.3-1.94-2.14-4.6-2.17-6.93-.19-15.97-.1-31.94-.09-47.91,0-1.14.11-2.28.17-3.42.33-.09.67-.18,1-.26Z"/>
    </g>
  </g>
  <path class="cls-3" d="M1586.6,1487.9c-1.28.05-2.56.13-3.83.13-104.08,0-208.17,0-312.25,0-1.28,0-2.55-.1-3.83-.16,5.29-3.91,11.51-6.1,17.27-9.12,19.45-10.17,38.12-21.57,55.9-34.4,25.01-18.05,48.52-38.01,72.57-57.28,25.93-20.78,51.53-41.98,77.03-63.29,14.61-12.21,29.21-24.42,43.07-37.52,16.15-15.27,31.62-31.22,47.4-46.86,2.1-2.08,3.57-4.77,5.51-7.03.88-1.02,1.58-2.78,3.76-1.43,1.83,1.13,2,2.29,1.65,4.2-1.87,10.31-6.51,19.23-12.76,27.56-14.42,19.2-28.61,38.57-42.93,57.84-1.78,2.39-3.73,4.65-5.66,6.92-.87,1.03-1.08,1.9-.06,2.96.98,1.02,1.7.36,2.61-.12,5.04-2.67,9.86-5.52,13.89-9.74,12.01-12.55,24.53-24.63,36.31-37.38,23-24.89,44.58-50.99,61.36-80.57,12.29-21.66,23.15-44.11,34.3-66.39,11.98-23.93,24.12-47.78,36.21-71.67.7-1.38,1.48-2.72,2.66-4.87,1.44,5.84.04,10.72-.75,15.54-2.36,14.46-8.58,27.63-14.05,41.04-2.13,5.23-4.05,10.54-5.31,16.16,2.29-4.26,4.73-8.43,6.83-12.78,14.17-29.36,26.68-59.4,36.46-90.53,9.06-28.88,16.29-58.19,21.17-88.09,2.79-17.08,4.89-34.22,6.57-51.42,1.02-10.45,1.7-20.97,1.76-31.46.11-20.5,1.66-40.97.89-61.47-.74-19.59-1.13-39.21-2.67-58.74-2.54-32.11-7.22-63.94-15.16-95.24-4.55-17.93-10.41-35.43-16.77-52.77-.07-.2-.44-.28-1.21-.73.96,6.16,1.83,11.95,2.76,17.72,2.89,18.05,5.81,36.09,8.45,54.18,2.56,17.55,4.72,35.16,5.61,52.83.83,16.41,1.08,32.89-.44,49.35-.74,8.01-1.71,15.93-2.95,23.96-1.64-.65-1.42-1.76-1.45-2.7-.15-5.82-.56-11.64-.76-17.45-1.46-41.66-5.79-82.91-16.36-123.34-4.86-18.57-10.64-36.84-17.34-54.84-9.64-25.91-21.21-50.92-34.01-75.38-15.92-30.42-34.15-59.4-55.38-86.41-12.41-15.79-26.01-30.56-40.77-44.17-5.82-5.37-11.43-11.11-18.42-15.1-1.31-.75-2.65-2.08-4.25-.78-1.65,1.35-.43,2.93.05,4.31,3.96,11.44,11.04,21.17,17.58,31.13,13.42,20.45,27.65,40.37,38.48,62.42,12.42,25.3,21.34,51.71,25.97,79.55,1.51,9.09,3.3,18.13,4.97,27.19.03.14.08.28.07.42-.12,1.75,1.01,4.34-1.19,4.9-1.92.49-2.24-2.17-2.81-3.62-11.61-29.52-23.52-58.9-38.51-86.94-15.59-29.16-33.47-56.79-53.93-82.78-18.69-23.75-39.09-45.94-61-66.7-12.16-11.52-24.95-22.35-38.19-32.7-25.43-19.87-52.56-36.94-81.34-51.45-30.67-15.46-62.86-26.45-96.9-31.48-17.6-2.61-35.39-3.69-53.16-2.64-38.53,2.29-75.32,11.89-110.73,27.15-19.61,8.45-38.8,17.72-57.39,28.23-2.18,1.23-4.46,2.29-7.02,2.92,5.4-5.53,10.63-11.25,16.25-16.55,7.97-7.5,16.29-14.62,24.35-22.03,26.24-24.11,54.01-46.12,85.08-63.81,24.83-14.14,51.13-24.9,77.94-34.53,31.75-11.41,64.3-20,97.41-26.37,20.74-3.99,41.66-6.97,62.6-9.82,18.54-2.52,37.11-4.87,55.74-6.51,14.7-1.29,29.44-2.2,44.2-2.95,26.88-1.36,53.77-1.36,80.66-1.74,6.65-.09,13.34-.57,20.02-.63,10.12-.1,20.03,1.96,30.05,2.96,5.73.57,11.55.8,17.15,2.91-10.22.89-20.44,1.72-30.65,2.68-10.87,1.02-21.72,2.2-32.59,3.21-10.59.98-21.2,1.8-31.8,2.76-11.29,1.02-22.58,2.14-33.87,3.2-3.96.37-7.91.75-11.87,1.04-1.67.12-3.29.27-3.36,2.39-.08,2.22,1.75,1.75,3.08,1.94,29.54,4.15,58.72,10.04,87.52,17.8,30.39,8.19,60.01,18.6,88.96,30.95,37.55,16.02,73.22,35.52,107.13,58.17,18.9,12.63,37.05,26.3,54.73,40.65,22.23,18.05,43.17,37.45,63.38,57.69,1.3,1.3,2.43,2.77,3.64,4.16,0,12.22-.01,24.44-.02,36.67-2.06,1.46-3.5-.22-4.9-1.16-14.31-9.6-28.75-19-43.69-27.59-17.03-9.79-34.04-19.68-52.81-25.95-1.31-.44-2.56-1.3-4.44-.75,2.16,3.26,5.18,5.24,8.29,7.07,18.69,10.98,36.71,22.93,53.47,36.71,14.42,11.85,28.1,24.51,41.11,37.89,1.56,1.6,2.56,3.37,3,5.52.02,24.11.05,48.23.06,72.34,0,.7-.17,1.4-.26,2.1-2.43.04-3.36-1.94-4.51-3.48-14.79-19.74-30.44-38.79-47.08-56.97-15.18-16.59-30.59-32.96-46.99-48.43-21.05-19.86-42.67-39.02-65.12-57.26-22.02-17.89-44.87-34.66-68.12-50.9-12.15-8.48-24.72-16.35-36.75-25.01-2.18-1.57-5.31-3.28-3.86-6.28,1.32-2.73,4.4-.77,6.57-.24,24.92,6.07,49.99,11.55,74.54,19.05,12.95,3.95,25.74,8.43,39.2,10.43,2.12.32,4.24.56,6.38.51.83-.02,1.84.08,2.25-.85.51-1.14-.39-1.88-1.13-2.51-4.22-3.63-8.71-6.93-13.56-9.65-24.28-13.64-49.56-25.1-75.79-34.46-41.01-14.63-83-25.75-125.61-34.57-23.87-4.94-47.97-8.41-72.3-10.31-7.11-.56-14.15-.72-21.31-.01,2.93,2.31,6.38,3.42,9.65,4.82,44.57,19.12,88.06,40.39,129.76,65.2,26.6,15.82,52.26,33.06,76.76,51.99,1.8,1.39,3.71,2.68,5.11,4.51.51.67.99,1.53.3,2.32-.49.56-1.28.53-2.01.39-1.28-.24-2.42-.84-3.57-1.4-49.19-24.04-101.06-40.2-154.26-52.44-2.92-.67-5.8-1.5-8.74-2.05-1.3-.25-3.05-1.17-3.77.63-.67,1.67,1.06,2.47,2.14,3.29,3.86,2.94,8.07,5.35,12.28,7.75,38.38,21.86,77.25,42.85,115,65.82,37.21,22.64,72.22,48.32,105.48,76.4,17.2,14.52,33.91,29.57,50.33,44.96,18.1,16.96,35.25,34.86,52.86,52.3,4.44,4.4,8.41,9.29,12.9,13.66.71.7,1.39,1.44,1.8,2.37.29.64.64,1.35.05,1.98-.56.59-1.31.5-1.98.25-1.91-.7-3.4-2.07-4.95-3.31-24.66-19.83-49.71-39.14-76.2-56.5-12.89-8.45-26.18-16.18-40.46-22.09-1.32-.54-2.61-1.15-4.01-1.48-.54-.13-1.11-.27-1.85.29,0,1.98,1.69,2.99,2.91,4.21,12.22,12.17,25.53,23.14,38.4,34.6,15.53,13.82,31.17,27.52,46.48,41.58,10.19,9.36,19.89,19.19,29.64,28.98,21.95,22.04,41.64,46.04,60.82,70.48,1.16,1.48,1.97,3.12,2.42,4.95.06,1.56.17,3.13.17,4.69,0,163.64,0,327.28,0,490.92,0,1.42-.06,2.85-.1,4.27-1.14,8.2-5.23,15.32-8.5,22.7-10.24,23.07-22.57,45.04-35.42,66.75-18.59,31.42-38.95,61.64-60.88,90.79-15.24,20.26-31.57,39.64-48.47,58.55-13.96,15.62-28.55,30.63-43.67,45.1-24.51,23.44-50.43,45.25-77.74,65.41-16.63,12.27-33.59,24.03-51.14,34.94-2.34,1.45-4.76,2.49-7.47,2.88Z"/>
  <path class="cls-2" d="M1919.82,600.91c-6.07-7.53-12.18-15.02-18.2-22.59-30.72-38.57-65.68-72.99-102.69-105.47-20.11-17.65-40.78-34.7-59.66-53.71-1.09-1.1-3.6-1.84-1.97-4.38,1.6-2.49,3.33-.72,4.82-.14,20.68,8.12,39.1,20.19,57.35,32.61,22.49,15.31,43.7,32.3,65.03,49.15,1.16.92,2.37,1.76,4.08,2.02-8.13-8.45-16.23-16.93-24.4-25.34-42.61-43.88-87.56-85.13-136.52-121.92-35.57-26.73-73.55-49.64-112.26-71.42-22.42-12.62-44.85-25.24-67.23-37.95-4.2-2.38-8.15-5.19-12.23-7.79-1.68-1.07-3.39-1.8-2.09-4.58,1.24-2.66,3.03-1.65,4.62-1.29,18.57,4.25,37.08,8.71,55.41,13.92,38.5,10.93,76.02,24.42,111.85,42.38.7.35,1.34,1.15,2.88.41-68.84-54.47-145.71-94.14-226.18-127.89,3.5-2.86,7.16-2.86,10.85-2.71,29.94,1.2,59.5,5.52,88.8,11.54,40.13,8.24,79.68,18.78,118.39,32.28,28.24,9.85,55.59,21.7,81.61,36.52,5.22,2.97,9.89,6.7,14.65,10.29,1.25.94,2.48,1.59,1.64,3.72-.81,2.05-2.06,1.91-3.69,1.82-11.76-.6-23.05-3.59-34.12-7.26-29.88-9.9-60.65-16.33-91.1-24.04-.52-.13-1.05-.18-1.63-.28-.02,3.37,2.61,4.4,4.61,5.8,19.11,13.39,38.71,26.06,57.61,39.76,79.23,57.43,149.94,123.63,208.82,202.06.25.34.57.63.86.94.02,12.78.04,25.56.06,38.35-2.71.24-3.45-1.95-4.6-3.67-.93-1.41-2.17-2.59-3-4.08,2.67,4.37,6.72,7.95,7.6,13.35.01,29.86.02,59.72.04,89.58Z"/>
  <path class="cls-5" d="M1919.91,1282.99c-.02,31-.05,62.01-.07,93.01-6.53,6.92-12.56,14.28-19.27,21.06"/>
</svg>