<svg width="430" height="1083" viewBox="0 0 430 1083" fill="none" xmlns="http://www.w3.org/2000/svg">
<path d="M459.91 163.325C465.387 165.73 471.018 167.728 476.296 170.633C512.749 190.665 545.499 217.861 577.94 245.648C580.188 247.567 582.469 249.433 584.783 251.234C585.279 251.628 585.995 251.628 586.987 250.984C501.167 121.066 391.887 38.599 252.259 17.4498C252.38 16.4508 252.502 15.4651 252.612 14.4661C287.577 10.9041 322.542 7.32874 357.506 3.7666C357.572 4.05579 357.639 4.34509 357.716 4.62109C351.446 3.75354 345.176 2.80713 338.894 2.03162C332.47 1.22986 326.024 -0.11084 319.599 0.00744629C291.698 0.506958 263.731 0.375488 235.906 2.54431C209.493 4.59473 183.112 8.354 156.908 12.9413C115.53 20.1707 75.2533 32.7761 36.7182 52.5714C13.2467 64.6247 -8.15313 80.7264 -27.9331 99.8907C-42.9747 114.455 -57.6637 129.531 -72 145.501C-70.0385 144.253 -68.0991 142.991 -66.1266 141.782C-36.1757 123.209 -5.46437 107.409 28.2773 100.942C69.424 93.0557 108.653 100.522 146.483 120.159C195.366 145.515 236.138 183.791 271.466 231.176C300.998 270.78 323.225 315.299 339.269 364.485C340.569 368.468 342.255 372.28 343.765 376.17C344.404 375.973 345.043 375.776 345.682 375.566C343.908 364.551 342.266 353.51 340.327 342.534C334.365 308.753 320.988 279.205 303.952 251.694C298.475 242.848 293.362 233.647 288.359 224.406C286.585 221.134 285.615 217.243 284.271 213.641C284.789 213.089 285.307 212.537 285.825 211.985C287.775 213.392 289.88 214.588 291.654 216.257C324.668 247.37 348.867 287.236 368.923 330.612C389.749 375.658 404.659 423.621 410.389 474.884C413.067 498.806 413.496 523.097 414.631 541.854C423.238 491.432 413.034 436.963 405.43 382.243C429.364 448.806 431.678 519.049 430.026 589.699C428.185 668.131 410.29 741.515 378.3 809.958C383.281 789.742 394.609 772.023 394.025 749.218C392.868 751.558 391.634 753.845 390.565 756.224C376.184 788.217 362.179 820.46 347.379 852.164C328.933 891.689 301.946 922.749 274.761 953.467C272.127 956.451 268.48 958.173 265.306 960.473C264.832 959.763 264.359 959.053 263.885 958.357C265.857 955.609 267.918 952.941 269.802 950.089C280.767 933.488 291.94 917.07 302.442 900.062C305.208 895.593 305.847 889.244 307.456 883.763C306.552 883.027 305.649 882.291 304.745 881.555C301.946 885.406 299.423 889.638 296.282 893.069C281.483 909.21 267.136 926.087 251.466 940.954C217.339 973.328 182.726 1004.98 147.894 1036.26C127.221 1054.77 104.962 1070.4 80.6749 1082.89C82.3388 1082.89 84.0138 1082.89 85.6777 1082.89C156.103 1082.89 226.529 1082.92 296.943 1082.77C300.216 1082.77 303.919 1081.93 306.695 1079.98C393.694 1019.04 460.913 934.473 512.143 831.646C530.887 794.027 543.835 752.912 554.975 711.165C555.725 708.339 556.044 705.342 556.573 702.293C566.204 721.26 558.953 826.651 543.438 886.273C527.812 946.303 506.842 1003.14 469.784 1049.85C470.5 1050.8 471.216 1051.73 471.933 1052.67C476.671 1050.06 481.872 1048.26 486.06 1044.73C506.677 1027.31 525.62 1007.65 541.014 983.515C547.647 973.104 554.226 962.655 562.094 950.22C561.962 974.471 552.474 992.374 544.386 1010.83C544.992 1011.28 545.609 1011.71 546.215 1012.16C552.441 1000.43 558.876 988.864 564.827 976.943C571.075 964.429 577.543 951.969 582.645 938.798C587.626 925.956 591.009 912.233 595.031 899.115C598.425 908.04 592.673 950.536 582.447 993.15C574.943 1024.45 564.617 1054.24 548.507 1082.86C559.637 1082.86 569.246 1083.33 578.778 1082.54C581.367 1082.33 584.618 1078.94 586.083 1075.96C594.304 1059.16 603.208 1042.65 609.797 1024.95C631.958 965.402 643.352 902.323 650.217 838.034C656.63 777.899 652.939 718.368 640.409 659.64C638.889 652.489 636.476 645.615 634.558 638.583C634.371 637.899 634.679 637.005 634.944 634.429C651.286 652.792 664.267 672.666 673.104 695.892C681.92 719.052 689.534 742.869 699 766.266C698.339 754.147 698.251 741.949 696.939 729.935C684.576 616.855 660.619 507.337 624.641 401.683C604.772 343.349 577.918 289.918 541.972 243.479C519.922 214.982 494.985 190.652 466.225 172.184C463.591 170.489 461.288 168.057 458.83 165.967C459.194 165.086 459.558 164.206 459.921 163.325H459.91ZM523.471 307.215C525.642 311.106 527.823 314.984 529.983 318.874C547.736 350.828 563.681 383.965 575.086 419.901C578.976 432.165 581.621 445.02 584.453 457.744C584.926 459.899 583.417 462.673 582.822 465.17C580.838 464.079 578.348 463.553 576.981 461.779C572.772 456.324 568.717 450.62 565.102 444.599C538.149 399.712 509.256 356.783 474.566 319.992C455.943 300.236 436.461 281.65 417.408 262.459C413.849 258.871 410.532 254.928 407.105 251.155C407.59 250.366 408.075 249.565 408.56 248.776C426.103 256.018 441.64 268.138 457.001 280.217C472.605 292.507 487.338 306.348 500.87 318.125C454.588 262.367 404.053 208.923 344.988 168.294C318.046 149.747 290.243 132.975 262.86 115.335C259.587 113.232 256.524 110.669 253.35 108.316C253.78 107.133 254.221 105.937 254.651 104.754C296.723 115.138 337.936 128.9 376.912 151.6C328.9 108.303 275.444 76.9934 218.209 49.9951C220.997 48.6412 221.603 48.1285 222.231 48.0891C224.071 47.984 225.923 47.9708 227.763 48.0891C263.356 50.3368 298.111 58.6835 332.481 69.3829C364.636 79.3857 396.119 91.8334 425.508 110.761C429.386 113.259 432.858 116.663 436.527 119.647C436.185 120.685 435.833 121.71 435.491 122.749C420.207 122.183 406.036 114.875 391.347 110.603C376.449 106.279 361.495 102.257 345.815 97.8796C346.509 99.733 346.575 100.417 346.884 100.666C350.52 103.571 354.145 106.516 357.87 109.276C409.474 147.499 457.255 191.493 499.195 244.07C527.945 280.099 553.499 319.111 573.102 363.21C577.378 372.845 579.868 383.597 583.174 393.849C582.183 394.572 581.18 395.282 580.188 396.005C578.205 393.626 575.527 391.641 574.348 388.789C561.62 357.834 542.127 332.82 523.482 307.242L523.471 307.215Z" fill="#2744A6"/>
</svg>

