<?xml version="1.0" encoding="UTF-8"?>
<svg id="Layer_1" xmlns="http://www.w3.org/2000/svg" viewBox="0 0 1080 1080">
  <defs>
    <style>
      .cls-1 {
        fill: #fef237;
      }
    </style>
  </defs>
  <path class="cls-1" d="M1042.01,539.92c.76,276.39-225.22,505.27-507.79,502.18-275.21-3.01-497.71-228.05-496.23-504.95,1.47-276.12,226.98-500.28,504.86-499.29,274.87.98,499.16,225.84,499.16,502.06ZM560.88,731.18c39.74.24,94.74-16.22,146.33-44.83,61-33.82,108.01-82.44,146.47-139.94,2.93-4.38,2.44-8.53-.29-12.7-15.89-24.35-33.66-47.22-53.93-68.09-35.34-36.37-76.17-65.11-122.14-86.39-55.47-25.67-113.59-35.83-174.46-27.74-63.58,8.45-121.26,31.69-172.72,70.02-41.6,30.98-75,69.59-103.73,112.48-3.5,5.22-1.92,9.71,1.13,14.32,25.01,37.77,54.71,71.32,89.88,99.97,65.16,53.07,139.05,82.5,243.44,82.89Z"/>
  <path class="cls-1" d="M666.87,540.31c.02,69.74-56.7,126.68-126.31,126.79-70.13.11-127.24-56.58-127.24-126.31,0-70.65,56.65-127.31,127.24-127.25,69.56.07,126.29,57,126.31,126.77ZM540.29,464.15c-42.78.01-76.34,33.3-76.37,75.76-.03,43,33.48,76.82,76.01,76.7,42.68-.11,76.44-33.62,76.45-75.88.01-42.96-33.42-76.61-76.1-76.59Z"/>
</svg>