<?xml version="1.0" encoding="UTF-8"?>
<svg id="Layer_1" xmlns="http://www.w3.org/2000/svg" viewBox="0 0 1080 1080">
  <defs>
    <style>
      .cls-1 {
        fill: #fef237;
      }
    </style>
  </defs>
  <path class="cls-1" d="M37.99,539.96c0-277.14,224.53-501.65,501.95-501.88,277.28-.23,502.28,224.98,502.07,502.16-.21,276.03-223.4,501.77-502.11,501.68-277.9-.09-501.5-224.65-501.92-501.96ZM668.84,725.39c0-7.15.31-13.69-.06-20.19-1.24-22.01-11.6-38.01-32.35-46.19-7.62-3-15.88-4.44-23.9-6.39-10.59-2.58-14.99-7.13-16.07-17.87-.58-5.73-.32-11.54-.64-17.3-.49-8.96,1.29-12.17,9.73-15.3,35.39-13.13,63.45-35.67,85.32-66.18,4.07-5.67,9.48-9.36,15.86-11.91,10-4,20.16-7.66,29.87-12.26,33.1-15.68,61.13-37.63,81.57-68.39,28.31-42.6,37.21-90.13,34.11-140.33-.95-15.47-6.47-29.68-18.42-40.38-8.45-7.57-17.87-14.48-29.65-14.49-176.43-.19-352.86-.14-529.29-.08-2.44,0-5.01.42-7.29,1.27-18.58,6.93-31.72,19.54-38.86,38.11-1.09,2.84-1.72,6.03-1.75,9.07-.18,14.84-.3,29.69.02,44.53.15,6.81.84,13.7,2.17,20.38,5.55,27.93,14.84,54.48,30.19,78.69,25.36,39.99,61.83,65.43,105.98,80.68,11.8,4.08,20.84,11.15,28.52,21,7.64,9.81,16.12,19.13,25.21,27.61,16.18,15.09,35.36,25.58,56.08,33.19,5.53,2.03,8.54,5.6,10.07,11.23,5.13,18.93-7.18,36.95-27.62,40.05-31.88,4.83-52.2,33.67-46.42,65.55.81,4.47,2.34,6.04,7.15,6.03,81.26-.17,162.52-.12,243.78-.12h6.67ZM704.95,837.77c0-2.79.02-5.08,0-7.38-.12-16.4.08-32.8-.5-49.18-.41-11.42-6.62-17.21-18.02-18.24-2.64-.24-5.31-.21-7.96-.21-92.33,0-184.65,0-276.98,0-2.03,0-4.06,0-6.09.09-13.22.57-19.33,6.49-20.23,19.62-.12,1.71-.19,3.43-.2,5.15-.02,15.3-.08,30.61.04,45.91.02,3.2-.91,4.43-4.27,4.28-5.14-.24-10.32-.22-15.45.09-8.92.54-15.21,6.24-16.49,14.53-1.44,9.34,1.92,16.28,10.78,19.4,4.99,1.76,10.66,2.23,16.02,2.23,117.63.15,235.27.18,352.9.04,4.67,0,9.58-1.41,13.96-3.19,5.85-2.37,8.58-7.45,8.79-13.79.39-11.57-5.95-18.7-17.52-19.28-6.04-.3-12.11-.05-18.76-.05Z"/>
  <path class="cls-1" d="M470.96,364.42c7.97,0,15.93.02,23.9,0,8.67-.03,13.25-3.23,16-11.56,5.19-15.7,10.16-31.48,15.4-47.16,2.84-8.49,10.38-12.29,18.51-9.67,5.27,1.7,7.93,5.74,9.54,10.74,4.79,14.85,9.63,29.68,14.4,44.54,3.23,10.06,7.29,13.12,17.71,13.12,15.62,0,31.24-.01,46.86,0,8.2,0,13.6,3.47,15.73,9.99,2.15,6.6-.11,12.33-6.87,17.26-12.74,9.29-25.52,18.54-38.26,27.83-7.79,5.68-9.43,10.69-6.49,19.83,4.88,15.15,9.81,30.28,14.69,45.43,2.49,7.72.78,13.84-4.95,17.89-5.34,3.77-11.8,3.33-18.2-1.3-12.64-9.16-25.27-18.34-37.9-27.52-8.41-6.11-13.34-6.2-21.66-.19-13.17,9.5-26.19,19.21-39.46,28.57-9.49,6.69-21.89,1.33-22.94-9.81-.24-2.53.39-5.29,1.17-7.76,4.8-15.17,9.78-30.29,14.68-45.43,2.85-8.81,1.12-14.07-6.35-19.51-13.13-9.56-26.3-19.05-39.37-28.69-6.02-4.44-7.98-10.12-6.04-16.36,1.96-6.3,7.11-10.13,14.13-10.21,8.59-.1,17.18-.02,25.77-.03Z"/>
  <path class="cls-1" d="M740.95,284.52c13.85,0,27.09-.01,40.34,0,5.31,0,10.62.02,15.92.16,11.46.3,18.13,7,18.88,18.34,1.75,26.54.15,52.78-7.94,78.25-13.28,41.78-40.03,72.41-78.46,93.08-3.16,1.7-6.41,3.23-9.63,4.81-.24.12-.6.02-1.35.02,7.39-64.67,14.77-129.27,22.24-194.67Z"/>
  <path class="cls-1" d="M338.78,284.96c7.38,64.72,14.72,129.01,22.14,194.05-10.79-3.62-19.94-8.57-28.37-14.69-39.36-28.61-62.34-67.13-67.71-115.51-1.7-15.27-1.17-30.82-1.07-46.24.06-9.85,5.91-17.02,15.55-17.39,19.6-.75,39.26-.23,59.45-.23Z"/>
</svg>