<?xml version="1.0" encoding="UTF-8"?>
<svg id="Layer_1" xmlns="http://www.w3.org/2000/svg" viewBox="0 0 1080 1080">
  <defs>
    <style>
      .cls-1 {
        fill: #fef237;
      }
    </style>
  </defs>
  <path class="cls-1" d="M539.8,1042.07c-279.78-.63-504.09-227.97-501.8-506.43,2.28-277.43,229.75-500.52,507.39-497.68,271.36,2.77,496.4,223.18,496.62,501.98.22,277.25-225.08,502.26-502.21,502.14ZM354.34,816.4c1.81-1.61,3.13-2.71,4.36-3.89,9.48-9.06,18.96-18.1,28.4-27.2,42.43-40.88,84.8-81.83,127.27-122.67,41.43-39.84,82.85-79.7,124.49-119.32,32.87-31.28,66.02-62.26,99.16-93.26,19.15-17.91,38.48-35.61,54.9-56.19,22.95-28.77,39.2-60.7,45.02-97.27,2.51-15.76,8.33-29.21,20.81-39.48.98-.81,1.34-2.37,2.06-3.7-8.39-2.7-15.05-.34-21.78,3.22-8.62,4.56-17.22,9.58-26.43,12.55-23,7.44-46.34,13.81-69.52,20.68-8.45,2.5-15.74,7-21.87,13.37-41.67,43.27-83.35,86.53-125.03,129.78-54.58,56.64-109.16,113.27-163.73,169.91-40.28,41.81-80.55,83.62-120.79,125.47-7.37,7.66-14.57,15.49-20.87,22.19,21.44,22.19,42.42,43.9,63.56,65.79ZM323.2,816.37c-11.77-12.13-22.64-23.34-33.95-34.99-9.8,10.75-19.64,20.68-28.45,31.45-8.4,10.28-7.08,22.77,2.1,31.53,8.87,8.46,21.28,8.85,31.23.02,9.89-8.78,19.08-18.34,29.06-28.02Z"/>
  <path class="cls-1" d="M673.47,416.26c-21.46,22.75-42.57,45.14-64.3,68.18-4.81-4.09-9.66-7.86-14.06-12.09-2.63-2.53-2.16-5.93-.04-8.69,2.45-3.18,5.1-6.24,7.95-9.08,16.7-16.68,33.47-33.3,50.27-49.87,1.6-1.58,3.62-2.74,5.82-4.38,4.82,5.34,9.4,10.44,14.36,15.94Z"/>
  <path class="cls-1" d="M685.79,404.4c-5.15-5.34-9.9-10.28-14.54-15.09,9.32-9.34,18.94-18.98,28.91-28.97,6.11,5.77,12.45,11.74,19.15,18.06-11.41,8.85-22.39,17.36-33.52,26Z"/>
</svg>