<?xml version="1.0" encoding="UTF-8"?>
<svg id="Layer_1" xmlns="http://www.w3.org/2000/svg" viewBox="0 0 1080 1080">
  <defs>
    <style>
      .cls-1 {
        fill: #fef237;
      }
    </style>
  </defs>
  <path class="cls-1" d="M1042.02,539.97c.08,275.63-222.7,501.83-501.77,502.01-279.03.17-502.44-226.17-502.26-502.38.18-277.1,225.92-503.93,506.54-501.56,274.6,2.32,497.4,225.59,497.49,501.93ZM644.55,457.62c-.18-.59-.61-1.79-.9-3.03-5.28-22.12-10.51-44.25-15.83-66.37-6.57-27.29-13.12-54.58-19.86-81.83-4.17-16.86-18.24-27.16-34.92-25.96-16.77,1.21-29.26,13.27-30.96,30.54-2.33,23.77-11.24,44.75-25.63,63.64-23.2,30.44-52.9,52.87-86.95,69.54-18.2,8.91-37.12,16.38-55.85,24.19-3.75,1.56-4.44,3.21-3.49,6.99,4.73,18.85,9.19,37.76,13.71,56.66,9.91,41.44,19.84,82.87,29.65,124.34.79,3.36,1.8,4.68,5.68,4.2,13-1.63,26.03-3.14,39.09-4.01,38.96-2.6,77.08,1.64,113.98,14.93,29.49,10.62,53.8,27.82,70.35,55.06,1.95,3.2,5.02,6.02,8.17,8.14,11.12,7.47,26.63,6.85,37.84-1.08,11.61-8.21,16.56-21.44,13.16-35.76-11.63-48.87-23.28-97.74-35.07-146.58-.88-3.65-.43-5.5,3.13-7.41,10.66-5.71,20.24-12.86,25.86-24.04,11.92-23.68-4.15-55.38-31.07-60.8-6.38-1.28-13.09-.93-20.1-1.36ZM345.86,475.95c-1.54.2-2.68.25-3.76.51-27.15,6.54-54.36,12.87-81.43,19.72-31.02,7.86-54.35,25.72-66.89,55.55-11.99,28.52-12.39,57.68,2.64,85.13,19.07,34.83,49.6,51.73,89.31,51.91,8.78.04,10.55,1.19,13.72,9.46,11.04,28.76,22.06,57.52,33.13,86.27,6.67,17.33,13.11,34.76,20.21,51.91,10.36,25.04,38.89,33.49,59.6,17.65,14.48-11.08,17.84-26.25,13.75-43.36-24.39-102.07-48.86-204.11-73.31-306.16-2.27-9.48-4.62-18.94-6.98-28.6ZM708.96,394.36c.36.1.72.21,1.08.31-1.18,7.73,4.57,10.69,9.83,13.04,1.71.76,5.44-1.93,7.7-3.73,2.42-1.92,4.58-4.42,6.21-7.06,18.83-30.5,37.58-61.06,56.25-91.66,4.12-6.75,8.53-13.43,11.61-20.66,4.04-9.49-2.51-17.38-12.58-16.08-4.42.57-7.12,3.52-9.3,7.05-4.47,7.22-8.88,14.48-13.31,21.73-17.43,28.49-34.9,56.96-52.22,85.52-2.18,3.59-3.53,7.68-5.27,11.54ZM778.62,484.73c.6-.11,2.16-.33,3.69-.69,30.08-7.14,60.15-14.29,90.22-21.46,12.45-2.97,24.92-5.86,37.32-9.02,8.2-2.09,11.84-8.51,9.46-15.96-2.11-6.61-7.9-9.13-16.62-7.05-35.25,8.38-70.49,16.8-105.73,25.23-7.83,1.87-15.74,3.51-23.41,5.89-6.16,1.91-9.11,7.65-8,13.57,1.11,5.9,5.75,9.55,13.06,9.49ZM876.34,650.01c7.39.25,10.22-4.9,12.97-9.87.62-1.12.52-3.23-.14-4.34-3.08-5.18-7.67-8.73-12.83-11.87-35.55-21.62-70.96-43.44-106.5-65.08-7.49-4.56-13.21-2.84-17.86,4.74-3.53,5.75-1.89,11,5.13,15.51,6.17,3.97,12.49,7.72,18.75,11.55,30.21,18.48,60.39,37.01,90.67,55.38,2.98,1.81,6.53,2.68,9.81,3.98Z"/>
</svg>