<?xml version="1.0" encoding="UTF-8"?>
<svg id="Layer_1" xmlns="http://www.w3.org/2000/svg" viewBox="0 0 1080 1080">
  <defs>
    <style>
      .cls-1 {
        fill: #002e72;
      }
    </style>
  </defs>
  <path class="cls-1" d="M449.46,163.51c.17-.2.36-.39.51-.61q2.06-2.96,5.17-.21c-.96.24-1.69.42-2.53.62.94.83,1.82,1.61,2.92,2.58,1-1.8,1.75-3.74,3.02-5.25,1.25-1.5,3.02-2.56,4.55-3.81.8.32,1.5.6,1.87.74,3.16-3.76,6.13-7.36,9.18-10.89.76-.87,1.06-1.65.9-2.85-.48-3.85-1.21-7.72-.34-11.61.19-.86.38-1.74.75-2.53,1.14-2.41,3.37-3.45,5.94-2.71,1.26.36,2.45.99,3.65,1.55.94.44,1.85.95,3.22,1.66-.08-1.32-.11-2.24-.2-3.16-.23-2.44.23-4.77,1.09-7.02,1.42-3.71,4.2-5.12,8.04-4.07,1.19.33,2.37.73,3.51,1.21,1.13.48,2.19,1.09,3.49,1.75.34-.89.64-1.68.94-2.48,3.09-8.16,8.82-12.29,19.02-11.17,3.94.43,7.47,2.11,11.11,3.46.16.06.39.11.47.23,1.42,2.24,3.41,1.58,5.42,1.16,12.49-2.59,25.1-2.98,37.79-2.08,10.29.73,20.2,3.4,30.25,5.48,7.02,1.45,12.98,4.94,19.18,7.98,7.56,3.71,14.63,8.3,20.99,13.88,5.61,4.92,10.67,10.35,15.03,16.42,2.81,3.91,4.95,8.17,6.83,12.58.37.88.77,1.75,1.27,2.89,3.87-2.29,7.96-2.48,12.16-2.42,10.46.15,17.78,11.02,14.43,20.9-1.22,3.61-3.29,6.64-5.79,9.43-.41.46-.82.91-1.28,1.41.23.44.38.86.64,1.2,4,5.25,3.44,15.46-1.73,20.99-.91.97-1.72,2.09-2.8,2.82-1.73,1.16-2.59,2.91-3.26,4.66-.39,1.02.08,2.37.17,3.7h1.92c.83.29.37,2.56,2.43,1.99v-2.61c1.06.96.3,2.9,2.05,3.15-.2.66-.33,1.35-.62,1.98-.49,1.07-1.07,2.1-1.61,3.15.21.12.42.24.63.36,1.39-2.03,2.78-4.07,4.03-5.89.16,1.8.11,1.83-2.49,5.27-1.3,1.72-2.51,3.5-3.49,5.44,3.77-3.09,6.41-7,8.58-11.53.28,1.41-.16,2.51-.73,3.54-1.54,2.77-3.44,5.3-5.62,7.58-2.91,3.03-5.33,6.29-6.86,10.28-1.33,3.46-3.11,6.74-4.68,10.11-.36.78-.67,1.59-1.06,2.55,1.47.07,2.68.12,4,.18v-1.25c.69-.19,1.45-.17,1.82-.54,2.53-2.52,4.97-5.12,7.78-7.41-1.16,1.34-2.4,2.62-3.44,4.05-.93,1.28-3.06,1.94-2.4,4.57,2.85-2.74,5.48-5.26,8.1-7.79-2.3,3.82-6.14,6.31-8.2,10.28,2.54-.68,3.12-3.31,4.93-4.69,1.81-1.39,3.65-2.72,5.74-3.86-.9.93-1.8,1.86-2.77,2.86,1.38,1.21,1.99-.13,2.77-.56.84-.47,1.63-1.01,2.67-1.67.21.64.35,1.07.62,1.89.68-.68,1.24-1.22,1.82-1.79.07.5.16,1.08.26,1.75,1.98.16,1.46-1.67,2.25-2.61.13.73.23,1.36.34,1.99,1.96.3,1.92-1.19,2.27-2.33.15.63.29,1.21.5,2.08,2.33-.46,4.56-.9,6.79-1.34,1.47-.29,2.94-.61,4.43-.84,2.96-.46,5.93-.86,8.9-1.28,2-.28,2.13-.17,3.25,1.65.29.47.85.85,1.37,1.07,2.41.99,4.88,1.37,7.52.97,7.11-1.09,14.11-.91,20.78,2.27.95.45,2,.72,3.03.94,3.01.64,5.35,2.27,7.13,4.73,2.8,3.87,4.47,8.21,5.21,12.91.37,2.35.67,4.7,1.06,7.43,6.93-1.87,13.76-3.05,20.89-1.88,1.7-2.78,2.92-5.68,3.53-8.83.13-.69.16-1.49.53-2.02.35-.5,1.18-1.08,1.65-.97.63.14,1.24.84,1.62,1.45.23.37.09,1.05-.02,1.55-.63,2.75-1.28,5.5-1.98,8.23-.22.84-.62,1.63-.95,2.47.83.93,1.66,1.74,2.34,2.65.74.99,1.42,2.03,1.97,3.13.17.34-.15.94-.25,1.42-.54-.14-1.31-.1-1.57-.44-1.1-1.47-1.89-3.21-3.75-4.19-1.46,1.88-2.9,3.74-4.47,5.77,1.54.77,2.97,1.43,4.33,2.18,6,3.3,9.15,9.5,8.16,16.23-.31,2.09-.77,4.19-1.47,6.18-.56,1.6-.19,2.74.88,3.84.43.44.92.83,1.37,1.25,5.67,5.2,10.38,11.2,13.79,18.07,4.38,8.85,6.63,18.27,6.38,28.21-.02.9-.03,1.7-.95,2.3-.4.26-.6,1.04-.66,1.61-.93,8.9-3.81,17.23-7.22,25.45-1.73,4.16-2.93,8.53-4.37,12.8-.2.59-.43,1.16-.65,1.74-.44,1.16-1.18,1.5-2.38.61-7.45,12.81-16.58,24.26-25.35,35.96,1.48-1.15,2.95-2.31,4.45-3.43.08-.06.43.22.8.43-.23.48-.34,1.02-.66,1.35-2.22,2.28-4.42,4.6-6.77,6.74-1.33,1.21-2.68,2.59-4.82,2.36-.41-.04-.92.46-1.31.8-8.61,7.59-18.1,13.89-28.3,19.13-.39.2-.75.46-1.4.85.89.49,1.62.85,2.31,1.29,2.06,1.31,2.49,2.95,1.03,4.91-.82,1.11-2,1.97-3.07,2.87-.57.48-1.25.82-2.12,1.38,2.04.37,3.79.51,5.42,1.03,2.94.94,3.33,2.64,1.25,4.92-.81.89-1.74,1.65-2.88,2.72,2.36-.32,4.32-.58,6.2-.83.53,1.51-.26,1.8-1.06,1.98-1.21.27-2.44.44-3.65.69-3.2.65-5.96,2.2-8.5,4.18-.34.27-.65.6-.93.93-.09.11-.05.32-.08.61.32.04.65.16.96.12,3.97-.45,7.88-1.2,11.49-3,1.15-.57,2.08-1.55,3.18-2.23.45-.28,1.07-.28,1.62-.4.13.63.56,1.44.32,1.85-.42.71-1.2,1.27-1.93,1.74-4.42,2.85-9.37,4.08-14.51,4.69-.95.11-1.91.17-2.88.25-.46,1.55.43,2.08,1.46,2.46,2.16.79,4.32.69,6.52.09.74-.2,1.88-1.07,2.24.25.33,1.19-1.03,1.37-1.78,1.48-1.9.28-3.87.59-5.76.4-3.51-.35-4.34-1.23-5.34-4.69-.99-.34-2.12-.6-3.13-1.1-1.5-.74-3.21-1.37-4.29-2.55-1.49-1.63-3.14-1.85-5.13-2.04-2.89-.27-5.81-.75-8.56-1.63-2.92-.93-5.38-2.71-6.31-6.1-3.98-1.1-7.82-2.81-12.3-1.97-2.2.41-4.76.23-6.68-1.7,2.94.7,5.86,1.64,9.08.45-.73-1.18-1.7-.95-2.6-1.04-1.83-.18-3.67-.41-5.48-.72-.52-.09-.98-.56-1.4-1.06,2.13.28,4.1,1.39,6.39,1-1.4-1.67-4.34-2.22-8.72-1.73.17,1.72.5,3.45.46,5.17-.1,3.83-1.51,5.03-5.32,4.81-.95-.06-1.89-.18-2.84-.28.05.17.07.43.13.44,4.18.68,7.26,3.38,10.49,5.77,5.19,3.84,10.38,7.67,15.52,11.56,1.1.83,1.97,1.96,3.05,2.83,8.28,6.65,16.63,13.21,24.88,19.9,5.22,4.24,10.34,8.61,15.44,12.99,1.47,1.26,2.68,2.81,4.05,4.18.61.61,1.27,1.28,2.04,1.61,3.31,1.38,6.21,3.41,9.01,5.56,4.59,3.53,9.87,5.52,15.35,7.04,2.42.67,4.65,1.58,6.78,2.91,4.96,3.08,10.09,5.9,14.95,9.13,2.77,1.84,5.27,4.16,7.64,6.51,1.8,1.79,1.6,2.89.02,4.87-1.68,2.1-4.04,3.24-6.45,3.98-5.56,1.7-11.19,2.47-16.88.2-6.16-2.46-12.38-4.77-18.6-7.06-2.73-1.01-5.53-1.81-8.3-2.72-.92-.3-2.06-.4-2.71-1.01-1.36-1.27-2.42-.66-3.8-.1-2.19.89-4.01,2.21-5.75,3.74-1.46,1.28-2.94,2.55-4.49,3.74-3.45,2.65-7.44,3.13-11.59,2.53-1.04-.15-2-.86-3.51-1.54,1.46-1.18,2.43-2.04,3.47-2.78,3.76-2.66,7.58-5.23,11.3-7.92,4.7-3.4,5.94-8.2,4.96-13.63-.25-1.37-1.19-2.76-2.16-3.83-2.61-2.89-6.24-4.3-9.63-5.99-8-3.98-16.11-7.74-24.06-11.81-4.62-2.37-8.98-5.25-13.53-7.77-6.35-3.51-12.76-6.9-19.15-10.34-.76-.41-1.54-.77-2.6-1.3-.09.96-.22,1.62-.21,2.27.17,10.98.35,21.96.52,32.94.01.71-.09,1.42-.03,2.12.33,3.42-.78,4.51-4.96,6.06-.66.24-1.38.32-2.04.57-2.1.8-4.11,2.05-6.57.79-.07.16-.14.31-.21.47.57,1.25.99,2.58,1.73,3.72,1.92,2.97,3.85,5.95,6.01,8.75,5.57,7.21,11.34,14.27,16.91,21.49,8.05,10.44,16.24,20.78,23.91,31.49,7.11,9.93,13.62,20.28,20.41,30.44,1.87,2.8,3.72,5.61,5.73,8.3,1.05,1.41.76,2.6-.11,3.79-.62.84-1.4,1.57-2.16,2.3-9.72,9.28-21.25,15.83-33.08,21.93-.24.12-.47.26-.72.35-2.66.87-3.02.91-2.51,4.28,1.87,12.52,3.6,25.06,5.82,37.51,1.33,7.48,3.45,14.81,5.23,22.21.12.52.31,1.02.48,1.52,1.13,3.45,2.9,6.32,6.18,8.28,3.09,1.85,5.91,4.15,9.08,6.41.24-.36.64-.79.81-1.29.19-.57.1-1.24.27-1.83.35-1.24,1.11-1.62,2.16-.96,2.53,1.61,5.02,3.3,7.48,5.01.87.6,1.68,1.31,2.41,2.07.6.62,1.45,1.37,1.49,2.11.11,2.09,1.48,3.32,2.6,4.78,1.35,1.75,2.63,3.56,3.92,5.35,1.21,1.68,2.06,3.44,2.04,5.62,0,.99.53,2.03.98,2.98,2.5,5.29,4.69,10.7,6,16.42.83,3.65,1.06,7.34.35,11.06-.75,3.96-2.78,6.21-6.39,6.84-.83.14-1.7.02-2.8.02.27,2.61.72,5.14.74,7.66.03,4.08,2.03,7.19,4.38,10.22,4.32,5.55,3.74,3.99,3.53,10.55-.07,2.08.88,3.46,1.89,5.03,2.16,3.34,4.04,6.85,6.25,10.15,2.12,3.16,4.59,6.05,7.71,8.31.56.41,1.13.85,1.77,1.08,1.98.69,2.16.72,1.95,2.69-.26,2.54-.68,5.07-1.17,7.59-.65,3.39-1.33,6.77-2.19,10.11-.4,1.57-.06,2.8.94,3.91,1.79,1.96,3.48,4.05,5.49,5.77,3.08,2.65,3.59,5.72,2.19,9.31-1.34,3.46-2.75,6.9-4.13,10.35q1.62,2.27.87,7.55c1.54.4,3.08.06,4.61-.06,3.42-.28,4.65,1.13,3.59,4.45-.78,2.43-1.81,4.8-2.86,7.13-2.15,4.74-2.63,9.68-2.02,14.79.22,1.86,1.24,3.1,3,3.68,2.77.91,5.57,1.73,8.33,2.64,2.93.97,5.88,1.92,8.75,3.05,2.99,1.18,4.45,3.55,4,6.73-.43,3.05-1.06,6.1-1.93,9.06-.55,1.85-.52,3.34.97,4.53,2.13,1.69,4.42,3.19,6.55,4.89,3.72,2.97,5.99,5.3,4.51,10.12-1.38,4.51-3.51,8.32-8.34,9.89-.06,1,.09,2.02-.24,2.84-.35.86-1.07,1.63-1.78,2.27-3.56,3.19-7.16,6.33-10.75,9.48-6.18,5.44-12.42,10.77-19.07,15.66-6.02,4.43-12.46,7.8-19.8,9.14-2.83.52-5.8.3-8.71.25-3-.05-6-.34-9.01-.45-5.95-.22-11.71-1.65-17.48-2.91-3.34-.73-6.68-1.57-9.88-2.74-2.19-.8-4.32-2.04-6.13-3.51-.95-.77-1.46-2.41-1.66-3.73-.61-4.06-.31-8.13.66-12.12.24-.98.95-1.87,1.57-2.72,1.2-1.63,1.94-3.27,1.5-5.4-.73-3.51.16-6.89,1.56-10.06.61-1.39,1.69-2.78,2.91-3.66,1.92-1.37,4.13-2.36,6.26-3.42,1.34-.66,2.77-1.13,4.01-1.63.13-.27.2-.35.2-.43.15-4.97,2.61-8.87,5.67-12.54,4.88-5.86,9.2-12.11,13.04-18.75-.87-1.79-2.85-1.6-4.34-2.45-.7-3.24,2.87-4.17,3.67-6.8-.6-.37-1.27-.77-1.92-1.18-3.17-2-3.52-4.39-1.12-7.26,1.41-1.7,2.85-3.39,4.07-5.22,1.63-2.44,1.92-5.03.53-7.79-1.32-2.6-2.5-5.28-3.63-7.97-.51-1.22-1.23-2.17-2.44-2.6-3.75-1.34-4.06-4.49-2.36-8.39.25-.57.56-1.11.81-1.67.1-.23.14-.5.25-.95-1.5-1.25-3.07-2.5-4.58-3.83-1.59-1.4-3.09-2.91-4.68-4.32-1.74-1.53-1.97-3.31-1.46-5.51.62-2.66.91-5.4,1.3-8.11.07-.5-.06-1.04-.1-1.5-.24-.15-.39-.31-.55-.32-3.18-.23-4.26-2.14-4.57-5.1-.35-3.42-.94-6.84-1.74-10.18-.98-4.07-3.07-7.66-5.41-11.08-.44.14-.72.17-.92.31-1.89,1.25-3.94,2.45-6.18,1.56-2.73-1.08-5.32-2.74-6.34-5.68-1.3-3.75-2.3-7.6-3.31-11.44-.32-1.21-.51-2.23-1.78-3.01-1.94-1.18-3.23-4.9-2.73-7.25.72-3.37,1.47-6.74,2.41-10.05.32-1.12.28-2.01-.08-3.05-1.13-3.26-2.17-6.55-3.31-9.81-.83-2.36-1.1-4.6.83-6.6.69-.72.67-1.53.27-2.44-3.26-7.36-6.38-14.75-11.49-21.15-3.19-4-6.03-8.34-8.51-12.81-1.91-3.45-3.23-7.27-4.43-11.05-3.46-10.88-6.43-21.92-10.15-32.7-4.62-13.38-9.8-26.57-14.74-39.84-.19-.5-.39-.99-.62-1.47-.59-1.23-1.47-1.85-2.95-1.65-2.62.36-5.26.7-7.9.84-1.56.08-3.17-.11-4.7-.45-1.34-.29-1.91-1.47-2.14-2.78-.46-2.61-.84-5.23-1.38-7.82-.7-3.38-1.55-6.72-2.27-10.1-.27-1.26-.97-1.76-2.2-1.83-3.97-.24-7.94-.48-11.9-.79-4.13-.33-8.25-.75-12.38-1.11-.52-.05-1.04,0-1.83,0-.28.87-.59,1.76-.86,2.67-1.15,3.9-2.26,7.81-3.45,11.69-.85,2.78-1.92,3.45-4.74,2.55-3.7-1.18-7.34-2.58-10.97-3.98-5.52-2.13-11.01-4.35-16.65-6.58-.41.46-.86.86-1.2,1.34-10.54,15.1-21.11,30.18-31.57,45.34-5.93,8.6-11.61,17.38-17.49,26.01-3.33,4.89-6.91,9.61-10.26,14.5-3.7,5.4-7.13,10.99-10.91,16.34-3.87,5.49-7.96,10.83-12.04,16.17-3.23,4.22-6.6,8.32-9.87,12.5-.57.72-1.47,1.38-1,2.54-1.12-.46-1.06.41-1.21,1.06.21-.02.43-.03.64-.05-2.92.64-3.75,3.96-2.81,6.01.78,1.69,1.6,3.35,2.4,5.03,1.54,3.24,1.26,5.39-1.29,7.91-1.5,1.49-3.18,2.82-4.85,4.11-1.09.85-1.79,1.51-.84,3.02.83,1.33.24,2.08-1.4,2.14-.7.03-1.43.02-2.12-.13-2.11-.46-3.24.63-4.18,2.34-1.13,2.06-1.35,4.16-.88,6.42.45,2.15.42,4.28-1.11,6.03-.6.69-1.4,1.29-2.23,1.66-1.69.76-3.49,1.26-5.18,2.02-2.68,1.2-2.89,1.85-1.83,4.51.56,1.39,1.21,2.76,1.64,4.2.86,2.88.22,4.8-2.42,6.32-2.13,1.23-4.42,2.24-6.75,3.02-2.01.68-3.69,1.62-4.96,3.31-.9,1.2-1.92,2.31-2.83,3.51-1.43,1.88-1.79,4-1.22,6.29.09.34.19.68.25,1.03.71,3.75-.24,5.82-3.6,7.72-1.28.73-2.61,1.35-4.3,2.22,1.32,1.13,2.4,1.99,3.41,2.93,1.11,1.01,2.28,1.99,3.2,3.16,1.54,1.95,1.26,3.6-.91,4.87-1.59.93-3.32,1.86-5.1,2.17-4.45.79-6.95,3.49-8.89,7.36-2.41,4.82-5.28,9.4-7.87,14.14-1.76,3.24-2.28,6.7-1.11,10.26,1.9,5.76.33,10.44-5.56,13.85-.3.17-.58.39-1.02.7.29.54.51,1.09.86,1.55,2.7,3.51,5.45,6.97,8.12,10.5,1.17,1.55,2.22,3.2,3.27,4.83,1.05,1.63,1.19,3.39.09,5-1.64,2.4-3.41,4.71-5.17,7.03-.63.83-1.39,1.57-2.24,2.54.69.51,1.19.97,1.77,1.28,4.2,2.27,8.47,4.42,12.61,6.79,2.6,1.49,4.95,3.4,7.53,4.93,4.29,2.53,5.06,6.77,5.32,11.08.17,2.93.54,5.58,2.66,7.79,1.01,1.06,1.44,2.45,1.31,3.93-.27,3.16-.58,6.32-.91,9.48-.21,2.02-.59,4.03-.68,6.05-.06,1.36-.53,2.16-1.63,3.02-5.72,4.51-12.47,6.57-19.35,8.28-3.42.85-6.91,1.42-10.38,2.02-1.02.17-2.1.01-3.15-.02-1.06-.04-2.16-.32-3.16-.12-2.35.47-4.52-.08-6.79-.52-3.2-.61-6.49-.75-9.72-1.24-7.8-1.19-15.4-3.17-22.6-6.45-3.18-1.45-6.26-3.11-8.78-5.64-.97-.97-1.6-1.96-1.67-3.44-.17-3.71-.61-7.41-.82-11.11-.09-1.49-.54-2.66-1.52-3.81-3.8-4.47-8.06-8.45-12.53-12.22-.87-.73-1.87-1.31-2.81-1.96-.06-.17-.19-.35-.17-.5.67-3.92-.33-7.15-3.17-10.12-1.71-1.79-2.73-4.3-3.83-6.6-1-2.1-.77-4.33.2-6.43.63-1.36,1.28-2.73,2.04-4.02,3.35-5.67,5.39-11.89,7.81-18.11-.84-.9-1.66-1.81-2.52-2.68-3.08-3.12-3-6.83-.41-9.74,1.82-2.04,3.74-4.01,5.72-5.89,3.66-3.47,7.19-7.04,9.93-11.3.35-.48.71-.97,1.07-1.46,1.04-2.28,2.61-4.13,4.55-5.72,2.14-1.75,2.41-2.5.83-4.68-2.09-2.89-1.98-5.83-1.22-9.04.26-1.08.72-1.7,1.61-2.2,2.12-1.2,4.4-1.81,6.8-2.07,1.41-.15,2.83-.23,4.23-.44,1.63-.24,1.96-.75,1.55-2.32-.26-1.03-.66-2.02-1-3.02-.81-2.38-.53-3.23,1.56-4.71.72-.51,1.49-.97,2.14-1.55.72-.64,1.34-1.39,2-2.08-.51-1.86-1.09-3.62-1.46-5.43-.56-2.7.32-3.87,2.97-4.69,2.01-.62,4.06-1.26,5.89-2.26,1.26-.69,2.27-1.93,3.24-3.06,1.25-1.45,1.29-3.02.71-4.93-.96-3.2-1.71-6.5-2.11-9.82-.54-4.49,1.06-8.17,5.15-10.53.98-.57,1.87-1.3,2.68-1.86.04-.4.13-.62.06-.74-1.3-2.19-.89-3.89,1.13-5.51,1.32-1.05,2.71-2.2,3.52-4.17-.8-.07-1.38-.24-1.91-.16-8.07,1.29-16.2,1.52-24.35,1.34-.7-.02-1.4-.18-2.11-.23-1.29-.09-2.12-.65-2.51-1.95-.9-3.05-1.83-6.09-2.82-9.11-.48-1.46-.02-2.27,1.32-2.96,5.58-2.88,11.05-5.96,16.68-8.73,8.33-4.11,16.76-8.01,25.14-12.01.39-.18.73-.45,1.22-.75-.77-2.78-1.54-5.49-2.27-8.2-.59-2.2-.41-2.77,1.58-3.82,2.11-1.11,4.31-2.05,6.48-3.04,3.05-1.4,6.1-2.82,9.19-4.14,1.32-.57,1.98-1.37,1.79-2.84-.29-2.3.6-4.17,2.3-5.65,2.19-1.91,4.32-3.93,6.71-5.57.91-.62,2.47-.29,4.08-.41,1.24-2.68,2.69-5.6,3.95-8.61,1.08-2.6,2.57-4.75,4.94-6.36,4.74-3.22,9.28-6.69,14.6-9.03,5.92-2.61,11.41-6.03,16.56-9.99,2.81-2.16,4.74-4.8,6.02-8.19,7.65-20.2,15.81-40.2,25.06-59.73.53-1.11,1.02-2.25,1.51-3.33-4.79-3.54-9.67-6.74-14.07-10.49-4.43-3.77-8.39-8.09-12.57-12.18-8.43,1.72-16.96,3.54-25.52,5.21-15.29,2.99-30.67,5.41-46.19,6.81-4.58.42-9.17.68-13.75.98-3.65.24-6.35-1.16-8.5-4.26-3.99-5.77-7.49-11.81-10.75-17.99-1.12-2.11-2.08-4.3-3.2-6.41-.84-1.59-.88-3.13-.36-4.83,3.37-11.1,7.05-22.09,11.64-32.76,5.22-12.13,10.71-24.15,17.45-35.49,4.33-7.27,8.51-14.69,13.75-21.42,3.2-4.11,6.02-8.53,8.86-12.91,3.38-5.22,7.17-10.1,11.26-14.78,1.97-2.25,3.73-4.7,5.67-7.16,9.31,1.06,18.54,2.95,27.54,5.94,8.05,2.68,16.1,5.34,24.16,8,.33.11.69.12,1.04.17.86.58,1.67,1.3,2.84.88.39.37.73.87,1.19,1.1,5.13,2.58,10.25,5.18,15.44,7.64,10.15,4.83,19.97,10.23,29.25,16.58.71.49,1.49.9,2.38,1.43,6.97-8.3,13.99-16.41,18.95-26.2-1.79-.32-3.44-.15-4.68.81-3.07,2.38-6.52,3.73-10.24,4.54-.09.02-.16.07-.25.09-3.33.86-6.62,1.94-10,2.52-3.11.54-6.31.6-9.48.75-1.8.09-3.33-.63-4.59-2.1.99-1.23,1.97-1.13,3.14-.62.77.33,1.66.57,2.49.53,2.64-.11,5.27-.35,7.9-.57,1.35-.11,2.74-.2,3.8-1.38-1.59-.26-3.15-.21-4.71-.27-4.66-.19-9.33-.31-13.98-.68-8.98-.71-17.93-1.71-26.65-4.12-.95-.29-1.9-.58-2.85-.87-.82-.55-1.59-1.2-2.47-1.62-3.58-1.71-7.33-3.11-10.76-5.07-2.97-1.7-5.64-3.95-8.35-6.08-1-.79-1.72-1.93-2.38-3.13,6.77,6.89,15.02,11.2,23.97,14.35,4.79,3.25,24.06,5.61,27.75,5.07-.59-.98-1.52-.79-2.3-.91-5.25-.75-10.51-1.46-15.75-2.27-1.65-.26-3.34-.61-4.88-1.24-6.14-2.49-12.52-4.49-18.05-8.28-2.62-1.79-5.04-3.89-7.47-5.94-.78-.66-1.31-1.62-1.67-2.79.22.14.51.23.67.42,3.85,4.68,8.74,8.04,14.13,10.56,4.71,2.21,9.54,4.46,14.57,5.63,6.95,1.62,14.12,2.3,21.21,3.24,2.52.34,5.1.29,7.71.04-3.19-.5-6.37-1.04-9.57-1.5-5.51-.8-11.06-1.41-16.54-2.4-2.76-.5-5.49-1.43-8.08-2.52-4.89-2.05-9.92-3.82-14.29-6.94-3.76-2.69-7.43-5.46-9.44-9.84-.32-.7-.91-1.32-1.51-1.81-.29-.24-.9-.08-1.11-.09-.6-.88-1.16-1.72-1.74-2.55-.04-.06-.2-.05-.23-.11-1.68-2.86-4.22-2.46-6.92-2-2.41.41-4.88.5-7.75.76.69.6,1.05,1.05,1.52,1.32,2.47,1.43,5.11,2.42,7.96,2.78.67.08,1.48,0,1.57,1.27-.52.1-1.07.35-1.59.3-4.34-.4-8.27-1.91-11.61-4.73-.93-.79-1.85-1.21-3.05-1.33-4.38-.42-8.46-1.76-12.2-4.14-2.14-1.36-3.86-3.1-5.13-5.28-1.81-3.12-1.88-6.2.16-9.25.39-.58.74-1.17,1.19-1.89-.92-.8-1.85-1.47-2.6-2.3-1.31-1.44-2.65-2.87-3.71-4.49-1.69-2.59-1.82-5.44-.09-8.02,1.46-2.17,3.31-4.08,5.21-6.36-.3-.73-.82-1.83-1.2-2.99-.41-1.26-.78-2.54-.98-3.85-.19-1.21-.35-2.49-.16-3.68.21-1.25,0-2.56.83-3.78.56-.84.21-2.27,2.28-2.29-1.2-1.14-1.87-1.77-2.54-2.4,1.09.44,2.17,1.54,3.38.15-.2-.25-.28-.42-.41-.51-3.04-2.04-3.15-2.38-2.28-5.85.32-1.29.47-2.62.7-3.93-.19-.03-.38-.07-.57-.1-1.17,2.83-2.66,5.58-1.66,8.89-1.29-.82-1.23-2.08-.97-3.31.31-1.47.8-2.89,1.2-4.34.15-.56.26-1.12.42-1.83-2.02.88-3.32,4.75-3.48,9.74-.9-1.78-.94-1.95-.13-5.1.43-1.68,1.01-3.32,1.56-5.12-2.2.95-3.7,5.94-3.57,11.24-1.38-2.14-1.3-2.7,1.41-11.3-1.49-1.62-2.79-3.03-4.19-4.55-.8-.05-1.87-.12-2.94-.18,0-.17,0-.34,0-.51h2.4c.55-1.01.38-1.57-.74-1.67-.9-.09-1.8-.16-3.19-.28,1.52-1.28,3.84.99,4.15-1.88-1.65-.2-3.22-.38-4.79-.57,1.7-.91,3.92.73,5.32-1.82-.69-.05-1.18-.07-1.67-.11-1.31-.11-2.65-.06-3.91-.37-1.97-.49-2.34-1.22-2.24-3.29.04-.8-.03-1.6-.28-2.4-1.21,1.71-1.46,3.56-1.07,6.09-1.6-2.79-.47-4.93.09-7.03.57-2.12,1.35-4.18,2.16-6.64-1.22.41-1.77,1.08-2.08,1.98-1.24,3.68-2.65,7.33-2.99,11.25-.96-3.84,1.13-7.25,1.48-11.12-.36.36-.92.66-1.06,1.09-1.13,3.62-2.51,7.2-2.35,11.18-1.07-1.55-1.1-1.89-.22-5.63.45-1.88,1.01-3.73,1.52-5.61q-3.23-.43-8.53,2.32c.65.65,1.27,1.23,1.83,1.85,1.68,1.82,1.78,3.48.32,5.49-1.36,1.88-3.27,2.94-5.5,3.45-9.54,2.17-18.62.95-27.22-3.73-.92-.5-1.81-1.05-2.75-1.6-1.68,1.37-2.82,3.03-3.69,4.89-.92,1.96-.78,3.93-.02,5.92,1.96,5.19,5.59,8.68,10.74,10.82.66-.62,1.3-1.23,1.94-1.82,5.47-5,11.97-6.21,19.02-4.89,1.69.32,3.33,1.2,4.84,2.08,2.44,1.42,2.8,3.52,1.08,5.81-1.72,2.29-4.07,3.64-6.86,4.19-6.37,1.25-12.66,1.24-18.77-1.33-.24-.1-.49-.2-.75-.26-.17-.04-.35,0-.55,0-1.88,1.32-.04,3.01-.28,4.64-1.58-.19-2.01-1.25-2.06-2.39-.05-1.03.24-2.08.43-3.48-.62-.39-1.41-.91-2.21-1.39-4.02-2.4-6.86-5.8-8.62-10.13-1.64-4.02-1.24-7.79,1.45-11.25.75-.96,1.54-1.9,2.37-2.91-1.1-1.26-2.21-2.4-3.17-3.65-3.39-4.43-3.52-7.97-.68-12.73.42-.7.51-1.59.75-2.39.3-.08.59-.15,1.32-.34-6.43-4.87-10.52-11.24-14.92-17.4.43,1.04.85,2.08,1.28,3.12-.66-1.01-1.47-1.94-1.94-3.03-2.91-6.74-4.33-13.81-4.65-21.12-.12-2.74-.14-5.49-.2-8.23-.03-1.37-.26-2.58-1.62-3.4-.48-.29-.74-1.11-.92-1.75-.92-3.31-.67-6.69-.36-10.03.28-2.98.8-5.96,1.45-8.88.47-2.13,1.32-4.18,2.02-6.26.56-1.66,1.23-3.29,1.71-4.97.63-2.19,1.02-4.45,1.74-6.6.31-.93,1.35-1.6,1.79-2.52.93-1.91,1.73-3.88,2.48-5.86.27-.72.33-1.54.35-2.32.07-2.56.02-5.12.14-7.67.02-.51.44-1.1.84-1.49,3.88-3.75,7.83-7.43,11.67-11.22,1.5-1.48,2.77-3.19,3.93-4.54-.42-2.92-1.64-5.23-.63-8.08.86-2.43.72-5.2,1.14-7.81.2-1.26-.19-3.03,2.06-3.04.31,0,.67-.71.93-1.14,3.79-6.18,7.76-12.07,13.54-16.78,5.46-4.44,11.74-7.15,17.84-10.29.39-.2.82-.32,1.25-.42,3.88-.87,7.74-1.84,11.65-2.54,2.06-.37,4.22-.34,6.33-.31,4.76.08,9.56-.12,14.15,1.65,5.14,1.98,10.17,4.11,14.04,8.23,1.15,1.23,2.39,1.93,4.19,1.78,1.76-.15,3.27.65,4.39,2.07.72.9,1.42,1.06,2.48.38,1.01-.65,2.23-1,3.36-1.48-.25-1.97.69-4.1,3.82-4.32-1.48-1.88-2.73-3.62-4.15-5.22-1.88-2.14-3.84-4.18-3.87-7.31,0-.55-.49-1.1-.8-1.63-4.37-7.51-7.26-15.5-7.82-24.25-.26-3.97-.92-7.93-.93-11.9-.02-6.15.16-12.33,1.84-18.33.43-1.52,1.09-2.98,1.64-4.46.39-1.05,1.17-1.22,2.51-.82-.17.78-.27,1.59-.53,2.36-.42,1.26-1.01,2.46-1.38,3.73-.09.3.39.78.7,1.34-1.63,1.59-1.65,3.98-1.74,6.4-.15,3.97-.77,7.96-.58,11.91.5,9.83,1.57,19.59,6.04,28.6.55,1.11,1.06,2.24,1.74,3.27,1.03,1.56,2.01,3.06,2.08,5.05.04,1.17.54,2.23,2.14,2.11.29-.02.85.65.93,1.07.34,1.89.29,1.9,1.86,3.21.21-1.51-.49-2.6-.95-3.75-1.21-3.03-2.68-5.99-3.58-9.11-1.72-5.94-3.46-11.9-4.56-17.97-1.59-8.83-1.78-17.75-.26-26.67.64-3.76,1.21-7.5,3.02-10.93.55-1.05,1.18-1.77,2.83-1.01-1.23,3.92-3.04,7.72-3.43,11.96-.38,4.2-1.15,8.37-.59,12.73.2-.5.47-.98.6-1.5.4-1.54.67-3.11,1.13-4.63.38-1.23.97-2.39,1.52-3.72-.3-.35-.78-.92-1.48-1.75,1.1-.4,1.8-.66,2.56-.93.97-3.46,1.95-6.93,2.93-10.41,0,0-.09.19-.09.19ZM455.48,510.15c-.63-.39-1.25-.77-2.22-1.37.48,1.65,1.33,1.61,2.27,1.36-.02.69-.39,1.58,1.13,1.66-.46-.67-.8-1.16-1.18-1.64ZM670.13,236.1c3.27-.18,4.84-2.84,6.87-4.8.11-.11-.1-.56-.21-1.07-2.65,1.73-4.88,3.54-6.58,5.94-1.75,1.12-3.1,2.52-3.41,4.7,1.19-.82,2.23-1.78,3.06-2.89.33-.45.2-1.24.27-1.87ZM669.11,269.78c-1.46,1.48-2.8,3.01-2.8,5.95.78-.83,1.36-1.2,1.55-1.72.51-1.37.84-2.81,1.24-4.23,2.17-2.46,3-5.57,4.19-8.55-.48-.02-.9.04-1.02.26-1.32,2.56-2.59,5.13-3.84,7.72-.03.06.44.37.67.56ZM460.52,164.4c-.75,1.58-1.49,3.17-2.26,4.74-1.49,3.05-3.24,6.01-3.28,9.61.95-1.25,1.77-2.57,2.34-3.99.81-2.03,1.25-4.22,2.19-6.17,1.05-2.2,2.5-4.21,3.75-6.31.33-.55.57-1.16.85-1.74-.11-.08-.21-.16-.32-.24-.31.24-.61.47-.92.71-.17-.28-.33-.56-.5-.84-.78.77-1.7,1.46-2.27,2.36-.24.39.26,1.24.42,1.88ZM501.85,123.53c.22-.15.46-.27.65-.44,1.65-1.46,1.73-2.18-.09-3.19-1.98-1.1-4.11-2.03-6.28-2.67-1.87-.55-3.77-.1-4.87,1.76-2.34,3.97-2.23,8.14-.97,12.78.87-.47,1.46-.75,2.01-1.1.73-.47,1.42-1,2.13-1.51,3.2-1.17,5.95-3.1,8.61-5.19.04-.03,0-.15,0-.44h-1.2ZM451.49,540.05c-2.21,1.76-4.4,3.27-6.32,5.08-8.15,7.67-15.43,16.13-21.45,25.57-4.27,6.7-8.14,13.66-12.25,20.48-5.49,9.12-10.19,18.64-14.32,28.44-3.34,7.92-6.24,16-7.69,24.52-.28,1.61-.28,3.27-.42,5.03.94-.05,1.56-.02,2.16-.13,6.51-1.26,13.04-2.44,19.52-3.85,27.76-6.08,54.94-14.2,81.81-23.4,1.39-.48,2.76-1.22,3.92-2.13,7.4-5.77,14.74-11.62,22.11-17.43.41-.32.92-.52,1.74-.97-4.9-2.74-9.23-5.01-12.06-9.39,1.3-2.01,2.58-4,3.9-6.05-18.09-17.98-38.17-33.04-60.65-45.76ZM689.52,193.9c2.87-2.64,5.02-5.36,6.1-8.68.66-2.04,1.09-4.36.85-6.46-.65-5.73-4.76-9.78-10.45-10.75-4.36-.74-8.59-.52-12.3,1.91,1.23,6.24,2.41,12.26,3.64,18.46,4.62.33,8.62,2.22,12.17,5.52ZM430.79,240.13c-.51-.59-.71-.88-.96-1.12-5.27-5.11-11.67-7.97-18.87-8.78-5.43-.61-10.93-.86-16.33.6-2.13.58-4.26,1.17-6.43,1.56-2.48.44-4.72,1.44-6.92,2.59-1.88.98-3.8,1.89-5.63,2.98-2.04,1.21-4.05,2.49-5.96,3.91-1.7,1.26-3.29,2.69-4.84,4.14-1.29,1.2-2.59,2.42-3.64,3.82-1.85,2.47-3.54,5.07-5.25,7.64-.8,1.2-1.37,2.51-1.32,4.05,3.08-3.79,6.8-6.76,10.7-9.53.43-.3.77-.73,1.16-1.08,1.83-1.65,3.58-3.43,5.53-4.93,3.01-2.31,6.01-4.63,9.65-6.01,4.8-1.82,9.45-3.97,13.67-6.96.86-.61,1.84-1.07,2.82-1.48,4.83-2.02,8.37-1.27,12.04,2.45.42.43.88,1.03,1.4,1.13,1.72.34,3.53.84,5.22.63,5.06-.61,9.23.25,11.2,5.78.99-.49,1.76-.87,2.76-1.37ZM417.42,490.28c-3.98,4.17-2.56,6.65-.53,9.33.42.56.92,1.1,1.48,1.52,4.07,3.03,8.62,4.71,13.8,4.85,2.07-3.73,6.11-4.21,9.61-5.71-1.56-1.95-3.03-3.71-4.41-5.53-.63-.83-1.42-.9-2.33-.92-6.04-.14-12.01-.64-17.61-3.53ZM507.22,121.84c4.61-1.94,9.18-4,13.86-5.78,4.62-1.76,9.34-3.23,14.59-5.02-1.77-.74-2.98-1.2-4.15-1.75-4.17-1.98-8.54-2.76-13.12-2.22-4.27.51-7.72,2.44-9.86,6.29-.85,1.53-1.47,3.19-2.18,4.8-.64,1.44-.49,2.72.87,3.7ZM351.49,420.61c.8.54,1.15.81,1.52,1.02,4.7,2.69,9.82,4.03,15.16,4.27,3.06.14,6.18-.17,9.22-.6,2.08-.29,4.13-1.05,5.06-3.6-1.84-2-3.58-3.85-6.84-3.41-4.33.58-8.64.02-12.85-1.19-.67-.19-1.41-.53-2.05-.41-3.21.61-6.18,1.84-9.23,3.92ZM798.01,314.9c2.13-.83,3.42.46,4.53,2.04.83,1.17,1.57,2.41,2.43,3.76,4.36-9.72-.41-19.78-10.93-21.65-1.44,1.32-2.92,2.67-4.4,4.02,2.78,3.93,5.47,7.73,8.36,11.82ZM751,485.77c-2.37-1.14-4.63-2.12-7.31-1.18-8.75,3.07-17.51,6.13-26.27,9.17-.95.33-1.78.68-1.91,2.11.93.08,1.78.28,2.61.21,3.79-.3,7.6-.49,11.34-1.07,6.41-.99,12.58-2.86,18.33-5.93,1.31-.7,2.64-1.42,3.2-3.3ZM430.48,476.91c-5.68-.54-10.51-2.75-14.6-6.24-2.37,1.18-3.7,2.9-4.78,4.87-.79,1.46-.73,2.89.19,4.25,1.59,2.37,3.54,4.36,5.86,5.6,2.53-1.24,4.74-2.56,7.11-3.43,2.35-.86,4.87-1.25,7.4-1.87-.42-1.13-.76-2.03-1.19-3.19ZM381.17,442.6c-.54-.43-.93-.77-1.36-1.07-5.79-4.01-15.96-2.49-21.02,2.23-.48.45-.88.99-1.45,1.63,6.45,2.78,12.81,2.87,19.21,1.2,1.95-.51,3.76-1.59,4.61-4ZM684.07,204.69c-2.09,2.25-3.77,4.61-5.98,6.28-2.02,1.52-3.07,3.18-3.41,5.59-.3,2.13-.02,3.12,1.82,4.18,1.29.75,2.65,1.38,3.92,2.03,6.3-3.28,5.89-3.42,6.25-9.55.03-.53.03-1.07-.03-1.59-.28-2.57-.81-5.05-2.57-6.93ZM818.59,348.33c.07.33.1.67.21.99,3.2,9.72,3.54,19.58,1.51,29.57-.12.59-.11,1.23-.07,1.83.21,3.26.45,6.52.69,9.78.03.45.17.88.38,1.88.4-.93.61-1.31.73-1.71,2.95-9.29,4.02-18.82,3.32-28.52-.39-5.39-3.01-9.85-6.77-13.82ZM356.74,853.89c.1.26.2.53.29.79,2.76-.41,5.53-.77,8.28-1.25,2.76-.48,5.48-1.51,8.24-1.56,5.12-.1,8.31-3.41,11.84-6.26,1.09-.88.59-1.85.09-2.85-.55-1.1-1.29-1.33-2.38-.84-.48.21-1.04.23-1.52.44-7.35,3.24-14.7,6.48-22.03,9.77-.99.45-1.87,1.17-2.79,1.76ZM476.02,144.45c4.42-4.1,8.57-7.94,12.85-11.91-2.1-1.85-4.34-3.06-6.66-4.06-3.4-1.47-5.63-.33-6.53,3.31-1.01,4.09-.49,8.16.34,12.66ZM413.93,455.53c-.66,4.01.66,7.33,2.8,10.39,3.6-1.23,6.9-2.36,10.4-3.56-.23-2.06-.46-4.1-.66-5.92-4.28-.31-8.19-.6-12.54-.92ZM357.44,414.97c-1.1-.8-2.21-1.4-3.03-2.27-1.75-1.84-3.48-3.72-4.99-5.75-1.78-2.4-2.51-2.42-4.16.12-1.67,2.59-1.69,5.1.05,7.65,1.14,1.68,2.42,3.21,4.07,4.28,2.72-1.36,5.3-2.65,8.07-4.03ZM729.9,262.23c-3.09-1.25-6.24-1.37-9.4-1.37-5.02,0-9.66,1.87-14.4,3.17-1.76.48-3,1.98-3.52,4.33,9.25-2.17,18.55-2.79,27.33-6.14ZM795.05,290.26c-.14-.25-.28-.5-.43-.75-5.89-.76-11.55.27-17.61,2.38,1.78,1.44,3.23,2.53,4.59,3.74,1,.89,2.03,1.27,3.37,1.02.95-.18,1.94-.09,2.9-.21.59-.08,1.32-.16,1.7-.53,1.87-1.83,3.65-3.76,5.46-5.66ZM753.18,496.22c-2.19-1.19-3.97-1.47-5.82-.95-3.24.9-6.47,1.8-9.66,2.84-1.24.4-2.43,1.08-3.51,1.82-.99.68-1.85,1.59-1.65,3.33,6.31-1.07,12.54-1.79,18.12-4.97.81-.46,1.47-1.19,2.53-2.07ZM689.37,198.62c-1.16.56-2.18,1.06-3.2,1.56-2.18,1.06-2.35,1.49-.86,3.55,2.12,2.93,2.86,6.19,2.79,9.72-.02.93,0,1.86,0,2.89,4.71-3.8,5.34-12.3,1.27-17.72ZM448.51,215.39c.28-.06.55-.13.83-.19-1.03-5.1-2.36-10.15-2.99-15.3-.63-5.09-.56-10.27-.79-15.4-4.26,10.91-2.19,21.09,2.96,30.89ZM385.66,242.94c1.19-.28,2.36-.6,3.56-.83,5.38-1.03,10.8-1.77,16.3-1.63,2.1.05,3.63-.74,4.81-2.48-.35-.27-.55-.55-.77-.57-3.51-.25-7.02-.74-10.54-.09-2.51.46-5.02,1-7.54,1.39-2.6.4-4.52,1.76-5.82,4.2ZM751.77,473.7c1.65.39,1.65.39,2.92-.34,11.45-6.57,21.81-14.47,30.09-24.85,2.81-3.52,5.43-7.19,8.1-10.82.52-.71,1.17-1.51.26-2.75-5.12,8.25-11.17,15.48-17.99,22.06-6.87,6.63-14.98,11.63-23.38,16.7ZM750.61,472.63c.13.15.26.31.39.46,15.09-7.93,27.8-18.6,37.38-32.88-1.94,1.58-3.83,3.24-5.42,5.15-5.58,6.69-11.66,12.83-18.8,17.86-3.9,2.75-7.85,5.43-11.78,8.15-.59.41-1.18.84-1.77,1.25ZM714.79,499.1c4.18,4.14,9.26,4.04,13.98,4.38,1.17-2.14,2.16-3.93,3.1-5.64-5.54.41-11.06.82-17.08,1.26ZM432.08,434.85c-3.03.82-5.65,1.56-8.3,2.21-1.27.31-2.28.83-2.89,2.06-.52,1.04-1.07,2.08-2.6,1.61-.16-.05-.55.66-.92,1.14,1.51.9,2.94.68,4.31.59,1.5-.09,2.99-.28,4.48-.48,1.21-.16,2.41-.38,3.82-.61.61-1.9,1.28-3.98,2.11-6.53ZM359.45,408.75c3.69,3.81,15.11,5.46,19.83,2.95-.74-.78-1.42-1.59-2.21-2.27-.42-.35-1.04-.64-1.58-.65-5.28-.05-10.56-.03-16.05-.03ZM814.77,361.05c-.57-8.46-2.13-16.48-7.64-23.71.75,4.05,1.4,7.59,2.04,11.13.22,1.21.11,2.57.64,3.62,1.52,3.05,3.29,5.98,4.96,8.96ZM750.44,828.81c-.22.03-.44.07-.66.1-.15,1.17-.27,2.35-.46,3.52-.21,1.29-.29,2.65-.77,3.85-1.04,2.59-1.07,2.87,1.26,4.13,1.21.65,2.53,1.67,3.89.51,1.18-1,.89-2.57.46-3.72-1.08-2.86-2.46-5.6-3.71-8.39ZM697.01,277.6c.47-.12.79-.18,1.09-.29,3.65-1.33,7.31-2.64,10.94-4.02,2.24-.85,4.04-2.36,5.73-4.15-1.41.02-2.77.17-4.05.58-2.87.91-5.64,2.13-8.55,2.87-2.7.69-4.19,2.32-5.16,5ZM818.76,387.58c-.22-.08-.45-.15-.67-.23-.39,1.05-.81,2.08-1.16,3.14-.62,1.93-.76,4.2-1.9,5.74-1.7,2.3-2.02,4.82-2.47,7.41-.33,1.88-.37,3.81-1.66,5.47-.66.86-.78,2.14-1.15,3.23,5.04-7.58,8.14-15.8,9.01-24.77ZM818.11,395.41c-.18.48-.4.95-.52,1.44-1.42,5.61-3.8,10.82-6.71,15.79-.64,1.09-1.84,1.9-2.32,3.03-1.01,2.41-1.72,4.94-2.75,8.02.64-.69.89-.9,1.06-1.16,4.35-6.48,7.9-13.38,10.76-20.63.82-2.07,1-4.26.47-6.49ZM677.31,198.4c1.73-.16,3.17-.28,4.47-.4.29-.89.48-1.51.75-2.34.75.54,1.29.92,1.94,1.39.74-.41,1.48-.82,2.51-1.39-2.91-2.57-5.89-4.06-9.67-4.21v6.95ZM361.08,264.18c.17.12.33.24.5.36,4.9-4.72,9.8-9.45,14.71-14.17-2.4.64-4.56,1.73-6.74,2.78-1.26.6-2.28,1.34-1.97,2.88-4.61,1.03-5.07,4.95-6.5,8.15ZM819.52,368.12c.44-4.59.07-9.05-1.05-13.44-1.78-6.95-3.44-11.15-4.94-12.2,2.01,8.62,4,17.13,5.99,25.64ZM810.54,376.41c-.17.01-.33.03-.5.04,0,0-3.85,26.37-3.86,26.42,1.31-.07,1.13-1.17,1.32-1.95,1.77-6.86,2.97-13.82,3.32-20.9.06-1.2-.18-2.41-.28-3.61ZM779.69,456.59c-.13-.14-.26-.29-.39-.43-.57.46-1.15.92-1.72,1.39-3.18,2.66-6.22,5.51-9.57,7.94-4.21,3.05-8.68,5.75-13.02,8.61-.64.42-1.72.56-1.5,1.79,5.02-1.02,24.42-15.36,26.2-19.3ZM780.21,458.31c-2.75,2.35-5.08,4.67-7.72,6.53-5.69,4.01-11.55,7.79-17.34,11.67-.73.49-1.77.7-1.93,2.17.8-.34,1.37-.51,1.87-.8,1.84-1.06,3.67-2.11,5.47-3.23,6.29-3.94,12.34-8.23,17.87-13.2.81-.73,1.87-1.36,1.8-3.14ZM756.74,280.99c-.96-1.33-1.61-2.47-2.49-3.38-.95-.99-2.08-1.73-2.87-2.98-1.06-1.66-3.57-1.54-5.16-.07,1.94,4.36,5.75,5.74,10.51,6.43ZM420.92,487.29c3.29,1.68,6.77,2.1,10.66,2.41-.6-1.17-1.13-1.98-1.43-2.86-.33-.95-.44-1.98-.64-2.95-3.45.26-6.43,1.43-8.59,3.4ZM811.93,361.39c.46,5.9.92,11.8,1.37,17.7.54-.8.79-1.62,1.07-2.42.14-.39.28-1.05.51-1.09,1.59-.3,1.29-1.56,1.2-2.5-.4-4.28-2.18-8.09-4.16-11.69ZM427.71,466.15c-2.85.27-5.33,1.08-7.79,2.43,2.99,2.51,6.41,3.77,9.05,3.36-.41-1.86-.81-3.71-1.27-5.79ZM439.8,242.85c-.98-1.87-2.72-2.9-4.19-2.28-1.77.75-3.71.37-5.34,1.35-.49.3-.97.62-1.9,1.23,2.22.56,4.03.86,5.71,1.49,2.35.88,4.03.06,5.72-1.79ZM451.98,215.6c-.15.08-.31.17-.46.25,1.32,2.65,1.57,5.77,4.03,7.92.4.35.84,1.26.66,1.55-1.25,2.02.76,3.03,1.35,4.42.18.44,1.44.8,2.01.61,1.03-.35.6-1.32.21-2-1.6-2.83-3.21-5.65-4.89-8.44-.89-1.48-1.93-2.87-2.9-4.31ZM682.12,202.54c-2.02-1.03-2.9-1.05-5.11-.14-.28,2.28-.56,4.62-.86,7.05,2.75-1.09,4.9-3.58,5.98-6.91ZM745.56,503.4c-4.16.88-7.91,1.68-11.97,2.54,1.92,1.85,4.01,2.51,6.1,2.84,1.94-1.78,3.74-3.43,5.87-5.38ZM401.95,244.02c-7.54-.21-14.23,2.25-20.44,6.19,6.81-2.06,13.63-4.12,20.44-6.19ZM454.96,167.36c-1.62-.57-1.94.4-2.33,1.16-1.24,2.43-2.54,4.83-3.62,7.33-.78,1.79-.9,3.74-.65,5.68.76-1.17,1.36-2.34,1.87-3.55.47-1.14.84-2.32,1.38-3.83.39-.34,1.46-.85,1.83-1.68.71-1.57,1.02-3.32,1.52-5.1ZM659.98,250.89c1.66.67,2.07-.4,2.68-1.08,3.34-3.75,6.67-7.51,10-11.27.27-.31.49-.67.73-1-1-.09-1.89.06-2.44.58-4.06,3.81-7.59,8.07-10.97,12.78ZM405.39,402.27c-4.1,4.76-6.83,10.09-8.51,16.14.6.03,1.03.14,1.08.05,2.52-5,5.01-10.01,7.46-15.04.15-.3-.01-.76-.03-1.15ZM499.07,535.35c-6.41-1.57-12.81-3.15-19.22-4.7-.2-.05-.45.16-.7.26,1.87,2.18,10.76,4.33,19.92,4.44ZM434.76,505.88c3.63.58,8.66.15,10.83-.85-.85-1-1.5-2.46-2.97-2.27-2.69.34-5.32,1.08-7.86,3.13ZM407.97,234.63c-3.47-3.53-9.55-2.99-13.05,1.04,2.24-.36,4.3-.83,6.38-1,2.09-.17,4.2-.04,6.67-.04ZM683.09,250.35c-3.84,4.13-5.44,9.51-7.9,14.42-.14.27.09.72.15,1.09.18.04.35.08.53.12,2.95-4.92,5.09-10.25,7.21-15.64ZM471.94,528.56l.37-.5c-2.71-1.79-5.51-3.44-8.1-5.4-2.6-1.97-4.99-4.23-7.46-6.36-.15.19-.3.38-.44.57,4.07,5.4,9.48,9.04,15.63,11.68ZM749.22,475.82c-2.27-.16-4.03,1.19-5.99,1.97-2.12.84-4.22,1.76-6.33,2.63-1.97.81-3.95,1.59-5.92,2.39,6.71-.71,12.51-3.71,18.24-6.99ZM744.76,277.91c.06-.18.11-.35.17-.53-.32-.4-.61-.84-.97-1.2-.56-.56-1.14-1.1-1.76-1.6-1.99-1.59-4.36-1.01-5.73,1.44,1.91.25,3.86.08,5.54,1.4.65.51,1.82.34,2.76.49ZM421.98,241.96c.02-.16.05-.32.07-.49-2.16-.97-4.3-2.01-6.51-2.87-.66-.26-1.57-.21-2.25.02-.39.13-.73.93-.74,1.43,0,.3.64.83,1.04.89,2.79.39,5.59.69,8.38,1.02ZM402.54,403.72c-.16-.12-.32-.24-.48-.37-2.85,3.23-4.56,7.11-6.02,11.13-.23.64-.09,1.41-.12,2.12.12,0,.24.02.35.03,2.09-4.31,4.18-8.61,6.27-12.92ZM475.42,526.47c3.54,3.4,10.48,6.05,13.6,5.36-.89-.42-1.65-.84-2.46-1.15-3.51-1.35-7.04-2.66-11.14-4.21ZM669.15,235.53c1.72-1.54,3.11-2.61,4.29-3.88,1.14-1.22,3.36-1.49,3.58-3.74-3.27.26-6.89,3.61-7.86,7.62ZM505.17,534.38c0-.2,0-.39,0-.59-4.63-.88-9.25-1.75-13.88-2.63,4.29,2.77,9.06,3.11,13.88,3.22ZM663.81,250.27c1.26-1.28,2.54-2.54,3.79-3.84,1.22-1.27,2.47-2.52,3.62-3.85,1.14-1.31,2.86-2.22,3.05-4.24-4.15,3.38-7.6,7.38-10.45,11.93ZM678.47,255.57c-.17-.08-.34-.16-.52-.24-3.13,3.37-4.35,7.69-5.96,12.47.72-.51,1.09-.63,1.2-.87,1.78-3.78,3.53-7.57,5.28-11.35ZM450.44,196.24c.22,0,.44-.02.66-.03.27-3.08.53-6.17.82-9.49-1.06.27-1.85.48-2.82.73.46,3.04.9,5.91,1.34,8.79ZM414.56,453.86c.06.19.13.39.19.58,3.49.66,6.97,1.48,10.59.8.62-.12,1.28-.16,1.04-.86-3.64-.42-7.17-.84-10.7-1.19-.35-.03-.74.43-1.12.66ZM817.07,341.16c-1-3.04-4.9-7.93-7.01-8.98.03.29.04.54.09.79.88,3.97,4.54,5.52,6.92,8.19ZM715.87,490.76c-.04-.2-.07-.41-.11-.61-4.08.58-8.16,1.16-12.24,1.75-.02.2-.03.4-.05.61.7.16,1.44.54,2.1.43,3.46-.58,7.07-.59,10.29-2.17ZM522.67,540.76c3.98,1.35,7.57,1,12.68-1.25-4.23.42-8.45.83-12.68,1.25ZM356.13,265.71c-2.37,2.99-3.48,5.65-3.22,7.57,3.3-2.36,4.23-4.43,3.22-7.57ZM530.36,538.87c5.63.49,8.67-.18,9.76-1.96-3.44-1.12-6.07,1.51-9.76,1.96ZM433.17,483.65c-.11.04-.23.07-.34.11v5.93h3.37c-1.1-2.19-2.06-4.12-3.03-6.04ZM790.92,434.72c2.65-1.67,5.51-6.51,5.72-9.45-2.35,3.02-4,6.25-5.72,9.45ZM749.79,476.99c-2.93,1.37-5.86,2.74-8.79,4.11,3.16.32,7.47-1.71,8.79-4.11ZM807.44,332.68c-.21-2.91-1.43-5.18-3.14-5.83-.33,2.93.52,4.52,3.14,5.83ZM785.9,453.23c2.31-2.53,4.69-4.99,6.83-8.28-2.32.91-6.14,5.62-6.83,8.28ZM528.15,536.78c-3.21-.22-6.43-.77-9.65-.1,2.34.94,7.62,1.05,9.65.1ZM415.47,451.93c3.91,1.45,6.64,1.65,9.74.64-2.88-.59-5.78-1.02-8.68-1.38-.23-.03-.52.35-1.06.75ZM395.94,422.69c.75,1.7,1.91,2.26,4.27,2.25,2.35,0,2.82-.24,3.52-1.91-1.41.19-2.69.53-3.97.47-1.23-.05-2.45-.51-3.81-.82ZM444.74,246.82c0-1.23,1.31-2.33.02-3.22-.43-.29-1.49.04-2.1.37-1.22.66-1.25,1.7-.59,2.85h2.68ZM425.96,442.9c-1.75.17-3.51.5-5.25.45-1.79-.05-3.58-.49-5.4-.76,2.89,2.54,5.92,2.7,10.65.31ZM728.6,489.3c-5.09.05-8.29,1.17-9.73,3.19,3.47-1.14,6.6-2.16,9.73-3.19ZM408.49,418.24c-3.01-.14-6.36.76-9.38,2.41,3.25-.28,6.25-.52,9.38-2.41ZM805.05,405.97c-1.66,2.44-2.25,5.18-2.33,8.05,1.99-2.33,1.79-5.3,2.33-8.05ZM419.36,448.58c2.92.51,6.32.45,7.29-.16.21-.13.24-.57.35-.9-2.46-.41-5.98.03-7.65,1.05ZM390.18,407.16c-.05,1.02-.1,1.79-.1,2.57,0,.11.23.23.35.34,2.51-.86,2.91-1.35,2.73-3.52-.25,0-.51-.05-.75,0-.68.16-1.34.36-2.23.6ZM688.54,280.38c-2.68,1.59-3.95,3.38-4.34,5.82,1.56-.28,2.19-1.1,4.34-5.82ZM397.76,421.87c2.41,1.42,6.21.77,7.67-1.18-2.52.39-4.9.75-7.67,1.18ZM811.14,394.21c-.58,2.67-1.16,5.35-1.74,8.02,2.36-2.32,2.46-5.09,1.74-8.02ZM678.94,230.43c1.51-.12,2.57-.58,2.77-1.86.1-.62-.43-1.34-.73-2.2-.74.3-1.44.57-2.03.81v3.25ZM376.69,245.94c2.21-.94,4.98-.89,6.64-3.81-2.87.9-5.03,1.89-6.64,3.81ZM693.58,279.39c2.04-.63,2.6-2.58,3.66-4.36-2.26.66-2.74,1.19-3.66,4.36ZM419.95,237.13c-.06.19-.12.37-.18.56,1.8.88,3.6,1.75,5.4,2.63-1.02-2.5-2.84-3.4-5.22-3.19ZM713.79,492.58c-2.31.37-4.3.7-6.6,1.07,2.39,1.21,4.91.82,6.6-1.07ZM467.81,225.52c-1.03-.8-1.98-1.54-3.35-2.61.68,1.98,1.18,3.42,1.76,5.11.6-.94,1.07-1.67,1.59-2.49ZM676.01,224.47c-.32-1.5-.94-2.37-2.65-2.3-.19.89-.38,1.75-.64,2.97,1.39-.28,2.3-.46,3.3-.67ZM675.19,267.32c-1.48,1.43-2.82,2.93-2.74,5.21,1.56-1.38,2.29-3.22,2.74-5.21ZM404.13,432.32c.69,1.54,1.86,2.52,3.58,3.14.67-1.91-1.13-2.27-1.73-3.26-.41-.67-1.14-.75-1.85.12ZM454.39,230.86c-1.13-1.51-1.24-3.29-2.95-4.19.45,3.78.75,4.25,2.95,4.19ZM426.69,449.5c-1.83.11-3.66.22-5.73.34,2.27,1.48,3.79,1.49,5.73-.34ZM451.8,180.91c-.25-.04-.49-.07-.74-.11-.34,1.36-.68,2.73-1.1,4.38.91-.09,1.38-.14,1.83-.18v-4.08ZM672.28,269.06c-2.08.82-3.05,2.95-2.53,5.5.99-2.14,1.76-3.82,2.53-5.5ZM412.45,444.65c-.22,1.75.99,2.17,2.06,2.67.81.38,1.63.7,2.19-.54-1.37-.69-2.73-1.37-4.25-2.13ZM702.74,265.44c-2.53.76-2.97,2.37-3.77,4.2,2.51-.46,2.7-2.32,3.77-4.2ZM414.27,443.7c-.11.28-.22.56-.33.84,1.46.77,2.87,1.71,4.86.97-1.51-.6-3.02-1.2-4.53-1.8ZM434.64,483.56c-.18.1-.36.2-.53.29.89,2,1.73,4.03,3.08,5.78.2-.11.4-.22.6-.33-1.05-1.91-2.1-3.83-3.15-5.74ZM692.2,271.94c3.04-1.9,3.21-2.14,3.29-4.11-1.25,1.57-2.27,2.84-3.29,4.11ZM482.68,527.4c-.07.23-.14.45-.21.68,2.12.71,4.23,1.42,6.35,2.13.06-.18.13-.37.19-.55-1.55-.59-3.09-1.18-4.64-1.75-.55-.2-1.13-.34-1.69-.51ZM401.26,414.1c-.18-.03-.37-.06-.55-.09-.48,1.4-.97,2.8-1.45,4.2.26.09.52.19.79.28.94-1.26,1.63-2.62,1.22-4.39ZM384.37,410.27c.23-.97.35-1.49.55-2.3-1.04.06-1.83.11-3.21.19,1.09.86,1.66,1.32,2.66,2.11ZM690.09,281.34c-1.72.37-1.97,1.86-2.5,3.14,1.49-.5,2.27-1.59,2.5-3.14ZM408.57,402.14c-.2-.17-.4-.34-.61-.5-1.48.93-1.92,2.53-2.75,3.87.15.1.29.2.44.3.97-1.22,1.95-2.44,2.92-3.66ZM427.55,462c.2,0,.41,0,.61-.01.28-2.69.09-4.42-.92-5.69.1,1.9.21,3.8.31,5.7ZM672.85,250.15c1.87-1.02,2.29-2.42,2.61-3.9-1.43.75-2.08,2.02-2.61,3.9ZM677.28,266.1c-.01.2-.02.39-.03.59.59.39,1.17.79,2.1,1.41.09-.76.15-1.27.21-1.78-.76-.07-1.51-.15-2.27-.22ZM818.46,372.08c.24-.06.49-.12.73-.18-.27-1.64-.53-3.29-.8-4.93-.18.03-.36.05-.53.08.2,1.68.4,3.35.6,5.03ZM403.78,412.87q-1.31,2.29-.38,3.29,1.04-1.72.38-3.29ZM687.77,239.21q-2.1,1.79-2.17,3.63c1.15-.94,2.05-1.91,2.17-3.63ZM521.32,538.9c0-.23,0-.46,0-.7h-4.19v.33c1.4.12,2.79.24,4.19.37ZM673.46,257.7c.22.14.45.27.67.41.84-1.1,2.08-1.93,2.32-3.42-.15-.11-.31-.22-.46-.33-.84,1.12-1.68,2.23-2.53,3.35ZM450.68,221.38c.24-.11.47-.21.71-.32-.56-1.32-1.12-2.63-1.68-3.95-.22.1-.45.2-.67.3.55,1.32,1.1,2.65,1.64,3.97ZM687.79,274.08c-2.5,1.37-2.57,1.47-2.65,3.64,1.05-1.44,1.85-2.54,2.65-3.64ZM680.83,246.96c.16.14.32.28.48.43,1.24-.65,1.85-1.73,1.74-3.33-.74.97-1.48,1.93-2.22,2.9ZM803.03,321.34c-.72-1.22-1.44-2.45-2.15-3.67-.2.12-.4.24-.61.36.69,1.24.72,2.87,2.76,3.31ZM399.69,404.96c-1.84.07-2.25,1.03-1.74,3.03.74-1.28,1.24-2.16,1.74-3.03ZM679.77,242.35c-1.7.5-2.29,1.66-2.47,3.06l.51.3c.65-1.12,1.3-2.24,1.96-3.37ZM435.91,248.09c1.69,1.63,1.73,1.64,3.67.48-1.29-.17-2.27-.3-3.67-.48ZM671.96,256.34c.17.14.35.28.52.41,1-.75,1.69-1.7,1.93-2.91-.16-.1-.32-.21-.47-.31-.66.94-1.32,1.87-1.98,2.81ZM688.37,266.72c.24.16.47.32.71.49.63-.91,1.27-1.81,1.9-2.72-.18-.13-.37-.27-.55-.4-.69.88-1.38,1.76-2.06,2.64ZM698.12,268.95c-.14-.11-.28-.22-.42-.34-.66.73-1.32,1.46-1.98,2.19,1.63.21,2-.84,2.41-1.86ZM685.78,245.33c-.13-.13-.27-.26-.4-.39q-1.87,1.67-1.86,3.47c.9-1.23,1.58-2.15,2.26-3.08ZM665.48,273.54c-.2-.12-.41-.23-.61-.35-.44.92-.89,1.84-1.54,3.18,2.08-.54,1.79-1.87,2.15-2.83ZM424.11,446.75c1.08-.24,2.17-.48,3.25-.72l-.13-.57c-1.17-.31-2.18.18-3.12,1.3ZM687.44,235.97c.26.15.52.31.78.46.63-.67,1.37-1.3.82-2.99-.67,1.05-1.14,1.79-1.61,2.52ZM450.95,203.14c-.24.11-.49.22-.73.33.38,1.09.75,2.18,1.13,3.28.17-.05.34-.1.52-.16-.31-1.15-.61-2.3-.92-3.45ZM678.58,252.19c.13.12.27.25.4.37q1.5-1.22,1.54-3.02c-.76,1.04-1.35,1.84-1.94,2.65ZM798.88,423.48c.99-.86,1.65-1.83,1.91-2.96-.17-.07-.33-.14-.5-.21-.47,1.06-.94,2.11-1.41,3.17ZM683.1,267.05c1.13-.72,1.66-1.33,1.1-2.45q-1.12.77-1.1,2.45ZM407.23,416.63c-.95-.7-1.44-1.06-2.13-1.57-.25.7-.41,1.15-.61,1.7.46.11.79.26,1.12.26.33,0,.67-.15,1.62-.39ZM678.99,249.8q-2.04.83-2.5,2.95c.93-1.1,1.59-1.88,2.5-2.95ZM683.51,232.42c-.24-.88-.4-1.48-.64-2.38-.59.72-.96,1.16-1.47,1.78.72.2,1.25.35,2.11.59ZM674.07,235.2c1.2.07,2.23-.07,2.06-1.73-.69.58-1.38,1.15-2.06,1.73ZM456.14,210.5c.22-.11.44-.21.65-.32-.43-.9-.85-1.79-1.28-2.69-.18.08-.35.16-.53.24.39.92.77,1.85,1.16,2.77ZM450.86,239.27c-.31-.71-.51-1.18-.8-1.86-.46.59-.74.96-1.12,1.44.67.15,1.14.25,1.92.42ZM429.64,471.69c.18-.04.36-.08.55-.12-.26-.96-.52-1.91-.78-2.87-.15.04-.29.07-.44.11.23.96.45,1.92.68,2.88ZM405.16,430.28c-.59-.29-.94-.58-1.29-.59-.2,0-.64.54-.58.67.14.34.48.79.78.81.27.02.58-.45,1.09-.89ZM458.74,214.23c-.18.08-.36.15-.54.23.4.94.8,1.88,1.2,2.83.19-.08.39-.16.58-.25-.41-.94-.83-1.87-1.24-2.81ZM419.12,450.89c-.3-.86-.85-1.52-2.21-.77.97.34,1.59.56,2.21.77ZM799.85,427.61c.18.08.36.16.55.24.36-.82.73-1.63,1.09-2.45-.16-.07-.32-.13-.48-.2-.39.8-.78,1.6-1.16,2.41ZM695.26,263.04c.2.18.39.35.59.53.49-.57.97-1.14,1.46-1.71-.12-.11-.24-.22-.36-.33-.56.5-1.12,1.01-1.68,1.51ZM686.61,232.9v-2.21c-1.17.82-1.2,1.45,0,2.21ZM420.3,438.52c-1.41-.35-1.64.29-1.28,1.42.43-.47.85-.95,1.28-1.42ZM415.32,439.3c-.16-.17-.31-.34-.47-.51-.31.32-.62.63-.94.95.18.16.49.47.51.45.32-.26.6-.58.89-.88ZM416.95,439.82c-.24-.08-.47-.16-.71-.24-.13.48-.26.96-.38,1.44.2.06.4.12.6.17.16-.46.33-.92.49-1.38ZM405.57,243.76c0,.07,0,.15,0,.22h2c0-.07-.01-.15-.02-.22h-1.98ZM673.37,228.3q-1.84.22-1.81,1.57c.52-.45.95-.82,1.81-1.57ZM468.83,521.56l-.39.48c.71.37,1.41.74,2.12,1.11.07-.12.14-.24.21-.37-.65-.41-1.29-.81-1.94-1.22ZM691.03,278.68c.23.19.46.38.69.57.31-.47.62-.94.93-1.41-.16-.12-.32-.24-.47-.35-.38.4-.76.79-1.14,1.19ZM671.13,251.26c-.17-.1-.34-.19-.52-.29-.27.48-.53.95-.8,1.43.13.07.26.14.39.22.31-.45.61-.91.92-1.36ZM686.75,233.85c-.14-.05-.27-.09-.41-.14-.16.41-.33.82-.49,1.23.22.07.44.14.66.21.08-.44.16-.87.24-1.31ZM705.14,490.39c0,.09,0,.19,0,.28.48-.03.95-.05,1.43-.08,0-.07,0-.14,0-.2h-1.42ZM692,270.11c-.14-.11-.28-.22-.42-.32-.26.4-.51.79-.77,1.19.1.07.2.13.31.2.29-.36.59-.71.88-1.07ZM432.06,477.92c-.11.04-.21.08-.32.12.22.56.44,1.12.66,1.68.11-.04.22-.09.34-.13-.23-.56-.45-1.12-.68-1.67ZM666.35,249.68c.14.06.28.12.42.17.19-.34.39-.68.58-1.02-.08-.05-.16-.1-.24-.15-.25.33-.5.66-.76.99ZM668.62,246.61c.15.16.3.33.45.49.3-.37.6-.74.91-1.11-.15-.15-.31-.29-.46-.44-.3.35-.59.71-.89,1.06ZM437.36,251.09c-.06.2-.12.41-.17.61.49.13.98.25,1.47.38.05-.15.09-.29.14-.44-.48-.18-.96-.37-1.44-.55ZM658.08,254.22c.11.14.22.29.32.43.38-.32.77-.65,1.15-.97l-.24-.31c-.41.28-.82.57-1.23.85Z"/>
  <path class="cls-1" d="M200.58,297.56c10.4-18.65,19.84-37.49,31.63-54.85-.2-.45-.25-.75-.43-.92-2.67-2.62-2.96-5.74-1.66-9.02,1.98-5.01,3.82-10.11,6.27-14.89,14.42-28.26,32.65-53.86,54.2-77.12.59-.64,1.14-1.31,1.77-2.04-.29-.26-.43-.47-.64-.56-7.34-3.29-10.47-13.07-6.39-20.02.31-.53.68-1.04,1.09-1.5,4.42-5.03,13.67-5.48,18.41-.79,1.04,1.03,1.72,2.42,2.49,3.7.44.73.71,1.57,1.23,2.74.98-.77,1.76-1.29,2.42-1.92,13.14-12.46,27.3-23.66,42.18-33.93,19.02-13.12,39.19-24.1,61-31.87,6.67-2.37,13.48-4.32,20.5-5.38.95-.14,1.91-.22,2.87-.33-.2.25-.39.51-.59.76,1.55,1.16,3.1,2.32,4.92,3.69,14.99-10.96,30.93-20.62,46.94-30.11-2.77-6.54-1.69-10.76,3.64-14.76,4.24-3.19,9.15-2.96,13.67.74.98-.38,2.01-.87,3.1-1.2,4.04-1.25,7.74-.61,10.81,2.39,3.25,3.17,2.71,7.99-1.02,10.57-2.81,1.94-5.86,2.33-9.12,1.62-1.12-.24-2.22-.52-3.37-.79-4.06,4.53-8.96,5.49-14.58,3.59-11.93,14.57-24.25,28.71-35.15,44.25,3.08,2.66,1.88,5.52.46,8.39-.34.7-.66,1.42-1.05,2.26,1.82,1.22,5.17,1.13,4.01,4.91-.25-.97-.22-1.94-.69-2.43-.55-.57-1.52-.77-2.33-1.06-1.31-.48-2.07.14-2.83,1.23-4.78,6.81-9.61,13.58-14.49,20.32-5.58,7.7-11.88,14.74-18.9,21.16-3.39,3.1-6.52,6.49-9.76,9.75-11.74,11.8-23.35,23.73-35.24,35.38-26.63,26.11-54.1,51.31-83.37,74.47-7.49,5.93-15.37,11.37-23.17,16.88-2.51,1.78-5.33,3.14-8.08,4.56-1.16.6-2.47,1-3.75,1.26-1.63.33-3.06.07-4.22-1.46-.88-1.16-2.19-1.99-3.42-3.06-15.97,12.19-30.84,25.41-45.95,38.45.65,2.06,1.25,4.16,1.98,6.21.56,1.56.34,2.9-.17,4.51-1.14,3.56-3.17,6.28-6.18,8.36-.5.35-1.03.77-1.6.9-8.25,1.88-15.52-2.55-16.9-10.27-.8-4.48-.15-8.39,3.16-11.75,2.09-2.12,4.79-2.52,7.43-3.04,3.08-.61,5.95.37,8.85,2.02ZM282.51,227.08c.09.11.18.23.27.34.74-.41,1.53-.74,2.2-1.23,6.63-4.87,13.45-9.51,19.82-14.71,21.64-17.66,41.87-36.84,60.86-57.33,10.6-11.44,20.64-23.36,29.64-36.11.53-.75,1.01-1.54,1.51-2.31-.73,0-1.17.25-1.54.58-11.85,10.79-23.76,21.5-35.5,32.41-6.68,6.21-12.89,12.92-19.6,19.09-19.71,18.11-38.21,37.4-56.08,57.32-.56.62-1.06,1.3-1.59,1.95ZM507.11,20.33c4.09,2.1,7.67,1.95,11.16-.26,3-1.9,3.7-5.83,1.53-8.49-3.14-3.85-9.19-4.26-13.06-.76.76,3.05,1.97,6.19.37,9.51Z"/>
</svg>