<?xml version="1.0" encoding="UTF-8"?>
<svg id="Layer_1" xmlns="http://www.w3.org/2000/svg" viewBox="0 0 1080 1080">
  <defs>
    <style>
      .cls-1 {
        fill: #002e72;
      }
    </style>
  </defs>
  <path class="cls-1" d="M738.41,882.48c-2.42,1.21-4.85,2.43-7.4,3.71,1.85,3.44,4.3,6.46,7.48,8.58,2.54,1.69,5.62,2.58,8.47,3.79,1.98.83,3.98,1.6,6.22,2.5-.41,1.24-.75,2.27-1.09,3.26,3.04,3.31,7.19,4.3,11.26,5.48,1.31.38,2.57.92,3.75,1.35-.29,4.13-3.17,4.87-6.07,5.82,2.64.62,5.28,1.23,7.91,1.86,1.28.31,3,.46,3.05,1.99.03.98-1,2.15-1.82,2.95-1.66,1.62-3.72,2.48-6.11,2.55-1.02.03-2.03.35-3,.53-1.94,2.33-3.81,4.67-5.79,6.93-1.59,1.82-5.47,2.41-8.18,1.37-1.67-.64-3.33-1.31-5.01-1.92-1.66-.6-3.3-1.08-5.13-1.25-1.76-.17-3.45-1.36-5.12-2.19-1.34-.66-2.55-1.6-3.92-2.18-9.12-3.87-17.09-9.52-24.82-15.59-1.54-1.21-1.03-2.84-1.62-4.22-.65-1.51-.59-3.31-1.17-4.86-1.17-3.08-2.48-6.12-3.93-9.07-.64-1.3-1.75-2.37-2.65-3.54-.21.13-.41.26-.62.39,1.16,2.18,2.32,4.35,3.48,6.53-.09.06-.18.11-.26.17-1.96-2.98-3.92-5.96-6.09-9.26-2.22,1.27-4.21,2.45-6.24,3.56-.82.45-1.7.79-2.58,1.09-1.51.52-3.07.92-4.57,1.47-2.64.96-4.78,2.5-6.1,5.12-.73,1.44-1.47,2.85-3.16,3.73-1,.52-2,1.97-1.36,3.64.7,1.85-.11,3.23-1.53,4.44-2.36,2.01-5.27,2.43-8.15,2.88-5.35.84-10.72.5-16.09.14-2.52-.17-5.04-.35-7.57-1.01.87-.07,1.73-.14,2.6-.2l.02-.33c-2.68-.68-5.35-1.36-8.62-2.2,1.13-.63,1.7-1.08,2.34-1.29,5.82-1.91,11.64-3.77,17.47-5.65.81-.26,1.63-.46,2.44-.73,2.24-.76,3.79-2.15,4.89-4.35,2.1-4.21,4.47-8.29,6.75-12.42.36-.65.83-1.23,1.39-2.04-.59-.26-1.11-.61-1.69-.74-3.84-.9-7.68-1.78-11.54-2.62-4.87-1.06-7.61-4.26-8.9-8.87-.66-2.35-1.15-4.74-1.72-7.12-.04-.18-.16-.43-.09-.54,1.53-2.49-.09-4.57-1.03-6.59-1.59-3.41-3.42-6.71-5.29-9.97-3-5.22-5.83-10.58-10.03-15-1.88-1.97-3.86-3.84-5.81-5.75-.45-.44-.93-.83-1.83-1.62h3.96c-2.14-1.63-3.95-2.85-5.59-4.27-1.78-1.54-3.4-3.26-5.09-4.91-1.62-1.57-3.23-3.15-5.06-4.93-4,2.95-4.5,7.98-7.23,11.93,3.47,1.23,5.43,3.5,6.28,6.63.83,3.02.54,5.96-1.55,8.86,3.15,0,5.95-.07,8.74.04.97.04,2.08.26,2.86.8,4.73,3.26,9.41,6.61,14.06,9.99,1.97,1.43,3.11,3.57,3.32,5.87.41,4.59.52,9.21.6,13.82.03,1.85-.33,3.71-.53,5.83-.94-.33-1.54-.51-2.11-.75-1.39-.59-2.79-1.15-4.14-1.82-4.32-2.14-8.69-2.51-13.4-1.24-5.16,1.4-10.5.85-15.77.58-.97-.05-1.93-.53-2.75-.77.14,1.44.17,2.88.47,4.26.14.65.83,1.17,1.55,2.13-1.82-.13-3.26-.23-4.7-.33-5.26-.39-10.53-.71-15.78-1.21-1.56-.15-3.12-.72-4.6-1.29-1.11-.43-2.36-.62-2.29-2.57.05-1.49-2.48-2.75-4.43-2.66-.28-.73-.7-1.48-.87-2.28-.51-2.41-2.1-4.18-3.43-6.11-.41-.58-1.01-1.53-.8-1.96,1.78-3.64.94-7.59,1.51-11.36.17-1.11.26-2.24.39-3.45,1.27-.11,2.52-.22,3.99-.35-.37-1.42,1.14-2.73-.33-4.01-.03-.03.58-.81.89-1.24-3.78-3.86-3.74-9.96.1-13.79,1.07-1.07,2.3-1.61,3.84-1.21.81.21,1.63.37,2.61.6.24-.7.62-1.3.63-1.89.02-3.49.23-7.01-.17-10.45-.36-3.09-1.12-6.22-2.24-9.12-1.11-2.87-2.9-5.47-4.36-8.21-.62-1.16-1.22-2.32-1.75-3.52-.22-.5-.45-1.19-.27-1.63.73-1.87,1.48-3.65,1.09-5.79-.13-.74,1.03-1.16,1.74-.62,1.89,1.45,3.35.43,4.8-.69,3.29-2.52,6.56-5.06,9.81-7.62,1.54-1.21,3.2-1.95,5.2-1.84,3.59.19,7.18.38,10.36,3.01.29-1.79-.44-2.97-1.22-4.04-1.83-2.51-3.7-5.01-5.69-7.4-.76-.91-1.8-1.73-2.88-2.2-6.04-2.62-12.27-4.83-18.14-7.78-2.56-1.29-4.26-.49-6.24.47-8,3.88-16.21,7.09-25.11,8.31-3.15.43-6.22,1.5-9.37,1.9-5.89.76-11.8,1.49-17.75.83-2.51-.28-4.99-.85-7.47-1.38-2.75-.59-5.52-1.17-8.22-1.94-2.76-.79-5.08-2.36-7.24-4.26-3.4-3-7.02-5.71-11.12-7.73-1.26-.62-2.39-1.49-3.62-2.19-.7-.39-1.45-.87-2.21-.94-1.58-.14-3.18-.04-5.08-.04-.17,1.63-.38,3.28-.49,4.92-.15,2.35-.27,4.7-.31,7.05-.02,1.1-.03,2.23,1.09,3.01.59.41.91,1.18,1.46,1.67,5.44,4.93,9.5,10.92,13.44,17.05,3,4.67,6.31,9.15,9.45,13.74.61.89,1.11,1.86,1.7,2.86-11.08-.99-20.83,2.54-31.07,6.39,1.05.96,1.7,1.89,2.6,2.32,3.76,1.82,4.2,2.62,3.19,6.98.83.12,1.66.18,2.45.37,2.16.52,3.74,1.67,4.34,3.95.28,1.08.24,1.97-.45,2.91-1.33,1.81-2.54,3.71-3.94,5.79.84.12,1.53.22,2.23.32,3.62.52,6.4,3.51,7,7.14.27,1.62,1.09,3.15,1.66,4.72,1.21,3.31,3.68,4.8,7.05,5.6,1.79.43,3.71,1.7,4.86,3.15,2.96,3.74,2.84,7.1-.38,10.39-2.83,2.9-4.73,6.38-6.21,10.04-1.69,4.19-3,8.53-4.46,12.81-.64,1.86-1.26,3.74-1.99,5.92,1.16.23,2.13.52,3.11.6,3.89.31,6.33,2.19,6.78,5.89.59,4.84-.72,9.25-4.4,12.57-1.38,1.24-3.38,1.79-5.45,2.83-.18,1.83-.53,4.16-.61,6.49-.06,1.8-.55,3.15-2.36,3.71-3.5,1.08-5.37,3.18-4.74,7.07.09.54-.5,1.39-1.02,1.78-6.43,4.94-12.82,9.94-20.04,13.72-2,1.05-4.07,1.96-6.14,2.87-.68.3-1.45.5-2.19.55-4.32.3-8.64.68-12.97.76-2.26.04-4.6-.21-6.96-1.78,1.81.37,3.2.65,4.59.93.05-.21.11-.41.16-.62-1.65-.56-3.3-1.13-5.19-1.77,2.28-4.35,4.5-8.61,6.87-13.15-6.77.33-12.28-2.66-17.8-6.14-1.01.34-2.16.55-2.65,1.98-.17.5-.96.87-1.54,1.15-6.67,3.3-13.32,6.65-20.07,9.8-1.19.56-2.78.26-4.51.38,1.53-3.53,2.94-6.77,4.4-10.14-.69.06-1.04.09-1.39.12l.05.05c.66-1.54,1.23-3.12,2-4.61,2.33-4.52,4.73-9,7.1-13.5.52-.99,1.17-1.69,2.23-2.31,4.87-2.87,9.6-5.95,14.38-8.97,1.53-.97,3.07-1.41,5-1.39,3.94.02,7.89-.49,11.83-.79.55-.04,1.1-.07,1.86-.11.14,1.07.27,2.03.42,3.16,3.81-.84,7.03-2.73,10.36-4.61-.29-2.91-.76-5.84.99-8.48,1.63-2.46,3.63-4.35,6.78-4.3.77-2.04,1.24-13.63.71-16.53-.15-.1-.31-.31-.45-.29-2.78.28-4.1-1.15-4.7-3.73-.89-3.84-1.95-7.64-2.9-11.47-.47-1.89.03-3.5,1.53-4.83.75-.67,1.32-1.54,2.13-2.5-1.18-1.32-2.2-2.53-3.28-3.68-6.68-7.04-13.39-14.07-20.08-21.11-.46-.48-.85-1.06-1.39-1.4-1.36-.84-2.75-1.64-4.19-2.3-1.82-.83-3.01.7-4.31,1.47-1.76,1.05-3.39,2.33-5.07,3.51-.38.27-.72.67-1.14.83-3.5,1.29-7.02,2.54-10.66,3.84.12-.63.2-1.02.28-1.41.97-.11,1.94-.23,2.91-.35-.06-.23-.13-.46-.19-.7-.89.37-1.77.74-2.66,1.11-2.95.77-5.35,2.54-7.86,4.15-1.4.9-2.93,1.59-4.43,2.33-.89.44-1.79.52-2.57-.27,2.68-.02,4.87-1.07,6.63-3.03-2.5.37-4.8,1.16-6.56,3.06-.35-.14-.99-.25-1-.42-.18-2.15-.27-4.31-.39-6.47-.25-4.32-.5-8.64-.78-12.96-.07-1.13-.48-2.27-.35-3.36.36-2.97-.95-5.32-2.58-7.55-4.46-6.11-8.23-12.64-11.8-19.29-.4-.75-1.03-1.48-1.13-2.26-.27-2.35-2.02-2.95-3.81-3.57-2.23-.76-4.46-1.51-6.68-2.29-2.51-.87-3.21-1.77-3.04-4.38.19-3,.56-5.99.83-8.99.71-7.68,1.22-15.39,2.18-23.04.69-5.48-.75-10.23-3.79-14.62-.73-1.06-.89-1.99-.6-3.15.34-1.37.45-2.83.97-4.12.73-1.81,1.49-3.72,2.72-5.19,1.78-2.15,3.21-4.41,4.11-7.03,1.47-4.27,2.9-8.54,3.44-13.08.29-2.41,1.18-4.74,1.77-7.12,1.24-4.93,2.67-9.82,3.63-14.8,1.08-5.61,3.58-10.48,6.77-15.1,1.61-2.32,3.07-4.74,4.69-7.06.44-.63,1.22-1,1.76-1.56,1.69-1.76,3.64-3.37,4.94-5.39,1.68-2.61,4.07-3.44,6.81-3.99,1.93-.39,3.82-.97,5.76-1.33,2.39-.44,4.8-.81,7.22-1.07,2.53-.27,5.07-.41,7.61-.51,1.37-.05,2.75.12,4.11.59h-5.71c-.01.11-.02.23-.03.34,2.78.78,5.56,1.53,8.32,2.35,2.71.8,5.43,1.58,8.09,2.54,1.5.54,2.81.46,3.94-.57,1.74-1.58,3.55-1.77,5.66-.8,1.7.78,3.52,1.29,5.24,2.03,4.32,1.88,8.68,3.69,12.9,5.78,3.63,1.79,7.36,3.24,11.22,4.42,1.4.43,2.32.35,3.51-.72,2.59-2.34,5.71-3.19,9.19-2.07,1.25.4,2.54.7,4.06,1.11.85-3.02,1.87-5.95,2.48-8.96.52-2.61,2.05-3.86,4.43-4.52,4.37-1.21,6.1-2.25,9.36-5.18,2.63-2.36,5.68-3.64,9.28-3.01,2.13.37,4.24.84,6.35,1.32,2.65.61,5.21.66,7.62-.85,4.09-2.55,8.27-4.91,13.07-6.17-.52-3.99-1.05-7.87-1.52-11.75-.2-1.63-1.31-2.56-2.57-3.15-2.28-1.07-2.95-2.76-3.08-5.18-.19-3.37-.83-6.71-1.28-10.03-5.96-3.22-11.89-6.48-17.88-9.62-1.24-.65-2.21-1.3-2.65-2.71-.63-2.05-2-3.36-4.17-3.73-3.82-.65-6.05-2.97-7.34-6.55-1.81-5.05-3.82-10.02-5.77-15.09.83-.93,1.57-1.75,2.27-2.54-1.45-3.65-2.87-7.22-4.46-11.21-.42-.14-1.28-.52-2.18-.71-1.36-.3-2.43-.85-3.13-2.15-.68-1.27-1.7-1.47-3.11-.93-5.46,2.08-10.96,4.05-16.45,6.08-1.33.49-2.6,1.2-3.96,1.51-4.75,1.09-8.39,4.18-12.39,6.63-.2.12-.3.41-.52.72h1.66c-11.94,7.29-24.3,13.13-35.7,21.4,3.86,2.39,7.49,4.64,11.2,6.93-2.03,2.64-4.23,4.26-7.31,4.82-3.7.67-7.34,1.71-11.01,2.59-.27.07-.59.04-.83.17-3.52,1.99-7.03,4-10.55,5.99-.81.46-1.63.95-2.51,1.23-6.66,2.09-13.34,4.1-19.99,6.21-1.6.51-3.06,1.3-4.87,1.09-1.05-.12-2.01,1-3.51,2.87-.38.48-1.09.72-1.67,1.02-4.97,2.51-9.97,4.96-14.9,7.53-19.58,10.2-39.13,20.45-58.71,30.64-3.17,1.65-6.42,3.17-9.67,4.67-2.04.94-2.98,2.73-3.85,4.6-.31.66-.47,1.43-.93,1.97-2.31,2.74-4.69,5.42-7.06,8.11-.16.18-.44.25-1.2.68.9-1.38,1.48-2.28,2.14-3.3-1.81.81-3.2,1.92-3.84,3.74-2.25,6.4-7.48,9.37-13.19,11.95-3.74,1.69-7.43,1.64-11.28.45-3.48-1.08-7.04-1.91-10.92-2.94.41.94.7,1.58.97,2.22.36.87.84,1.71,1.02,2.62.52,2.58-.13,3.61-2.74,3.73-3.76.17-7.54.11-11.3-.03-1.69-.06-3.13.27-4.52,1.21-6.41,4.33-12.84,8.62-19.27,12.92-4.3,2.88-8.59,5.78-12.92,8.62-2.81,1.85-3.07,2.46-1.94,5.55.45,1.24.93,2.46,1.34,3.71,1.32,4.05-1.37,9.19-5.57,10.67l.04.02c.59-.69,1.19-1.38,1.8-2.09-1.69.25-3.33.59-4.99.71-1.64.12-3.3.03-5.11.03-1.11,4.29-2.29,8.52-3.28,12.8-1.92,8.26-4.01,16.49-5.45,24.83-.61,3.57-1.94,5.46-5.35,6.43-3.43.98-6.7,2.5-10.08,3.66-8.37,2.86-16.49,6.37-25,8.9-6.93,2.06-13.56,5.15-20.23,8-7.71,3.29-15.38,6.71-22.96,10.29-5.42,2.55-10.65,5.51-16.01,8.19-3.84,1.92-7.76,3.68-11.84,5.15,2.08-1.17,4.17-2.34,6.25-3.51-.04-.11-.07-.21-.11-.32-.64.2-1.3.34-1.91.61-8.8,3.88-17.46,8.01-25.42,13.47-2.25,1.54-4.66,2.86-7.02,4.24-1.71,1.01-3.41,1.98-4.37,3.87-.3.59-1,.97-1.52,1.45-.14-.13-.29-.26-.43-.39,1-1.29,1.97-2.61,3-3.87,3.77-4.59,7.56-9.15,11.32-13.74.27-.33.29-.85.43-1.28,1.05-.41,1.68-1.13,1.94-2.12-.16-.11-.33-.22-.49-.34-.47.84-.93,1.67-1.4,2.51-.69.57-1.48,1.06-2.06,1.73-4.19,4.85-8.33,9.74-12.51,14.59-.63.73-1.41,1.32-2.33,1.75,16.08-19.32,32.58-38.27,47.1-58.78,14.55-20.56,28.16-41.7,39.78-64.2,5.94-.37,11.83-.74,17.72-1.11,0-.13,0-.27,0-.4h-15.79c0-.1,0-.2,0-.3,8.53-.15,17.07-.19,25.59-.47,8.66-.28,17.31-.8,26.33-1.23-1.53-3.83-.43-6.73,2.02-9.24,1.63-1.67,3.79-2.11,6-2.47,4.33-.71,7.86,1.28,11.62,3.43,4.56-2.9,9.23-5.73,13.74-8.78,7.58-5.13,15.02-10.46,22.61-15.57,1.82-1.23,2.31-2.54,2.23-4.67-.15-4.32.12-8.66.15-13,.02-2.59.67-4.82,3.11-6.24-.14-.64-.22-1.19-.39-1.71-.39-1.21,0-1.99,1.16-2.48.78-.33,1.52-.74,2.26-1.15,1.72-.95,3.63-1.75,2.41-4.4-.12-.27.69-1.25,1.25-1.49,1.93-.86,3.66-1.75,4.12-4.12.21-1.08,1.15-1.77,2.27-1.84,2.16-.12,4.07-.8,6.02-1.73,1.56-.74,3.48-.7,5.22-1.08,1.9-.41,3.79-.91,5.69-1.36.23-.05.64-.14.68-.06.66,1.23,1.69.55,2.51.43,5.6-.79,11.17-1.78,16.79-2.43,4.01-.46,8.07-.53,12.11-.69,2.21-.09,4.18-.54,6.05-1.91,17.4-12.8,34.85-25.53,52.29-38.29,1.29-.95,2.58-1.91,3.8-2.94.48-.4.92-.95,1.18-1.53,1.41-3.07,2.73-6.18,4.16-9.25.31-.66.83-1.28,1.4-1.73,12.17-9.7,24.49-19.22,37.66-27.56,3.01-1.91,6.23-3.52,9.44-5.09,2.13-1.04,2.3-.94,3.69,1.06,2.38,3.42,5.33,6.29,8.38,9.32,3.47-2.7,6.79-5.29,10.28-8-.6-.9-1.08-1.7-1.63-2.44-10.47-14.01-18.66-29.23-24.38-45.75-1.04-3.01-1.66-6.17-2.35-9.29-.14-.63.01-1.56.41-2.03,3.91-4.58,7.9-9.1,11.88-13.65,2.61.75,3.1,3.35,4.85,4.88.58-.37,1.15-.66,1.64-1.06,8.2-6.52,16.62-12.74,25.68-18.03,2.68-1.57,5.5-2.9,8.25-4.36.74-.39,1.73-.69,2.11-1.33.61-1.01,1.39-1.1,2.35-1.16,7.81-.43,15.62-.87,23.44-1.3,4.43-.24,8.85-.46,13.28-.66,5.2-.23,10.34.27,15.46,1.21,3.89.72,7.82,1.26,11.73,1.86.26.04.54-.09,1-.17.08-.6.34-1.25.23-1.84-.36-1.85.39-2.98,1.91-3.98,2.39-1.56,4.66-3.31,7.41-5.29.72,1.07,1.29,1.91,1.86,2.76,2.4-1.13,4.58-2.16,7.03-3.32-.2-2.88-.42-6.04-.66-9.37-2.5-1.03-5.01-2.05-7.51-3.1-5.66-2.37-11.18-5-16.35-8.35-4.38-2.83-7.93-6.44-10.08-11.2-.83-1.84-1.12-3.95-1.5-5.97-.12-.61.29-1.33.52-2.26,3.37,2.1,5.73,4.99,8.93,6.62.12-.15.25-.3.37-.44-.4-.44-.77-.91-1.21-1.31-2.51-2.29-5.05-4.53-7.53-6.85-.75-.7-1.34-1.58-1.93-2.43-.64-.92-.72-1.89,0-2.97,2.17.35,3.6,2.56,6.1,2.33-1.7-2.3-3.34-4.42-4.87-6.62-3.19-4.57-6.07-9.34-8.1-14.55-2.64-6.76-4.29-13.65-2.71-21,.86-3.99,2.79-7.42,5.18-10.58,3.4-4.52,7.04-8.85,10.54-13.3,1.92-2.44,3.76-4.95,5.63-7.44,1.12-1.49,2.22-2.98,3.54-4.74.69,1.05,1.16,1.77,1.77,2.7.95-1.31.7-3.53,2.79-3.19.66-2.78,1.2-5.36,1.89-7.9.63-2.3,2-3.93,4.36-4.81,1.17-.44,2.26-1.38,3.09-2.36,4.59-5.38,8.99-10.92,13.64-16.25,7.27-8.31,15.71-15.2,25.58-20.25,4.16-2.13,8.43-3.15,13.1-1.8,7.62,2.22,14.91.69,22.07-2.16,7.57-3.01,14.59-7.02,21.52-11.25.64-.39,1.28-.82,1.85-1.3,1.4-1.17,1.48-1.71.77-3.43-.79-1.91-1.68-3.8-2.29-5.77-1.14-3.7-.14-6.67,2.94-8.99,3.8-2.86,8.11-4.36,12.87-4.5,2.5-.07,4.88.51,7.08,1.69,3.7,2,7.58,2.7,11.75,2.12,1.26-.18,2.57-.03,3.95-.03.19,2.97-3,3.02-3.53,5.26,1.27.47,2.52.25,3.74-.14,8.25-2.65,16.51-5.18,24.2-9.38,4.1-2.24,8.66-3.7,13.1-5.26,2.93-1.03,5.78-.53,8.17,1.68.97.9,1.95,1.78,2.97,2.61,2.26,1.83,4.62,2.67,7.55,1.34,3.16-1.43,6.41-2.76,9.74-3.72,1.93-.56,4.1-.4,6.16-.37.61,0,1.52.58,1.71,1.1.19.52-.14,1.52-.58,1.95-1.39,1.38-2.95,2.6-4.66,4.07,1.83.73,3.57.67,5.26.6,8.12-.33,16.23.08,24.3.83,8.88.82,17.57,2.83,25.37,7.25,4.39,2.49,8.38,5.78,12.26,9.05,4.18,3.52,8.08,7.36,11.97,11.21,1.73,1.71,3.11,3.75,4.89,5.93,2.13-1.47,4.36-2.98,6.56-4.53,15.05-10.56,30.1-21.13,45.15-31.7.38-.27.79-.59,1.22-.68,2.79-.54,4.92-2.26,7.17-3.82,5.89-4.08,11.9-8.01,17.65-12.29,2.21-1.64,4.29-3.64,5.06-6.64.75-2.9,3.04-4.79,5.57-6.1,4.1-2.12,8.51-2.32,12.94-1.16.94.25,1.78.91,2.61,1.36,1.77-6.56,3.53-13.07,5.41-20.01,2.11,2.61,1.71,5.07,1.27,7.72,3.72-2.28,6.75-5.25,10.24-8.06.49,2.34-1.34,3.75-1.72,5.9,1.77-.33,2.97-1.21,3.87-2.36,1.4-1.77,2.71-3.62,3.88-5.54.46-.75.61-1.78.58-2.68-.02-.47-.65-1.2-1.13-1.32-2.54-.67-3.5-2.04-2.67-4.39.3-.83.99-1.56,1.6-2.24.56-.63,1.23-1.17,1.91-1.67,1.97-1.44,3.97-2.84,6.42-4.59-1.37,4.12-2.58,7.78-3.96,11.95,1-.48,1.55-.71,2.06-1.01.32-.19.59-.47.84-.75,5.4-6.01,12.6-8.64,20.06-10.96,7.38-2.3,14.82-4.33,22.42-5.76,5.19-.98,10.38-1.87,15.69-1.92,1.37-.01,2.73-.49,4.1-.75.76,0,1.51,0,2.27,0,2.43.23,4.85.44,7.27.68,1.1.11,2.2.24,3.45.38-.34,1.95-.64,3.65-.98,5.66.58-.44,1.04-.64,1.26-.99,2.18-3.5,5.62-4.3,9.3-4.03,3.37.24,6.72.9,10.06,1.5,14.41,2.59,27.19,8.87,38.79,17.6,4.06,3.06,7.95,6.39,11.56,9.96,2.52,2.49,4.71,5.42,6.54,8.46,2.42,4.04,1.14,7.27-3.29,8.98-4.91,1.89-9.85,2.09-14.84-.07-6.39-2.77-12.88-5.31-19.28-8.06-.78-.34-1.25-1.38-1.85-2.07.85-1.48,2.3-2.59,1.29-4.77-2.5,2.83-5.53,2.32-8.69,2.03-8.26-.75-16.53-1.37-24.82-1.75-3.36-.16-6.76.41-10.14.69-1.97.16-3.92.41-5.92.83h9.12c0,.18,0,.36-.01.54-4.89-.14-9.78-.31-14.68-.41-1.21-.02-2.43.23-3.65.33-7.41.63-14.64,2.18-21.88,4.38,1.11.37,2.05.68,3.21,1.07-.38.67-.54,1.27-.92,1.53-.52.35-1.26.37-1.84.66-.7.34-1.3.93-2.02,1.21-.95.36-1.98.52-3.13.81.11.7.2,1.29.3,1.88-1.41,1.14-2.97,1.37-4.59,1.19-3.4-.38-6.55.21-9.49,2.02-.85.53-1.86.81-2.83,1.68,1.92.45,3.87.84,5.76,1.38,1.71.49,3.45,1,5.03,1.79,1.52.76,1.43,1.78-.04,2.71-.88.55-1.84.98-2.68,1.58-1.39.99-2.02,2.38-.4,3.73.33.27.51.72.99,1.43-3.72.88-7.24.49-10.99,1.25.92-2.97,4.11-2.49,5.21-4.67-.97-2.22-3.03-2.28-4.96-2.15-3.71.24-7.41.7-11.4,1.46.51.29,1.02.57,1.57.88-.94,1.71-2.42,1.71-3.76,1.91-2.79.42-5.62.65-8.38,1.22-1,.21-1.82,1.2-2.77,1.77-1.27.76-.69,1.89-.81,2.97-.35,2.97-1.64,5.67-4.13,7.39-2.8,1.93-6.02,2.74-9.42,1.82-1.3-.35-2.3-.17-3.42.56-18.49,12.05-37.03,24.02-55.5,36.1-12.08,7.9-24.05,15.95-36.06,23.95-3.06,2.04-3.21,2.7-2.02,6.06.94,2.65,2,5.3,2.53,8.05,1.16,5.98.05,11.71-3.24,16.82-3.7,5.77-5.94,11.96-6.43,18.78-.11,1.5-.1,3.01-.13,4.51-.02,1.51-.04,3.01-.02,4.52.06,4.32-2.5,6.89-6.15,8.25-5.11,1.9-10.35,3.5-15.6,4.98-2.12.6-3.83,1.5-5.12,3.24-3.14,4.24-6.38,8.42-9.38,12.75-3.41,4.91-6.16,10.18-7.11,16.17-.63,4-1.27,8.01-.55,12.08.39,2.19,1.15,4.13,2.76,5.75,7.55,7.6,16.64,11.48,27.37,11.53,9.05.04,17.91-1.26,26.3-4.66,4.25-1.72,8.19-4.23,12.2-6.49,2.3-1.3,4.45-2.83,6.68-4.25,4.01-2.55,7.45-5.75,10.66-9.24,1.98-2.15,3.96-4.32,6.13-6.27,2.98-2.69,5.37-5.81,7.43-9.21,2.05-3.38,4.1-6.75,6.03-10.2,1.4-2.51,1.08-5.16-.22-7.59-.88-1.64-2.04-3.16-3.19-4.64-1.24-1.59-1.28-2.45.16-3.86.47-.46,1.06-.79,1.57-1.2,1.68-1.32,1.77-2.08.28-3.69-1.02-1.11-2.2-2.07-3.26-3.15-2.15-2.18-2.06-2.94.6-4.89.29,1.13-1.89,1.86-.31,3.32,1.36-3.2,4.28-4.63,6.71-6.59,4.84-3.91,9.66-7.85,14.54-11.71,4.75-3.76,10.41-5.63,16.09-7.39,6.57-2.04,13.28-2.78,20.13-2.01,6.49.73,11.95,3.37,15.65,8.97.62.93,1.15,1.97,1.47,3.03,1.38,4.55,2.07,9.22,1.54,13.97-.61,5.42-1.39,10.82-2.11,16.23-.2,1.48.4,2.18,1.86,1.94.82-.14,1.61-.51,2.37-.88,3.78-1.86,7.79-2.83,11.97-3.04,4.45-.22,6.54,2.43,5.57,6.84-.64,2.92-2.01,5.48-4,7.7-3.15,3.51-6.32,6.99-9.51,10.46-.45.49-1.08.83-1.62,1.24-.15-.12-.3-.23-.45-.35,1.12-2.33,2.28-4.64,3.36-6.99.55-1.19,1.07-2.42,1.41-3.68.32-1.17-.06-2.27-1.13-2.96-1.04-.67-2.04-.24-2.87.43-2.29,1.82-4.61,3.61-6.76,5.59-5.36,4.94-11.27,9.16-17.35,13.13-4.04,2.64-8.16,1.81-12.07-.26-2.11-1.12-3.09-3.02-1.75-5.58-1.48.2-2.68.36-4.39.59.78-2.53,1.29-4.58,2.05-6.54.64-1.65.76-1.6.24-3.34,4.38-4.33,6.51-9.82,8.05-15.61.51-1.91,1-3.84,1.29-5.78.38-2.55.18-5.09-.85-7.5-1.02-2.39-2.29-2.99-4.71-2.06-1.31.51-2.62,1.12-3.79,1.89-5.59,3.69-11.17,7.38-16.66,11.2-2.4,1.67-2.52,2.73-1.16,5.28.88,1.67,1.88,3.27,2.76,4.94,1.12,2.15,2.14,4.34,2.01,6.94.47-.62.94-1.25,1.75-2.32.23,1.02.49,1.58.46,2.12-.63,10.49-4.42,19.97-9.45,29.02-1.82,3.29-3.81,6.51-5.97,9.58-5.09,7.24-12.17,11.99-20.14,15.52-3.28,1.45-6.58,2.84-9.84,4.33-6.48,2.95-13.36,3.88-20.37,4.16-2.73.11-5.47.19-8.19.41-.83.07-1.63.56-2.7.96,1.07,1.53,1.9,2.71,2.81,4-2.44,2.3-5.18.05-7.77,1.17.86.99,1.67,1.92,2.66,3.07-.59.48-1.08,1.13-1.71,1.34-5.18,1.7-10.34,3.48-15.6,4.93-5.12,1.41-10.34.91-15.39-.42-7.85-2.08-15.81-3.57-23.82-4.85-1.41-.22-2.74-.9-4.2-1.4-.75.58-1.6,1.72-2.61,1.89-1.2.2-2.61-.25-3.79-.75-4.16-1.76-8.28-3.64-12.38-5.54-1.79-.83-3.61-1.09-5.5-.58-2.08.56-3.95.14-5.54-1.26-2.04-1.81-4.08-3.63-5.99-5.58-1.62-1.66-3.36-2.93-5.63-3.59-4.85-1.41-8.67-4.56-12.25-7.91-5.51-5.16-10.74-10.6-15.21-16.72-.11-.15-.18-.37-.32-.46-3.95-2.34-4.14-6.4-4.75-10.27-.1-.65-.2-1.31-.19-1.97.03-2.35-.45-4.32-2.47-5.97-1.23-1-1.82-2.77-2.8-4.36-19.28,12.38-38.43,24.68-57.63,37.01v20.88c1.93,1.02,3.92,2.07,6.21,3.27.54-.8,1.11-1.64,1.86-2.77,3.23,2.33,6.15,4.31,8.9,6.51.5.4.38,1.7.35,2.58-.05,1.98.28,2.34,2.28,2.02,5.02-.82,10.02-1.89,15.07-2.43,4.1-.44,8.28-.39,12.41-.31,7.36.15,14.71.42,22.06.77,4.61.22,9.21.66,13.82,1.01.37.03.87-.04,1.1.17,3.48,3.12,8.13,4.21,11.89,6.85,7.33,5.15,14.71,10.22,22.05,15.34,1.53,1.07,2.99,2.24,4.61,3.47,1.5-1.71,2.87-3.29,4.51-5.16,4.57,5.11,8.87,9.93,13.39,14.98,2.36-2.84,3.06-6.37,5.33-9.05-.31.83-.58,1.67-.95,2.47-1.52,3.24-3.07,6.47-4.61,9.7-.34.73-.57,1.41.4,1.41-.14,2.26-.28,4.53-.46,7.44-.41-1.18-.64-1.85-.9-2.62-.22.15-.51.23-.6.42-1.37,2.79-2.82,5.55-4.03,8.41-4.81,11.32-10.51,22.15-17.49,32.28-3.42,4.96-6.86,9.92-11.88,13.89-6.19-2.22-11.11-6.96-17.18-10.35-.08.81-.22,1.41-.19,2,.89,16.95,1.79,33.9,2.69,50.86.46,8.57.93,17.14,1.39,25.71.22,4.14.47,8.29.59,12.43.07,2.43-.25,4.87-.14,7.3.35,7.53.83,15.06,1.27,22.59.02.27.14.54.33,1.21.95-.42,1.88-.75,2.71-1.23,7.11-4.09,14.2-8.22,21.3-12.32.37-.22.78-.38,1.4-.68.15.75.33,1.27.36,1.79.34,7.25.28,14.54,1.07,21.74,1.43,12.88,1.36,25.8,1.73,38.71.13,4.7.67,9.38.93,14.08.04.78-.25,1.65-.6,2.38-3.31,6.77-6.69,13.5-10,20.27-.41.83-.64,1.77-.8,2.69-1.77,10.22-3.49,20.44-5.29,30.66-.36,2.04.03,3.8.75,5.73,2.42,6.43,6.34,11.95,9.94,17.7,4.4,7.02,8.37,14.31,12.64,21.42,1.39,2.32,3.02,4.53,4.75,6.62,1.17,1.42,2.23,2.83,2.46,4.67.45,3.54,1.06,7.11-.69,10.52-.16.31-.28.77-.17,1.07,1.35,3.65,2.65,7.32,4.17,10.89.92,2.16,2.12,4.21,3.34,6.22,1.02,1.67,2.26,3.2,3.49,4.92-.1.25-.54.8-.44,1.22.27,1.09.65,2.19,1.22,3.15,1.12,1.88,1.02,3.71.34,5.7-1.05,3.09-2.63,5.74-5.06,8.02-2.02,1.9-3.57,4.3-5.32,6.48-.18.09-.37.19-.56.29-.36-.11-.72-.22-1.08-.33-.78.69-1.57,1.38-2.35,2.06l.08-.09ZM661.95,589.08c.44,6.27.74,12.55,1.35,18.8.78,8.01,1.21,17.36.36,18.98-.37-4.37-.72-8.28-1.01-12.19-.72-9.77-1.21-19.56-2.96-29.24-.79-4.35-1.92-8.49-4.54-12.05-1.23-1.67-1.94-3.43-2.22-5.4-1.71-11.94-3.38-23.89-5.13-35.82-.32-2.16-.22-4.44-1.42-6.75-.54.87-.93,1.49-1.32,2.11-1.55,2.49-3.04,5.02-6.41,5.35-.96.09-1.3.83-1.59,1.72-.77,2.32-1.66,4.6-2.55,6.88-.4,1.03-.92,2.01-1.33,2.89.87,1.41,2.69,1.96,1.87,3.99-1.84,4.54-3.5,9.16-5.23,13.75-1.27,3.35-3.28,5.89-7.1,6.44-.46.07-.89.33-1.34.43-1.22.27-2.09,1.03-2.43,2.16-.78,2.62-2.82,3.74-5.06,4.88-5.03,2.56-9.97,5.3-14.91,8.05-.55.31-1.08,1.06-1.19,1.68-.56,3.05-1.26,6.12-1.36,9.2-.09,2.51-1.02,4.02-3.17,5.09-1.54.77-2.2,2.15-2.39,3.9-.23,2.15-.72,4.27-1.1,6.41-.26,1.44-.52,2.88-.71,3.94,3.93,1.94,7.64,3.42,10.96,5.51,3.07,1.93,6.09,2.05,9.45,1.46,2.39-.42,4.85-.63,7.28-.64,1.32,0,2.66.88,3.98.86,2.22-.04,3.82.94,5.21,2.42,1.21,1.3,2.27,2.74,3.45,4.18.83-.14,1.7-.16,2.47-.44,1.17-.43,2.03,0,2.83.72,2.89,2.54,4.85,5.75,6.51,9.16.69,1.43-.24,4.1-1.39,5.11-2.28,2.01-4.46,4.13-6.95,6.45,3.67,1.11,6.88,2.07,10.09,3.05,2.32.71,2.57.83,2.59,3.03.03,2.63.96,4.96,1.81,7.36,1.28,3.63,2.45,7.31,3.69,10.96.38,1.11.85,2.2,1.28,3.29.05-3.35-.36-6.53-.73-9.7-.09-.74-.15-1.5-.1-2.25.24-3.19.52-6.38.81-9.56.06-.7.24-1.38.45-2.55,5.92,2.48,11.48,4.81,17.17,7.19-.06-1.06-.08-2.18-.2-3.3-.67-6.46-1.4-12.92-2.05-19.39-.64-6.37-1.27-12.75-1.82-19.13-.49-5.74-1.88-11.45-.61-17.25.08-.36,0-.75-.01-1.13-.06-3.85-1.86-7.17-3.29-10.61ZM733.38,291.22c-2.57-1.22-4.92-1.8-7.34-2.08-6.3-.74-12.58-.64-18.91-.02-10.54,1.03-20.95,2.55-30.94,6.27-6.23,2.32-12.28,4.98-18.22,8.44.54.31.87.48,1.17.68,1.89,1.23,3.9,2.31,5.62,3.74,2.32,1.92,2.37,3.84.45,6.12-.79.93-1.66,1.81-2.59,2.6-7.72,6.51-15.73,12.63-24.21,18.14-1.49.97-2.91,2.04-4.57,3.21,1.36,1.4.54,2.36-.37,3.24-.6.59-1.22,1.25-1.96,1.6-3.08,1.46-4.45,4.42-6.55,6.83.44.32.64.6.88.63,3.05.45,3.85,2.73,4.16,5.28.12.99-.28,2.03-.3,3.04-.01.68.02,1.71.42,1.95.6.36,1.56.29,2.32.16.51-.09.94-.59,1.41-.92,8.3-5.74,16.6-11.48,24.9-17.21,24.06-16.6,48.13-33.2,72.19-49.81.75-.52,1.44-1.11,2.43-1.88ZM728.46,322.74c.1.2.19.39.29.59,4.07-.67,7.98-2.03,11.79-3.55,3.85-1.53,7.54-3.45,11.36-5.22.17-2.75-.11-3.87-1.72-6.18-7.24,4.79-14.48,9.58-21.72,14.37ZM734.23,216.49c-5.36-.6-10.68-1.79-16.07-.61,5.31,1.65,10.71.78,16.07.61ZM893.88,327.52q5.49-.68,8.43,4.36c1.29-1.66,1.32-1.76.85-2.58-2.06-3.54-5.89-4.28-9.28-1.78ZM568.15,873.02l-.1.66c4.48,1.8,9.27,1.66,14.02,1.68-4.64-.78-9.28-1.56-13.92-2.34ZM462.43,764.51c2.7,3.47,5.53,6.82,8.83,9.74-2.4-3.75-5.17-7.16-8.83-9.74ZM843.27,411.52c.11.19.22.37.33.56,1.95-.96,3.89-1.91,5.84-2.87-.09-.18-.17-.36-.26-.53-1.97.95-3.94,1.9-5.91,2.85ZM513.13,765.21v-.3h-5.49c0,.1,0,.2,0,.3h5.49ZM778.86,436.35c.02.18.05.37.07.55,1.51-.2,3.03-.39,4.54-.59-.02-.18-.04-.35-.07-.53-1.51.19-3.03.38-4.54.57ZM376,822.59c.13.03.26.06.38.09v-4.76c-.13,0-.26,0-.38,0v4.67ZM957.25,178.85c0-.16-.01-.33-.02-.49-1.09.05-2.17.11-3.26.16l.04.33h3.25ZM664.06,590.52c-.17.07-.34.14-.5.21.37.9.74,1.81,1.11,2.71.17-.07.34-.14.51-.21-.37-.9-.74-1.81-1.11-2.71ZM405.86,812.78c.13.19.27.39.4.58.73-.44,1.46-.88,2.18-1.32-.1-.18-.2-.35-.31-.53-.76.42-1.52.84-2.28,1.26ZM750.29,906.17c.86.21,1.72.42,2.58.63-.67-.94-1.25-2.04-2.58-.63ZM374.87,805.54c.08,0,.17-.01.25-.02v-2.09c-.14,0-.28.02-.42.03.06.69.11,1.39.17,2.08ZM558.97,844.8c.05.27.1.54.14.81.64-.19,1.28-.37,1.92-.56-.03-.15-.07-.31-.1-.46-.65.07-1.31.14-1.96.21ZM903.66,374.24c.07.19.14.39.21.58.68-.26,1.36-.52,2.04-.77-.06-.16-.11-.33-.17-.49-.69.23-1.38.46-2.07.69Z"/>
</svg>