<?xml version="1.0" encoding="UTF-8"?>
<svg id="Layer_1" xmlns="http://www.w3.org/2000/svg" viewBox="0 0 1080 1080">
  <defs>
    <style>
      .cls-1 {
        fill: #002e72;
      }
    </style>
  </defs>
  <path class="cls-1" d="M612.98,870.24c-.79,3.11-1.55,6.23-2.37,9.34-2.03,7.69-4.17,15.34-6.11,23.05-1.73,6.87-3.23,13.79-4.9,20.68-.34,1.38-.29,2.47.67,3.65,2.18,2.68,2.21,5.53.87,8.76-1.56,3.73-2.67,7.65-3.82,11.54-.34,1.14-.13,2.43-.17,3.66-.04,1.04.41,1.79,1.32,2.33.57.33,1.05.82,1.62,1.15,3.72,2.09,4.75,5.41,4.06,9.34-.59,3.41-.57,6.79-.15,10.18.09.73.53,1.6,1.09,2.05,3.64,2.92,5.56,6.83,6.68,11.21,1.07,4.17-.27,7.6-3.32,10.52-1.98,1.9-3.99,3.81-5.71,5.93-2.61,3.23-4.93,6.7-7.48,9.98-2.88,3.7-4.04,7.81-3.68,12.48.37,4.87-.75,9.43-3.72,13.4-3.63,4.85-7.28,9.68-11.01,14.45-1.21,1.55-2.66,2.93-4.05,4.33-2.79,2.8-6.33,3.78-10.13,3.63-8.32-.33-16.63-.81-24.94-1.29-3.22-.19-5.82-3-7.24-6.74-2.56-6.75-1.41-13.09,1.86-19.13,1.84-3.39,4.3-6.44,6.43-9.67,1.19-1.81,2.43-3.61,3.4-5.54.53-1.05.7-2.35.78-3.55.31-5.06,2.47-9,6.73-11.8.5-.33.93-.92,1.17-1.48,1.53-3.68,3.69-6.83,7.19-8.89,1.04-.62,1.06-1.4.73-2.42-.66-2.07-1.43-4.13-1.82-6.26-.56-3.09-.41-6,1.15-9.05,2.51-4.9,3.61-10.33,4.13-15.82.07-.77-.46-1.61-.79-2.39-1.35-3.23-2.72-6.46-4.12-9.67-.64-1.48-.66-2.67.34-4.19.93-1.41,1.21-3.33,1.48-5.08.36-2.33.43-4.7.65-7.05.14-1.54.31-3.08.49-4.82,2.26-.56,4.6-1.15,6.98-1.74.78,1.26,1.26,3.05,2.37,3.63,1.87.97,4.13,1.18,6.6,1.8.21-1.35.52-2.5.56-3.66.44-12.87,1.21-25.74,1.16-38.61-.09-24.06-.66-48.11-1.01-72.17-.07-5.01-.37-10.04.85-14.98.04-.18.05-.38.06-.56.22-5.57.41-11.14.65-16.7.17-3.88.42-7.75.64-11.62.35-5.99-.27-11.9-1.18-17.81-1.82-11.88-3.55-23.77-5.22-35.68-1.3-9.28-2.49-18.58-3.66-27.87-.94-7.51-1.77-15.03-2.66-22.54-.09-.74-.24-1.47-.41-2.48-.96-.07-1.87-.19-2.77-.19-1.13,0-2.27.05-3.4.12-2.99.16-2.25-.48-5.36,1.24.44,2.26.9,4.58,1.34,6.89.16.84.36,1.68.38,2.52.02,1.4-.5,1.85-1.91,1.76-1.88-.12-3.75-.29-5.77-.44-.32.8-.67,1.46-.85,2.16-1.59,6.24-3.21,12.46-4.67,18.73-.39,1.69-.05,3.55-.41,5.25-2.63,12.31-5.37,24.6-8.04,36.9-5.67,26.08-11.24,52.19-16.99,78.25-3.96,17.93-8.23,35.79-12.25,53.71-2.59,11.54-5,23.12-7.48,34.69-.18.83-.25,1.68-.38,2.55.17.15.29.33.45.37,3.17.85,3.38,1.26,2.24,4.31-.69,1.86-1.37,3.72-2.11,5.72.82.45,1.54.86,2.28,1.23,3.23,1.64,5.29,5.61,4.22,9.84-2.07,8.15-3.7,16.42-5.45,24.65-.29,1.37-.36,2.83-.31,4.24.19,5.7,1.09,11.29,2.76,16.75.38,1.25,1.05,2.11,2.15,2.84,4,2.67,5.02,5.38,3.81,9.96-.51,1.95-.55,3.73.03,5.78.73,2.59.79,5.41.87,8.13.1,3.5-.02,7.01-.13,10.51-.05,1.73.6,2.98,1.76,4.27,2.21,2.45,4.16,5.14,6.19,7.75,1.45,1.87,1.57,3.97,1.07,6.21-1.52,6.83-2.86,13.71-4.56,20.5-1.73,6.88-4.07,13.53-8.25,19.43-2.32,3.27-5.37,4.92-9.16,5.56-2.05.35-4.11.64-6.15,1.04-.61.12-1.17.49-1.76.74h-3.41c-.9-.2-1.8-.53-2.71-.59-3.49-.2-6.53-1.47-9.55-3.21-9.3-5.37-13.87-14.15-17.53-23.63-1.05-2.73-.8-5.6.05-8.38.34-1.11.23-1.96-.66-2.81-4.55-4.34-5.83-10.05-6.42-15.97-.47-4.7.65-9.01,3.63-12.79,1.76-2.23,3.31-4.62,5.13-6.8,2.85-3.41,4.74-7.29,6.04-11.48.24-.77.14-1.67.13-2.5-.05-2.36-.2-4.73-.17-7.09.01-1.02.1-2.23.64-3.01,2.06-2.97,2.01-6.45,2.62-9.76.77-4.19,1.2-8.44,1.96-12.63.29-1.61,1.08-3.12,1.65-4.68.21,0,.42,0,.64-.01-1.37-3.92-2.72-7.84-4.1-11.75-1.36-3.83-2.75-7.64-4.07-11.32,1.06-1.39,1.84-2.57,2.79-3.6.89-.95,1.96-1.74,3.19-2.8-.91-1.65-1.8-3.5-2.92-5.2-.74-1.12-.84-2.07-.04-3.1.76-.97,1.42-2.09,2.39-2.8,1.13-.82,2.54-1.26,4.21-2.04-.19-3.05-.36-6.62-.65-10.19-.89-11.04-1.84-22.08-2.72-33.13-.91-11.33-1.77-22.66-2.66-33.98-.47-6.03-.91-12.07-1.46-18.09-.27-2.92-.88-5.8-1.17-8.72-.53-5.27-1.3-10.55-.39-15.85.46-2.69.89-5.43,1.78-7.99,2.13-6.09,4.89-11.89,8.55-17.26,1.65-2.41,2.92-5.08,4.36-7.63,1.35-2.39,2.85-4.71,4-7.19,1.82-3.94,3.48-7.96,5.07-12,3.43-8.72,5.13-17.87,5.57-27.15.33-6.96,1.35-13.96.31-20.95-.09-.62-.18-1.24-.31-2.11-.95.48-1.69.85-2.71,1.37-.68-.72-1.42-1.51-2.32-2.45.82-.77,1.48-1.39,2.27-2.13.81.68,1.5,1.27,2.63,2.22v-20.04c-3.6-.8-3.61-.79-4.73,1.53.39.32.82.65,1.24,1,.28.23.81.56.77.72-.47,1.77-.79,3.64-1.66,5.21-.52.94-2.88-.46-2.95-1.82-.02-.34.15-.7.38-1.63-1.43.69-2.47,1.2-3.72,1.8-.48-.18-1.17-.43-2.02-.75-.21.49-.51.96-.61,1.47-.36,1.83-.62,3.68-.96,5.51-.26,1.37-.9,2.67-.22,4.13.46.98-.19,1.58-1.09,1.94-1.11.44-1.62-.24-1.89-1.11-.74-2.4-.52-4.8-.04-7.24.47-2.37,1.02-4.82-.71-6.83.57-1.55,1.11-2.98,1.8-4.85-2.05-.09-3.6-.16-5.31-.24-.35,3.21-.91,6.18-.95,9.17-.05,3.4.23,6.81.6,10.19.17,1.57.71,3.16,1.41,4.59.89,1.81.73,3.22-1.05,4.75-.66-.8-1.41-1.49-1.89-2.34-2.02-3.56-2.42-7.53-2.63-11.52-.06-1.02,0-2.05,0-3.22-1.55-.28-2.82-.52-4.32-.8-1.72,2.41-.73,4.62.08,6.79,1.3.25,2.38.47,3.72.73-.22,1.22-.4,2.18-.59,3.23-1.05.08-1.87.14-2.79.21-.03,4.08,1.58,7.49,3.95,10.6,1.89,2.49,1.91,2.61-.51,5.47-3.14-1.77-4.07-5.45-6.77-7.64-.41.22-1.06.87-1.69.86-.64-.01-1.27-.68-1.86-1.03.11-1.92.65-3.29,2.78-3.22.03-.56.09-.93.07-1.3-.11-2.27-.72-4.41-1.74-6.44,1.17-2.23-.02-4.34-.16-7.18-.67.99-1.26,1.48-1.2,1.84.44,2.45-1.31,3.49-2.84,4.7-.36.29-.68.63-1.06.99.77,2.78,1.36,5.56,3.82,7.32-1.67,3.72-1.06,6.95,1.4,9.99,2.06,2.55,3.96,5.23,6.14,8.12-.36.67-.83,1.55-1.23,2.29-1.58.37-2.3-.48-3.09-1.35-2.59-2.87-4.9-5.97-6.8-9.33-.73-1.28-1.23-2.75-1.49-4.2-.38-2.1-1.58-4.01-1.07-6.35.24-1.09-1.04-1.96-2.06-1.87-1.32.11-2.6.76-3.71,1.12.76,2.4,1.32,4.58,2.14,6.65.55,1.38-.94,2.67.16,4.07.86,1.1,1.01,2.54,1.27,3.95.25,1.37,1.41,2.6,2.24,3.85.72,1.09,1.51,2.15,2.32,3.19.63.81,1.29,1.61,2.02,2.34,1.4,1.39,2.86,2.72,4.42,4.2-.61,1.15-1.11,2.11-1.82,3.45-1.1-.85-2.01-1.45-2.78-2.18-1.1-1.04-2.01-2.29-3.14-3.28-3.14-2.72-5.47-6.14-7.08-9.82-1.26-2.89-2.66-5.99-2.24-9.4.06-.53-.12-1.14-.35-1.64-1.34-2.81-2.79-5.57-4.09-8.4-.74-1.61-1.4-3.27-1.89-4.97-.42-1.42-.89-2.53-2.39-3.24-2.13-1-2.52-1.97-1.49-3.79,2.02-3.57,1.03-6.56-1.51-9.65,2.23-2.43,1.31-5.6,1.85-8.68h-2.84c0,2.26-.01,4.38,0,6.5.01,1.61.04,3.22.1,4.82.05,1.33.09,2.49-1.05,3.63-.62.62-.69,2.15-.48,3.16.93,4.44,2.48,8.69,4.02,12.97,1.33,3.69,3.39,6.62,5.56,9.7,1.61,2.28,2.7,4.94,4.11,7.62-.29.47-.69,1.08-1.04,1.72-.49.88-1.24,1.11-2.16.9-.9-.21-1.29-.78-1.66-1.67-1.16-2.73-2.55-5.35-4.17-7.86,2.83,8.4,6.67,16.33,11.08,23.99-11.77-16.35-17.41-35.31-22.78-54.61-1.81,1.14-.82,2.68-1.34,3.8-.1-.04-.31-.06-.33-.13-1.11-5.17-2.18-10.35-3.3-15.52-.32-1.45-.88-2.85-1.18-4.3-.64-3.14-1.13-6.31-1.77-9.46-.34-1.66-.69-3.35-1.31-4.92-5.19-13.12-8.01-26.79-9.62-40.76-.69-6.01-1.41-12-1.13-18.06.02-.46-.11-.93-.23-1.38-.04-.14-.26-.24-.64-.57-.24,1.01-.55,1.87-.63,2.76-.97,9.72-1.3,19.47-.83,29.23.34,7.08.8,14.16,1.19,21.24.05.84,0,1.69,0,2.72-1.71.33-2.39,2.79-4.84,1.97-.25-4.55-.55-9.15-.74-13.75-.19-4.54-.3-9.08-.41-13.63-.1-4.53.04-9.08-.45-13.58-.31.01-.62.03-.93.04.24,13.55.47,27.09.72,40.85-.62.18-1.4.4-2.36.68.65,1.99.72,3.78-1.83,4.71-1.31-1.27-3.57-1.98-2.86-4.7-1.92-3.85-.81-7.91-.77-11.88.03-3.97.31-7.95.72-11.9.78-7.72,1.73-15.43,2.61-23.14.04-.38.1-.75.15-1.13.1-.77.22-1.69-.85-1.68-.38,0-.99.82-1.09,1.34-.42,2.33-.7,4.68-1.02,7.02-1.44,10.6-2.71,21.23-3.05,31.93-.03,1.04.03,2.08,0,3.12-.02.65.1,1.53-.26,1.91-1.45,1.5-1.11,3.27-1.08,5.04.05,2.55.01,5.1.01,7.89-.75.45-1.6.97-2.91,1.76-.27-1.23-.59-2.07-.61-2.92-.33-16.01.13-31.98,1.91-47.9.11-.94.23-1.89.24-2.83.03-1.75-.73-2.73-2.09-2.82-1.33-.09-2.26.77-2.57,2.48-.22,1.21-.41,2.43-.52,3.66-.98,10.65-2.15,21.29-2.83,31.96-.46,7.25-.26,14.54-.27,21.81,0,1.89-.43,3.35-2.43,3.97-1.52-.87-1.34-2.36-1.32-3.76.2-14.56.42-29.12.63-43.68.01-.85.19-1.75-.04-2.54-.17-.59-.84-1.43-1.32-1.45-.5-.02-1.39.74-1.49,1.28-.36,2.05-.53,4.13-.66,6.21-.44,7.09-.63,14.2-1.31,21.26-.55,5.68-.14,11.31-.05,16.96.05,3.35-.56,6.69-.09,10.08.09.64-1.17,1.47-1.8,2.21-.21-.07-.41-.13-.62-.2-.22-2.96-.61-5.91-.63-8.87-.07-9.74-.26-19.49.09-29.22.35-9.84,1.29-19.65,1.97-29.48.06-.85.19-1.7.2-2.55,0-1.18-.56-1.99-1.79-2.17-1.22-.18-2.1.43-2.31,1.91-.41,2.91-.74,5.83-.98,8.75-.81,9.72-1.35,19.47-2.47,29.15-.42,3.61-.43,7.1-.1,10.65.03.38.11.79-.01,1.13-1.83,5.09-.11,10.1.35,15.12.12,1.28.26,2.37-.64,3.44-.77.92-.85,1.99-.5,3.21.43,1.49.6,3.07.92,4.84-.64.48-1.36,1.01-2.34,1.73-.31-.87-.65-1.43-.71-2.02-.9-8.76-1.39-17.54-1.37-26.35,0-2.84-.27-5.67-.34-8.51-.33-14.69.33-29.35,1.6-43.99.12-1.33.65-2.86-.83-3.95-1.73.22-2,1.56-2.13,2.89-.65,7.07-1.36,14.14-1.84,21.22-.35,5.19-.29,10.41-.56,15.61-.08,1.53-.95,3.05-.92,4.56.1,4.43.45,8.86.73,13.29.08,1.32.35,2.64.39,3.96.02.72-.03,1.61-.43,2.14-1.12,1.47-.88,3.03-.64,4.62.48,3.18.95,6.36,1.46,9.54.22,1.38.14,2.56-1.07,3.57-.47.39-.81,1.36-.68,1.95.42,1.93,1.07,3.82,1.69,5.89-.77.63-1.55,1.27-2.25,1.84-.37-.08-.63-.05-.71-.16-2.03-2.77-3.8-5.71-3.4-9.29.13-1.2,1.13-2.29,1.82-3.61-.46-3.5-1.03-7.24-1.41-10.99-.24-2.31-.21-4.63.79-6.85.24-.54.08-1.29.04-1.93-.1-1.42-.16-2.84-.39-4.24-1.01-6.24-.51-12.47.06-18.69.46-4.96-.03-9.79-.95-14.67-.93-4.92-1.32-9.94-1.94-14.91-.07-.54-.13-1.07-.43-1.62-1.71,5.73-1.65,11.62-1.86,17.51-.21,5.94-.69,11.86-1.06,17.87-1.37.47-2.42-.52-3.57-1.09-3.9-1.92-7.75-3.96-11.71-5.75-1.85-.84-3.9-1.21-5.89-1.81-1.48,2.73-2.63,5.22-4.12,7.51-1.9,2.92-3.92,5.8-6.15,8.48-3.15,3.77-6.58,7.31-9.82,11.01-3.01,3.44-6.18,6.66-10.06,9.13-3.99,2.54-7.9,5.22-12,7.56-3.63,2.07-7.63,3.3-11.89,4.1-1.03-2.24-3.03-2-5.17-1.93.05.93.1,1.73.17,2.9-1.52-.17-2.89-.32-4.26-.48-.36-.04-.72-.18-1.09-.18-2.76-.03-2.91-.27-1.54-2.91-1.17-.08-2.25-.16-3.45-.24v2.97c-.85-.05-1.68-.06-2.49-.16-.99-.12-1.73-.49-2.02-1.64-.25-.99-.76-1.94-2.03-2.1-3-.36-5.99-.77-9.17-1.18.11.81.21,1.47.36,2.51-1.68-.26-3.11-.48-4.73-.74.44-.83.74-1.38,1.19-2.24-2.19-.47-4.18-.89-6.21-1.33-.54.88-.97,1.58-1.52,2.48-1.37-.26-2.73-.52-4.2-.81v-2.8c-1.45-.35-2.98-.72-4.61-1.12-.39,1.09-.7,1.94-1.06,2.96-1.09-.09-2.1-.18-3.22-.27-.46-1.42-.89-2.73-1.32-4.05-7.05-2.14-14.11-4.25-21.15-6.43-9.41-2.91-18.74-6.03-27.66-10.27-1.77-.84-3.24-1.89-4.47-3.37-3.71-4.51-6.65-9.42-8.09-15.15-.5-2.01-1.16-3.98-1.78-5.96-.29-.94-.09-1.64.72-2.22,2.16-1.53,4.25-3.17,6.47-4.61,17.05-11.1,32.96-23.59,46.79-38.59.45-.48.87-.99,1.37-1.56-1.78-4.36-1.53-8.87-1.16-13.42.28-3.49.39-7,.5-10.5.03-.83-.13-1.71-.38-2.51-1.89-6.13-2.36-12.46-2.45-18.81-.09-6.53.02-13.06.18-19.58.06-2.45.33-4.92.8-7.33,1.29-6.59,2.65-13.17,4.15-19.72,1.12-4.92,3.12-9.51,5.6-13.91,2.7-4.78,5.05-9.77,7.97-14.4,3.73-5.91,7.53-11.8,13.09-16.32,3-2.44,5.67-5.3,8.4-8.06,3.91-3.94,8.35-7.1,13.3-9.58,1.42-.71,2.73-1.61,4.18-2.48-1.88-1.81-3.59-3.44-5.28-5.08-1-.97-2.12-.54-3.21-.28-2.67.64-5.33,1.3-7.99,1.98-4.17,1.07-8.41,1.51-12.68,1.1-6.68-.65-13.35-1.45-20.02-2.23-2.77-.32-4.41-1.96-5.05-4.66-.88-3.7-.47-7.39.51-10.96,2.37-8.67,4.93-17.3,7.45-25.93.26-.9.58-1.87,1.17-2.55.49-.56,1.49-1.12,2.13-.99,1.16.24,2.17.71,3.47.41.97-.22,1.6.87,1.27,2-.21.72-.62,1.38-.97,2.05-2.96,5.56-3.86,11.39-2.64,17.61.94,4.76,3.46,8.16,8.04,9.82,2.03.74,4.16,1.34,6.3,1.65,5.18.76,10.35.26,15.65-.26-.1-.71-.11-1.18-.25-1.61-2.45-7.67-2.75-15.43-1.08-23.28.87-4.07,1.79-8.13,2.72-12.19.17-.72.32-1.69.83-2.05,1.66-1.19,2.17-3.04,3.09-4.66,5.45-9.63,12.09-18.12,22.16-23.37,6.4-3.34,13.13-5.3,20.43-5.01,2.65.1,5.3-.08,7.95-.11,3.66-.03,7.05.82,10.37,2.47,1.97.98,4.2,2.3,6.66.69.41-.27,1.61.04,1.93.47.33.44.26,1.48-.04,2.04-2.8,5.15-5.66,10.28-8.58,15.37-1.18,2.05-2.46,4.05-3.84,5.97-1.2,1.69-2.56,3.28-3.93,4.84-.79.9-1.98,1.19-2.68.14-.68-1.03-1.47-1.22-2.53-1.4-1.57-.26-2.85-1.18-3.41-2.7-.48-1.29-1.34-1.58-2.57-1.77-11.62-1.82-21.83,1.74-31.46,7.92-2.47,1.58-3.72,3.45-3.97,6.34-.86,10.12.31,19.83,5.47,29.22,1.66-.32,3.39-.63,5.12-.99,8.98-1.9,17.92-3.97,26.94-5.67,9.67-1.82,19.36-1.92,29.06.18,6.68,1.45,12.82,3.99,18.24,8.16,1.6,1.23,3.26,2.18,5.2,2.76,1.57.47,3.13,1.13,3.56,3.32-1.06-.51-2.11-1.02-3.17-1.53-.08.17-.17.33-.25.5,1.74,1.24,3,3.33,5.77,2.73,1.38-.3,2.76-.5,4.07.52.42.33,1.28.26,1.91.15,2.79-.49,5.55-1.16,8.36-1.57,4.43-.65,7.24-6.5,5.86-10.47-3.26.6-6.3,1.75-9.21,3.42-1.79,1.03-3.68,2.05-5.66,2.54-6.59,1.62-13.15-3.87-11.29-10.75.56-.08,1.18-.25,1.82-.26,4.39-.08,8.63-1.04,12.78-2.37,3.24-1.03,6.5-2.05,9.66-3.28,1.92-.75,3.74-1.82,5.52-2.89,1.8-1.09,3.1-2.66,3.97-4.91-1.73-.21-3.21-.31-4.66-.58-5.86-1.07-11.73-2.09-17.55-3.35-1.59-.34-3.22-1.22-4.45-2.29-2.97-2.56-4.51-6.04-5.32-9.82-.44-2.05.12-2.68,2.13-3.2,1.74-.44,3.29-.26,4.9.61,6.91,3.75,14.1,6.89,21.46,9.65,1.77.66,3.59,1.19,5.42,1.66,2.96.75,3.84.33,5.74-2.62-.77-.82-1.5-1.81-2.43-2.54-2.01-1.58-4.12-3.03-6.2-4.51-3.07-2.2-6.26-4.25-9.18-6.64-1.64-1.35-2.94-3.17-4.21-4.9-.92-1.25-1.07-2.72-.68-4.33.42-1.73.33-3.59.72-5.33.53-2.34,1.87-2.67,3.61-.98.82.79,1.57,1.64,2.29,2.52,4.34,5.3,9.69,9.57,14.6,14.29,1.69,1.62,3.79,2.82,5.69,4.24,3.87,2.88,7.75,5.74,11.58,8.68,1.73,1.33,3.67,1.46,5.66,1.18.66-.09,1.33-.63,1.86-1.12,1.05-.96,2.04-1.98,2.98-3.04,3.07-3.45,6.91-4.61,11.29-3.45,2.1.55,3.59.04,5.19-1.19,3.67-2.84,7.7-5.26,11.07-8.4,4.42-4.12,8.36-8.75,12.46-13.2,1.91-2.07,3.92-4.08,5.01-6.81-5.2-.43-12.75,5.17-16.14,14.93-2.62.51-5.33.86-8.07.42-1.68-.27-2.23-.89-1.87-2.51.32-1.45.87-2.92,1.64-4.18,2.14-3.51,4.78-6.59,8.42-8.68.31-.18.57-.42,1.35-1.01-6.27-.32-11.95-.71-17.7.95-.66,2.25-2.39,3.4-4.65,3.92-1.45.33-2.33,1.23-3.21,2.5-2.57,3.74-5.44,7.26-8.12,10.92-.87,1.19-1.71,2.48-2.23,3.85-.42,1.11-.86,1.8-2.1,1.91-.53.04-1.09.31-1.54.61-1.13.78-2.29.77-3.52.35-.43-.14-.88-.27-1.33-.29-2.14-.06-3.38-1.19-3.16-3.21.12-1.09.53-2.21,1.04-3.19,2.34-4.54,4.6-9.13,9.01-12.7-.98-.22-1.5-.33-2.04-.45.09-.1.21-.3.28-.29,2.49.5,3.86-1.01,5.1-2.8,4.84-6.94,11.52-11.07,19.72-12.88,5.48-1.21,10.99-1.16,16.26.68,3.91,1.36,6.95.21,9.56-2.33,3.2-3.11,5.63-6.65,6.44-11.35,1.31-7.6,3.91-14.81,8.29-21.27.21-.31.36-.65.64-1.16-.74-.32-1.4-.62-2.07-.9-1.31-.55-2.65-1.04-3.92-1.66-8.75-4.28-17.56-8.44-26.21-12.91-16.86-8.7-32.04-19.81-45.79-32.85-9.22-8.73-18.1-17.8-26-27.78-3.06-3.87-6.02-7.79-8.2-12.25-.31-.63-.85-1.29-1.46-1.6-1.39-.7-1.37-1.73-.84-2.84,1.18-2.48,2.25-5.04,3.74-7.33,2.43-3.72,5.08-7.3,7.78-10.84,1.8-2.35,1.87-2.09,4.79-1.33,2.45.64,5.02.95,7.55,1.17,10.58.93,21.01,2.69,31.34,5.19,13.54,3.27,26.94,7.01,39.94,12.07,1.2.47,2.15.49,3.14-.36.64-.56,1.29-1.18,2.04-1.53,3.27-1.52,3.42-4.08,2.5-7.05-.48-1.53-1.07-3.03-1.46-4.59-.16-.66-.21-1.62.15-2.08,2.04-2.58,4.21-5.08,6.37-7.56,1.31-1.5,2.69-2.93,4.03-4.4,1.08-1.18,2.27-1.88,4.01-1.45,1.82.45,3.04-.24,4.21-1.9,13.37-18.96,26.78-37.9,40.34-56.73,4.81-6.68,10.04-13.05,15.12-19.54.5-.64,1.31-1.03,1.9-1.61.79-.77,1.84-1.49,2.17-2.44.43-1.22,1.19-1.87,2.17-2.45,3.58-2.13,7.16-4.25,10.73-6.4.74-.45,1.61-1.15,2.2-.21.32.5.07,1.66-.32,2.27-3.55,5.48-7.12,10.97-10.83,16.34-16.1,23.3-32.25,46.56-48.37,69.85-.52.75-1,1.54-1.77,2.73,1.22,0,2.02.03,2.81,0,2.36-.1,4.73-.36,7.09-.28,1.65.06,2.79-.41,3.99-1.55,9.34-8.87,18.69-17.73,28.16-26.46,6.13-5.65,12.45-11.08,18.69-16.62.63-.56,1.24-1.15,2.01-1.87-.44-1.33-.77-2.7-1.34-3.97-.59-1.33-.37-2.21.71-3.23,1.43-1.34,2.59-2.96,3.93-4.41.63-.69,1.32-1.4,2.12-1.84,3.58-2,6.41-4.8,9.07-7.88,1.21-1.4,2.96-2.32,4.44-3.5,3.03-2.43,6.12-4.77,9.97-5.76,1.36-.35,2.77-.65,4.16-.71,1.52-.06,2.71-.64,3.86-1.55,5.57-4.41,11.2-8.74,16.74-13.19,13.91-11.16,28.45-21.41,43.98-30.21.4-.23.75-.53.79-.55,0-3.24-.33-6.19.06-9.05,1.58-11.7,9.24-19.98,21.41-20.18,2.64-.04,5.35-.1,7.92.42,9.21,1.86,15.19,7.31,17.35,16.59.92,3.95,1.8,7.88,1.04,12.06-1.71,9.36-8.68,16.42-18.13,17.99-.92.15-1.84.34-2.87.53-.32,1.26-.61,2.44-.9,3.63-4.41,17.95-10.1,35.51-15.82,53.07-.99,3.03-1.49,6.22-2.28,9.31-.49,1.92-1.07,3.82-1.7,5.7-.41,1.23-.42,2.35.06,3.58.93,2.38,1.8,4.79,2.55,7.23.44,1.43.61,2.95.85,4.44.17,1.05.15,1.94-.97,2.7-.68.46-1,1.54-1.34,2.4-2.45,6.16-4.79,12.36-8.23,18.07-.86,1.42-1.8,2.35-3.47,2.51-.56.05-1.1.37-1.66.38-3.63.06-5.02,2.24-6.09,5.45-5.5,16.44-11.83,32.56-18.76,48.45-1,2.29-1.32,4.31-.31,6.73,1.23,2.93,1.96,6.06,3.03,9.48.66-.75,1.07-1.12,1.37-1.56,9.18-13.57,18.59-26.99,27.45-40.77,10.14-15.77,19.78-31.86,29.66-47.8,1.15-1.85,2.38-3.65,3.62-5.43.69-1,1.56-1.72,2.88-.82.52,3.04,1.09,6.09,1.52,9.16.09.66-.17,1.47-.52,2.06-1.21,2.03-2.56,3.96-3.8,5.97-3.67,5.96-7.35,11.92-10.95,17.92-10.14,16.88-20.19,33.81-30.4,50.65-2.93,4.84-6.25,9.45-9.38,14.17-.67,1.01-1.3,2.04-1.79,2.82,2.71,1.65,5.23,3.23,7.8,4.73,1.06.62,1.41,1.45,1.16,2.6-.16.73-.15,1.54-.46,2.19-1.57,3.34-3.27,6.62-4.82,9.96-1.03,2.21-2.87,3.24-5.08,3.61-2.89.49-5.8.9-8.72,1.11-1.59.12-2.31.69-2.73,2.23-.82,3.01-1.87,5.95-2.9,9.17,1.77,1.29,3.68,2.67,5.58,4.05,12.67,9.21,24.69,19.14,35.07,30.97,4.99,5.68,8.9,12,12.13,18.79.56,1.18,1.07,2.27,2.36,3.03,1.42.83,1.5,2.61,1.3,4.1-.56,4.12-1.15,8.24-1.99,12.3-.53,2.55-1.52,5.01-2.4,7.83.84-.35,1.52-.55,2.12-.9,10.32-6.03,18.15-14.46,23.87-24.9.36-.66.66-1.37,1.05-2.02,2.02-3.38,5.84-4.67,9.31-3.14,3.58,1.57,5.29,5.4,3.88,9.22-2.86,7.76-6.55,15.11-11.53,21.76-4.11,5.48-8.59,10.58-14.13,14.92.62-.16,1.26-.27,1.86-.49,7.2-2.63,14.39-5.28,21.58-7.92.27-.1.6-.14.78-.33,2.52-2.51,6.07-3.82,8.1-6.88,1.43-2.16,3.15-3.97,5.52-5.14,1.78-.88,2.27-2.74,2.86-4.41.55-1.54,1.46-2.36,3.18-2.38.81.6,1.13,1.4.73,2.41-1.2,2.96-2.09,6-5.41,7.63-1.88.93-3.49,2.58-4.23,4.8,3.09.38,5.86-.93,7.48-3.15,1.6-2.21,3.56-4.16,5.11-6.4,1.22-1.76,2.25-3.72,3.03-5.72.65-1.65,1.59-2.44,3.71-2.46.01.95.26,1.89,0,2.66-1.07,3.13-2.16,6.24-4.83,8.53-1.18,1.01-1.97,2.46-3.19,4.03,3.15-.11,5.41-.46,7.03-3.26,2.42-4.17,5.4-8.01,6.67-12.77.42-1.58,1.62-1.89,2.91-2.03,1.14,1,.62,1.97.31,2.96-1.2,3.82-2.84,7.42-5.19,10.68-.54.75-.96,1.58-1.74,2.87,1.91-.09,3.41.03,4.8-.31.77-.19,1.52-1.03,1.99-1.77,2.79-4.33,4.67-9.08,6.21-13.97.2-.63.47-1.25.62-1.89.37-1.66,1.36-2.37,3.37-2.12.07,3.62-1.6,6.74-2.77,9.93-1.16,3.16-2.72,6.17-4.12,9.28,3.94.56,4.2.62,5.68-2.65,1.64-3.6,2.92-7.37,4.27-11.1.64-1.78,1.19-3.6,1.61-5.45.43-1.91,1.37-3.06,3.49-3.05,1.32.95.69,2.2.34,3.31-2.02,6.29-3.25,12.87-6.93,19.05,1.28.2,2.26.51,3.2.44.62-.05,1.44-.51,1.75-1.03,2.42-4.09,4.34-8.37,5.16-13.12.55-3.16,1.49-6.26,2.26-9.38.09-.37.21-.73.35-1.08.48-1.17,1.58-1.55,2.55-1.2.51.18.79,1.32.94,2.08.1.51-.21,1.1-.34,1.65-.89,3.77-1.62,7.6-2.73,11.3-.95,3.16-2.34,6.18-3.55,9.26-.24.6-.57,1.15-1.04,2.09,1.42.23,2.57.42,3.86.63,2.84-5.27,5.48-10.42,6.25-16.38.5-3.84,1.52-7.6,2.28-11.4.33-1.66,1.56-1.95,3.01-2.11,1.14,1.07.85,2.37.59,3.67-.92,4.54-1.64,9.13-2.82,13.6-.91,3.45-2.39,6.76-3.67,10.11-.37.95-.95,1.82-1.52,2.89.65.33,1.09.69,1.59.79,13.2,2.73,24.68,8.85,34.88,17.57.68.58,1.61,1.07,2.48,1.2,11.61,1.75,22.57,5.55,33.12,10.56,7.34,3.49,14.66,7.02,21.79,10.92,5.06,2.77,9.7,6.26,13.92,10.25,2.06,1.95,4.07,3.96,6.03,6.02.75.78,1.44,1,2.5.73,4.62-1.17,8.99-2.95,13.14-5.26.73-.41,1.43-.97,1.97-1.61,4.21-5.03,7.94-10.36,10.38-16.53,1.75-4.42,2.05-9.02,1.91-13.69-.04-1.33-.12-2.65-.21-3.97-.09-1.29.25-2.2,1.73-2.43.44-.07,1-.51,1.19-.93.79-1.68,2.21-2.54,3.8-3.22,2-.86,4.02-1.67,6.02-2.53,3.66-1.57,7.26-3.25,10.33-5.86.92-.78,1.92-.87,2.82-.06.92.83.89,1.87.13,2.8-.72.87-1.53,1.67-2.34,2.46-.65.64-1.35,1.22-2.19,1.96,4.11.38,6.36-1.25,6.86-4.74.08-.56.08-1.14.22-1.69.24-.95.93-1.41,1.89-1.37.97.04,1.59.57,1.75,1.54.07.46.07.95.02,1.42-.98,9.42-2.03,18.77-5.59,27.73-5.95,14.96-16.3,25.51-30.76,32.25-2.04.95-3.96,2.18-5.99,3.16-.91.44-1.94.69-2.94.83-1.73.26-3.49.37-5.8.6,1.13,1.93,1.96,3.35,2.81,4.76,4.31,7.12,8.68,14.22,11.73,22.01,1.59,4.05,3.23,8.08,4.72,12.17.58,1.59,1.12,3.31,1.1,4.97-.05,3.67,1.21,7.07,1.66,10.62.27,2.16.3,4.34.5,6.51.17,1.82-.77,2.56-2.35,2.79-1.26-.73-1.26-1.88-1.24-3.03.08-4.11-.65-8.1-1.78-12.03-.16-.54-.32-1.12-.29-1.67.27-5.02-1.65-9.45-3.71-13.84-.16-.34-.38-.67-.49-1.03-3.13-10.28-8.95-19.16-14.52-28.18-2.03-3.29-2.07-3.1-5.16-2.37-.97.23-1.96.33-3.18.53.37.66.51,1,.73,1.28,8.3,10.41,14.36,22.01,18.3,34.7,2.33,7.5,4.85,14.97,6.52,22.62,4.9,22.47,1.17,43.65-10.5,63.44-1.44,2.45-3.03,4.81-4.55,7.21-.98,1.55-2.05,2.98-4.53,3.01.46,1.65.79,2.98,1.21,4.29,1.21,3.8,2.26,7.62,1.76,11.8-.8.43-1.61.87-2.36,1.27-1.37-.65-1.61-1.77-1.61-2.92.04-5.83-2.02-11.17-4.22-16.36-2.06-4.86-2.92-9.97-4.2-15-.53-2.09-1.19-4.16-1.84-6.22-.85-2.7-1.68-5.41-2.64-8.07-1.73-4.8-3.55-9.57-5.35-14.34-.05-.14-.3-.2-.58-.38-1.17.52-1.28,1.65-1.43,2.76-.17,1.29-.1,2.6-1.26,3.64-.34.31-.19,1.4.02,2.04.68,2.07,1.58,4.06,2.24,6.13,2.03,6.3,4.03,12.61,5.94,18.95.57,1.89.7,3.91,1.18,5.83,1.48,5.87,3.12,11.69,4.53,17.57.61,2.56.97,5.21,1.15,7.84.18,2.69.02,2.7-2.66,3.97-1.24-.53-1.45-1.63-1.38-2.8.29-4.94-1.41-9.49-2.62-14.15-1.28-4.94-2.47-9.9-3.69-14.85-.16-.64-.14-1.34-.37-1.95-3.37-9.14-5.16-18.81-9.28-27.7-.08-.17-.22-.3-.5-.68-.89.65-1.77,1.32-2.67,1.95-.93.64-1.03,1.4-.66,2.46,1.43,4.11,2.87,8.22,4.13,12.39,2.99,9.88,5.77,19.81,7.54,30,.79,4.56,1.66,9.11,2.48,13.67.1.56.12,1.13.12,1.7,0,2.44-.05,4.84-3.16,5.48-.39,3.16-.76,6.15-1.14,9.15q-.31,2.46-3.09,3.3c-1.48-.91-1.22-2.31-1.11-3.75.34-4.24.76-8.48.79-12.72.01-2.12-.79-4.24-1.2-6.36-.18-.92-.33-1.85-.45-2.78-.34-2.53-.6-5.06-.99-7.58-.41-2.61-.81-5.24-1.44-7.81-.53-2.2-1.25-4.36-2.1-6.46-1.31-3.25-2.58-6.47-3.33-9.93-.57-2.63-1.82-5.11-2.94-7.6q-.31,1.48.2,3.03c4.32,13.26,7.49,26.79,9.61,40.58.64,4.16.37,8.31-.17,12.46-.14,1.06-.56,1.77-1.54,2.17-.68.28-1.36.58-2.14.91-.33,2.34-.73,4.67-.97,7.01-.2,2.05-1.06,3.35-3.37,3.54-2.32-2.11.16-4.8-.63-7.14-1.61.22-2.88,2.38-4.85.33-.47,2.78-.89,5.27-1.3,7.75q-.43,2.63-3.25,3.57c-.92-.58-.97-1.48-.85-2.46.11-.92.18-1.84.3-3.02-1.05.3-1.82.52-2.69.77-.55-.45-1.12-.92-1.72-1.41-.24.23-.57.38-.63.61-.71,2.63-1.49,5.25-2.03,7.91-.39,1.9-1.18,3.12-3.37,3.1-1.26-1.57-.05-3.28-.27-4.88-2.82-1.03-3.74-4.11-1.28-5.83,4.94-3.46,3.34-8.12,3.01-12.59-.11-1.58-.65-3.12-1.04-4.88-1.54,1.1-2.67,2.38-2.61,4.46.04,1.23-.1,2.47-.03,3.69.42,6.75-2.04,13.03-3.17,19.52-.1.56-.28,1.11-.34,1.67-.22,2.29-1.65,3.21-3.66,3.47-1.13-.81-1.13-1.78-.88-2.86,1.08-4.5,2.14-9.01,3.18-13.52.53-2.28.43-4.58.22-7.28-2.16,1.91-3.81,3.57-3.89,6.31-.06,1.98-.33,3.96-.61,5.92-.11.79-.37,1.64-.81,2.29-1.13,1.66-1.52,3.23-.71,5.24.83,2.06,1.18,4.31,1.71,6.35q-2.66,1.68-4.17.3c-1.1.8-2.18,1.59-3.18,2.32-1.75-.79-2.03-1.95-1.7-3.4.54-2.39,1.15-4.77,1.57-7.19.2-1.11.03-2.28.03-3.59-1.15.76-1.26,1.89-1.11,2.97.22,1.61-.27,2.68-1.7,3.51-1.9,1.1-2.3,2.79-1.71,4.9.4,1.42.46,2.94.71,4.67-2.18.82-4.17,1.57-6.17,2.32-2.64-3.01.39-5.9-.24-8.89-1.41,1.26-2.8,2.37-4.01,3.66-.41.44-.49,1.32-.48,2,0,.74.36,1.46.43,2.21.26,2.74,0,3.02-3.25,3.61-.28-1.23-.56-2.46-.91-3.99-1.99,1.5-3.89,2.86-5.69,4.35-.45.37-.67,1.15-.77,1.77-.31,1.86-1.35,2.84-3.64,2.99-.15-1.09-.3-2.22-.49-3.63-2.09-1.46-2.47-4.11-2.69-6.6-1.21-13.58-4.18-26.76-9.25-39.39-4.65-11.59-9.75-23.01-14.68-34.49-.8-1.87-.85-1.84-2.47-2.35,0,.56-.17,1.16.03,1.58,1.06,2.29,2.21,4.53,3.32,6.8.2.41.52.87.48,1.27-.23,2.11.87,3.83,1.53,5.69,2.94,8.29,5.83,16.6,8.74,24.91.37,1.07.64,2.18,1.06,3.24,4.09,10.43,6.74,21.28,9.28,32.15.28,1.19.31,2.43.56,3.63.46,2.22.84,4.47,1.52,6.61.95,2.96,1.06,2.93-1.5,5.17-1.54-.2-3.02-.37-4.5-.59-1.23-.18-1.39-.74-.88-3.07-.46-.21-.95-.44-1.51-.7-.16.32-.36.55-.37.78-.08,2.81.68,5.4,2,7.88.36.68.64,1.68.41,2.34-.69,1.93-2.01,2.24-3.73,1.07-1.7-1.15-3.39-2.33-5.32-3.67-.71,1.74-.38,3.25.24,4.7.56,1.3,1.33,2.5,1.97,3.77.67,1.32-.21,3.54-1.61,3.89-1.28.31-1.93-.69-2.37-1.6-.36-.74-.71-.84-1.5-1.1-1.31-.43-2.55-1.55-3.43-2.68-1.31-1.7-2.94-2.85-4.82-3.74-1.5-.72-3.1-3.77-2.89-5.42.09-.73.11-1.5-.01-2.22-.83-4.84-2.04-9.64-2.46-14.51-.42-4.85-1.74-9.49-2.42-14.26-.69-4.83-2.47-9.32-4.04-13.87-.05-.14-.26-.23-.6-.52-.07.84-.14,1.54-.17,2.24-.17,3.22-.19,6.45-.52,9.64-.43,4.24.71,8.26,1.27,12.38,1.31,9.65,2.53,19.32,3.67,29,.31,2.62,0,2.79-3.06,3.96-.21-.88-.58-1.72-.59-2.55-.02-7.99-1.8-15.79-2.62-23.69-.08-.73-.35-1.43-.56-2.27-.99,2.63-2.04,5.05-2.79,7.55-.34,1.13-.23,2.46-.07,3.66.55,4.21,1.15,8.42,1.86,12.6.29,1.69.69,3.3-.06,4.99-.24.54-.16,1.31-.02,1.93.69,2.99.72,2.98-1.87,4.65-.17-.07-.38-.1-.52-.22q-2.95-2.42-1.95-6.11c.22-.81.55-1.67.45-2.46-.52-4.12-1.15-8.22-1.76-12.33-.12-.84-.48-1.68-.44-2.51.23-4.86-1.12-9.35-2.94-13.77-1.65-4.01-3.17-8.06-4.75-12.09-.21.04-.42.08-.63.12.22,1.77.41,3.56.68,5.32.11.74.34,1.48.63,2.18,1.69,4.06,2.73,8.18,2.28,12.67-.17,1.73.51,3.54.79,5.32.13.84.38,1.69.35,2.52-.14,3.42-.1,6.79,1.19,10.05.27.68.38,1.54.22,2.23-.47,2.05.02,3.95.6,5.86.56,1.84.65,3.56-1.2,4.91.23.59.37,1.13.63,1.6q1.43,2.61-1.41,4.54c-.53-.55-1.25-1.05-1.63-1.73-.55-.99-.93-1.85-2.18-2.35-1.45-.57-1.43-1.52-.35-2.91.35-.45.66-.96,1.1-1.29.93-.7.98-1.56.63-2.52-.74-2.08-.99-4.15-.66-6.4.18-1.22-.53-2.56-.74-3.86-.27-1.66-.46-3.34-.63-5.01-.25-2.44-.46-4.88-.65-7.33-.18-2.35-.27-4.7-.46-7.05-.1-1.21-.12-2.49-.54-3.59-1.48-3.81-2.7-7.66-3.04-11.78-.12-1.47-.7-2.9-1.57-4.34-.07.47-.23.95-.2,1.41.45,5.76.84,11.52,1.43,17.27.16,1.56.81,3.11,1.43,4.57.59,1.39.81,2.71.22,4.11-.72,1.73-.69,3.47-.29,5.29.72,3.24,1.18,6.48.41,9.85-.24,1.05.45,2.37.89,3.49.7,1.8,1.1,3.5.55,5.49-.29,1.06.16,2.38.45,3.54.48,1.91,1.45,3.77-.46,5.52-.29.27-.11,1.24.09,1.81.3.88.8,1.69,1.17,2.44-1.01,1.83-2.17,3.09-4.63,2.84-.17-.82-.5-1.69-.51-2.56-.01-1.87-.44-3.36-2.55-3.73-.89-.16-.92-1.63-2.3-1.26-.7.19-1.64-.51-2.67-.87.12,6.65.67,13.23.17,19.94-.75.12-1.28.24-1.82.27-.45.03-.92-.06-1.52-.1-.23-4.72-.45-9.37-.67-14.05-3.42.8-3.51.76-5.29-1.88,1.04-2.19,2.82-2.37,4.99-1.37-.04-4.42-1.16-8.23-2.52-12.19-1.14.44-2.55.88-3.84,1.56-.42.22-.73,1.09-.7,1.64.11,1.98.24,3.98.64,5.91.95,4.6.75,9.21.36,13.83-.19,2.15-.47,4.28-.74,6.67-1.1.1-2.09.18-3.33.29v-7.57c-1.22.17-2.53.54-3.19-1.43.75-.69,1.65-1.45,2.48-2.29.49-.5,1.27-1.14,1.23-1.66-.32-4.4-.8-8.78-1.22-13.05-.59-.12-.79-.22-.94-.17-4.23,1.41-4.78,2.09-4.36,6.57.49,5.13.61,10.22-.71,15.24-.36,1.36-.89,2.69-1.46,3.98-.52,1.18-1.61,1.65-2.82,1.4-.65-.13-1.43-.58-1.74-1.12-.2-.35.2-1.22.55-1.7,2.03-2.75,3.09-5.69,2.31-9.17-.2-.89-.12-1.91.1-2.8.74-2.96.08-5.8-.4-9-1.52.52-2.81.97-4.27,1.47.13,1.3.08,2.45.38,3.51.75,2.7.52,5.42.64,8.16.17,3.78-1.15,7.03-2.81,10.19-.59,1.12-.72,2.02-.41,3.19.63,2.41.57,2.43-1.97,3.9-2.19-1.13-1.02-4.79-4.13-5.44-4.81,5.04-10.47,8.63-17.89,8.55-1.4-3.77-3.94-6.91-3.36-11.28,1.12-.08,2.11-.14,3.13-.21.73,2.15,1.42,4.16,2.06,6.03,3.27.29,4.5-.51,4.91-3.22.18-1.2.09-2.45-.03-3.67-.25-2.52-.59-5.04-.9-7.55-.2-1.58-.42-3.15-.61-4.6-2.81-1.05-2.78,1.42-3.89,2.88-1-.35-2.01-.7-3.18-1.12.26-1.07.47-1.95.55-2.28-1.39-2.72-2.7-5.01-3.75-7.41-.98-2.25-1.68-4.63-2.53-6.93-1.34-3.64-2.53-7.35-4.1-10.89-1.53-3.45-3.46-6.71-5.34-10.3-1.74.43-3.45.85-5.47,1.35-.26,3.91-.6,7.75-.76,11.6-.15,3.69-.1,7.39-.14,11.08,0,.66.01,1.34-.11,1.98-.33,1.73-1.13,2.32-2.91,2.31-2.07-.01-4.13,0-6.45,0-.5,3.63-.95,6.88-1.4,10.13-2.27,16.32-4.32,32.67-6.91,48.94-1.15,7.25-.14,14.15,1.57,21.03,3.77,15.18,9.8,29.63,14.7,44.45,1,3.02,1.61,5.84.3,9.06-.97,2.4-.82,5.22-1.45,7.79-2.09,8.64-4.33,17.25-6.47,25.89-2,8.09-3.91,16.19-5.92,24.28-.79,3.18-1.76,6.32-2.64,9.47-.07.51-.14,1.02-.21,1.54-1.15,1.78-1.22,2.04-.96,3.79.23-.29.46-.59.69-.88l-.07-.02ZM884.09,550.72c.25,0,.49-.02.74-.02,8.19-11.66,13.08-24.59,14.59-38.8,1.23-11.61-.08-22.96-3.55-34.08-.14,1.8,0,3.58.09,5.36.18,3.31.43,6.61.49,9.92.05,2.38-.11,2.42-2.86,3.17-.15-.72-.39-1.41-.44-2.12-.31-5.1-.47-10.21-.9-15.3-.59-6.95-2.88-13.48-5.26-19.97-.22-.61-.58-1.21-1-1.71-2.76-3.24-5.53-6.47-8.34-9.66-.44-.51-1.1-.83-1.65-1.24.1,1.1.47,1.94.91,2.74,8.28,15.27,12.06,31.56,11.04,48.94-.04.66-.05,1.33-.11,1.99-.15,1.53-.99,2.31-2.88,2.44-.08-1.24-.26-2.32-.21-3.4.33-6.74.3-13.49-.78-20.13-2.05-12.59-6.9-24.13-13.71-34.92-2.78-4.41-6.45-7.61-11.04-9.88-.4-.2-.88-.25-1.65-.45.41.59.55.83.74,1.03,8.07,8.85,14.21,18.86,18.27,30.16,2.32,6.45,4.13,13.05,4.48,19.87.32,6.31.46,12.67-.33,19-.26,2.07-.87,3.38-3.39,3.81-.16-1.02-.55-2-.43-2.92.69-5.46.75-10.94.48-16.42-.13-2.63-.17-5.3-.61-7.89-2.01-11.92-6.31-22.97-13.18-32.94-4.75-6.89-10.08-13.27-16.99-18.16-2.62-1.86-5.45-2.72-9.34-2.15,2.3,1.53,4.15,2.61,5.83,3.91,3.44,2.65,7.07,5.15,10.13,8.2,5.74,5.73,9.96,12.67,13.51,19.87,2.44,4.97,4.07,10.39,5.59,15.74,1.78,6.26,2.95,12.68,2.01,19.28-.12.81.07,1.7.25,2.52.55,2.46.36,4.7-.58,7.16-1.4,3.69-2.05,7.53-.37,11.57,1.59,3.82,2.55,7.9,3.82,11.86.52,1.62,1.07,3.23,1.71,4.8,1,2.45,1.9,4.88,2.32,7.55.6,3.8,1.71,7.52,2.6,11.28ZM256.72,412.36c-2.28-.99-4.11-2.67-6.51-1.32-4.03,2.27-8.43,4.14-11.93,7.06-6.45,5.38-12.6,11.17-18.41,17.23-4.58,4.77-8.02,10.5-11.04,16.43-1.88,3.7-3.99,7.3-5.9,10.99-2.81,5.41-4.64,11.13-5.59,17.18-.72,4.57-1.91,9.07-2.67,13.64-1.49,8.92-1.23,17.91-.82,26.9.03.74.24,1.48.45,2.74.4-.92.62-1.24.69-1.59,1.09-5.35,2.97-10.54,2.8-16.15-.1-3.1.16-6.27.71-9.33,1.16-6.41,2.68-12.76,3.95-19.15,1.49-7.44,4.5-14.21,8.59-20.56.66-1.03,1.34-2.07,1.89-3.17,2.6-5.19,5.97-9.85,9.48-14.45,4.01-5.25,9.41-9.02,14.12-13.52,4.36-4.16,9.22-7.51,14.68-10.04,1.79-.83,3.5-1.83,5.52-2.9ZM271.99,415.41c-1.99-1.7-5.42-2.3-8.11-1.44-6.34,2.02-12.59,4.55-17.84,8.53-6.76,5.12-13.13,10.84-19.13,16.84-3.97,3.98-7.15,8.79-9.75,13.89-1.2,2.36-2.69,4.56-3.95,6.89-1.49,2.74-3.08,5.45-4.26,8.32-3.25,7.92-4.53,16.37-6.31,24.68-.33,1.53-.44,3.11-.65,4.67.74-.28,1.08-.69,1.3-1.16,1.15-2.49,2.32-4.97,3.39-7.49.96-2.25,2.05-4.48,2.67-6.83,2.43-9.09,5.38-17.94,10.86-25.74.37-.52.62-1.19.72-1.82.22-1.47.57-2.71,2.27-3.16.4-.1.62-.86,1.05-1.5-1.64-.73-2.35-1.73-.75-3.42,2.48,1.23,3.79-.62,5.12-2.39,4.37-5.82,10.11-10.17,15.64-14.77,6.8-5.66,14.56-9.44,22.85-12.27,1.59-.54,3.15-1.18,4.84-1.82ZM808.01,377.1c.9,1.72,1.68,3,2.25,4.38.53,1.27,1.38,1.92,2.69,2.19,6.61,1.38,12.88,3.85,19.01,6.55,13.18,5.82,26.04,12.22,36.96,21.9.65.57,1.63,1.08,2.46,1.07,1.65,0,3.29-.39,4.91-.61-.05-.49,0-.73-.1-.85-.48-.58-.97-1.16-1.5-1.69-6.71-6.8-14.52-12.1-22.99-16.43-10.2-5.21-20.56-10.05-31.49-13.56-3.85-1.24-7.68-2.61-12.19-2.96ZM849.77,413.26l.2-.59c-.76-.52-1.48-1.13-2.3-1.55-6.46-3.35-12.87-6.82-19.45-9.93-4-1.89-8.28-3.21-12.44-4.77-.99-.37-1.84-.51-2.87.3-3.16,2.46-5.44,1.88-7.18-1.74-.46-.96-1.04-1.45-2.05-1.69-9.59-2.28-19.28-3.93-29.14-4.43-2.11-.11-4.23-.02-7.06-.02.95.6,1.31.89,1.71,1.06,2.9,1.16,5.8,2.3,8.71,3.42.51.2,1.08.25,1.63.36.99.2,1.99.36,2.98.58.92.21,1.81.53,2.73.7,4.56.83,9.14,1.53,13.68,2.44,12.11,2.44,23.88,5.99,34.79,11.86,5.11,2.75,10.62,3.01,16.05,4.01ZM321.27,392.64c-2.04-1.75-4.13-3.01-6.48-3.22-4.13-.36-8.34-.77-12.44-.36-11.11,1.11-22.08,3.25-32.97,5.72-3.39.77-6.75,1.64-10.66,2.59,1.6,1.76,2.84,3.13,4.13,4.54,1.89-.73,3.56-1.37,5.22-2.02,6.73-2.63,13.56-4.69,20.93-4.42,2.53.09,5.07-.38,7.61-.58.94-.08,1.88-.21,2.81-.17,3.5.15,6.99.44,10.49.54,3.92.11,7.6-.9,11.35-2.63ZM864.93,413.68c-.72-.76-1.01-1.13-1.36-1.42-.72-.61-1.47-1.19-2.22-1.76-6.21-4.7-13-8.42-19.91-11.94-8.27-4.21-16.79-7.81-25.67-10.52-.91-.28-1.88-.37-2.8-.54-.13,3.79,1.65,5.08,4.85,6.1,13.22,4.21,25.6,10.31,36.99,18.24,3.15,2.19,6.18,2.2,10.13,1.84ZM747.88,383.05c3.57.85,6.95,2.35,10.72,2.33,3.02-.02,6.04.05,9.06.04,10.15-.02,20.19.92,30.09,3.19,1.81.41,3.64.7,5.87,1.12-1.06-2.34-1.34-4.75-3.92-5.24-5.84-1.1-11.69-2.27-17.58-3.03-10.34-1.34-20.75-.12-31.12-.56-1.49-.06-2.58.42-3.12,2.16ZM740.43,576.91c-.2.06-.4.12-.6.18.31,1.2.58,2.42.95,3.6,1.33,4.34,2.68,8.67,4.03,13,.31.99.52,2.03.91,2.98,1.77,4.32,2.81,8.83,3.58,13.42.58,3.44,1.28,6.87,1.87,10.31.3,1.77.45,3.56.7,5.34.25,1.78.52,3.55.8,5.32.27,1.68.43,3.39.87,5.02.52,1.91,1.08,3.75-.54,6.08,3.19-1.1,4.57.84,6.22,2.55.57-3.89.52-7.31-1.24-10.52-.12-.22-.17-.58-.08-.82.67-1.76-.19-3.33-.59-4.96-.72-2.93-1.75-5.82-2.09-8.79-.26-2.31-.66-4.44-1.74-6.49-1.64-3.1-3.06-6.29-3.29-9.89-.06-.91-.49-1.81-.78-2.7-1.69-5.21-3.35-10.43-5.11-15.63-.95-2.83-2.18-5.55-3.86-8.02ZM794.37,379.79c.08-.24.16-.47.24-.71-2.28-1.47-4.59-2.9-6.83-4.43-2.43-1.66-5.08-2.43-8-2.43-2.27,0-4.54-.2-6.81-.19-5.19.03-10.39.11-15.58.24-.71.02-1.64.23-2.06.7-1.08,1.23-1.93,2.66-3.19,4.45,14.47.05,28.46-.86,42.22,2.35ZM245.48,360.11c-.56.17-.91.16-1.02.32-1.99,2.89-3.92,5.81-4.64,9.34-.16.81-.33,1.88-.89,2.29-1.24.91-1.18,2.07-1.18,3.29,0,4.7,1.06,9.2,2.71,13.57.26.68.66,1.3,1.04,2.04,2.46-.4,4.77-.78,7.5-1.22-4.03-9.64-4.95-19.43-3.53-29.63ZM224.56,459.91c.05.15.11.29.16.44,4.19-4.93,8.23-10,12.61-14.75,4.36-4.73,9.25-8.91,14.49-12.68,5.27-3.8,10.45-7.73,15.85-11.73-.83.2-1.57.25-2.21.54-6.22,2.74-12.55,5.29-17.76,9.88-2.13,1.87-4.37,3.62-6.59,5.38-5.94,4.68-10.65,10.43-14.65,16.8-.39.63-.71,1.33-.91,2.05-.38,1.35-.66,2.72-.99,4.09ZM302.48,399.41c-.04-.23-.08-.46-.12-.69-2.06,0-4.12-.09-6.18.02-2.73.15-5.45.72-8.16.62-6.11-.22-11.77,1.48-17.38,3.5-1.48.53-2.88,1.29-4.36,1.97,2.51,3.16,2.71,3.23,6.04,2.13.72-.24,1.41-.55,2.12-.8,5.02-1.74,10.14-3.31,15.47-3.21,4.68.09,8.57-1.75,12.58-3.55ZM837.05,432.29c.34.43.67.87,1.02,1.29,2.92,3.5,6.41,6.37,9.92,9.25,3.28,2.7,6.24,5.73,8.19,9.63,1.61,3.2,3.49,6.26,5.12,9.45,1.67,3.27,3.16,6.58,4.08,10.22.81,3.22,2.56,6.2,3.89,9.29.49-.79.64-1.46.46-2.02-1.91-5.93-3.46-12.02-5.96-17.69-2.11-4.8-5.21-9.19-8.1-13.61-4.59-7.03-11.03-12.04-18.63-15.8ZM836.06,534.31c-1.33.5-2.34.88-3.51,1.32.74,1.48,1.42,2.82,2.08,4.17.97,1.95,2.16,3.82,2.84,5.86,1.6,4.84,2.93,9.76,4.41,14.64,2.45,8.13,3.33,16.47,3.55,24.91.05,1.93.36,3.85.61,6.41,1.73-3.29,2.22-6.18,1.78-9.07-1.01-6.63-2.23-13.23-3.46-19.82-.45-2.41-1.2-4.77-1.73-7.17-1.6-7.21-4.02-14.16-6.56-21.26ZM438.42,313.67c-10.53-5.22-28.56.09-34.28,9.02,5.48-1.92,10.86-4.19,16.45-5.67,5.71-1.5,11.62-2.22,17.83-3.35ZM870.85,425.82c1.46,1.79,2.64,3.13,3.7,4.57,4.35,5.84,8.75,11.63,14,16.72,1.14,1.1,2.07,2.41,3.1,3.63.16-.89-.02-1.58-.33-2.22-.69-1.45-1.44-2.88-2.18-4.3-3.26-6.21-6.71-12.28-11.45-17.54-1.16-1.29-2.26-1.88-3.91-1.49-.82.19-1.64.36-2.93.64ZM450.27,678.86c-1.5-3.28-2.64-7.01-2.62-10.99,0-.09-.05-.18-.06-.28-.08-1.03-.24-2.06-.23-3.08.01-1.7.18-3.4.17-5.1,0-.52-.36-1.03-.56-1.55-.21.05-.41.1-.62.14.11,1.17.22,2.34.33,3.5-1.12,1.77-2.81,1.74-4.78,1.15.3,7.27.99,14.11,4.34,20.62,1.41-1.55,2.57-2.82,4.02-4.42ZM455.08,679.26c.7-.94,1.59-1.62,1.49-2.09-.59-2.67,1.47-3.09,2.88-4.03,1.81.52,3.08,2.44,5.45,1.08.2-2.06.42-4.36.65-6.81-2.19-.55-4.31-1.08-7.03-1.76.95,1.71,1.65,2.97,2.42,4.37-.54.77-1.11,1.59-1.73,2.47-2.57-1.12-3.75-3.02-4.39-5.42-.38-1.44-.84-2.89-1.45-4.25-.24-.53-.99-.83-2.07-1.67-.07,6.63.15,12.41,3.78,18.1ZM766.68,638.12c.14-5.49-.99-10.53-2.2-15.58-1.05-4.39-2.79-8.59-3.29-13.15-.27-2.51-1.5-4.85-3.23-6.89-.25.86-.39,1.69-.23,2.45.72,3.48,1.78,6.83,1.85,10.51.07,3.62,1.16,7.23,1.9,10.82.62,3.03,1.38,6.04,2.08,9.05.39,1.69,1.25,2.51,3.12,2.79ZM436.06,661.13c.11,2.35.2,4.5.31,6.65.05.99.47,2.1.15,2.94-.34.9-1.35,1.55-2.42,2.69,1.19,4.29,2.49,8.96,3.85,13.84,1.8-.91,3.18-1.61,4.66-2.36-.75-2.15-1.65-4.33-2.26-6.58-1.26-4.67-2-9.44-1.99-14.29,0-1.27-.06-2.5-2.3-2.87ZM697.82,375.08c.55,0,1.03-.15,1.27.02,1.38.95,2.69.6,3.9-.2,2.98-1.98,5.92-4.02,8.86-6.07.27-.19.4-.57.99-1.44-3.27.8-6.01,1.07-8.44,2.66-3.64,2.38-7.41,4.46-11.75,5.4-2.1.46-4.12,1.34-6.14,2.11-.43.16-.74.62-1.36,1.17.71.22,1.05.42,1.37.4,2.06-.15,4.12-.46,6.19-.52,2.54-.07,4.73-.52,5.12-3.53ZM709.01,661.8c2.82-1.24,4.15.93,5.83,2.08,1.3-.17,1.5-.91,1.22-2.03-.44-1.74-.92-3.48-1.16-5.25-.31-2.31-1.35-4.22-2.69-6.16-.65.49-1.21.84-1.69,1.29-1.05,1-3.04,1.21-3.08,3.01-.03,1.58.35,3.17.65,4.74.14.72.54,1.4.91,2.31ZM837.45,595.24c1.91-1.78,2.95-3.63,2.62-6.25-.6-4.85-2.11-9.56-2-14.53.03-1.43-.22-3.07-1.4-4.37-1.62,3.37-1.9,6.65-1.08,10.08.26,1.07.2,2.25.15,3.37-.18,3.99,1.11,7.74,1.71,11.7ZM308.57,402.15c7.35,1.65,14.51-.45,21.94-.89-.54-1.7-1.59-2.19-2.89-2.23-2.35-.06-4.76.29-7.03-.15-4.58-.89-8.25,1.09-12.02,3.26ZM676.13,666.61c-1.26.51-2.43.97-3.93,1.57.56,3.6,1.02,7.02,1.65,10.41.14.73.74,1.52,1.36,1.99,1.13.85,2.35.26,2.35-1.14.01-4.19.39-8.43-1.44-12.83ZM667.28,687.61c1.81-3.09,2.82-5.84,2.06-9.08-.51-2.19-.71-4.44-1.05-6.67-.09-.61-.2-1.22-.33-2.05-1.25.41-2.28.74-3.31,1.07-.18,2.5-.44,4.75,1.91,6.41-2.63,3.5-1.1,6.65.72,10.32ZM793.45,399.75c10.08,4.53,20.75,7.08,31.51,9.29-9.93-5.05-20.69-7.28-31.51-9.29ZM727.31,364.58c-3.68.29-6.94.28-9.31,3.2-.94,1.16-2.2,2.06-3.31,3.07-.78.71-1.57,1.42-2.35,2.14,2.74-.12,5.21-.59,7.68-1.08.27-.05.59-.12.79-.3,2.28-2.05,4.58-4.1,6.51-7.04ZM911.29,391.4c3.26-3.42,6.45-6.95,8.12-11.23-1.51-.83-3.21-1.29-4.1-2.4-.84-1.04-.84-2.77-1.21-4.2-.47,2.92-.42,5.89-.83,8.79-.43,3.04-1.3,6.02-1.98,9.03ZM407.19,624.78c-.05-.56-.1-1.11-.15-1.67-.49-4.89-1.12-9.78-1.45-14.68-.45-6.71-.67-13.43-1.03-20.14-.03-.53-.41-1.05-.62-1.57-.21.05-.42.1-.63.15-.33,12.83.79,25.53,3.89,37.91ZM843.52,528.81c-1.08.81-1.86,1.39-2.57,1.92.16.46.19.66.28.81,3.78,5.88,6.44,12.19,7.73,19.08.28,1.48.87,2.9,1.36,4.33.48,1.4,1.01,2.77,1.52,4.16-1.89-10.2-4.57-20.13-8.32-30.3ZM463.7,276.39c-3.85,3.43-9.34,17.21-8.75,22.11,3.66-7.28,6.92-14.19,8.75-22.11ZM768.85,606.28c-.33.09-.65.18-.98.26.31,1.23.54,2.5.95,3.7.68,1.97,1.29,3.87.97,6.05-.16,1.12.26,2.41.7,3.52.88,2.24,1.95,4.4,2.94,6.6-1.14.95-2.07,1.72-3.13,2.61.27.98.52,1.92.84,3.07,1.27-.66,2.26-1.17,3.28-1.71-.85-8.39-2.9-16.31-5.57-24.09ZM402.9,607.95c-.21-12.84-.43-25.51-.64-38.12-1.7,12.64-1.16,25.31.64,38.12ZM248.2,400.65c.84,1.79,2.44,2.5,3.84,3.38,2.57,1.61,3.04,1.52,5.63-.58-3.96-5.57-2.64-5.43-9.05-3.18-.08.03-.14.12-.42.39ZM726.51,370.75c.1.18.2.36.3.54,1.88-.43,4.09-.39,5.54-1.42,1.99-1.41,3.43-3.61,4.56-6.13-1.8-.13-3.6-.67-4.78.49-2.05,1.99-3.76,4.33-5.62,6.52ZM729.51,378.99c4.94,1.02,8.03-.76,10.27-5.8-4.83-.58-7.78,2.11-10.27,5.8ZM738,369.19c5.67.21,6.86-.6,8.76-5.78-1.62-.05-3.39-.77-4.58.35-1.58,1.48-2.7,3.45-4.18,5.43ZM760.16,364.65c-.43,1.47-1.76,2.16-1.68,3.58h14.04c.03-.21.06-.42.08-.64-4.07-.96-8.14-1.92-12.44-2.94ZM750.33,372.38c-1.78.26-3.51-.69-4.9.74-1.36,1.39-2.53,2.96-3.92,4.6,4.92.52,6.44-.4,8.82-5.34ZM755.62,364.41c-3.83-1.22-5.98.26-6.53,4.25,5.06.52,4.24.45,6.53-4.25ZM330.24,604.23c-.3-6.33,1.03-12.53,1.88-18.79.23-1.67.03-3.39.03-5.09-.19,0-.38,0-.57-.01-1.04,7.9-1.91,15.82-1.35,23.89ZM727.44,374.96c-6.05.19-6.18.24-8.11,2.87,4.03,1.32,4.93,1.33,8.11-2.87ZM855.3,582.35c.21-.07.41-.13.62-.2.17-6.09-1.35-11.93-2.7-17.8.41,5.32.91,10.63,1.46,15.93.07.71.41,1.38.63,2.07ZM301.77,406.55c-5.81-.09-10.59,3.28-15.94,4.76,5.61-.6,10.57-3.37,15.94-4.76ZM421.74,659.21c-.63-.12-1.25-.33-1.87-.34-2.14,0-2.71.69-2.23,2.74.27,1.16.7,2.28,1.05,3.42.66-.99.77-2.03,1.17-2.93.42-.95,1.12-1.77,1.87-2.9ZM870.01,431.24c.17-.17.33-.34.5-.51-.83-.98-1.72-1.92-2.49-2.95-1.24-1.66-2.72-1.69-4.85-.73,2.47,1.51,4.66,2.85,6.84,4.18ZM851.59,523.13c-1.1.27-1.79.61-1.3,1.6,1.24,2.52,2.55,5.01,3.82,7.51.18-.08.37-.17.55-.25-1.01-2.9-2.02-5.81-3.07-8.86ZM933.08,371.15c-.3,1.9-.22,3.52,1.61,4.88.5-2.08.95-4.01,1.41-5.94-.18-.11-.36-.22-.54-.33-.85.48-1.71.95-2.49,1.39ZM482.29,668.53l-.46-.49h-2.39c-.62,1.72-1.19,3.3-1.75,4.89l.39.17c1.41-1.52,2.81-3.04,4.22-4.57ZM758.2,584.77c-.08,2.78.95,5.21,2.54,8.12.07-3.43-.94-5.86-2.54-8.12ZM334.51,395.41c-.94-1.62-2.26-1.87-4.04-1.31,1.05,1.91,2.6,1.44,4.04,1.31ZM673.44,684.93c.94.31,1.82.48,2.09-.83.05-.22-.5-.77-.84-.83-1.24-.23-1.35.59-1.25,1.66ZM833.05,530.94c-.97-.83-1.62-.4-1.94.27-.2.42.09,1.07.23,2.2.81-1.18,1.25-1.81,1.7-2.47ZM821.61,515.16c-.34,1.2-.42,2.22,1.63,2.51-.75-1.16-1.19-1.83-1.63-2.51ZM426.07,318.86c-1.51.31-2.41.49-3.31.68,1.01.42,2.01.78,3.31-.68ZM327.2,389.81q.94,1.67,2.46,1.38c-.84-.47-1.5-.84-2.46-1.38ZM761.96,599.13c.19-.04.38-.09.57-.13-.25-.74-.49-1.47-.74-2.21-.16.05-.31.1-.47.15.21.73.43,1.46.64,2.19ZM814.16,603.56c-1.27.77-1.25,1.35,0,2.24v-2.24Z"/>
</svg>