<?xml version="1.0" encoding="UTF-8"?>
<svg id="Layer_1" xmlns="http://www.w3.org/2000/svg" viewBox="0 0 1080 1080">
  <defs>
    <style>
      .cls-1 {
        fill: #002e72;
      }
    </style>
  </defs>
  <g id="WORDXH.tif">
    <path class="cls-1" d="M418.79,911.65c.29-1.61.65-3.15.82-4.7.63-5.87,1.21-11.75,1.77-17.63.87-9.06,1.6-18.13,2.57-27.18,1.81-16.75,1.86-33.53.99-50.33-.17-3.37-.2-6.75-.34-10.13-.04-1.01-.21-2.02-.34-3.19-.97-.1-1.8-.34-2.59-.25-3.34.39-6.46-.6-9.6-1.4-7.96-2.03-15.47-5.12-22.37-9.64-2.59-1.69-5.27-3.24-7.97-4.75-4.61-2.57-9.03-5.42-12.83-9.08-5.33-5.15-10.52-10.45-15.78-15.67-1.38-1.37-1.74-2.59-.93-4.68,3-7.78,5.43-15.79,8.44-23.57,4.03-10.41,8.45-20.66,12.6-31.02,1.84-4.6,3.44-9.3,5.24-14.2-2.21-1.62-4.28-3.19-6.41-4.68-8.25-5.79-15.45-12.82-22.96-19.48-4.7-4.17-9.24-8.53-13.84-12.8-.21-.19-.39-.52-.62-.56-3.2-.53-4.72-3.23-6.56-5.34-2.07-2.38-3.71-5.15-5.44-7.81-1.01-1.56-2.15-3.16-2.65-4.91-.7-2.47-1.27-5.13-.34-7.68.89-2.45,1.82-4.96,3.15-7.18,4.94-8.2,10.06-16.29,15.11-24.42.44-.71.86-1.44,1.4-2.34-2.33-2.72-4.59-5.46-6.95-8.12-2.8-3.16-5.7-6.23-8.49-9.4-.98-1.12-2.06-1.86-3.56-2.02-.65-.07-1.27-.34-1.91-.46-3.25-.59-5.73-1.94-5.66-5.84-1.91-.77-3.73-1.47-5.53-2.23-3.77-1.6-4.78-3.19-4.72-7.36,0-.36-.03-.73-.06-1.25-.49-.07-.93-.22-1.36-.19-3.66.21-5.9-2.06-7.91-4.61-.99-1.25-.92-2.81-.63-4.33.37-1.93.73-3.85,1.17-6.14-2.2-.25-4.21-.46-6.22-.71-2.32-.29-4.68-.44-6.95-.95-2.49-.56-3.75-2.05-3.6-3.68.15-1.62,1.62-2.83,4.05-3.28,1.2-.22,2.4-.38,3.87-.6-7.95-8.63-15.78-17.13-23.69-25.72-2.31.88-4.79,1.93-7.34,2.78-9.09,3.03-17.6,1.3-25.62-3.44-3.59-2.12-5.96-5.38-7.36-9.32-4.14-11.66-2.94-22.68,3.86-33.07,6.12-9.35,14.76-15.13,25.56-17.53,5.75-1.28,11.41-.14,16.72,2.36,7.5,3.54,13.31,8.73,15.92,16.89.74,2.31,1.61,4.61,2.01,6.99,1.15,6.84-1.69,12.66-5.01,18.32-.52.88-1.11,1.72-1.8,2.78,3.94,4.38,7.8,8.72,11.72,13.01,2.53,2.77,5.14,5.47,7.7,8.22.65.7,1.26,1.27,2.37,1.21,6.43-.38,12.68,1.19,19.02,1.78,3.27.3,6.55.54,9.81.92,1.21.14,1.87-.32,2.61-1.17,10.47-12.03,20.98-24.04,31.48-36.05,5.06-5.8,10.07-11.64,15.21-17.37,3.8-4.24,8.48-7.37,13.45-10.09.97-.53,1.93-1.08,3.01-1.69-1.3-2.81-2.41-5.49-3.78-8.02-.92-1.7-.59-2.92.61-4.27,4.79-5.41,9.61-10.8,14.25-16.34,18.76-22.4,36.3-45.72,52.34-70.15,2.88-4.39,5.4-9.01,8.33-13.36.86-1.29,2.43-2.25,3.88-2.96,2.01-.98,4.2-1.58,6.49-2.41.12-.75.26-1.62.41-2.49,1.69-.59,2.83.34,4,1.06,1.03.64,1.73.45,2.26-.63,1.97-4.04,3.95-8.08,6.01-12.27-1.36-1.14-1.67-2.7-1.52-4.45.49-5.6.9-11.21,1.43-16.81.06-.64.63-1.3,1.12-1.81,2.15-2.23,4.35-4.41,6.53-6.61.72-.73,1.4-1.49,2.31-2.48-2.53-6.23-5.05-12.45-7.81-19.26-2.32,3.14-3.56,6.14-5.49,9.3-.23-.91-.5-1.38-.44-1.81.7-5.11,1.46-10.21,2.19-15.31.14-1.01.25-2.03.46-3.69-3.98,2.52-7.51,4.75-11.05,6.99-.15-.17-.3-.33-.45-.5,3.07-5.08,6.49-9.92,10.14-14.29-1.31-3.13-2.52-6.04-3.79-9.08-1.98,1.06-3.45,2.86-4.93,4.63-.54.65-.98,1.37-1.48,2.05-.59.8-1.04,2.01-2.36,1.39-1.12-.53-.71-1.57-.48-2.49.68-2.73,1.34-5.46,2.04-8.19.41-1.6.87-3.19,1.43-5.22-1.03.42-1.64.58-2.16.88-3.72,2.18-7.42,4.4-11.13,6.59-.72.43-1.43.93-2.22,1.18-1.11.34-1.92-.57-1.41-1.6.44-.91,1.14-1.71,1.76-2.53,1.28-1.71,2.59-3.4,3.58-5.5-.56.2-1.14.35-1.67.61-7.82,3.86-15.62,7.76-23.45,11.6-1.26.62-2.59,1.12-3.93,1.52-1.96.6-3.89.57-5.61-.79-2.47-1.95-5.35-3.03-8.26-4.14-6.21-2.38-12.37-4.92-18.54-7.42-.69-.28-1.32-.71-1.97-1.08-2.13-1.19-2.13-3.8.17-4.82,3.94-1.74,7.76-3.77,11.7-5.52,4.37-1.94,8.81-3.72,13.22-5.57.39-.16.74-.42,1.65-.95-1.89-.38-3.22-.62-4.54-.92-.91-.21-1.84-.41-2.69-.77-1.09-.45-1.88-1.23-1.92-2.53-.03-1.21.71-1.89,1.67-2.39,2.09-1.07,4.19-2.1,6.28-3.16.79-.4,1.56-.83,2.2-1.76-.79-.06-1.58-.16-2.38-.17-8.73-.08-17.46-.12-26.19-.21-16.61-.17-33.23-.31-49.84-.58-8.54-.14-17.07-.54-25.6-.83-.47-.02-.95,0-1.4-.1-1.64-.35-2.33-1.63-1.63-3.17.35-.76.93-1.4,1.41-2.1,7.74-11.38,17.19-21.32,26.58-31.3,6.3-6.7,12.67-13.34,19.15-19.86,5.88-5.93,11.95-11.67,17.94-17.49,1.48-1.44,3.06-2.78,4.41-4.33,1.14-1.31,2.42-1.24,3.83-.94,2.02.43,4.03.89,6.05,1.31.5.1,1.02.1,1.65-.23-2.2-1.19-4.43-2.34-6.6-3.59-2.03-1.17-4.02-2.41-5.97-3.71-.82-.55-2.01-1.26-1.34-2.41.35-.61,1.54-1.05,2.35-1.05,4.41,0,8.82.05,13.22.31,4.58.26,9.15.78,14.27,1.23-1.54-.9-2.64-1.55-4.19-2.46,2.88-.98,4.9.56,7.33.5-1.39-2.25-4.11-3.56-4.37-6.38.97-.95,1.83-.34,2.69-.08,3.94,1.22,7.88,2.44,11.82,3.65.6.18,1.22.28,2.33.52-.67-.89-1.01-1.39-1.4-1.86-6.54-7.87-13.05-15.75-19.62-23.6-7.17-8.56-14.4-17.08-21.59-25.63-1.03-1.22-2.08-2.43-3.02-3.71-1.7-2.31-1.41-3.78,1.05-5.36.86-.55,1.82-.96,2.75-1.41,18.25-8.66,37.31-15.24,56.35-21.88,7.26-2.53,14.35-5.53,21.55-8.22,2.27-.85,4.62-1.55,7-2.06,3.17-.68,4.85.16,5.97,3.18.97,2.62,1.63,5.38,2.19,8.13,2.1,10.29,4.1,20.6,6.14,30.9.1.49.3.96.6,1.87,1.49-2.95.46-6.19,2.56-8.61,1.92,1.25,1.71,3.28,2.19,4.98.49,1.75.9,3.53,1.56,5.26,1.69-3.82.07-8.37,2.79-11.87,1.69.51,1.91,1.78,2.28,2.92,1.2,3.75,2.35,7.52,3.54,11.27.27.87.59,1.73,1.32,2.6.22-1.2.32-2.44.71-3.58.24-.72.86-1.7,1.44-1.79.58-.1,1.59.61,1.93,1.23.99,1.8,1.75,3.73,2.58,5.61.37.83.68,1.68,1.52,2.4-.24-1.71-.44-3.42-.73-5.12-2.98-17.3-5.21-34.69-6.66-52.18-.13-1.59-.42-3.17-.54-4.76-.1-1.36.5-1.91,1.85-1.75.74.09,1.46.34,2.17.59,26.88,9.42,50.63,23.92,71.16,43.7,1.56,1.51,2.26,3.08,2.36,5.14.26,4.92-.46,9.76-1.38,14.54-1.68,8.75-3.59,17.45-5.39,26.17-.11.53-.2,1.06-.4,2.14,1.08-1.13,1.71-1.94,2.49-2.57.52-.42,1.24-.59,1.87-.87.05.67.3,1.41.1,1.99-.48,1.41-1.19,2.75-1.79,4.13-.18.4-.3.83-.08,1.59.71-.62,1.41-1.27,2.14-1.87,1.82-1.48,3.6-3.01,5.51-4.35.46-.32,1.47-.24,2,.06.31.17.38,1.24.18,1.75-1.59,3.91-3.26,7.78-4.92,11.65-.43,1.01-.94,1.98-1.42,2.97.17.11.35.21.52.32.55-.74,1.11-1.47,1.66-2.21,7.04-9.38,14.06-18.78,21.15-28.13.68-.9,1.78-2.03,2.73-2.08,1.5-.07,1.41,1.74,1.78,2.81,2.37,6.87,3.58,13.99,4.28,21.19.71,7.37,1.02,14.79,1.72,22.16.74,7.84,1.75,15.66,2.62,23.49.34,3.08.67,6.16.89,9.24.26,3.75-.75,7.15-3.64,9.66-4.04,3.5-8.09,7.01-12.39,10.16-5.52,4.05-11.22,7.86-16.98,11.56-1.56,1-1.55,2.57-2.58,3.8,3.06.75,6.24-1.07,9.34,1.01-2.48,3-6.15,3.57-9.04,5.72,1.57.56,2.93.92,4.14,1.55.53.27.79,1.09,1.17,1.67-.59.35-1.15.96-1.76,1-3.42.25-6.85.37-10.35.54,1.51,3.51,2.91,6.74,4.42,10.24,3.26-.15,6.17-2.68,9.99-2.98-2.32,4.66-4.52,9.07-6.82,13.69.78.41,1.48.84,2.22,1.15,3.64,1.51,7.3,2.95,10.92,4.5,1.27.54,2.45,1.31,3.79,2.05-1.03,4.37-1.95,8.57-3.05,12.71-.21.78-.99,1.63-1.73,2-1.75.88-3.63,1.51-5.46,2.22-.94.36-1.89.68-3.39,1.21,2.6,2.15,4.87,4.02,7.4,6.12-1.24,2.01-2.5,4.04-3.92,6.34,3.34.82,6.58-.08,10.14.24.26,4.22.51,8.38.79,12.85.47-.4.84-.62,1.1-.94,7.26-8.92,15.59-16.74,24.4-24.1,16.55-13.82,34.28-25.87,53.19-36.25,10.07-5.53,20.49-10.13,31.39-13.74,6.94-2.3,13.71-5.1,20.92-6.52,9.79-1.93,19.62-3.22,29.63-2.55,9.06.61,17.52,3.01,25.23,7.9,4.43,2.8,8.16,6.32,11.16,10.59,4.51,6.42,5.22,13.19,2.15,20.52-3.83,9.15-9.68,16.91-16.15,24.25-11.74,13.31-25.42,24.44-39.67,34.9-13.55,9.94-27.27,19.64-41.58,28.46-5.18,3.19-10.73,5.76-16.09,8.65-2.31,1.24-4.4,1.12-6.47-.57-2.54-2.08-5.26-3.94-7.74-6.09-12.93-11.21-23.26-24.43-30.66-39.9-.41-.86-.68-1.78-1.2-3.18,3.77,1.08,6.81-.08,9.88-.55,13.9-2.13,27.82-4.21,41.66-6.66,20.26-3.59,40.14-8.62,59.29-16.32,7.18-2.89,13.54-6.85,18.58-12.78,2.77-3.26,4.97-6.8,5.76-11.1,1.14-6.16-1.08-11.38-6.39-14.72-5.24-3.3-11.09-4.44-17.15-4.8-11.28-.68-22.25,1.3-33.14,3.87-15,3.54-29.56,8.42-43.7,14.56-3.4,1.48-6.43,3.41-9.22,5.84-18.01,15.75-34.51,32.91-48.74,52.17-4.12,5.57-7.61,11.61-11.42,17.41-1.18,1.8-1.34,3.42-.22,5.44,2.2,3.97,2.2,4.13-.29,8.09-1.37,2.18-1.38,3.98-.26,6.22,1.16,2.34,2.06,4.85,2.75,7.37.53,1.93,1.63,2.86,3.45,3.15,3.24.51,6.47,1.2,9.73,1.41,5.99.4,12.01.89,17.99.65,9.36-.37,18.7-1.29,28.05-2.01,5.05-.39,10.1-.79,15.14-1.26,12.42-1.17,24.83-2.38,37.25-3.57,7-.67,13.99-1.47,21.01-1.95,8.42-.59,16.86-1.11,25.29-1.3,13.59-.31,26.97,1.26,39.91,5.69,9.23,3.16,17.75,7.61,25.14,14.06,5.44,4.75,9.95,10.2,12.89,16.86,1.26,2.86,1.79,5.85,2.04,8.99.89,10.91-3.39,19.68-10.62,27.45-7.79,8.37-17.62,13.24-28.16,16.95-7.66,2.7-15.65,3.88-23.71,4.47-24.12,1.76-47.5-2.08-70.36-9.56-3.55-1.16-6.91-2.91-10.38-4.34-1.52-.63-2.35-1.64-2.66-3.3-2.4-12.84-1.98-25.58,1.33-38.22.04-.17.21-.3.53-.75.64.31,1.44.52,2.02,1,2.85,2.4,6.24,3.79,9.61,5.16,14.97,6.07,30.2,11.32,46.23,13.9,12.28,1.98,24.63,2.93,37.02,1.78,7.27-.68,13.18-4.3,16.94-10.76,2.72-4.67,2.1-9.38-.66-13.87-2.62-4.26-6.71-6.76-11.09-8.8-7.69-3.58-15.81-5.89-24.1-7.57-11.54-2.35-23.21-3.14-34.99-2.93-8.25.15-16.15,1.87-23.99,4.25-15.16,4.6-30.36,9.08-45.58,13.47-12.22,3.52-24.68,5.66-37.43,5.77-3.28.03-6.57-.19-9.85-.28-.92-.03-1.85,0-3.02,0-.05.93-.17,1.75-.11,2.55.6,9.08,1.11,18.17,1.89,27.24,1.31,15.24,2.79,30.46,4.23,45.68.98,10.37,2.01,20.73,3.02,31.1.85,8.77,1.68,17.55,2.59,26.31.17,1.62.72,3.19,1.16,5.03-1.64.42-3.59.91-5.66,1.44,0,1.46-.11,2.76.02,4.04,1.5,15.4,3.23,30.79,4.49,46.21,1.04,12.71,1.51,25.47,2.31,38.21.21,3.35.7,6.61,2.02,9.83,3.73,9.1,5.71,18.62,5.91,28.5.1,4.78.37,9.57.66,14.34.18,2.99-.3,5.79-1.7,8.44-2.28,4.31-4.5,8.66-6.87,12.92-.72,1.3-.71,2.33-.16,3.67,5.76,14.03,9.74,28.55,12.39,43.49.5,2.82.04,5.01-1,7.41-6.88,15.95-15.46,30.87-26.76,44.13-2.37,2.78-5.04,5.3-7.57,7.94-.38.4-.74.82-1.12,1.25,6.57,10.31,14.84,19.1,22.76,28.2,13.51,15.53,28.45,29.67,42.52,44.65,8.42,8.96,16.72,18.04,25.15,26.98,5.41,5.73,11.09,11.21,16.43,17.01,5.59,6.07,10.96,12.36,16.34,18.62,7.22,8.4,14.41,16.82,21.51,25.32,4.69,5.62,9.16,11.42,13.79,17.09,4.8,5.88,9.69,11.7,14.52,17.56,1.62,1.96,2.07,4.16.97,6.61,6.59,6.52,13.28,12.84,19.61,19.49,6.31,6.62,13.91,12,19.25,19.66-1.18,1.28-2.37.73-3.51.43-9.57-2.48-18.76-6-27.49-10.62-5.64-2.98-11.14-6.21-16.69-9.36-2.03-1.15-2.08-1.28-3.85.29-1.36,1.21-2.62.8-3.87.1-2.7-1.51-5.4-3.04-8.01-4.69-12.53-7.93-25.14-15.73-37.51-23.9-21.46-14.17-42.77-28.55-64.11-42.9-5.92-3.98-11.71-8.15-17.57-12.22-.51-.35-1.09-.61-1.83-1.03-.59,3.54-1.26,6.82-1.65,10.13-1.27,10.57-1.63,21.13.07,31.71,1.28,7.94,4.39,15.08,8.87,21.69.84,1.24,1.57,2.57,2.51,3.74,1.57,1.96,3.08,4.04,4.96,5.67,2.62,2.28,5.1,4.64,7.43,7.24,3.81,4.26,8.06,8.11,12.08,12.18,6.26,6.34,12.61,12.59,18.7,19.1,5.51,5.89,10.7,12.07,15.14,18.84.86,1.32,2.11,2.38,3.19,3.56,2.94,3.23,4.83,6.92,4.75,11.39-.07,3.93-.21,7.86-.33,11.79-.04,1.16-.64,1.87-1.76,2.27-4.07,1.42-8.03,3.22-12.19,4.27-7.63,1.94-15.35,3.49-23.05,5.13-1.46.31-2.98.31-4.48.43-10.59.9-21.19.93-31.75-.11-7.46-.73-14.93-1.61-22.27-3.07-5.67-1.12-11.24-2.98-16.67-5-7.19-2.67-8.55-5.42-7.43-12.99.27-1.85.6-3.7.78-5.57.23-2.36,1.31-4.22,2.8-6,1.55-1.84,2.85-3.89,4.49-6.14-1.25-.57-2.09-.92-2.9-1.33-4.27-2.15-8.54-4.3-12.79-6.46-3-1.53-4.39-3.97-4.07-7.35.27-2.89.49-5.78.82-8.66.29-2.54,1.84-4.17,3.99-5.45,3.06-1.83,6.01-3.82,9.02-5.73,3.55-2.26,5.68-5.22,6.4-9.61,1.31-7.93.65-15.52-2.43-22.89-.71-1.71-1.79-3.29-2.82-4.84-1.19-1.8-2.75-3.39-3.73-5.28-2.65-5.1-7.33-7.61-12.14-10-.84-.42-1.76-.67-2.57-1.13-1.92-1.09-2.06-2.16-.51-3.75,2.05-2.1,4.36-3.84,7.07-5.03,1.69-.74,3.48-1.26,4.65-2.94.42-.6,1.46-.78,2.22-1.14,1-.48,2.01-.95,3.33-1.58-.91-2.67-1.64-5.27-2.68-7.75-3.84-9.17-7.82-18.28-11.66-27.45-3.76-9-7.32-18.08-11.14-27.05-3.09-7.25-6.44-14.38-9.67-21.56-.27-.6-.73-1.18-.79-1.79-.33-3.15-2.48-4.82-4.85-6.48-11.13-7.82-22.27-15.64-33.29-23.6-8.75-6.32-17.34-12.84-25.44-20.01-7.44-6.59-15.09-12.94-22.85-19.56-1.59.91-3.18,1.82-4.77,2.73.69,3.69,2.09,6.88,3.79,9.88,1.32,2.33,1.4,4.54.67,7.01-3.17,10.79-6.09,21.66-9.44,32.39-5.83,18.71-11.97,37.33-17.86,56.02-2.87,9.12-5.51,18.31-8.21,27.49-1.4,4.77-2.73,9.56-4.02,14.36-.43,1.6-.63,3.25-1,5.28,1.85-.24,3.3-.49,4.76-.59,2.89-.2,5.79-.34,8.68-.43.64-.02,1.32.14,1.92.37,1.31.51,1.6,1.6.72,2.67-.41.5-.96.89-1.51,1.25-5.58,3.7-9.64,8.86-13.59,14.13-2.02,2.7-3.86,5.5-4.92,8.79-1.21,3.8-1.16,7.53-.35,11.38,1.57,7.46,3.9,14.67,6.75,21.73,1.24,3.08,2.46,5.67,6,7.04,3.26,1.26,6.09,3.64,9.08,5.58,2.24,1.46,3.06,3.65,3.12,6.26.13,5.7-1.16,11.17-2.51,16.64-.24.99-.72,1.93-1.19,2.85-1.28,2.49-2.96,4.32-6.16,3.74-.81-.15-1.71-.07-2.52.09-4.17.82-8.35.75-12.57.43-6.98-.52-13.84.67-20.69,1.84-1.8.31-2.95,1.15-3.79,2.88-1.74,3.63-3.7,7.16-5.69,10.66-3.76,6.62-9.39,10.9-16.74,12.81-4.81,1.25-9.68,2.23-14.52,3.36-1.92.45-3.88.79-5.7,1.49-3.48,1.35-7.07,1.98-10.74,1.84-6.46-.23-12.92-.64-19.37-1.08-1.47-.1-2.92-.61-4.37-.95-2.82-.67-5.68-1.25-8.45-2.08-3.94-1.19-7.85-2.51-11.72-3.92-1.55-.56-2.57-1.78-2.94-3.52-.62-2.93-1.34-5.84-2.02-8.75-.37-1.58-.05-3,1.04-4.19,1.14-1.25,2.32-2.45,3.53-3.62,1.74-1.69,3.46-3.29,4.8-5.43,1.08-1.73,3.1-2.93,4.85-4.17,7.12-5.04,14.34-9.92,21.43-15.01,10.42-7.48,19.48-16.44,27.84-26.15,4.1-4.76,8.51-9.25,12.7-13.94,4.29-4.8,7.5-10.28,10.16-16.13,2.43-5.34,2.44-10.68.78-16.18-2.2-7.29-4.97-14.31-8.82-20.93-1.73-2.97-2.89-6.29-4.14-9.52-.81-2.09-.25-2.92,1.83-3.98,7.71-3.94,15.88-4.85,24.35-3.82,2.59.31,5.18.67,8.01,1.04ZM609.41,619.61c.5-1.32,1.13-2.13.94-2.63-.56-1.47.3-2.4,1.01-3.31,1.95-2.52,4.03-4.94,6.05-7.4,1.6-1.96,3.25-3.88,4.74-5.92.42-.58.59-1.57.44-2.28-.46-2.2-1.01-4.39-1.72-6.52-3.31-9.96-6.59-19.94-10.08-29.84-3.05-8.67-6.41-17.22-9.53-25.86-1.56-4.31-3.11-8.64-4.29-13.07-1.3-4.86-2.15-9.85-3.24-14.77-.13-.6-.53-1.14-.78-1.64-2.14-.12-4.12-.09-6.06-.37-10.19-1.46-20.01-4.2-29.06-9.22-2.32-1.29-4.21-3.37-6.24-5.15-.96-.84-1.01-1.86-.41-3.04.59-1.16,1.07-2.42,1.34-3.68.36-1.69-.23-2.26-1.94-2.03-1.39.18-2.76.63-4.15.7-1.75.08-2.28,1.11-2.34,2.55-.04,1.12.07,2.25.2,3.36.2,1.67.65,3.33.7,5,.05,1.47.74,2.21,1.96,2.74,1.53.66,3.04,1.37,4.54,2.06.18,2.66.23,5.1.55,7.51.13,1.03.54,2.29,1.28,2.93,2.25,1.96,4.72,3.67,7.09,5.5.87.67,1.69,1.41,2.78,2.31-1.01.93-1.8,1.69-2.61,2.41-.7.62-1.51,1.14-2.09,1.85-.36.44-.67,1.24-.52,1.74,1.26,4.4,2.6,8.79,3.99,13.15.51,1.61,1.22,3.1.6,4.89-.23.67.07,1.65.41,2.36,1.5,3.23,3.23,6.36,4.62,9.63.99,2.32,2.7,3.78,4.73,4.99.8.48,1.69.81,2.51,1.27,3.82,2.16,7.78,4.14,10.91,7.69-2.32,1.3-4.54,2.55-6.8,3.82.26.44.34.77.54.88,2.08,1.2,2.53,3.07,2.39,5.29-.1,1.59-.06,3.19,0,4.79.13,3.74,1.79,6.06,5.52,7.49,5.05,1.94,9.84,4.59,14.7,7.02,1.07.54,1.92,1.5,2.94,2.15,1.2.77,1.34,1.86.82,2.93-.81,1.67-1.8,3.25-2.81,4.81-.85,1.31-1.83,2.52-2.97,4.08,3.13,2.95,6.03,5.68,9.37,8.82ZM425.81,480.24c-1.8-1.92-4.3-3.04-3.3-5.97-2.24-1.28-4.33-2.49-6.58-3.78-.91,2.62-2.59,4.46-4.59,6.05-8.08,6.41-16.11,12.88-24.23,19.24-13.44,10.52-26.94,20.96-40.37,31.49-1.06.83-2.09,1.95-2.61,3.16-2.45,5.68-4.63,11.47-7.1,17.14-.85,1.95-.52,3.18.89,4.68,4.5,4.78,8.85,9.7,13.23,14.59.43.48.65,1.14,1,1.78.84-.75,1.11-.98,1.37-1.22,4.52-4.23,8.95-8.56,13.58-12.65,2.38-2.1,5.05-3.88,7.72-5.6,3.13-2.01,6.53-2.14,9.96-.69,1.28.54,2.53,1.13,3.8,1.71.27-.24.52-.39.66-.61,3.07-4.93,6.14-9.85,9.15-14.82.3-.49.46-1.3.27-1.81-1.37-3.71-.04-6.51,2.67-9.04,3.73-3.48,6.31-7.86,9.23-11.82-1.01-2.04-1.91-3.84-3-6.04,2.19-.29,3.91-.68,5.64-.72,2.02-.04,3-1,3.63-2.83,1.5-4.34,3.05-8.66,4.75-12.92,1.25-3.12,2.77-6.13,4.22-9.31ZM255.25,455.44c-.28,0-.56-.01-.84,0-8.01.34-18.73,10.06-19.84,17.99-.48,3.41.86,6.1,3.56,8.04,2.94,2.11,6.33,2.87,9.89,2.18,4.01-.77,7.73-2.36,10.84-5.06,3.42-2.96,6.56-6.16,7.8-10.75.78-2.87.21-5.45-1.62-7.66-2.51-3.03-5.8-4.66-9.79-4.75Z"/>
  </g>
</svg>