<?xml version="1.0" encoding="UTF-8"?>
<svg id="Layer_1" xmlns="http://www.w3.org/2000/svg" width="1920" height="1100" xmlns:xlink="http://www.w3.org/1999/xlink" viewBox="0 0 1920 1100">
  <defs>
    <style>
      .cls-1 {
        fill-rule: evenodd;
      }

      .cls-1, .cls-2 {
        fill: #002e72;
      }

      .cls-3 {
        fill: none;
      }

      .cls-4 {
        fill: #fbfbfb;
      }

      .cls-5 {
        fill: #2744a5;
      }

      .cls-6 {
        fill: #0d3b7f;
      }

      .cls-7 {
        fill: #072e70;
      }

      .cls-8 {
        fill: #0774e0;
      }

      .cls-9 {
        fill: #2a88e1;
      }

      .cls-10 {
        clip-path: url(#clippath);
      }

      .cls-11 {
        fill: #237ce8;
      }
    </style>
    <clipPath id="clippath">
      <rect class="cls-3" x="0" width="1920" height="1100"/>
    </clipPath>
  </defs>
  <rect class="cls-7" x="0" width="1920" height="1100"/>
  <g>
    <path class="cls-8" d="M1033.17,3.9c.31,5.95,2.47,11.49,3.97,17.16,7.91,29.93,9.87,60.36,8.42,91.17-1.07,22.73-3.06,45.35-6.26,67.87-.32,2.23-.56,4.54.55,8.08,10.13-22.03,19.83-43.13,29.53-64.23-.46,43.14-16.87,81.7-33.78,121.01,2.87-1.33,4.39-3.18,6.07-4.77,20.84-19.64,38.33-42.14,55.34-65.02,12.96-17.42,26.96-34.08,38.31-52.67,5.9-9.66,9.76-20.18,13.32-30.83.54-1.6,1.11-3.19,1.84-5.29,2.17,1.72,1.68,3.67,1.71,5.35.54,24.22-3.1,47.94-9.52,71.2-9.63,34.85-26.41,66.47-45.29,97.02-47.73,77.19-111.98,137.59-188.96,184.95-13.54,8.33-27.75,15.24-43.38,18.83-.38.09-.71.43-.88,1.11,54.57-8.85,106.16-25.69,152.43-57.03-3.22,3.99-7.3,7.02-11.21,10.2-65.62,53.3-139.71,89.2-222.29,107.28-40.26,8.81-81.07,11.88-122.3,10.2-44.35-1.8-87.57-9.77-129.49-23.84-38.03-12.77-73.48-30.88-104.06-57.41-10.79-9.37-20.64-19.68-28.09-32.02-1.31-2.18-2.89-4.26-3.49-7.32,3.06,1.41,5.1,3.6,7.19,5.59,15.95,15.2,35.08,24.86,55.47,32.52,36.72,13.8,74.21,24.86,112.88,31.62,18.66,3.26,37.48,3.56,56.4,2.6,17.02-.86,33.91-2.25,50.26-7.35,53.26-16.59,97.76-46.18,131.03-91.15,19.26-26.03,28.99-55.72,27.16-88.6-.91-16.36-5.81-31.56-12.65-46.31-15.95-34.4-39.61-62.34-69.18-85.95-19.69-15.72-42.11-26.37-63.85-38.41-41.99-23.25-86.95-39.41-132.07-55.11-28.74-10-58.68-15.46-88.52-21.03-30.42-5.68-61.1-9.74-91.88-13-41.32-4.38-82.78-4.79-124.27-4.61-31.26.14-62.49,1.29-93.71,2.84-39.25,1.95-78.44,4.76-117.42,10.02-13.83,1.87-27.67,3.61-41.5,5.41,0-.29-.01-.59-.02-.88-.86-1.92-.39-3.96-.4-5.93-.05-12.74-.04-25.49,0-38.23,0-1.4-.36-2.87.41-4.21,2.25-1.43,4.77-.84,7.17-.84,199.9-.03,399.81-.03,599.71-.02,51.27,0,102.54,0,153.82.01,6.22,2.4,10.72,7.21,15.49,11.49,17.24,15.48,33.48,31.99,48.85,48.79-2.25-10.02-4.66-20.37-8.2-30.43-2.92-8.29-6.33-16.35-10.23-24.22-.85-1.72-2.35-3.45-1.01-5.62,22,.03,44.01.07,66.01.1,2.38,1.2,4.16,2.99,5.52,5.28,9.5,15.95,18.85,31.96,27.46,48.42,7.08,13.54,13.97,27.1,18.57,41.73,1.64,5.22,3.31,10.42,3.73,15.57-.73-4.7-.95-9.81-1.24-14.86-1.74-30.55-6.25-60.62-14.33-90.15-.56-2.03-1.59-4.16.45-6.03,10.72-.02,21.45-.05,32.17-.07,1.78,1.51,3.06,3.31,3.98,5.51,14.13,33.55,21.85,68.69,26.73,104.63,4.59,33.82,3.34,67.77,3.08,101.69-.09,12.38-1.29,24.88-4.42,35.78,7.88-15,14.75-31.75,20.45-49,9.56-28.93,15.52-58.65,19.86-88.75,4.51-31.26,5.79-62.68,5.19-94.22-.04-2.31-.4-4.58-.59-6.87-.24-2.95-.97-6.07,1.45-8.61,4.16-.05,8.32-.1,12.48-.15Z"/>
    <path class="cls-6" d="M1562.17,4.05c-2.89,10.4-4.4,21.09-6.44,31.65-6.95,35.91-18.37,70.41-32.73,103.95-15.38,35.91-33.54,70.37-55.01,103.06-18.11,27.57-37.76,53.99-58.91,79.27-8.86,10.58-18.37,20.63-27.83,30.68-19.64,20.87-40.95,40.01-62.44,58.92-39.86,35.06-82.61,66.15-128.8,92.43-1.9,1.08-4.19,1.87-5.22,4.31,1.93.89,3.27-.2,4.65-.73,20.18-7.71,39.85-16.63,59.7-25.13,2.36-1.01,4.42-2.68,6.66-3.98.83-.48,1.81-1.35,2.73-.42,1.13,1.14.08,2.13-.6,3-2.66,3.41-6.53,5.19-10.16,7.19-38.31,21.2-77.06,41.48-117.78,57.79-36.54,14.63-73.99,26.47-112,36.55-34.37,9.11-69.27,15.81-104.37,21.47-12.45,2.01-25.15,1.61-37.64,3.64-16.61,2.71-33.38,4.01-50.16,5.07-14.8.94-29.62,1.38-44.45,1-.71-.02-1.47-.09-2.12-.34-1.68-.64-4.14-.77-4.01-3.19.11-2.09,2.22-2.31,3.96-2.58,18.76-2.84,37.52-5.71,56.28-8.53,32.14-4.83,64.35-9.19,95.97-16.94,8.1-1.99,16.27-3.71,24.4-5.59.67-.15,1.45-.26,1.72-1.39-2.51-.43-4.8.52-7.09.99-18.61,3.83-37.49,5.81-56.3,8.31-9.12,1.21-18.31,1.89-27.32,3.88-1.38.3-2.88.39-4.27.2-2.18-.3-3.18-1.8-3.08-3.98.1-2.05,1.53-2.52,3.25-2.72,44.39-5.07,87.2-16.79,129.64-30.27,26.53-8.43,52.49-18.34,77.43-30.59,17.67-8.68,34.72-18.69,51.67-28.74,34.09-20.22,66.22-43.37,97.04-68.22,16.1-12.98,32.14-26.13,47.17-40.42,10.32-9.82,21.06-19.19,30.98-29.44,23.03-23.8,45.26-48.3,64.68-75.18,7.92-10.96,15.13-22.42,22.72-33.62,1.42-2.09,3.22-5.61,5.65-4.12,2.2,1.35-1.06,3.82-2,5.68-10.44,20.55-22.06,40.42-34.78,59.64-15.58,23.55-32.7,45.92-51.44,67.04-.46.52-.91,1.07-1.66,1.95,1.94,0,2.6-1.24,3.43-2.04,10.46-10.1,20.94-20.2,31.14-30.54,24.45-24.78,47.9-50.44,69.37-77.97,26.21-33.61,48.78-69.41,69.05-106.78,17.46-32.19,32.44-65.52,44.63-100.02,6.27-17.75,11.76-35.81,16.02-54.19,9.56,0,19.11-.01,28.67-.02Z"/>
    <path class="cls-7" d="M1020.69,4.05c2.25,25.59,1.6,51.16-.41,76.72-2.64,33.61-7.93,66.79-16.67,99.36-7.14,26.58-16.05,52.52-30.09,76.41-.63,1.07-.89,2.45-2.72,3.23,1.21-6.45,2.47-12.56,3.48-18.71,2.69-16.39,2.58-32.95,2.94-49.48,1.07-49.18-3.72-97.63-17.39-145.04-3.67-12.73-7.94-25.22-13.24-37.37-.73-1.68-1.92-3.26-1.62-5.27,25.24.05,50.48.11,75.72.16Z"/>
    <path class="cls-7" d="M912.79,3.97c11.02,38.01,16.07,76.84,16.6,116.83-2.08-.71-2.18-2.01-2.37-2.94-5.6-28.43-19.7-53.23-33.46-78.15-6.67-12.07-13.94-23.81-20.93-35.7,13.39-.01,26.77-.02,40.16-.04Z"/>
    <path class="cls-7" d="M806.61,3.9c11.82,20.39,18.32,42.57,22.52,65.59-1.59.39-2.02-.72-2.61-1.4-18.59-21.64-38.96-41.47-60.75-59.88-1.5-1.27-3.38-2.26-4.07-4.32,14.97,0,29.94,0,44.91.01Z"/>
    <path class="cls-9" d="M1.01,4.74c0,16.12,0,32.25,0,48.37-.8-1.12-.85-2.41-.85-3.71,0-13.65,0-27.3,0-40.95,0-1.3.05-2.59.86-3.71Z"/>
    <path class="cls-6" d="M1563.08,941.37c-11.06,4.17-22.51,7.05-33.86,10.24-47.82,13.44-96.15,24.77-144.95,34.05-33.33,6.33-66.71,12.42-100.46,16.25-18.44,2.09-36.93,3.12-55.43,4.33-32.34,2.12-64.7,2.91-97.08,2.36-19.98-.34-39.88-2.04-59.78-4.01-38.81-3.84-77.24-10.15-115.44-17.79-11.39-2.28-22.68-3.67-34.24-3.31-1.12.03-2.26-.3-3.39-.47,1.13-2.76,3.51-1.99,5.57-1.87,7.44.44,14.87.99,22.33,1.14.93.02,1.98.38,2.29.07-12.48-.58-25.47-.68-38.37-2.42-6.92-4.53-15.02-5.4-22.81-7.07-18.86-4.06-37.25-9.82-55.76-15.14-5.39-1.55-10.75-3.22-16.08-4.97-1.99-.65-4.42-1.02-3.84-4.12,1.39-1.76,3.33-1.5,5.17-1.28,21.84,2.59,43.71,4.75,65.74,5.01,5.42.06,10.87.32,16.95.68-18.35-.32-35.65-3.8-53.03-6.59-36.1-5.81-71.8-13.57-107.17-22.83-21.44-5.61-42.62-12.11-63.65-19.1-3.11-1.03-7.38-1.01-8.48-5.46,3.36-.61,6.66,1.58,10.92.1-7.54-2.8-14.35-5.34-21.17-7.84-27.6-10.11-54.45-21.96-81.01-34.5-18.5-8.74-36.58-18.26-54.64-27.83-6.89-3.65-14.06-6.65-21.38-9.25-20.12-7.14-39.31-16.39-58.55-25.53-48.46-23.01-95.07-49.31-139.53-79.34-28.63-19.34-56.12-40.21-82.43-62.65-18.2-15.52-35.73-31.73-52.24-49.01-12.96-13.56-24.28-28.45-33.83-44.62-3.53-5.98-6.06-12.38-7.36-19.26-1.62-8.52.49-13.46,8.18-17.52,8.76-4.62,18.28-6.55,28.03-5.41,22.98,2.7,46.07,5.04,68.33,11.87,31.28,9.59,63.2,16.45,95.24,22.82,10.3,2.04,20.58,4.18,30.86,6.28.94.19,1.91.47,3.4-.67-4.31-1.59-8.12-3.06-11.98-4.41-33.08-11.55-65.2-25.35-96.39-41.29-4.74-2.42-9.37-5.07-13.94-7.79-1.97-1.17-4.75-3.35-3.82-5.11,1.09-2.08,4.41-1.04,6.65-.24,7.73,2.74,15.41,5.62,23.11,8.47,42.69,15.78,86.02,29.58,129.88,41.73,37.75,10.46,75.95,18.83,114.65,24.87,17.75,2.77,35.57,4.96,53.49,6.43,18.62,1.52,37.19,3.56,55.82,4.92,16.45,1.2,32.93,3.01,49.99.22-.96,2.87-2.91,4.01-4.67,5.25-8.43,5.95-17.87,9.83-27.5,13.34-34.45,12.54-69.69,22.07-105.92,27.69-16.19,2.51-32.47,4.25-48.81,5.72-29.74,2.67-59.51,2.52-89.3,2.36-1.25,0-2.59.3-4.09-.83,2.36-1.86,5.12-2.45,7.68-3.36,13.05-4.63,25.92-9.64,37.38-17.62,2.05-1.43,5.46-2.66,4.64-5.51-.85-2.98-4.4-1.95-6.86-1.96-19.16-.05-38.33-.3-57.48.11-10.75.23-21.54,1.16-31.75,5.26-2.49,1-4.45,2.59-6.27,4.46-4.1,4.22-3.95,6.71-.19,11.12,12.01,14.09,27.55,22.9,44.23,30.09,24.88,10.73,50.78,18.67,76.22,27.9,36.13,13.1,72.46,25.66,109.57,35.77,27.51,7.49,55.45,13.04,83.46,18.28,10.58,1.98,21.04,4.94,31.98,4.36.86-.05,1.73.02,2.59-.04.84-.06,1.99.01,2.1-1.04.16-1.45-1.17-1.32-2.12-1.48-8.5-1.45-17.04-2.71-25.5-4.37-28.35-5.59-55.96-13.49-81.84-26.67-1.65-.84-3.28-1.72-4.7-3.41,6.15,1.27,12.33,2.41,18.44,3.82,25.24,5.8,50.31,12.33,75.78,17.09,24.03,4.49,48.13,8.44,72.45,11.01,21.89,2.32,43.82,3.54,65.81,4.41,27.51,1.1,55.01.56,82.5.48,18.7-.06,37.41-.72,56.08-1.67,30.29-1.54,60.57-3.37,90.7-6.96,22.99-2.74,45.88-6.24,68.46-11.53.39-.09.82-.01,1.41.39-22.52,13.75-47,23.05-72.12,30.9.11.44.23.88.34,1.31,17.82-3.3,35.63-6.59,53.45-9.89l.28,1.14c-5.92,3.42-12.44,5.57-18.69,8.27-8.98,3.88-18.1,7.45-27.14,11.2-.93.39-2.76.28-2.29,1.91.41,1.4,1.92.89,3.01.64,10.26-2.26,20.53-4.47,30.76-6.85,28.74-6.67,57.56-12.96,86.17-20.19,22.86-5.78,44.79-13.95,65.67-24.88,10.92-5.72,22.93-8.48,34.24-13.12,27.54-11.29,53.46-25.63,78.84-41.01,39.02-23.65,77.94-47.48,116.91-71.22,1.07-.65,1.99-1.68,3.82-1.45-1.5,3.91-4.47,6.63-6.9,9.63-16.4,20.22-35.75,37.39-55.85,53.8-35.84,29.26-73.99,55.29-112.38,81-2.02,1.35-3.81,3.04-5.67,4.62-1.67,1.42-1.26,2.33.75,2.84,2.16.55,4.27.4,6.4-.15,14.93-3.89,29.36-9.31,43.78-14.7,32.41-12.12,63.77-26.66,94.34-42.81,49.96-26.41,97.78-56.28,143.21-89.94,35.97-26.65,68.64-56.95,99.46-89.3,15.28-16.04,29.26-33.25,43.65-50.09,8.13-9.51,16.36-18.94,24.61-28.34,2.16-2.46,4.02-5.06,5.25-8.18-24.73,26.58-51.63,50.77-79.48,73.94-27.72,23.06-56.32,45-85.55,66.2,14.29-15.91,31.23-29.52,41.27-49.12-21.61,18.87-42.82,38.17-67.17,53.67-.38-1.44.76-1.87,1.4-2.48,25.25-24.33,47.04-51.69,69.06-78.84,19.94-24.59,38.83-49.97,56.82-76.03,19.55-28.33,37.87-57.43,54.84-87.37,16.19-28.57,30.73-57.99,45.36-87.37,22.09-44.34,39.09-90.57,51.59-138.49,2.68-10.25,5.74-20.41,8.74-31.01,1.87,2.33,1.54,4.53,1.58,6.63.56,27.11-4.27,53.55-10.44,79.74-9.58,40.65-21.37,80.66-37.04,119.43-6.04,14.93-12.61,29.65-18.93,44.47-.45,1.06-.97,2.12-1.17,3.24-.35,1.95-2.83,4.36-.33,5.76,1.99,1.12,3.84-1.35,5.34-2.76,7.04-6.63,12.99-14.26,18.88-21.87,16.02-20.73,31.11-42.13,44.47-64.7,10.64-17.98,20.13-36.54,27.94-55.94.68-1.68,1.42-3.34,2.41-5.67,1.22,2.16.81,3.74.89,5.22,1.57,27.53-3.61,54.09-11.2,80.36-6.55,22.68-13.56,45.2-21.88,67.3-1.52,4.05-2.72,8.19-3.42,12.47-.27,1.65-1.44,3.69.54,4.68,1.96.98,2.95-1.28,4.11-2.38,4.98-4.75,7.82-11.02,11.29-16.78,14.91-24.78,31.02-48.84,44.19-74.66,10.6-20.79,20.22-42.01,28.47-63.84.4-1.06.89-2.09,1.34-3.14.05,1,.13,2.01.13,3.01,0,86.56,0,173.12,0,259.67,0,1.15-.09,2.29-.14,3.44-1.87,6.22-7.66,8.8-12.09,12.45-21.75,17.94-44.17,35.03-67.19,51.33-23.96,16.96-48.49,33.05-73.43,48.53-19.93,12.37-40.01,24.49-60.47,35.96-16.43,9.22-33.03,18.15-49.7,26.93-14.39,7.58-28.91,14.9-43.15,22.76-4.01,2.22-8.3,3.83-12.54,5.52,25.61-10.38,51.89-18.94,77.69-28.83,21.77-8.34,43.4-17.03,64.66-26.61,27.3-12.31,54.1-25.66,81.02-38.74,5.44-2.64,10.92-5.18,16.37-7.77,1.89-.9,4.16-2.48,5.82-.12,1.51,2.14-.25,4.09-1.58,5.78-6.07,7.73-13.15,14.53-20.39,21.08-7.13,6.46-14.19,13.01-21.48,19.32-10.11,8.75-20.33,17.36-30.59,25.93-25.5,21.3-51.68,41.76-78.2,61.77-24.57,18.54-49.75,36.24-75.06,53.77-21.76,15.07-43.61,30.03-65.26,45.26-2.58,1.82-5.42,3.07-8.18,4.51,13.77-6.96,28.61-11.33,42.64-17.69,14.68-6.64,29.59-12.75,44.15-19.69,12.34-5.89,24.63-11.88,36.83-18.05,35.21-17.8,69.39-37.4,102.93-58.16,20.68-12.8,41.23-25.81,61.34-39.48,23.2-15.78,46.05-32.05,68.21-49.28,4.53-3.53,9.11-7.03,13.74-10.43,1.2-.88,2.36-1.71,3.9-.78,0,19.79-.01,39.57-.02,59.36-2.21,5.05-7.28,6.8-11.42,9.43-26.03,16.58-53.35,30.82-81.17,44.09-10.42,4.97-20.78,10.25-32.14,12.98,25.47-6.4,50.21-14.93,74.42-25.02.66-.28,1.36-.46,2.04-.7,1.6-.56,3.28-.77,4.31.79,1.2,1.82.04,3.37-1.34,4.48-4.59,3.71-9.47,7.04-14.25,10.5-33.22,24.06-66.6,47.91-100.69,70.73-25.83,17.29-51.84,34.32-78.47,50.4-26.61,16.08-53.5,31.68-80.56,46.98-18.54,10.48-37.29,20.6-56.2,30.42-14.57,7.56-29.14,15.14-43.9,22.32-29.39,14.3-59.07,27.98-89.23,40.56-12.79,5.33-26.02,9.37-40.02,10.09-1.15.06-2.24.4-3.32.82,11.81-1.52,23.52-3.72,35.24-5.76,20.13-3.5,40.37-6.4,60.26-11.17,2.52-.6,4.95-1.53,7.5-2.04,2.17-.43,4.78-1.12,5.61,1.46.86,2.7-1.81,3.54-3.83,4.25-7.06,2.47-14.09,5.06-21.17,7.46-16.88,5.72-33.42,12.43-50.69,17.01-1.65.44-3.47.29-4.96,1.34,11.91-3.77,24.13-6.21,36.35-8.72,41.46-8.51,83.02-16.52,124.31-25.85,2.22-.5,4.8-1.97,6.56,1.04Z"/>
    <path class="cls-8" d="M1563.08,941.37c-8.88,1.02-17.47,3.51-26.17,5.4-48.24,10.43-96.71,19.75-145.05,29.69-.38.08-.81-.05-2.48-.19,29.43-10.4,57.73-20.4,86.24-30.48-1.51-1.83-2.85-.71-4.03-.4-33.6,8.85-68.13,12.74-102.2,19.07-.56.1-1.15.14-1.72.12-2.11-.06-5.07.45-5.16-2.42-.08-2.39,2.84-1.89,4.52-1.99,28.06-1.7,52.56-14.35,77.49-25.44,74.56-33.16,146.05-72.19,216.21-113.75,63.86-37.83,124.94-79.78,185.14-123.09,8.76-6.3,17.48-12.66,26.2-19.02,1.13-.83,2.51-1.45,3.3-4-28.14,11.36-55.66,22.52-85.4,26.48,10.1-4.47,20.26-8.82,30.3-13.42,33.56-15.37,65.95-32.9,96.94-52.99.84-.54,1.76-.97,2.64-1.45.05,1,.14,2.01.14,3.01,0,73.83,0,147.65,0,221.48,0,1-.09,2.01-.14,3.01-.73,1.67-2.07,2.75-3.57,3.64-13.1,7.79-26.07,15.81-39.8,22.47-25.63,12.44-51.69,23.85-78.52,33.52-24.61,8.87-49.43,17.05-74.5,24.45-24.42,7.21-49.1,13.45-73.84,19.44-.56.13-1.16.05-1.71.23-1.52.49-3.07.49-3.71-1.12-.73-1.86.71-2.88,2.17-3.65,3.06-1.61,6.14-3.18,9.28-4.62,29.18-13.4,57.92-27.67,85.95-43.34,16.97-9.49,33.54-19.6,49.75-30.33,3.87-2.56,8.13-4.47,10.41-5.8-8.34,5.43-19.62,9.01-30.88,12.53-14.29,4.47-28.67,8.61-43.08,12.69-2.79.79-5.5,1.39-8.33.36-22.73,6.09-45.4,12.41-68.2,18.2-28.1,7.13-56.31,13.8-84.47,20.68-1.25.31-2.49.69-3.74,1.04Z"/>
    <path class="cls-7" d="M1919.88,574.13c-24.55,19.78-50.02,38.32-75.99,56.2-37.14,25.56-75.27,49.55-114.36,71.99-43.6,25.03-88.41,47.68-134.73,67.33-17.48,7.42-35.11,14.41-54.17,21.33,4.64-4.58,9.2-7.15,13.43-10.11,35.62-24.91,71.45-49.51,106.92-74.63,30.41-21.54,59.82-44.43,88.86-67.78,16.25-13.07,32.44-26.23,48.13-39.96,15.69-13.73,31.73-27.14,45.25-43.16,1.09-1.3,2.01-2.74,2.72-4.51-41.07,18.83-81.06,39.76-122.65,57.27-41.62,17.52-84.34,32.06-126.86,47.69-.43-2.51,1.2-2.7,2.2-3.23,12.95-6.92,25.86-13.92,38.92-20.64,50.07-25.78,99.07-53.4,146.52-83.78,28.02-17.94,55.43-36.72,82.09-56.61,18.34-13.67,36.03-28.17,53.71-42.67.05,22.82.13,45.63.13,68.45,0,18.94-.07,37.88-.12,56.82Z"/>
    <path class="cls-6" d="M1719.49,901.46c10.76-3.14,21.52-6.25,32.26-9.44,19.17-5.7,38.35-11.39,56.64-20.71-4,5.71-48.14,33.41-79.35,50.1-27.5,14.71-55.56,28.28-83.74,41.66,96.05-21.89,189.22-51.46,274.56-102.07,0,.84,0,1.67,0,2.51-1.01,2.69-3.06,4.39-5.39,5.93-11.25,7.47-22.6,14.78-33.65,22.53-1.46,1.02-3.04,2.4-4.97.71-4.75-.31-8.35,2.75-12.38,4.4-31.56,12.96-63.43,25.06-95.81,35.86-34.56,11.53-69.53,21.59-104.93,30.2-32.15,7.82-64.56,14.45-97.14,20.24-.68.12-1.39.08-2.37-.71,4.63-2.01,9.27-4.03,13.9-6.04,43.89-19.03,86.38-40.79,127.41-65.4,5.1-3.06,10.72-5.37,14.95-9.77Z"/>
    <path class="cls-11" d="M1875.85,892.68c12.85-8.58,25.7-17.16,38.57-25.73,1.79-1.19,3.63-2.3,5.44-3.44,0,6.67,0,13.35,0,20.02-19.29,8.9-38.56,17.84-58.13,26.11-6.82,2.88-13.73,5.5-21.25,6.66,11.79-7.87,23.58-15.74,35.38-23.62Z"/>
    <path class="cls-6" d="M756.51,974.77c10.78,1.72,21.38,4.44,32.25,5.62.95.1,1.95.65,3.51-.88-42.8-13.6-83.28-31.45-121.29-54.79,7.76,3.18,15.52,6.38,23.29,9.53,37.31,15.16,75.14,28.71,114.72,36.81,15.35,3.14,30.78,5.85,46.38,7.48.69.07,1.36.37,2.04.57.53,1.86,2.31,2.04,3.71,2.59,44.42,17.54,90.03,31.01,136.97,39.92,3.53.67,7.02,1.54,10.53,2.34.68.16,1.34.42,2.46.77-2,2.11-4.23,2.14-6.42,2.05-15.94-.65-31.88-1.37-47.71-3.53-31.51-4.29-62.75-10.02-93.74-17.12-34.12-7.82-67.71-17.48-100.83-28.78-2.01-.69-4.23-1-5.86-2.58Z"/>
    <path class="cls-5" d="M538.76,858.24c13.36,11.91,27.12,23.36,41.02,34.63-2.13-.13-3.72-1.48-5.39-2.53-14.69-9.29-28.95-19.19-42.51-30.06-2.27-1.82-4.12-4.18-6.91-7.06,5.27,1.92,9.53,3.48,13.8,5.03Z"/>
    <path class="cls-7" d="M792.16,450.32c81.63-39.76,149.69-96.11,205.76-167.4-10.02,27.75-29.02,49.13-48.55,70.19,28.14-19.9,51.62-44.64,73.63-70.96-20.26,34.12-45.98,63.6-75.49,89.94,30.89-21.81,56.93-48.81,82.64-76.14-53.8,74.18-122.51,129.51-207.71,163.92,17.01-10.67,34.09-21.3,50.29-33.28,16.17-11.96,31.59-24.78,45.7-39.22-38.79,27.64-80.36,49.57-126.26,62.96Z"/>
    <path class="cls-7" d="M699.76,775.73c5.14,2.09,10.28,4.16,15.41,6.28,47.37,19.57,96.33,33.97,146.28,45.22,26.81,6.04,53.83,10.99,80.97,15.27,21.01,3.31,42.11,5.98,63.27,8.15,22.02,2.26,44.06,4.15,66.18,5.26,14.23.71,28.44,1.32,42.68,1.7,12.38.34,24.75.84,37.13.67,25.75-.36,51.51-.91,77.21-2.67,45.55-3.12,90.69-9.19,135-20.57,4.28-1.1,8.55-2.27,13.66-3.62-1.49,2.45-3.38,2.81-4.87,3.63-45.35,24.74-93.85,40.87-143.95,52.6-32.94,7.71-66.15,14.02-99.74,18.02-20.98,2.5-42.05,4.06-63.2,4.76-12.82.42-25.63.85-38.42.49-21.98-.62-43.97-1.39-65.85-4-8.4-1-16.84-1.67-25.17-2.48,4.8,3.51,41.84,13.49,72.06,19.75,24.48,5.07,49.14,9.08,73.76,13.48-10.3,0-20.62.31-30.91-.09-10.47-.41-20.94-1.38-31.38-2.37-10.44-.99-20.87-2.11-31.26-3.53-10.36-1.42-20.65-3.27-31.08-4.57,17,7.68,34.85,12.83,52.87,17.3,17.94,4.46,36.02,8.33,54.78,12.63-11.78,2.39-22.83,1.17-33.75.39-17.91-1.27-35.72-3.66-53.48-6.45-26.58-4.17-53-9.12-79.26-14.97-38.38-8.54-76.51-18.09-113.51-31.52-47.38-17.19-92.58-38.94-135.15-66.04-25.54-16.26-49.66-34.43-72.87-53.81-11.04-9.22-21.55-19.06-32.28-28.64-.72-.64-1.32-1.42-1.54-2.77,5.92,3.36,11.83,6.72,17.75,10.09,28.68,16.34,58.39,30.61,88.67,43.69,41.66,17.99,84.24,33.58,127.37,47.65,30.81,10.05,62.02,18.73,94.04,23.93,13.29,2.16,26.79,3.45,40.41.75-81.9-11.43-149.71-51.65-211.81-103.61Z"/>
    <path class="cls-7" d="M910.44,977.69c-18.33-1.87-36.39-5.46-54.4-9.15-16.89-3.46-33.78-6.99-50.35-11.82-6.13-2.57-12.55-4.45-18.5-7.44-1.73-.87-4.61-1.69-2.39-4.77,9.01,1.51,18.03,3.03,27.04,4.54,9.61,3.87,19.66,6.37,29.56,9.32,21.77,6.48,43.71,12.35,65.77,17.75,1.11.27,2.72-.05,3.27,1.58Z"/>
    <path class="cls-6" d="M1538.49,921.57c49.32-23.73,96.52-49.81,142.68-77.8,45.93-27.86,90.75-57.44,135.38-87.33-52.45,40.09-106.17,78.35-162.76,112.57,67.73-25.57,134.54-53.04,198.58-86.93-2.36,3.08-5.6,5.07-8.69,7.19-29.76,20.42-61.74,36.91-94.09,52.71-49.04,23.96-99.08,45.62-150.64,63.62-18.47,6.45-37.09,12.47-56.37,16.16-1.11.21-2.2.74-4.1-.18Z"/>
  </g>
  <g class="cls-10">
    <g>
      <g>
        <circle class="cls-4" cx="309.99" cy="560.94" r="361.04"/>
        <path class="cls-2" d="M309.99,928.71c-202.79,0-367.77-164.98-367.77-367.77S107.2,193.16,309.99,193.16s367.77,164.98,367.77,367.77-164.98,367.77-367.77,367.77ZM309.99,206.63c-195.37,0-354.31,158.94-354.31,354.31s158.94,354.31,354.31,354.31,354.31-158.94,354.31-354.31S505.36,206.63,309.99,206.63Z"/>
      </g>
      <g>
        <circle class="cls-4" cx="309.99" cy="560.94" r="311.05"/>
        <path class="cls-1" d="M160,300.44c1.03,0,2.04-.27,2.94-.78,43.46-24.52,93.66-38.51,147.11-38.51s103.65,13.99,147.12,38.51c.9.51,1.91.78,2.94.78h0c5.89,0,8.03-7.45,2.91-10.35-45.17-25.56-97.36-40.15-152.96-40.15s-107.79,14.59-152.96,40.15c-5.13,2.9-2.99,10.35,2.91,10.35h0ZM48.72,413.88c.51-.9.78-1.91.78-2.94h0c0-5.89-7.45-8.03-10.35-2.91C13.59,453.21-1,505.4-1,561s14.59,107.8,40.15,152.96c2.9,5.13,10.35,2.99,10.35-2.91h0c0-1.03-.27-2.04-.78-2.94-24.52-43.46-38.51-93.65-38.51-147.12s13.99-103.65,38.51-147.12ZM162.94,822.34c-.9-.51-1.91-.78-2.94-.78h0c-5.89,0-8.03,7.45-2.91,10.35,45.17,25.56,97.36,40.15,152.96,40.15s107.79-14.59,152.96-40.15c5.13-2.9,2.99-10.35-2.91-10.35h0c-1.03,0-2.04.27-2.94.78-43.46,24.52-93.65,38.51-147.11,38.51s-103.65-13.99-147.11-38.51ZM571.39,708.11c-.51.9-.78,1.91-.78,2.94h0c0,5.89,7.45,8.03,10.35,2.91,25.56-45.17,40.15-97.36,40.15-152.96s-14.59-107.79-40.15-152.96c-2.9-5.13-10.35-2.99-10.35,2.91h0c0,1.03.27,2.04.78,2.94,24.52,43.46,38.51,93.65,38.51,147.11s-13.99,103.65-38.51,147.11Z"/>
      </g>
      <g>
        <path class="cls-2" d="M515.21,672.64h-9.18c-.87,1.97-1.47,3.83-2.46,5.46-1.27,2.08-3.28,3.4-5.74,3.61-1.59.13-1.89.9-1.89,2.25.02,8.45.02,16.89-.01,25.34,0,1.17.38,1.69,1.59,1.94,5.22,1.05,7.96,4.53,7.96,9.92,0,2.85,0,5.7,0,8.72.76.19,1.43.37,2.1.51,4.51.94,7.53,4.76,7.4,9.39-.12,4.39-3.48,8.2-7.87,8.8-1.2.16-1.69.59-1.66,1.84.07,2.59.02,5.19.02,8.18,1.44,0,2.77-.04,4.09,0,3.32.12,5.38,1.9,5.4,4.63.02,2.34-1.62,4.24-3.97,4.47-1.29.13-2.59.12-3.89.12-1.08,0-1.69.28-1.65,1.55.08,2.34-.06,4.68.08,7.01.03.54.78,1.42,1.26,1.47,4.79.49,8.73,5.19,8.2,10.37-.12,1.16,0,2.34-.03,3.51-.09,2.69-1.97,4.66-4.46,4.73-2.27.06-4.8-1.95-4.65-4.35.21-3.4-.45-5.28-4.23-6.31-3.55-.96-5.02-4.45-5.44-8.39-2.47,0-4.92,0-7.36,0-7.12,0-9.57-1.84-11.64-8.65-.14-.44-.83-.93-1.34-1.02-4.46-.82-7.24-3.6-8.12-8.04-.12-.58-.8-1.41-1.32-1.49-5.25-.83-7.59-4.26-8.46-9.3-1.71-.09-3.45-.1-5.17-.28-2.56-.26-4.11-2.06-4.08-4.55.04-2.37,1.59-4.08,4.1-4.33,1.67-.17,3.35-.19,5.24-.29.04-.77.1-1.45.1-2.14,0-4.68.02-9.36,0-14.03-.02-3.53.5-3.11-3.27-3.18-1.03-.02-2.08-.09-3.08-.33-1.85-.45-3.02-2.06-3.09-4.01-.07-2.03,1.04-3.84,2.9-4.35,1.11-.31,2.3-.41,3.45-.42,3.57-.05,7.15-.1,10.72.02,1.61.05,2.08-.57,1.98-2.02-.06-.91-.04-1.82,0-2.73.11-2.86,1.77-4.63,4.38-4.69,2.66-.06,4.63,1.75,4.81,4.55.1,1.53.02,3.08.02,4.73h9.64c.04-.81.09-1.51.09-2.21,0-14.49-.03-28.98.05-43.47.01-1.92-.6-2.51-2.44-2.37-1.87.14-3.77.08-5.65.02-1.09-.03-1.58.31-1.82,1.45-.94,4.42-3.49,7.31-8.12,8.01-1.13.17-1.46.76-1.43,1.86.07,2.6.03,5.2.02,7.8-.02,4.83-2.98,8.46-7.71,9.35-1.09.21-1.58.58-1.86,1.76-1.27,5.37-4.64,7.93-10.22,7.96-2.27.01-4.55.07-6.82-.02-1.41-.06-1.98.35-1.91,1.85.12,2.33.03,4.68.03,7.02,0,5.42-2.83,8.97-8.1,10.05-1.18.24-1.66.69-1.62,1.91.07,2.14.1,4.29,0,6.43-.07,1.52.58,1.89,1.97,1.83,1.35-.05,2.74,0,4.06.26,2.13.42,3.76,2.49,3.69,4.4-.07,1.92-1.64,3.8-3.72,4.17-1.39.25-2.84.26-4.26.26-1.06,0-1.57.23-1.79,1.45-.85,4.85-3.97,7.8-8.85,8.01-5.05.21-10.13.09-15.19-.05-2.04-.05-3.55-1.62-4.04-3.64-.36-1.47.6-3.86,2.21-4.61,1.13-.53,2.49-.73,3.75-.76,3.51-.08,7.02,0,10.52,0,.77,0,1.54-.08,2.51-.14,0-3.04,0-5.95,0-8.86,0-3.18,0-6.37,0-9.55,0-5.14,2.89-8.78,7.92-9.79,1.37-.27,1.83-.86,1.77-2.21-.09-2.08-.07-4.16-.01-6.24.04-1.34-.48-1.83-1.83-1.81-4.03.06-8.06.06-12.08,0-3.37-.04-5.28-1.85-5.15-4.74.11-2.58,1.96-4.23,5.01-4.38,1.35-.07,2.71-.01,4.36-.01,0-3.09.04-6.05-.06-9.01-.01-.32-.85-.83-1.35-.89-1.48-.18-3-.04-4.46-.27-2.14-.34-3.41-1.95-3.5-4.06-.09-2.23,1.07-4.05,3.22-4.48,1.94-.38,3.95-.41,6.06-.61.04-.56.1-1.13.1-1.7,0-8.32-.05-16.63.04-24.95.02-1.77-.55-2.31-2.22-2.17-1.09.09-2.21.03-3.31-.09-2.26-.24-3.79-1.9-3.9-4.12-.12-2.28,1.12-4.09,3.35-4.59,1.25-.28,2.56-.34,3.84-.36,3.18-.05,6.37-.11,9.55.02,1.76.07,2.4-.42,2.34-2.26-.12-3.89-.05-7.8-.03-11.69.02-2.98,1.88-5.05,4.49-5.06,2.6,0,4.65,2.26,4.7,5.19q.07,4.39,4.58,4.39c1.17,0,2.34-.07,3.51.02,1.4.1,1.85-.55,1.79-1.84-.05-.97-.02-1.95,0-2.92.07-2.73,2.05-4.85,4.52-4.85,2.43,0,4.63,2.19,4.67,4.83.07,4.16.02,8.32.02,12.47,0,.45.05.9.09,1.65,2.98,0,5.94.04,8.89-.06.31-.01.77-.77.87-1.24,1.14-5.17,4.44-7.96,9.72-8.05,2.98-.05,5.96,0,9.3,0,0-1.68-.03-3.15,0-4.62.08-2.88,2.1-5.03,4.63-4.99,2.48.04,4.38,2.12,4.51,4.92.01.26,0,.52,0,.78.03,3.47.07,3.35,3.28,4.45,4.01,1.37,5.79,4.56,6.41,8.76.61.03,1.23.08,1.86.08,8.32,0,16.63-.03,24.95.04,1.59.01,2.22-.41,2.11-2.06-.13-1.94-.12-3.9,0-5.84.09-1.57-.53-2.04-2.03-2.02-4.94.06-9.88-.17-14.81.07-6.92.33-10.72-2.39-12.15-9.35-1.84-.14-3.73-.13-5.55-.47-2.37-.43-3.68-2.15-3.66-4.35.02-2.2,1.4-3.87,3.75-4.27,1.33-.23,2.71-.23,4.07-.2,1.14.02,1.66-.31,1.62-1.54-.07-2.34.05-4.68-.08-7.01-.03-.55-.66-1.38-1.18-1.52-5.44-1.55-7.33-3.53-8.36-9.2h-9.78c0,1.49.02,2.9,0,4.31-.05,2.9-1.82,4.86-4.43,4.94-2.65.08-4.64-1.96-4.7-4.88-.03-1.42,0-2.84,0-4.52-3.1,0-6-.04-8.9.06-.36.01-.94.77-1,1.23-.15,1.08-.03,2.2-.06,3.31-.07,2.87-1.92,4.81-4.56,4.8-2.58-.01-4.49-2.01-4.57-4.83-.04-1.42,0-2.84,0-4.65-2.87,0-5.58.16-8.26-.05-2.02-.16-4.17-.44-5.96-1.29-3.26-1.55-4.73-4.51-4.86-8.07-.1-2.73-.06-5.46,0-8.19.02-1.07-.41-1.47-1.41-1.66-5.02-.96-8.01-4.33-8.04-9.02-.04-4.88,2.83-8.22,7.96-9.29.44-.09.86-.25,1.47-.43,0-1.48-.04-2.97,0-4.45.08-2.84,1.96-4.76,4.59-4.76,2.7,0,4.51,1.84,4.54,4.75.04,3.96.11,7.93-.03,11.89-.07,1.94.63,2.48,2.45,2.39,2.44-.13,4.9-.03,7.53-.03,0-1.04,0-1.74,0-2.44,0-6.95,0-13.9,0-20.86,0-3.13,1.81-5.23,4.51-5.31,2.77-.08,4.61,2.04,4.64,5.33q.03,4.21,4.25,4.22c1.43,0,2.87.11,4.28-.07.52-.07,1.33-.82,1.36-1.3.14-2.26.07-4.54.06-6.82,0-.45-.05-.89-.11-1.68-1.43,0-2.83.05-4.22,0-2.89-.12-4.88-1.75-5.12-4.1-.26-2.57,1.26-4.62,3.83-4.96,1.28-.17,2.6-.18,3.89-.12,1.38.06,1.81-.51,1.76-1.84-.09-2.14-.08-4.29,0-6.43.05-1.19-.34-1.73-1.55-1.96-5.11-.96-7.95-4.34-7.97-9.47-.02-4.48.08-8.97-.02-13.45-.07-3.07,2.05-4.95,4.55-4.99,2.72-.04,4.66,2.06,4.69,5.12.04,3.9.08,7.8-.02,11.69-.04,1.65.36,2.38,2.15,2.24,1.87-.15,3.77-.11,5.65,0,1.49.08,2.18-.36,2-1.96-.12-1.03-.09-2.08.01-3.11.25-2.62,2.38-4.63,4.72-4.55,2.43.08,4.44,2.1,4.46,4.76.05,8.06.09,16.11-.03,24.17-.06,4.34-3.28,7.84-7.64,8.59-1.4.24-2,.76-1.91,2.26.13,2.14.07,4.29.02,6.43-.03,1.08.38,1.55,1.46,1.53,2.34-.02,4.68.07,7.01-.06.52-.03,1.34-.72,1.46-1.24.99-4.44,3.43-7.35,8.07-8.09,1-.16,1.48-.58,1.4-1.65-.08-1.1-.07-2.21,0-3.31.16-2.79,2.13-4.7,4.73-4.66,2.68.04,4.41,1.89,4.48,4.81.03,1.47,0,2.94,0,4.37,2.29.2,4.24.23,6.13.57,2.04.37,3.5,2.4,3.45,4.36-.05,2.02-1.52,3.84-3.64,4.2-1.4.24-2.84.25-4.26.22-1.15-.03-1.56.43-1.76,1.53-.81,4.45-3.35,6.94-7.97,7.87-1.07.22-1.49.67-1.48,1.82.06,5.46.05,10.92,0,16.37,0,1.07.41,1.44,1.4,1.67,5.75,1.3,8.14,4.36,8.13,10.32,0,8.51-.01,17.02,0,25.53,0,.91-.25,1.88,1.19,2.25,5.69,1.49,7.37,3.33,8.59,9.26,2.57,0,5.21,0,7.85,0,3.43,0,6.78.59,8.77,3.65,1.15,1.76,2.11,4,2.18,6.05.25,7.66.11,15.33.09,23,0,3.01-2.06,5.26-4.67,5.19-2.66-.07-4.44-2.1-4.48-5.11q-.06-4.49-4.57-4.49c-.13,0-.26,0-.39,0-1.43.03-3.12-.4-4.2.22-.88.51-1.01,2.28-1.52,3.48-1.87,4.41-5.41,6.02-9.02,5.85-4.44-.2-7.88-3.19-8.71-7.34-.35-1.75-1.01-2.37-2.8-2.25-2.33.16-4.68.09-7.01.02-5.1-.15-8.48-3.07-9.46-8.09-.07-.38-.18-.75-.33-1.33h-9.53c0,3.09-.04,5.99.05,8.89.01.38.61,1.02,1.01,1.08,5.22.8,7.69,4.12,8.54,9.37,1.33,0,2.73-.03,4.13,0,2.2.06,4.43-.04,6.6.29,4.48.67,7.23,3.33,8.05,7.78.25,1.39.8,1.68,2.02,1.64,2.01-.06,4.03-.02,6.04-.01,6.96,0,9.9,2.39,11.38,9.39,2.86,0,5.77.04,8.68-.06.36-.01.92-.77.98-1.24.15-1.15.03-2.33.07-3.5.11-2.79,1.88-4.54,4.55-4.54,2.58,0,4.51,1.83,4.57,4.57.08,3.38.02,6.76.02,10.14,0,5.84,0,11.69,0,17.53,0,3.26-1.84,5.35-4.65,5.32-2.82-.03-4.47-1.95-4.5-5.22,0-.13,0-.26,0-.39q0-3.28-3.14-4.36c-3.6-1.23-5.5-3.9-6.44-7.46-.16-.62-.7-1.55-1.17-1.62-5.24-.8-7.67-4.14-8.56-9.28ZM481.82,749.15c4.22,0,8.44-.05,12.66.03,1.46.03,1.89-.45,1.88-1.89-.06-8.44-.06-16.88,0-25.31,0-1.44-.45-1.9-1.89-1.89-8.44.05-16.88.05-25.31,0-1.45,0-1.9.46-1.89,1.9.05,8.44.06,16.88,0,25.31,0,1.46.46,1.91,1.9,1.88,4.22-.08,8.44-.03,12.66-.03ZM467.29,577.17c.71.1,1.21.24,1.72.24,8.51.01,17.02-.01,25.53.04,1.49,0,1.83-.58,1.82-1.98-.06-8.38-.02-16.76-.03-25.14,0-.56-.1-1.11-.16-1.78-9.34,0-18.49.01-27.65-.01-1.31,0-1.23.84-1.23,1.7,0,3.77,0,7.54,0,11.3,0,5.13,0,10.25,0,15.63ZM443.65,663.36c4.22,0,8.44-.02,12.66.01,1.08,0,1.67-.15,1.94-1.49.87-4.33,3.36-7.24,7.94-7.93,1.22-.18,1.59-.83,1.56-1.99-.06-2.08-.08-4.16,0-6.23.06-1.56-.61-2-2.09-1.99-5.19.06-10.39.05-15.59,0-1.26-.01-1.76.36-2,1.7-.79,4.41-3.42,7.09-7.9,7.67-3.07.4-6.21.29-9.32.27-1.38,0-1.83.47-1.77,1.81.08,2.01.1,4.03,0,6.04-.08,1.59.45,2.19,2.09,2.15,4.15-.09,8.31-.03,12.47-.03ZM438.99,672.65c-1.01,5-3.36,8.52-8.71,9.27-.44.06-1.08.91-1.1,1.42-.12,2.33-.01,4.67-.07,7-.03,1.21.49,1.55,1.62,1.54,5.45-.04,10.9-.04,16.35,0,1.02,0,1.47-.29,1.66-1.36.82-4.57,3.5-7.14,8.04-8.04.51-.1,1.28-.78,1.3-1.22.12-2.83.06-5.67.06-8.61h-19.15ZM496.33,763.46q0-5.16-5.17-5.16-4.78,0-4.78,4.76,0,5.18,5.16,5.18,4.78,0,4.79-4.78Z"/>
        <path class="cls-2" d="M276.71,615.4c-2.04-.16-3.93-.15-5.76-.49-2.35-.44-3.56-2.17-3.49-4.45.07-2.16,1.36-3.91,3.65-4.1,3.61-.29,7.26-.2,10.89-.26.84-.01,1.7-.07,2.53.02,1.39.15,1.9-.39,2.11-1.8.58-3.89,3.78-7.03,7.6-7.58,1.24-.18,1.84-.56,1.77-1.93-.1-2.2-.07-4.42,0-6.63.03-1.13-.37-1.6-1.51-1.76-4.78-.71-7.95-4.4-7.98-9.27-.03-5.72-.05-11.43.02-17.15.02-1.43-.43-2.02-1.89-2.3-4.82-.92-8.11-5.14-7.75-9.71.38-4.76,4.22-8.46,9.22-8.59,5.78-.14,11.56-.09,17.35-.04,1.42.01,2.03-.38,2.27-1.9.66-4.3,4.58-7.55,9.04-7.71,4.06-.15,8.11,2.72,9.02,6.93.5,2.3,1.46,2.75,3.61,2.71,7.86-.13,15.72-.09,23.58-.02,1.73.02,2.49-.44,2.33-2.3-.16-1.81-.14-3.64,0-5.45.13-1.62-.43-2.26-2.06-2.53-5.15-.87-8.69-6.23-7.3-11.18,1.06-3.76,3.48-6.36,7.54-6.96,1.33-.2,1.89-.7,1.82-2.13-.12-2.2.02-4.42-.07-6.62-.02-.51-.49-1.39-.84-1.43-5.51-.71-8.02-4.26-8.98-9.4h-28.22c-.61,1.57-1.07,3.19-1.83,4.64-1.38,2.63-3.63,4.25-6.61,4.56-1.44.15-1.63.87-1.62,2.06.03,7.08.02,14.16.01,21.24,0,3.34-1.71,5.43-4.49,5.51-2.73.07-4.67-2.22-4.67-5.57,0-16.37,0-32.74,0-49.12,0-.77,0-1.54,0-2.39-.78-.17-1.4-.33-2.03-.45-4.27-.82-7.33-4.4-7.44-8.77-.04-1.62-.04-3.25,0-4.87.07-2.74,1.87-4.64,4.41-4.72,2.4-.08,4.55,1.89,4.77,4.47.1,1.16.09,2.34.01,3.51-.08,1.21.43,1.56,1.59,1.56,8.51-.03,17.02-.05,25.53.02,1.6.01,1.8-.76,1.79-2.02-.02-5.65-.02-11.3,0-16.96,0-4.11,1.89-7.14,5.59-8.82,3.41-1.55,6.82-1.12,9.67,1.3,2.74,2.32,4.08,5.4,3.2,9.06-.89,3.69-3.09,6.37-6.95,7.05-1.9.34-2.49,1.09-2.37,2.89.12,1.94.07,3.9.03,5.85-.03,1.27.5,1.67,1.75,1.65,5.46-.05,10.91-.04,16.37-.02,5.94.02,9.11,2.59,10.54,8.34.13.54.91,1.18,1.49,1.31,4.46.95,7.12,3.55,7.88,8,.17,1.02.55,1.5,1.62,1.45,1.1-.05,2.21-.06,3.31.02,2.75.18,4.55,1.83,4.75,4.26.17,2.15-1.52,4.16-4.06,4.68-.88.18-1.8.16-2.7.19-.83.03-1.67,0-2.86,0,0,2.69-.02,5.2,0,7.71.03,2.55.02,5.02-1.64,7.24-1.57,2.1-3.49,3.48-6.07,3.82-1.35.18-1.87.72-1.79,2.13.12,2.14.07,4.29.02,6.43-.03,1.1.25,1.71,1.5,1.68,2.34-.05,4.68.06,7.01-.08.51-.03,1.3-.76,1.42-1.29.99-4.44,3.43-7.3,8.09-8.08.53-.09,1.18-.87,1.34-1.45,1.19-4.38,3.58-7.43,8.35-8.14.5-.08,1.19-.76,1.3-1.27,1.29-5.64,4.67-8.42,10.47-8.46,2.34-.01,4.68-.04,7.02.02,1.12.03,1.69-.28,1.66-1.51-.06-2.27-.05-4.55,0-6.82.02-1.17-.52-1.53-1.61-1.7-4.64-.71-8.16-4.8-8.1-9.29.07-4.54,3.61-8.38,8.36-9.08,4.46-.65,8.65,2.15,10.11,6.78.23.74.37,1.51.57,2.34,1.89.16,3.83.21,5.72.53,2.27.39,3.65,2.37,3.49,4.66-.15,2.2-1.72,3.88-3.95,4.1-1.29.12-2.6.13-3.89.1-1.18-.03-1.59.44-1.56,1.62.07,2.53.03,5.07.02,7.6-.02,5.58-3.88,9.64-9.42,9.82-2.6.09-5.2.09-7.8.01-1.4-.04-1.98.35-1.92,1.86.11,2.58.03,5.18.03,7.92h19.34c0-1.35,0-2.63,0-3.91.02-3.27,1.83-5.33,4.66-5.33,2.8,0,4.48,1.93,4.5,5.19.02,3.83.08,7.67-.03,11.5-.05,1.74.42,2.55,2.28,2.37,1.09-.11,2.21-.05,3.31.07,2.22.25,3.99,2.13,4.13,4.25.13,1.89-1.5,4.07-3.59,4.49-1.51.3-3.08.33-4.63.34-1.1,0-1.52.43-1.47,1.5.05,1.04.02,2.08,0,3.12-.07,2.93-1.86,4.79-4.55,4.76-2.6-.03-4.55-2.01-4.59-4.79-.05-4.09-.09-8.19.02-12.28.04-1.58-.49-1.99-1.99-1.98-8.32.06-16.63.06-24.95,0-1.63-.01-2.19.54-2.11,2.14.1,2.07-.05,4.16.08,6.23.04.6.62,1.59,1.07,1.66,5.4.82,7.86,4.31,8.76,9.58,1.58,0,3.13-.07,4.67.02,2.61.15,4.28,1.69,4.49,3.98.23,2.56-1.14,4.43-3.88,4.92-1.7.3-3.46.27-5.49.41,0,2.69,0,5.39,0,8.09,0,6.03-2.52,9.16-8.36,10.66-.55.14-1.21,1.12-1.24,1.74-.14,2.72-.19,5.46-.03,8.18.24,4.16-3.94,9.05-8.42,9.09-2.92.03-5.84.15-8.76.12-1.4-.01-2,.45-1.94,1.92.09,2.14.05,4.29.03,6.43-.01,1.05.4,1.51,1.51,1.5,1.35-.02,2.73.01,4.06.23,2.47.4,4.21,2.51,4.04,4.69-.18,2.36-1.98,4.25-4.53,4.19-3.04-.07-5.15.11-5.95,3.96-.63,3.04-3.41,4.95-6.74,5.45-.57.09-1.12.28-1.85.47,0,1.44.02,2.86,0,4.28-.06,3.02-1.85,4.95-4.58,4.94-2.78,0-4.55-1.88-4.55-4.93,0-2.13-.15-4.34.3-6.39.84-3.8,3.28-6.31,7.24-6.93,1.47-.23,1.92-.83,1.86-2.27-.11-2.57-.03-5.16-.03-7.98-1.65,0-3.07.08-4.47-.02-1.88-.13-3.57-.68-4.45-2.6-.75-1.64-.76-3.41.48-4.54,1.09-1,2.74-1.53,4.23-1.9,1.22-.3,2.57-.06,4.04-.06v-9.93c-2.89,0-5.85-.03-8.8.05-.3,0-.77.67-.84,1.08-1.02,6-5.6,8.59-11.21,8.48-8.31-.16-16.63-.07-24.95-.07-.57,0-1.14.11-1.89.19,0,2.96-.04,5.81.05,8.65.01.39.6,1.04,1,1.11,5.28.84,7.78,4.22,8.57,9.49,2.95,0,5.91.04,8.88-.06.3,0,.78-.77.82-1.22.12-1.22,0-2.47.06-3.7.14-2.7,2.05-4.51,4.64-4.48,2.43.03,4.41,1.9,4.45,4.48.08,5,.14,10.01-.02,15.01-.14,4.2-3.6,7.86-7.83,8.46-1.25.18-1.67.67-1.66,1.85.04,2.65.01,5.3.01,8.06h9.8c0-1.44-.03-2.79,0-4.13.07-3.07,1.98-5.13,4.71-5.11,2.72.02,4.43,1.93,4.51,5.01,0,.19,0,.39,0,.58q.02,3.3,3.14,4.38c3.81,1.31,6.39,4.85,6.44,8.85.02,1.56.05,3.12-.01,4.68-.11,2.6-2.17,4.65-4.6,4.64-2.49-.01-4.39-2-4.53-4.68-.08-1.53.36-3.74-.45-4.42-.99-.83-3.06-.46-4.66-.48-4.16-.04-8.32,0-12.47-.03-1.12,0-1.73.25-2,1.52-1.04,4.94-4.1,7.69-9.11,8.09-1.92.15-3.9.06-5.8-.26-2.33-.39-3.82-2.43-3.68-4.55.15-2.23,1.74-3.92,4.12-4.2,1.22-.14,2.47-.12,3.7-.08,1.12.04,1.69-.32,1.69-1.53-.02-5.52-.01-11.04,0-16.57,0-1.02-.42-1.44-1.47-1.61-4.35-.71-7.12-3.44-7.94-7.93-.21-1.13-.66-1.51-1.67-1.67-4.55-.73-6.97-3.58-7.95-7.94-.12-.54-.91-1.29-1.43-1.32-2.33-.14-4.68-.12-7.01,0-.48.02-1.3.72-1.32,1.13-.12,2.78-.06,5.56-.06,8.64,1.49,0,2.83-.05,4.16.01,3.88.19,6.17,3.19,4.87,6.35-.71,1.71-1.95,2.74-3.85,2.79-1.66.04-3.33,0-5.19,0,0,1.76.02,3.12,0,4.47-.05,2.96-2.09,5.2-4.71,5.18-2.61-.02-4.45-2.1-4.5-5.08,0-.52-.06-1.05,0-1.56.25-1.98-.31-2.89-2.56-3.3-3.53-.64-5.66-3.21-6.71-6.62-.23-.74-.35-1.51-.54-2.32ZM295.82,577.23c.64.07,1.2.2,1.77.2,8.37.01,16.75-.03,25.12.03,1.62.01,1.94-.7,1.93-2.1-.04-8.24-.01-16.49-.02-24.73,0-.63-.1-1.27-.16-1.91h-28.64v28.5ZM362.66,491.42c0-2.83-.05-5.48.02-8.12.03-1.23-.38-1.7-1.62-1.84-2.37-.25-4.4-1.37-5.66-3.37-1.1-1.76-1.82-3.77-2.8-5.87-.18-.01-.69-.07-1.21-.07-14.73,0-29.46.01-44.19-.04-1.58,0-2.23.4-2.1,2.06.13,1.68.03,3.37.03,5.06q0,2.84,2.85,2.85c11.55,0,23.1.03,34.65-.01,4.58-.02,7.86,1.9,9.64,6.15.41.99.57,2.09.85,3.19h9.53ZM362.49,548.5c.3.14.42.23.53.23,9.03.02,18.06.06,27.09,0,.45,0,1.24-.86,1.27-1.36.14-2.27.02-4.55.08-6.82.03-1.26-.45-1.73-1.71-1.71-2.66.05-5.33.02-7.99,0-3.79-.03-6.62-1.77-8.38-5.07-.68-1.27-.92-2.78-1.35-4.16h-9.54v18.89ZM343.33,548.55c0,3.06-.06,5.84.06,8.61.02.42.82,1.13,1.29,1.16,2.39.12,4.8.13,7.19,0,.49-.03,1.3-.84,1.33-1.33.14-2.39.12-4.8,0-7.19-.02-.43-.78-1.17-1.22-1.18-2.77-.11-5.56-.06-8.65-.06Z"/>
        <path class="cls-2" d="M219.47,615.39c-.44,3.16-1.56,5.86-4.24,7.67-2.94,1.98-6.09,2.23-9.24.73-3.46-1.64-5.26-4.57-5.45-8.36-.14-2.72-.05-5.46-.02-8.18,0-.95-.16-1.54-1.3-1.74-5.18-.91-8.51-5.04-8.12-9.95.37-4.77,4.3-8.35,9.5-8.53,2.66-.1,5.33-.06,7.99,0,1.17.02,1.63-.38,1.6-1.57-.06-2.34.06-4.68-.08-7.01-.03-.53-.78-1.41-1.25-1.45-5.1-.42-8.63-5.59-8.39-10.72.24-5.12.05-10.26.05-15.4,0-.69,0-1.39,0-2.2h-19.19c-.08.38-.15.74-.22,1.11-1.03,5.15-4.4,8.03-9.65,8.17-2.53.07-5.07.07-7.6,0-1.31-.04-1.89.35-1.83,1.76.09,2.14.08,4.29,0,6.43-.05,1.34.4,1.81,1.77,1.8,3.24,0,6.51-.08,9.71.31,4.33.52,7.56,4.42,7.61,8.78.05,4.74.04,9.49,0,14.23-.02,2.85-1.94,4.84-4.53,4.83-2.61-.01-4.55-1.98-4.59-4.79-.05-4.16-.06-8.32,0-12.47.02-1.35-.39-1.85-1.77-1.79-2.08.09-4.16.11-6.23,0-1.54-.08-2.02.44-2,1.98.07,6.63.03,13.25.03,19.88,0,4.81.07,9.62-.03,14.42-.04,1.68.39,2.24,2.15,2.21,6.76-.1,13.51-.06,20.27-.02,1.03,0,2.08.12,3.07.39,2.07.56,3.37,2.63,3.14,4.79-.21,2.06-1.83,3.71-3.93,3.9-1.36.12-2.74,0-4.08.18-.53.07-1.4.67-1.42,1.06-.12,2.83-.07,5.67-.07,8.63h38.44c0-1.38-.02-2.72,0-4.06.04-3.03,1.98-5.16,4.66-5.17,2.79,0,4.51,1.95,4.54,5.17.01,1.28,0,2.57,0,4.05.92.05,1.61.13,2.29.13,3.83.01,7.67-.05,11.5.02,2.11.04,4,.72,4.9,2.85.75,1.77.54,3.52-.86,4.86-.7.66-1.73,1.14-2.69,1.33-1.19.24-2.46.15-3.69.13-1.08-.01-1.68.16-1.95,1.5-.88,4.33-3.38,7.23-7.96,7.92-1.07.16-1.47.66-1.63,1.76-.63,4.18-3.63,7.16-7.84,7.75-1.31.18-1.62.73-1.55,1.89.06,1.1.06,2.21,0,3.31-.14,2.47-2.16,4.5-4.49,4.57-2.44.07-4.53-1.96-4.63-4.58-.07-1.82-.08-3.64,0-5.46.2-4.01,3.39-7.67,7.46-8.37,1.55-.27,2.06-.86,1.96-2.4-.13-2.01-.09-4.03,0-6.04.05-1.3-.32-1.92-1.73-1.87-2.14.08-4.29.05-6.43,0-1.12-.03-1.58.4-1.79,1.52-.9,4.85-4.76,8.18-9.3,8.12-4.51-.06-8.28-3.27-9.16-8.06-.24-1.3-.76-1.6-1.89-1.58-2.14.04-4.29.03-6.43,0-1.02-.01-1.58.18-1.83,1.42-1.05,5.31-4.58,8.18-10,8.23-1.74.01-3.51-.04-5.21-.36-2.13-.41-3.37-2.25-3.32-4.41.05-2.14,1.4-3.84,3.61-4.17,1.46-.22,2.99-.05,4.46-.25.51-.07,1.32-.71,1.34-1.12.12-2.84.06-5.7.06-8.62-.77-.18-1.4-.34-2.02-.47-3.86-.78-6.67-3.73-7.43-7.58-.13-.66-.75-1.61-1.31-1.75-5.13-1.22-7.38-3.49-8.34-8.71-.03-.18-.12-.36-.25-.75-1.43,0-2.92.08-4.39-.02-2.06-.15-3.85-.93-4.56-3.05-.57-1.71-.41-3.57,1.1-4.62,1.19-.83,2.82-1.3,4.28-1.38,3.83-.22,3.84-.11,3.84-4.02,0-1.88,0-3.76,0-5.77-.69-.18-1.29-.37-1.9-.5-4.08-.86-6.81-3.61-7.49-7.69-.16-.97-.41-1.57-1.52-1.55-1.88.03-3.77-.01-5.65,0-.84,0-1.68.08-2.64.13v9.49c1.88.15,3.74.21,5.57.48,2.26.33,3.75,2.27,3.67,4.53-.08,2.26-1.72,4.18-3.99,4.25-4.22.14-8.44.17-12.66.1-1.8-.03-2.52.45-2.47,2.4.13,5.58.06,11.17.04,16.76-.02,5.26-3.89,9.3-9.09,9.53-4.4.2-8.92-3.64-9.42-7.98-.6-5.25,2.5-9.57,7.64-10.5,1.22-.22,1.81-.61,1.74-1.97-.11-2.14-.1-4.29,0-6.43.06-1.39-.48-1.81-1.79-1.8-2.86.03-5.72.05-8.57-.09-4.61-.24-8.48-4.09-8.74-8.66-.1-1.75-.08-3.51,0-5.26.11-2.55,2.22-4.57,4.66-4.57,2.59,0,4.39,1.86,4.48,4.64q.16,4.74,4.86,4.74c4.29,0,8.58-.06,12.86.03,1.48.03,1.95-.51,1.89-1.92-.08-2.08-.06-4.16,0-6.24.03-1.2-.43-1.71-1.65-1.88-4.57-.65-8-4.67-8.02-9.34-.02-8.71,0-17.41,0-26.12,0-.7,0-1.41,0-2.38-3.11,0-6.07-.02-9.03.04-.3,0-.79.5-.84.81-.78,5.27-4.04,7.89-9.09,8.65-.05,0-.1.07-.37.26,0,1.13,0,2.41,0,3.7-.02,3.29-1.77,5.36-4.57,5.39-2.91.04-4.59-1.87-4.59-5.27,0-10.01,0-20.01,0-30.02,0-2.68,0-2.63-2.61-2.69-1.29-.03-2.6-.1-3.84-.41-1.81-.44-3.33-2.65-3.24-4.4.11-1.94,1.76-3.92,3.72-4.19,1.47-.2,3-.02,4.46-.24.56-.08,1.34-.74,1.47-1.27,1.29-5.47,4.57-8.23,10.18-8.3,1.74-.02,3.51.05,5.21.36,2.01.37,3.21,2.19,3.19,4.31-.02,2.11-1.27,3.85-3.33,4.21-1.52.26-3.11.11-4.65.32-.51.07-1.33.69-1.34,1.09-.12,2.85-.06,5.7-.06,8.55.36.14.59.27.84.31,4.88.77,7.79,3.5,8.61,8.44.07.41.71,1.01,1.1,1.02,2.84.09,5.69.05,8.47.05,1.8-6.64,4.68-9.45,9.64-9.55,4.84-.11,7.86,2.78,9.86,9.56,2.71,0,5.5.05,8.28-.05.43-.02,1.17-.72,1.18-1.13.11-2.78.06-5.56.06-8.67-1.61,0-3.02.07-4.41-.02-2.04-.13-3.76-.83-4.73-2.85-.77-1.6-.55-3.11.51-4.37.66-.78,1.68-1.37,2.66-1.76.74-.3,1.66-.19,2.51-.2,2.94-.03,2.94-.02,3.78-2.84,1.06-3.6,4.02-6.15,7.72-6.46,1.29-.11,1.47-.74,1.46-1.77-.02-4.09-.01-8.19,0-12.28.01-3.11,1.84-5.25,4.51-5.33,2.72-.08,4.6,2.09,4.63,5.36q.03,4.13,4.23,4.23c2.9.07,4.44,1.04,5.16,3.28.57,1.77-.08,3.92-1.83,4.89-1.08.6-2.43.8-3.68.96-1.2.16-2.43.03-3.72.03-.35,3.24-1.47,5.91-4.05,7.65-1.09.74-2.42,1.31-3.72,1.54-1.36.24-1.84.68-1.81,2.1.08,5.26.08,10.53,0,15.79-.02,1.44.41,1.99,1.87,1.93,2.14-.09,4.29.04,6.43-.08.54-.03,1.41-.6,1.49-1.04.92-4.99,3.89-7.74,8.84-8.48.19-.03.36-.14.74-.3,0-4.53-.02-9.13,0-13.73.02-2.56,1.3-4.28,3.44-4.77,2.98-.68,5.48,1.15,5.67,4.21.08,1.23-.12,2.49.08,3.69.09.53.81,1.25,1.33,1.34,1.27.21,2.59.03,3.88.15,2.42.23,4.07,1.87,4.23,4.06.17,2.35-1.2,4.19-3.66,4.75-.93.21-1.92.25-2.88.3-.89.05-1.79.01-2.95.01,0,3.1-.04,6,.05,8.9.01.33.74.9,1.16.92,2.47.09,4.94.11,7.4,0,.46-.02,1.17-.71,1.29-1.21,1.39-5.7,4.65-8.32,10.55-8.35,4.03-.02,8.06-.03,12.08,0,2.1.02,3.99.51,5.06,2.61,1.32,2.59.03,5.65-2.82,6.25-1.5.31-3.09.28-4.65.29-1.08,0-1.54.42-1.54,1.49,0,8.77-.02,17.54.07,26.31,0,.49.85,1.33,1.38,1.39,5.4.57,8.48,5.92,8.17,10.24-.2,2.77-.04,5.57-.04,8.73,1.66,0,3.19-.07,4.71.02,2.09.12,3.82.95,4.53,3.07.57,1.73.35,3.53-1.14,4.61-1.08.78-2.56,1.14-3.91,1.38-1.25.22-2.57.05-4.16.05,0,3.11-.04,6.07.06,9.03.01.32.86.85,1.34.87,2.14.1,4.29.05,6.43.05,6.95,0,9.92,2.39,11.42,9.2,1.91.17,3.86.19,5.74.55,2.41.46,3.73,2.46,3.49,4.86-.21,2.15-1.85,3.81-4.12,3.9-2.33.09-4.69.16-7-.1-3.94-.44-6.54-3.64-7.66-9.11h-9.59ZM152.8,548.64c-.74-.04-1.26-.09-1.77-.09-8.38,0-16.76.04-25.13-.04-1.66-.02-2.07.55-2.06,2.12.06,8.18.08,16.37-.01,24.55-.02,1.87.67,2.29,2.37,2.28,8.18-.06,16.37-.02,24.55-.04.68,0,1.36-.13,2.06-.2v-28.59Z"/>
        <path class="cls-2" d="M238.68,672.77c0-1.6-.02-2.95,0-4.3.05-3.04,1.98-5.09,4.73-5.07,2.75.02,4.41,1.9,4.47,5.02q.07,4.34,4.45,4.35c4.42,0,8.84-.06,13.25.03,1.49.03,1.98-.49,1.87-1.9-.08-.97-.03-1.95,0-2.92.1-2.8,1.85-4.55,4.52-4.56,2.51-.01,4.52,1.9,4.65,4.52.08,1.49.01,2.98.01,4.66h19.36c0-3.21-.04-6.43.01-9.65.07-4.34,3.3-8.07,7.55-8.94,6.1-1.24,11.01,3.6,11.23,8.96.13,3.24.09,6.5.01,9.74-.11,4.51-3.26,8.24-7.72,8.99-1.57.26-1.99.88-1.96,2.39.09,5.13.08,10.26,0,15.4-.03,1.54.48,2.1,2,2.04,2.14-.08,4.29-.05,6.43-.02,1.01.01,1.4-.34,1.62-1.41,1.09-5.33,4.58-8.17,10.03-8.2,1.8-.01,3.65.04,5.4.4,2.04.42,3.22,2.28,3.16,4.36-.06,2.03-1.39,3.73-3.46,4.09-1.39.25-2.84.28-4.26.25-1.32-.03-1.88.37-1.82,1.77.09,2.14.09,4.29,0,6.43-.06,1.34.38,1.82,1.76,1.8,3.96-.08,7.93-.07,11.89-.01,2,.03,3.87.47,4.9,2.52,1.36,2.73.05,5.71-2.95,6.33-1.38.28-2.84.29-4.26.25-1.24-.03-1.78.37-1.76,1.64.04,2.71.01,5.42.01,8.33,4.45,0,8.6-.02,12.75.01.96,0,1.95.09,2.88.31,2.21.53,3.41,2.17,3.37,4.37-.04,2.1-1.27,3.76-3.41,4.13-1.89.33-3.85.33-5.37.44-1.1,2.22-1.76,4.51-3.19,6.11-1.28,1.44-3.32,2.44-5.21,3.02-1.44.44-1.86.92-1.84,2.32.05,4.22.04,8.44-.06,12.66-.05,2.11-1.58,3.82-3.43,4.18-2.29.45-4.28-.4-5.17-2.46-.4-.91-.43-2.01-.49-3.02-.08-1.21-.02-2.43-.02-3.75h-28.86c0,3.02-.04,6.04.07,9.06,0,.28.95.73,1.46.74,2.47.08,4.94.01,7.4.04,6.16.08,10.07,4.03,10.1,10.17.01,2.47.06,4.94-.01,7.41-.04,1.26.55,1.53,1.65,1.52,5.39-.03,10.78-.03,16.18,0,1.18,0,1.61-.44,1.58-1.61-.05-2.66-.03-5.33,0-7.99.03-4.71,2.96-8.36,7.59-9.23,1.47-.27,1.92-.85,1.85-2.29-.11-2.27-.03-4.55-.03-6.82,0-5.45,2.77-8.93,8.09-10.06,1.01-.21,1.47-.54,1.67-1.68.83-4.8,4.02-7.64,8.91-7.99,1.93-.14,3.9-.08,5.83.1,2.3.22,3.78,2.08,3.76,4.42-.02,2.32-1.52,4.12-3.84,4.37-1.79.2-3.6.21-5.42.31-.15.7-.24,1.27-.39,1.82-1.08,3.97-3.39,6.67-7.65,7.31-1.09.16-1.76.52-1.75,1.81.05,5.46.04,10.91,0,16.37,0,1.17.58,1.55,1.61,1.75,5,.96,7.98,4.61,7.99,9.72,0,1.36.04,2.73-.01,4.09-.11,2.61-2.13,4.64-4.57,4.65-2.51,0-4.41-1.96-4.57-4.63-.09-1.57.25-3.68-.61-4.56-.8-.81-2.94-.3-4.49-.36-.26-.01-.52,0-.78,0-1.17.04-2.6-.32-3.42.24-.75.51-.85,2-1.22,3.06-1.37,3.87-4.66,6.27-9.17,6.3-10.78.08-21.57.05-32.35,0-2.12,0-3.9-.78-4.85-2.93-.76-1.71-.49-3.43.78-4.47,1.14-.94,2.83-1.56,4.32-1.67,4.09-.29,4.11-.16,4.1-4.26,0-1.62-.03-3.25-.07-4.87,0-.24-.16-.48-.27-.79h-28.59c0,2.52-.06,5.02.02,7.52.08,2.45-.19,4.77-1.52,6.91-1.46,2.35-3.46,3.98-6.2,4.22-2.55.23-5.17.23-7.72-.04-1.91-.2-3.41-2.37-3.41-4.19,0-1.94,1.55-3.95,3.54-4.3,1.39-.24,2.84-.27,4.26-.24,1.32.03,1.89-.4,1.85-1.78-.07-2.14-.08-4.29,0-6.43.05-1.37-.47-1.78-1.82-1.77-7.02.05-14.03.03-21.05.03-2.26,0-4.25-.5-5.38-2.74-1.14-2.26.05-5.35,2.51-5.96,1.61-.4,3.33-.4,5.01-.43,1.14-.02,1.64-.39,1.64-1.58-.03-5.46-.03-10.91,0-16.37,0-1.07-.4-1.54-1.47-1.54-1.36,0-2.73,0-4.08-.16-2.26-.25-4.12-2.33-4.11-4.45,0-2.04,1.8-4.3,3.95-4.35,5.7-.13,11.43-.22,17.12.11,3.36.19,6.51,3.75,7.05,7.43.23,1.58.88,1.87,2.26,1.83,2.51-.08,5.03-.02,7.82-.02,0-1.82,0-3.42,0-5.02s0-3.09,0-4.94c-1.73,0-3.27.08-4.79-.02-2-.14-3.68-.92-4.38-2.98-.6-1.74-.41-3.52,1.04-4.63,1.05-.81,2.54-1.19,3.89-1.44,1.31-.24,2.69-.05,4.07-.05.58-3.94,2.15-6.99,5.74-8.67,1.5-.7,4.04-3.3,4.79-4.75,1.5-2.94,3.7-4.98,7.12-5.43.38-.05.76-.17,1.13-.28.12-.03.21-.13.49-.32,0-2.74.05-5.59-.05-8.43-.01-.4-.72-1.08-1.13-1.1-2.53-.1-5.07-.08-7.6,0-.38.01-1.03.48-1.07.8-.75,5.23-3.92,7.97-8.96,8.84-.12.02-.23.12-.52.29,0,1.32.03,2.74,0,4.15-.07,2.86-2.11,4.96-4.72,4.92-2.68-.05-4.42-1.92-4.47-4.85-.03-1.49-.02-2.99,0-4.48.06-4.69,3.29-8.44,7.95-9.1,1.16-.17,1.52-.61,1.51-1.74-.05-5.46-.05-10.91,0-16.37,0-1.17-.37-1.63-1.56-1.6-2.21.06-4.42.07-6.63,0-1.4-.05-1.78.56-1.77,1.86.05,4.03.03,8.06,0,12.08-.02,3.23-1.78,5.15-4.59,5.11-2.76-.04-4.53-2.06-4.56-5.22-.01-1.29,0-2.57,0-4.11-3.08,0-5.98-.05-8.88.06-.36.01-.96.81-.98,1.27-.1,2.33-.03,4.68-.06,7.01-.02,1.1.52,1.5,1.55,1.51,1.23,0,2.47-.02,3.7.07,2.36.17,4.19,1.95,4.39,4.18.17,2-1.43,4.15-3.66,4.63-1.31.28-2.7.36-4.04.32-1.4-.05-2.03.34-1.95,1.84.1,2.01.1,4.03,0,6.04-.08,1.59.62,2.01,2.07,2,4.29-.02,8.58-.05,12.86.1,2.7.09,4.48,2.42,4.14,5.05-.24,1.84-1.63,3.67-3.45,3.7-5.89.12-11.81.33-17.67-.14-3.95-.32-7.09-4.89-7.12-9.1-.03-5.72-.07-11.43.03-17.15.03-1.67-.54-2.16-2.12-2.05-1.22.08-2.48.02-3.68-.19-2.22-.39-3.55-2.01-3.63-4.18-.08-2.17,1.13-3.95,3.34-4.39,1.88-.37,3.84-.38,6.02-.57,0-2.93.05-5.89-.07-8.85-.01-.32-1.01-.84-1.56-.85-3.96-.07-7.93.09-11.88-.11-1.43-.07-3.19-.58-4.17-1.53-2.54-2.5-1.26-6.33,2.23-7.22.93-.24,1.91-.32,2.88-.33,4.09-.03,8.17-.01,12.6-.01ZM324.38,749.02c.07-.46.17-.84.17-1.21.02-8.71.01-17.41.06-26.12,0-1.51-.82-1.6-2-1.6-8.32.03-16.63.05-24.95-.02-1.54-.01-1.99.44-1.98,1.98.07,8.38.03,16.76.04,25.14,0,.57.08,1.13.13,1.82h28.52ZM295.98,691.86c0-3.1.05-5.88-.06-8.66-.02-.44-.78-1.18-1.22-1.2-2.39-.12-4.8-.13-7.19,0-.5.03-1.35.81-1.38,1.29-.14,2.46-.12,4.93-.01,7.39.02.41.7,1.12,1.09,1.13,2.84.1,5.68.05,8.78.05ZM257.53,758.3c0,3.13-.05,5.96.05,8.8.01.39.72,1.06,1.13,1.08,2.45.1,4.92.11,7.37,0,.46-.02,1.25-.76,1.27-1.2.12-2.45.12-4.92,0-7.37-.02-.45-.77-1.23-1.21-1.25-2.77-.11-5.54-.06-8.63-.06Z"/>
        <path class="cls-2" d="M524.59,472.36c0,2.84.02,5.69,0,8.54-.01,1.34.92,1.18,1.75,1.18,3.96.01,7.93-.02,11.89.02,1.79.02,3.49.27,4.58,2.01,1.78,2.83.56,6.14-2.72,6.8-1.82.36-3.74.34-5.61.33-3.63-.01-7.29.13-10.88-.28-4.58-.53-7.19-3.2-8.04-7.74-.24-1.27-.73-1.64-1.88-1.6-1.17.04-2.34.03-3.5-.06-2.34-.19-4.17-2-4.37-4.22-.17-1.98,1.48-4.18,3.71-4.58,1.83-.33,3.72-.35,5.42-.5.74-1.77,1.28-3.58,2.22-5.15,1.32-2.21,3.36-3.51,6.01-3.89.61-.09,1.6-.87,1.61-1.35.11-5.97.07-11.94.07-18.27-3.06,0-6.01-.04-8.95.06-.3,0-.78.78-.83,1.24-.13,1.09-.04,2.2-.07,3.31-.08,2.84-1.97,4.83-4.56,4.81-2.53-.02-4.58-2.06-4.63-4.83-.08-3.96-.02-7.93-.03-11.89,0-.7-.06-1.39-.09-2.21h-9.52c-.07.65-.18,1.22-.18,1.79-.01,5.2.02,10.4-.03,15.59-.01,1.43.44,2.02,1.94,2.22,4.14.55,7.52,4.61,7.61,8.86.09,4.35-3.02,8.4-7.17,9.22-1.26.25-2.57.37-3.86.37-11.37.03-22.74.01-34.11.01-.7,0-1.41,0-2.32,0-.04.84-.1,1.52-.11,2.21,0,3.9.02,7.8-.01,11.69-.03,2.94-2.15,5.2-4.75,5.14-2.63-.06-4.41-2.1-4.46-5.11q-.07-4.31-4.44-4.47c-3.07-.11-5.09-1.83-5.18-4.42-.08-2.36,1.93-4.41,4.76-4.75.96-.12,1.95-.11,2.92-.02,1.4.13,2.03-.33,1.97-1.82-.09-2.08-.07-4.16,0-6.24.04-1.37-.54-1.85-1.86-1.81-2.08.05-4.16.05-6.24,0-1.29-.04-1.95.34-1.81,1.77.1,1.03.06,2.08,0,3.12-.14,2.56-2.22,4.63-4.62,4.66-2.58.03-4.49-1.96-4.57-4.79,0-.19,0-.39,0-.58-.03-3.58-.03-3.56-3.24-4.66-2.23-.77-3.92-2.22-5.1-4.27-1.88-3.26-1.54-6.8-1.09-10.25.31-2.38,2.68-3.82,4.87-3.53,2.55.34,3.97,1.96,4.06,4.64q.17,4.68,4.91,4.68c4.29,0,8.58-.05,12.86.03,1.37.02,1.85-.47,1.81-1.8-.06-2.08-.05-4.16,0-6.24.03-1.25-.39-1.83-1.74-2.01-4.37-.59-7.83-4.59-7.9-9.03-.05-3.16,0-6.33,0-9.56-2.07-.16-3.94-.19-5.77-.48-2.41-.38-3.79-2.3-3.64-4.73.14-2.27,1.76-3.91,4.13-4.1,1.29-.1,2.61.02,3.89-.17.51-.08,1.31-.71,1.32-1.12.12-2.78.06-5.56.06-8.65-1.55,0-2.96.06-4.35-.01-2.55-.13-4.4-1.45-4.93-3.41-.52-1.94.08-3.92,1.81-4.95.89-.53,2.06-.71,3.12-.81,1.34-.13,2.7-.03,4.2-.03v-9.85c-2.98,0-5.88-.04-8.78.05-.34.01-.89.69-.94,1.1-.13,1.15-.03,2.33-.06,3.5-.09,2.82-1.84,4.64-4.45,4.67-2.6.02-4.59-1.94-4.7-4.7-.05-1.43,0-2.85,0-4.62-3.1,0-6.12-.03-9.14.06-.28,0-.75.83-.76,1.28-.05,5.52-.07,11.04.02,16.57,0,.52.72,1.36,1.25,1.5,6.11,1.69,8.39,4.63,8.39,11.04,0,2.4,0,4.81,0,7.21-.01,5.13-3.18,8.99-8.28,9.66-2.22.29-4.54.19-6.78-.05-2.16-.24-3.79-2.29-3.81-4.27-.02-1.87,1.54-3.88,3.58-4.28,1.45-.28,2.96-.33,4.44-.3,1.3.02,1.71-.49,1.68-1.72-.06-2.21-.04-4.42,0-6.63.01-.96-.22-1.51-1.3-1.78-5.46-1.35-7.3-3.32-8.61-9.22-2.84,0-5.75-.05-8.65.07-.36.02-.96.93-.99,1.46-.11,2.33-.22,4.69-.03,7.01.47,5.84-3.86,10.56-10.35,10.52-2.34-.02-4.68.04-7.02-.02-1.08-.03-1.61.25-1.82,1.44-.76,4.36-3.35,6.91-7.82,7.76-1.18.22-1.6.68-1.58,1.91.07,4.03.03,8.06.02,12.08-.01,3.17-1.77,5.22-4.5,5.29-2.84.07-4.62-1.96-4.63-5.31-.01-3.9-.08-7.8.03-11.69.05-1.66-.54-2.16-2.13-2.06-1.28.08-2.6-.01-3.86-.25-2.07-.38-3.65-2.27-3.7-4.18-.05-1.96,1.53-4,3.7-4.38,1.83-.32,3.72-.32,5.3-.44.95-2.04,1.66-4.05,2.78-5.81,1.31-2.06,3.41-3.07,5.84-3.49.56-.1,1.29-.78,1.44-1.33,1.16-4.4,3.52-7.45,8.3-8.19.53-.08,1.25-.85,1.37-1.41,1.01-4.72,3.58-7.26,8.23-8.16.47-.09,1.1-.97,1.13-1.5.12-2.59.05-5.19.06-7.79.01-5.08,3.3-8.86,8.29-9.74.55-.1,1.22-.98,1.35-1.59.22-1.06.04-2.2.07-3.3.07-2.73,1.87-4.68,4.4-4.78,2.43-.09,4.62,2.08,4.75,4.74.05,1.04.09,2.09,0,3.12-.14,1.42.51,1.77,1.81,1.77,8.38-.04,16.76-.05,25.14.01,1.67.01,2.1-.65,2.09-2.2-.06-7.02.07-14.03-.06-21.05-.06-3.32,1.65-5.22,4.54-5.44,2.69-.21,4.7,2.29,4.7,5.56,0,7.02.03,14.03-.02,21.05,0,1.38.24,2.03,1.83,2.24,4.25.56,7.49,4.47,7.56,8.83.04,2.73.06,5.46-.01,8.19-.04,1.33.41,1.9,1.77,1.86,2.21-.06,4.42-.04,6.63-.01,1.14.02,1.67-.4,1.58-1.6-.08-1.1-.05-2.21,0-3.31.11-2.61,2.13-4.65,4.58-4.65,2.53,0,4.46,1.93,4.54,4.63.05,1.75.07,3.51,0,5.26-.21,5-4.44,8.75-10.01,8.89-2.47.06-4.94.04-7.41,0-1.09-.02-1.68.22-1.67,1.49.05,5.46.04,10.91,0,16.37,0,1.05.37,1.59,1.41,1.66,5.2.35,8.52,5.76,8.38,10.69-.24,8.5-.06,17.02-.08,25.53,0,1.11.1,1.82,1.53,1.81,8.71-.05,17.41-.03,26.12-.04.31,0,.62-.11,1.15-.2,0-2.99.05-5.97-.06-8.93-.01-.36-.82-.92-1.33-1.01-5.07-.96-8.04-4.46-8.05-9.64,0-2.4,0-4.81,0-7.21,0-6.95,2.5-9.98,9.46-11.23,0-1.43-.04-2.9,0-4.38.1-2.9,1.73-4.8,4.18-4.96,2.86-.19,4.87,1.54,5.02,4.43.08,1.59.02,3.2.02,4.88h9.84c0-1.58-.05-3.11.01-4.63.09-2.17,1.56-4.16,3.3-4.59,2.08-.52,4.06.09,5.1,1.88.52.9.74,2.07.77,3.13.09,3.96.08,7.93.02,11.89-.02,1.4.4,2.01,1.88,1.97,2.58-.08,5.17-.02,7.5-.02.75-1.84,1.22-3.47,2.03-4.91,2.18-3.87,6.51-5.41,10.91-4.04,3.88,1.2,6.71,5.42,6.38,9.47-.35,4.17-3.73,7.9-7.89,8.44-1.51.2-1.75.95-1.74,2.21.03,5.46.02,10.91.02,16.37,0,5.73-2.55,8.85-8.2,10.08-.37.08-.73.23-1.27.4ZM400.84,386.39c-3.1,0-5.95-.05-8.78.06-.38.02-1.02.89-1.05,1.4-.11,2.27-.03,4.54-.06,6.82-.01,1.04.4,1.58,1.48,1.57,2.34-.02,4.68.07,7.01-.07.49-.03,1.31-.83,1.33-1.3.13-2.72.06-5.44.06-8.48Z"/>
        <path class="cls-2" d="M228.74,348.43c.74-1.91,1.13-3.6,2-4.99,2.31-3.7,5.82-5.03,10.07-4.12,3.57.77,6.29,3.79,7.06,7.71.11.56.65,1.42,1.09,1.49,5.37.84,7.89,4.28,8.75,9.56,2.92,0,5.82.04,8.72-.05.35-.01.93-.72.97-1.15.46-4.34,4.13-8.16,9.48-8.36,0-1.52-.03-3.07,0-4.61.08-2.92,2.04-4.92,4.72-4.85,2.67.06,4.37,1.94,4.42,4.9.02,1.36.01,2.73,0,4.09-.03,4.97-3.02,8.5-7.85,9.45-.57.11-1.46.78-1.48,1.23-.13,2.84-.07,5.68-.07,8.78,3.08,0,5.98.03,8.88-.04.33,0,.87-.57.94-.94.94-5.24,4.06-8.05,9.52-8.5,0-4.69-.03-9.35.01-14.02.04-3.64,2.76-5.66,6.13-4.68,1.81.53,2.52,1.91,2.94,3.55.08.31.05.65.06.97q.15,4.56,4.79,4.56c7.28,0,14.55,0,21.83,0,.71,0,1.41,0,2.18,0,.21-.88.34-1.63.56-2.36,1.12-3.74,3.48-6.2,7.41-6.84,1.12-.18,1.63-.55,1.87-1.73,1.05-5.09,4.66-8.09,9.92-8.15,7.47-.08,14.94-.05,22.41,0,2.2.01,4.03.82,5.01,3.03.8,1.81.38,3.54-.95,4.61-1.09.89-2.76,1.44-4.19,1.47-6.75.15-13.51.06-20.27.07q-2.87,0-2.89,2.9c0,2.26,0,4.52,0,7,1.72,0,3.13-.09,4.54.02,1.95.15,3.64.82,4.57,2.78.79,1.67.59,3.24-.56,4.54-.68.76-1.72,1.31-2.71,1.66-.82.29-1.8.17-2.7.17-16.11,0-32.22.04-48.33-.03-1.94,0-2.71.47-2.53,2.5.17,1.93.1,3.9.02,5.84-.05,1.29.44,1.67,1.7,1.66,5.2-.06,10.39-.03,15.59-.03,6.71,0,9.51,2.12,11.44,8.49.15.49.9,1.04,1.43,1.12,1.34.19,2.73.04,4.08.17,2.19.22,3.79,1.95,3.95,4.14.15,2-1.22,4.12-3.25,4.53-1.94.39-3.96.43-6.11.64v18.95h9.65v-3.39c0-3.51-.04-7.02.01-10.52.04-2.54,1.42-4.2,3.78-4.75,1.95-.46,3.98.4,4.87,2.26.4.84.53,1.87.54,2.81.05,4.29-.16,8.58.07,12.86.28,5.16-3.74,10.19-9.98,10.05-2.91-.07-5.83-.01-9.07-.01,0,1.53,0,2.87,0,4.21.01,3.15-1.91,5.35-4.67,5.33-2.69-.02-4.49-2.09-4.54-5.22q-.07-4.32-4.33-4.31c-10.65,0-21.31.04-31.96-.04-1.78-.01-2.44.49-2.31,2.3.14,2,.08,4.03.02,6.04-.03,1.08.27,1.68,1.44,1.84,4.68.64,7.15,3.62,8.14,7.99.22.98.55,1.4,1.57,1.56,4.66.7,7.89,4.45,7.95,9.13.02,1.62.06,3.25-.02,4.87-.13,2.59-2.04,4.43-4.52,4.44-2.38.01-4.44-1.91-4.59-4.41-.09-1.55-.02-3.1-.02-5.07-2.9,0-5.67.18-8.4-.06-2.07-.18-4.29-.53-6.11-1.45-3.05-1.55-4.46-4.45-4.57-7.85-.1-3.1-.02-6.21-.02-9.59-3.12,0-6.09-.06-9.04.08-.36.02-.84,1.1-.98,1.75-.98,4.35-4.59,7.41-9.01,7.54-4.31.14-8.23-2.9-9.28-7.17-1.34-5.45,2.64-11.09,8.26-11.31,5.77-.23,11.56-.1,17.34-.15.83,0,1.66-.1,2.71-.16,0-3.11,0-6.08,0-9.05.01-5.16,3.17-8.84,8.21-9.78.54-.1,1.33-.93,1.34-1.43.1-5.58.05-11.17.07-16.76,0-1.28-.74-1.45-1.77-1.45-2.92,0-5.85.07-8.76-.15-4.58-.35-7.74-3.26-8.44-7.75-.21-1.34-.8-1.5-1.91-1.51-3.11-.03-6.25.09-9.32-.31-4.4-.58-7.14-3.4-7.84-7.74-.23-1.4-.85-1.64-2.06-1.64-7.08.03-14.16.08-21.24-.05-1.38-.03-2.98-.52-4.06-1.35-1.36-1.04-1.93-2.71-1.16-4.55.89-2.12,2.57-3.03,4.71-3.18,1.41-.1,2.84-.02,4.08-.02ZM324.37,405.62c.09-.46.21-.77.21-1.08.01-8.77,0-17.54.03-26.3,0-1.56-.93-1.56-2.05-1.56-8.25.02-16.5.06-24.74-.03-1.8-.02-2.13.64-2.12,2.26.07,8.25.03,16.5.04,24.75,0,.63.07,1.25.12,1.97h28.52Z"/>
        <path class="cls-2" d="M190.93,367.33c1.08-5.92,3.9-8.7,9.49-9.25.03-.64.09-1.32.1-2,.01-4.03-.03-8.06.03-12.08.04-2.51,1.4-4.26,3.52-4.76,2.19-.51,4.16.25,5.11,2.19.41.83.54,1.86.55,2.81.06,3.96.07,7.93,0,11.89-.02,1.51.52,2.13,2.05,2.01,1.1-.09,2.21-.05,3.31.05,2.38.22,4.01,1.84,4.23,4.1.2,2.04-1.36,4.12-3.58,4.67-.81.2-1.66.31-2.49.32-4.22.03-8.43.01-13.01.01,0,.87,0,1.62,0,2.36,0,8.51-.12,17.02.06,25.53.09,4.27-2.78,9.43-8.16,10.02-1.66.18-1.43,1.38-1.43,2.46,0,11.11,0,22.22,0,33.33,0,.9.08,1.8.13,2.81h9.43c.31-1.1.5-2.19.92-3.19,1.78-4.31,5.02-6.31,9.97-6.28,2.72.02,5.44,0,7.9,0,.84-1.95,1.4-3.77,2.35-5.35,2.18-3.65,6.89-5,11.16-3.4,3.67,1.37,6.37,5.84,5.83,9.64-.6,4.26-4.12,7.84-8.21,8.13-2.72.19-5.45.12-8.18.18-.83.02-1.66.09-2.68.15,0,4.81-.02,9.48,0,14.15,0,1.61-.45,3.66.36,4.7.63.81,2.88.37,4.4.5,2.82.24,4.56,1.82,4.69,4.26.14,2.59-1.42,4.56-4.31,4.76-2.56.17-5.25.16-7.71-.45-3.82-.95-5.81-3.87-6.59-7.68-.11-.54-.68-1.35-1.12-1.4-4.87-.63-7.37-3.64-8.45-8.16-.09-.37-.18-.74-.3-1.19h-9.34c-.14.6-.3,1.2-.42,1.81-.79,4.07-4.24,7.39-8.35,7.47-8.25.16-16.5.13-24.75.06-2.57-.02-4.36-1.86-4.54-4.21-.17-2.22,1.52-4.23,4.02-4.7.82-.16,1.67-.23,2.51-.23,6.56-.02,13.12,0,19.69,0,.7,0,1.4,0,2.33,0,0-.83,0-1.46,0-2.09.01-8.32.01-16.63.06-24.95,0-1.26-.17-1.91-1.73-2.11-3.68-.47-6.02-2.81-7.28-6.23-.33-.9-.47-1.87-.77-3.07-2.84,0-5.74-.04-8.65.05-.36.01-.92.65-1,1.07-.89,4.65-3.47,7.55-8.26,8.35-.45.08-1.02.72-1.15,1.2-1.68,6.05-4.69,8.41-10.93,8.39-1.42,0-2.87,0-4.25-.26-2.23-.41-3.72-2.31-3.67-4.37.04-1.96,1.52-3.79,3.65-4.2,1.38-.27,2.83-.28,4.25-.27,1.09,0,1.6-.28,1.8-1.46.77-4.5,3.51-7.09,8.09-8.01.5-.1,1.15-.76,1.28-1.27,1.11-4.49,3.38-7.68,8.42-8.12.43-.04,1.06-.87,1.13-1.39.17-1.28.03-2.59.09-3.89.13-2.5,1.76-4.21,4.08-4.36,2.62-.17,4.63,1.27,4.97,3.87.23,1.71.04,3.47.04,5.36h9.37c.76-1.77,1.33-3.56,2.25-5.15,1.37-2.37,3.55-3.76,6.32-4.01,1.18-.1,1.55-.61,1.55-1.73-.03-5.46-.04-10.91.01-16.37.01-1.33-.57-1.67-1.76-1.64-1.3.04-2.61.05-3.89-.12-2.29-.31-3.8-2.01-3.89-4.17-.09-2.18,1.22-4.06,3.49-4.5,1.88-.37,3.84-.37,5.87-.55Z"/>
        <path class="cls-2" d="M152.7,720.11c-4.52,0-8.93.01-13.34,0-2.19,0-4.11-.51-5.12-2.77-1-2.25.13-5.12,2.48-5.9.91-.3,1.9-.44,2.86-.45,4.09-.05,8.18-.05,12.27-.01,5.6.04,8.99,2.86,10.2,8.27.12.55.85,1.28,1.39,1.38,4.26.79,7.09,3.45,8.08,7.65.16.69.7,1.75,1.19,1.83,5.29.86,7.81,4.19,8.6,9.44,2.58,0,5.17.02,7.75,0,3.58-.04,7.04.54,9.07,3.79,1.11,1.78,1.94,4.04,2,6.11.22,8.57.09,17.14.09,25.71v2.5c1.44,0,2.77-.03,4.09,0,2.63.08,4.65,1.36,5.23,3.28.88,2.9-1.05,5.75-4.2,5.86-4.09.14-8.18.15-12.27.03-1.89-.05-2.61.58-2.41,2.44.1.9.05,1.82-.01,2.72-.18,2.52-2.16,4.43-4.55,4.46-2.35.02-4.46-1.93-4.54-4.46-.12-4.09-.09-8.18-.12-12.27,0-.7,0-1.39,0-2.32h-2.29c-6.75,0-13.51.02-20.26-.02-1.02,0-2.08-.14-3.06-.42-1.64-.47-2.94-2.46-2.93-4.2.01-1.76,1.33-3.66,3.01-4.11.99-.26,2.04-.38,3.07-.39,6.62-.03,13.25-.02,19.87-.02.77,0,1.54,0,2.66,0,0-1.41,0-2.62,0-3.83,0-4.48-.06-8.96.01-13.44.02-1.55-.32-2.27-2.08-2.48-3.65-.44-6.59-3.65-7.36-7.83-.21-1.12-.62-1.51-1.66-1.67-4.56-.71-6.98-3.56-7.93-7.94-.12-.55-.73-1.35-1.21-1.42-5.3-.84-7.74-4.26-8.6-9.52Z"/>
        <path class="cls-2" d="M109.83,396.06c-5.04-.31-10.17-.16-15.11-1.05-9.17-1.65-17.07-10.11-17.71-19.38-.59-8.51-.66-17.14-.03-25.64.8-10.74,9.87-19.57,20.61-20.24,8.39-.53,16.88-.53,25.27.07,10.87.79,19.84,11.14,20.06,22.36.13,6.95.12,13.9,0,20.85-.21,12.12-10.05,22.08-22.36,22.66-3.56.17-7.14.03-10.71.03l-.02.34ZM134,362.65c-.07,0-.13,0-.2,0,0-3.38.02-6.76,0-10.13-.05-6.72-5.38-13.17-12.1-13.62-7.56-.5-15.21-.63-22.76-.14-8.01.52-13.21,6.82-13.23,14.86-.02,6.3-.06,12.6.02,18.9.1,7.56,6.35,13.93,13.9,14.07,6.75.12,13.51.1,20.27,0,6.48-.1,12.3-4.61,13.39-10.95.74-4.24.51-8.65.71-12.98Z"/>
        <path class="cls-2" d="M510.42,395.48c-4.28,0-8.6.37-12.83-.07-10.26-1.07-18.88-9.39-19.87-19.66-.7-7.14-.54-14.39-.38-21.58.07-3.31.51-6.83,1.74-9.87,3.82-9.49,11.33-14.39,21.38-14.86,7.5-.35,15.07-.19,22.57.32,10.05.68,19.4,9.55,20.18,19.62.66,8.57.73,17.27.04,25.84-.91,11.45-10.55,19.96-22.09,20.49-3.56.16-7.14.03-10.71.03v-.24ZM486.39,362.53c0,3.25-.02,6.5,0,9.74.05,7.72,6.16,14.14,13.84,14.3,6.82.14,13.64.14,20.46,0,7.55-.15,13.76-6.58,13.81-14.14.05-6.63.06-13.25,0-19.88-.06-6.69-5.48-13.22-12.12-13.65-7.63-.5-15.34-.62-22.96-.12-7.93.52-13.03,6.8-13.04,14.77,0,2.99,0,5.98,0,8.97Z"/>
        <path class="cls-2" d="M143.25,763.3c-.32,5.04-.18,10.16-1.06,15.11-1.59,8.94-10.06,16.93-19.06,17.59-8.39.61-16.89.72-25.27.11-10.72-.78-18.63-7.85-20.56-18.45-1.72-9.46-1.71-19.2-.03-28.65,1.94-10.95,10.16-18.02,21.39-18.75,7.94-.52,16-.44,23.92.25,11.45,1,20.19,11.13,20.35,22.64.05,3.38,0,6.75,0,10.13.1,0,.2.01.3.02ZM133.98,763.4c-.06,0-.12,0-.18,0,0-3.25,0-6.5,0-9.74-.03-7.83-6.07-14.2-13.93-14.4-6.69-.17-13.38-.16-20.07,0-7.89.18-14.03,6.61-14.08,14.52-.04,6.37-.05,12.73,0,19.1.06,7.77,6.22,14.21,14.01,14.41,6.69.17,13.38.16,20.07,0,6.75-.15,12.37-4.67,13.53-11.29.72-4.11.47-8.39.66-12.6Z"/>
        <path class="cls-2" d="M419.72,615.37c0,1.48.02,2.83,0,4.19-.04,3.06-1.92,5.08-4.69,5.09-2.78,0-4.43-1.83-4.48-4.96q-.07-4.45-4.56-4.45c-1.68,0-3.36,0-5.38,0,0,1.46.01,2.79,0,4.12-.03,3.29-1.79,5.28-4.67,5.28-2.84,0-4.47-1.86-4.5-5.16,0-1.36-.01-2.73,0-4.09.05-4.63,3-8.23,7.56-9.01,1.45-.25,1.93-.8,1.86-2.26-.12-2.57-.03-5.16-.03-7.99-1.7,0-3.17.08-4.64-.02-2.48-.16-3.97-1.29-4.57-3.28-.53-1.8,0-3.88,1.63-4.81,1.12-.63,2.56-.97,3.86-.99,6.75-.09,13.51-.04,20.26-.04.76,0,1.52,0,2.56,0,0-1.62-.02-3.03,0-4.43.05-3.05,1.96-5.05,4.74-5.02,2.72.03,4.39,1.92,4.41,5.04.02,3.96.07,7.92-.02,11.88-.03,1.55.51,2.06,2.02,1.98,1.28-.07,2.6.04,3.86.26,2.18.39,3.91,2.5,3.83,4.5-.08,2.15-1.98,4.1-4.24,4.34-.19.02-.39.08-.58.06-3.14-.49-4.93.31-5.73,3.9-.67,2.98-3.32,4.86-6.55,5.41-.57.1-1.13.26-1.97.45Z"/>
        <path class="cls-2" d="M152.72,691.87c.55-3.57,1.79-6.62,5.05-8.21,1.4-.68,3.06-1.05,4.63-1.16,2.58-.19,5.19-.08,7.79-.06,1.09,0,1.66-.2,1.92-1.53.83-4.27,3.32-7.12,7.78-7.84,1.3-.21,1.69-.83,1.66-2.08-.08-4.02-.14-8.05-.08-12.07.05-3.63,2.85-5.84,6.02-4.86,1.68.52,2.74,1.69,3.07,3.43.11.57.1,1.16.12,1.74.05,1.17-.3,2.59.25,3.42.49.74,1.98.82,3.03,1.17,3.73,1.22,6.48,5.35,6.25,9.39-.23,4.06-3.38,7.91-7.38,8.42-3.13.4-6.35.32-9.52.26-1.68-.03-2.33.43-2.23,2.19.14,2.39.04,4.8.03,7.2-.02,5.59-3.66,9.63-9.26,9.68-14.22.13-28.44.08-42.65.02-3.11-.01-4.91-1.91-4.84-4.66.07-2.69,2.05-4.42,5.33-4.44,6.95-.05,13.89-.02,20.84-.02.7,0,1.4,0,2.17,0Z"/>
        <path class="cls-2" d="M219.43,739.2v9.96c2.15,0,4.2-.05,6.25.01,1.88.06,3.78.05,5.61.39,4.07.76,7.19,4.85,7.13,9.06-.06,4.22-3.45,8.39-7.53,8.96-1.53.21-2.01.78-2.25,2.25-.67,4.15-4.05,7.04-8.79,7.48-2.04.19-4.16.06-6.19-.26-2.24-.35-3.49-2.11-3.48-4.28.02-2.14,1.31-3.83,3.53-4.25,1.39-.26,2.84-.26,4.26-.25,1.11,0,1.67-.27,1.63-1.53-.08-2.34-.08-4.68,0-7.01.04-1.1-.45-1.43-1.41-1.65-5.54-1.26-8.01-4.39-8.02-10.04,0-2.47.06-4.94-.05-7.4-.02-.52-.61-1.4-1.03-1.46-5.32-.76-7.79-4.19-8.76-9.38-2.49,0-5,.04-7.51,0-2.52-.05-5.07,0-7.57-.31-2.37-.28-3.85-2.39-3.68-4.71.16-2.21,1.86-3.91,4.17-4.1,1.29-.11,2.6-.11,3.89-.11,1.07,0,1.52-.46,1.45-1.54-.06-1.04-.03-2.08,0-3.12.08-2.88,1.9-4.82,4.53-4.85,2.55-.03,4.52,2.01,4.6,4.8,0,.06,0,.13,0,.19.02,1.3-.37,2.83.2,3.82.45.78,2.09.83,3.18,1.27,3.38,1.39,5.48,3.86,6.05,7.49.18,1.16.67,1.49,1.78,1.47,4.03-.05,8.06-.06,12.08,0,3.28.04,5.24,1.76,5.27,4.49.03,2.71-1.82,4.47-4.93,4.62-1.41.07-2.83.01-4.43.01Z"/>
        <path class="cls-2" d="M238.43,386.38c0,3.06-.07,5.78.06,8.5.02.51.77,1.31,1.29,1.41,5.06.96,8.08,4.48,8.1,9.62,0,1.43.03,2.86-.01,4.29-.08,2.75-1.9,4.61-4.5,4.62-2.47.01-4.54-1.96-4.67-4.55-.08-1.48-.01-2.97-.01-4.68-.8-.04-1.48-.1-2.17-.1-5.19,0-10.39-.06-15.58,0-6.87.09-11.22-4.6-10.76-10.73.09-1.16-.03-2.34.03-3.5.13-2.68,2.12-4.64,4.61-4.57,2.38.06,4.36,2.02,4.51,4.52.06.91.11,1.83,0,2.72-.27,1.95.61,2.48,2.42,2.36,2-.14,4.02-.05,6.04-.04,1.04,0,1.53-.42,1.51-1.52-.05-2.34-.04-4.68,0-7.01.02-1.02-.43-1.34-1.4-1.35-1.55-.03-3.12-.04-4.62-.34-2.18-.44-3.86-2.73-3.63-4.64.26-2.23,2.1-4.1,4.45-4.12,8.37-.06,16.75-.12,25.12.07,4.43.1,8.14,4.26,8.33,8.8.07,1.62.06,3.25,0,4.87-.1,2.79-2.07,4.76-4.65,4.72-2.7-.03-4.42-1.87-4.5-4.82q-.12-4.52-4.66-4.52c-1.67,0-3.35,0-5.28,0Z"/>
        <path class="cls-2" d="M104.97,710.93c-.95,6.85-5.57,9.41-11.04,9.21-3.96-.14-7.92,0-11.88-.04-1.86-.02-3.6-.35-4.7-2.17-1.61-2.65-.45-5.86,2.58-6.59,1.42-.34,2.96-.39,4.43-.34,1.49.06,1.89-.52,1.87-1.92-.06-5.26-.06-10.52,0-15.78.01-1.2-.41-1.72-1.58-1.96-5.27-1.11-8.13-4.68-8.14-10.03,0-4.35-.03-8.7.01-13.05.02-2.31,1.46-4.21,3.39-4.68,2.16-.53,4.26.22,5.18,2.07.41.83.57,1.86.58,2.8.06,3.96.06,7.92.01,11.88-.02,1.37.27,2.07,1.86,2.28,4.3.57,7.7,4.55,7.81,8.92.07,2.73.08,5.46-.01,8.18-.05,1.38.45,1.83,1.78,1.81,4.03-.05,8.05-.01,12.08,0,1.77,0,3.31.39,4.37,2.01,1.68,2.58.5,6.09-2.52,6.79-1.93.44-3.96.42-6.08.62Z"/>
        <path class="cls-2" d="M524.68,777.57c-2.06-.17-3.95-.17-5.78-.51-2.22-.41-3.49-2.14-3.47-4.3.02-2.14,1.32-3.79,3.53-4.26,1-.21,2.06-.24,3.09-.25,2.77-.03,2.78-.01,2.78-2.69,0-5.46-.07-10.91.03-16.37.07-3.7,1.73-6.63,5.05-8.42,3.16-1.7,6.34-1.53,9.41.36,2.88,1.76,4.82,5.82,4.3,9.01-.65,3.9-3.52,7.18-7.22,7.75-1.89.3-2.52,1.02-2.37,2.88.16,1.94.07,3.89.02,5.84-.03,1.11.37,1.7,1.52,1.78,4.93.34,8.39,5.51,8.16,10.23-.2,4.15-.03,8.31-.05,12.47-.01,3.18-2,5.41-4.71,5.33-2.75-.08-4.42-2.07-4.45-5.32,0-.19,0-.39,0-.58,0-3.18-.03-3.12-2.96-4.06-4.28-1.37-6.15-4.69-6.88-8.9Z"/>
        <path class="cls-2" d="M438.81,758.39c2.14.18,4.01.21,5.85.51,2.17.36,3.6,2.3,3.53,4.46-.07,2.28-1.66,4.06-3.94,4.32-.9.1-1.81.08-2.72.12-.83.04-1.66.07-2.17.1-.89,2.02-1.51,3.87-2.49,5.51-1.25,2.1-3.26,3.35-5.71,3.64-1.62.19-2.18.87-2.09,2.51.14,2.39.05,4.8.04,7.2-.02,5.48-4.11,9.74-9.31,9.71-5.24-.03-9.25-4.24-9.26-9.73,0-3.05-.02-6.1,0-9.15.03-4.65,2.92-8.18,7.49-9.05,1.2-.23,1.78-.59,2.09-1.95.98-4.28,3.53-7.1,8.1-7.82.52-.08,1.19-.9,1.31-1.48.22-1.06.05-2.19.08-3.3.07-2.87,1.92-4.82,4.54-4.79,2.56.03,4.55,2.05,4.65,4.79.05,1.42,0,2.84,0,4.39Z"/>
        <path class="cls-2" d="M257.73,558.48c1.77,0,3.45-.09,5.12.02,2.32.16,3.97,1.92,4.09,4.16.13,2.38-1.31,4.42-3.73,4.62-2.62.22-5.38.41-7.9-.16-3.84-.87-6.22-3.63-6.86-7.6-.2-1.25-.68-1.62-1.87-1.59-2.59.06-5.18.02-8.15.02,0,1.53.01,2.92,0,4.31-.03,3.09-1.86,5.14-4.6,5.15-2.8.01-4.53-1.92-4.55-5.13-.02-4.02-.04-8.05.01-12.07.02-1.25-.38-1.73-1.67-1.7-1.41.03-2.85-.04-4.24-.31-2.23-.43-3.9-2.57-3.78-4.53.14-2.24,2.06-4.2,4.51-4.28,4.02-.12,8.05-.14,12.07-.04,1.87.05,2.85-.36,2.52-2.45-.12-.76-.05-1.56-.01-2.33.12-2.68,2.22-4.84,4.66-4.81,2.61.03,4.5,1.99,4.52,4.83.04,4.15-.04,8.31.06,12.46.02.63.64,1.73,1.11,1.8,5.31.82,7.77,4.22,8.69,9.62Z"/>
        <path class="cls-2" d="M114.7,472.14c0-1.53,0-3.01,0-4.5,0-6.24-.02-12.47,0-18.71.01-2.89,2-4.98,4.63-4.98,2.67,0,4.42,1.88,4.53,4.82.05,1.41-.35,3.31.39,4.09.72.76,2.65.37,4.05.47,2.32.17,4.07,1.09,4.97,3.39.71,1.81-.04,3.22-1.2,4.4-.63.64-1.61,1.06-2.51,1.27-.99.24-2.06.15-3.1.16-2.6.04-2.6.03-2.6,2.58,0,5.39,0,10.78,0,16.17,0,5.54-3.53,9.62-8.92,9.84-4.18.17-8.66-2.26-9.59-8.1-.18-1.09-.65-1.43-1.65-1.42-1.23.01-2.47.02-3.7-.07-2.36-.19-4.19-1.97-4.39-4.19-.19-2.03,1.55-4.17,3.87-4.66.88-.18,1.79-.27,2.69-.28,3.96-.04,7.92-.04,11.88-.06.12,0,.24-.08.64-.21Z"/>
        <path class="cls-2" d="M391.46,338.94c0-1.6-.03-3.15,0-4.69.06-2.81,2-4.86,4.54-4.84,2.47.02,4.52,2.18,4.62,4.87,0,.13,0,.26,0,.39.03,1.3-.37,2.87.22,3.81.49.77,2.2.7,3.3,1.16,3.17,1.32,5.17,3.7,5.76,7.07.22,1.22.6,1.77,1.82,2.02,5.08,1.04,8,4.73,8,9.96,0,1.3.05,2.6-.02,3.9-.14,2.51-2.33,4.65-4.67,4.64-2.47-.01-4.39-2.01-4.48-4.69q-.18-4.94-5.11-4.94c-4.87-.01-9.74-.12-14.61-.07-5.64.06-8.94-5.25-9.07-8.95-.17-4.65,3.49-8.76,8.37-9.45.37-.05.75-.1,1.33-.17Z"/>
        <path class="cls-2" d="M531.78,729.9c-2.72-.12-5.45-.1-8.15-.39-4.72-.51-8.13-4.36-8.2-9.08-.04-2.6-.09-5.2.02-7.79.07-1.48-.47-2.01-1.89-2.27-5.28-.97-8.71-6.09-7.51-11.06,1.07-4.46,5.55-7.85,9.72-7.37,5.16.6,8.76,4.44,8.81,9.45.03,2.6.07,5.19-.02,7.79-.04,1.26.3,1.85,1.62,2.06,4.54.73,6.96,3.59,7.91,7.96.11.53.91,1.19,1.48,1.29,1.26.22,2.59.07,3.88.18,2.33.19,4.12,2.06,4.24,4.3.09,1.67-1.63,4.54-3.93,4.6-2.65.06-5.3.22-7.96.34Z"/>
        <path class="cls-2" d="M85.95,653.43c-1.4,0-2.82.06-4.22-.01-2.15-.1-3.85-.97-4.82-3.04-.8-1.73-.26-3.2.86-4.48.52-.59,1.3-1.12,2.06-1.31,1.11-.28,2.32-.37,3.47-.29,1.86.13,2.8-.21,3.22-2.41.73-3.83,3.34-6.35,7.25-6.91,2.52-.36,5.16-.29,7.69.02,2.21.27,3.44,2.31,3.3,4.59-.13,2.21-1.67,3.86-3.95,4.08-1.35.13-2.72.12-4.08.11-.98,0-1.38.39-1.37,1.4.04,2.72.01,5.44.01,8.34.72.18,1.39.36,2.06.5,4.24.87,7.29,4.52,7.33,8.87.04,4.74.03,9.48,0,14.22-.02,2.92-1.81,4.78-4.49,4.78-2.52,0-4.61-2.04-4.65-4.75-.06-4.22-.03-8.44-.01-12.66,0-.9-.03-1.54-1.24-1.76-4.84-.86-7.31-3.44-8.17-8.32-.04-.25-.12-.49-.25-.97Z"/>
        <path class="cls-2" d="M515.25,510.51c-1.98-.16-3.86-.17-5.69-.48-2.23-.38-3.9-2.53-3.77-4.52.13-2.09,1.88-4.06,4.14-4.21,2.78-.19,5.58-.12,8.37-.13,2.27-.01,4.55-.07,6.82.05,5.25.28,8.88,4.12,8.94,9.37.03,2.6.04,5.19,0,7.79-.02,1.23.34,1.83,1.7,2.04,4.68.74,7.89,4.62,7.93,9.39.01,1.49.06,2.99-.01,4.48-.13,2.63-2.16,4.57-4.65,4.53-2.61-.03-4.39-1.87-4.49-4.64,0-.13,0-.26,0-.39-.03-1.3.35-2.83-.22-3.81-.44-.76-2.07-.83-3.17-1.23-3.34-1.21-5.26-3.7-6.03-7.07-.29-1.27-.7-1.92-2.15-2.16-4.25-.7-6.73-3.7-7.7-9Z"/>
        <path class="cls-2" d="M219.27,491.33c.54-1.48.91-2.95,1.59-4.24,2.28-4.29,6.81-5.98,11.46-4.42,3.72,1.25,6.58,5.8,6.08,9.69-.59,4.61-4.2,8.06-8.92,8.26-3.29.14-6.59.03-9.34.03-1.23,2.45-1.95,4.65-3.28,6.39-2.46,3.21-6.99,4.04-10.74,2.35-3.47-1.56-6-5.76-5.57-9.25.53-4.26,3.68-7.79,7.84-8.26,3.59-.41,7.23-.38,10.87-.54Z"/>
        <path class="cls-2" d="M448.46,348.33c-1.9-.13-3.72-.09-5.48-.41-2.48-.46-4.05-2.46-3.91-4.59.16-2.44,1.96-4.2,4.69-4.27,4.08-.1,8.18-.11,12.26,0,1.74.05,2.36-.52,2.15-2.22-.12-.96-.07-1.95,0-2.92.16-2.46,2.21-4.46,4.53-4.51,2.46-.05,4.53,1.95,4.57,4.61.07,4.93.1,9.86,0,14.79-.09,4.24-3.38,7.97-7.62,8.59-1.46.21-1.87.75-1.75,2.1.09,1.03.07,2.08,0,3.11-.17,2.47-2.4,4.63-4.71,4.62-2.42,0-4.43-2.06-4.47-4.7-.06-4.22-.02-8.43-.04-12.65,0-.5-.13-1-.21-1.55Z"/>
        <path class="cls-2" d="M257.79,637.15c0-2.27-.02-4.54,0-6.81.03-3.09,1.91-5.14,4.65-5.11,2.76.03,4.44,1.9,4.5,5,0,.06,0,.13,0,.19.05,3.65.04,3.67,3.3,4.83,3.6,1.28,5.5,4,6.26,7.56.24,1.13.66,1.5,1.76,1.47,1.42-.03,2.86-.02,4.26.21,2.08.35,3.39,2,3.49,4.07.11,2.16-1.13,3.88-3.25,4.5-.37.11-.75.3-1.12.29-5.37-.07-10.77.13-16.11-.34-4.47-.39-7.68-4.54-7.75-9.07-.04-2.27,0-4.54,0-6.81Z"/>
        <path class="cls-2" d="M381.52,634.33c-4.24,0-8.46.02-12.67-.02-.96,0-1.95-.13-2.87-.38-1.85-.49-3.39-2.59-3.31-4.34.08-1.81,1.68-3.72,3.53-4.15.69-.16,1.41-.25,2.12-.25,4.22-.02,8.44-.04,12.67,0,5.51.04,8.83,2.84,10,8.19.12.56.87,1.26,1.45,1.4,5.54,1.39,8.18,4.69,8.18,10.42,0,1.1.03,2.21,0,3.31-.09,2.69-2.15,4.84-4.63,4.86-2.56.02-4.46-2.02-4.53-4.85,0-.26,0-.52,0-.78-.05-1.16.28-2.57-.27-3.41-.45-.69-1.95-.66-2.96-1.02-3.17-1.14-5.1-3.45-6.1-6.6-.23-.73-.37-1.48-.6-2.38Z"/>
        <path class="cls-2" d="M266.96,494.1c0,2.14,0,4.29,0,6.43-.02,5.15-2.84,8.58-7.92,9.51-1.05.19-1.43.67-1.66,1.71-1.17,5.29-4.51,7.94-9.93,8.02-1.36.02-2.73.06-4.09-.04-2.63-.18-4.56-2.02-4.67-4.35-.1-2.05,1.62-4.01,4.01-4.55,1.82-.41,5.82-3.27,6.8-4.85,1.54-2.49,3.6-4.32,6.61-4.62,1.52-.15,1.72-.87,1.7-2.17-.06-4.09-.08-8.18,0-12.27.06-3.48,2.87-5.49,6.11-4.51,1.8.55,2.95,2.02,3,4.08.06,2.53.01,5.06.01,7.6h.02Z"/>
        <path class="cls-2" d="M85.7,610.47c0,6.17,0,12.34,0,18.51,0,3.2-1.73,5.24-4.45,5.3-2.67.06-4.73-2.24-4.74-5.35,0-12.28,0-24.55,0-36.83,0-2.38,1.28-4.2,3.25-4.77,2.15-.62,4.26.03,5.24,1.86.46.87.66,1.97.67,2.96.06,6.1.03,12.21.03,18.32Z"/>
        <path class="cls-2" d="M133.56,501.18c1.73,0,3.15-.06,4.56.01,2.93.14,4.69,1.74,4.82,4.31.13,2.47-1.38,4.17-4.21,4.7-.63.12-1.29.13-1.93.13-8.5,0-17.01,0-25.51,0-.32,0-.65.02-.97,0-3.2-.21-5.07-2.01-5-4.78.07-2.7,1.92-4.32,5.14-4.37,3.96-.06,7.92-.07,11.88,0,1.5.03,2.18-.44,2.05-1.99-.08-.97-.04-1.95,0-2.92.09-2.66,1.99-4.67,4.46-4.72,2.31-.05,4.56,2.09,4.71,4.6.09,1.55.02,3.1.02,5.02Z"/>
        <path class="cls-2" d="M400.62,761.29c0,1.95,0,3.9,0,5.85,0,5.91-3.63,9.95-9.45,10.2-4.6.2-9.22.1-13.83.02-1.87-.03-3.59-.64-4.49-2.54-.76-1.61-.61-3.15.35-4.62,1.05-1.61,2.72-1.91,4.44-1.93,3.83-.04,7.67-.09,11.5.02,1.74.05,2.42-.41,2.36-2.27-.13-3.76-.05-7.53-.04-11.3,0-3.55,1.73-5.6,4.61-5.5,2.86.1,4.55,2.2,4.55,5.66,0,2.14,0,4.29,0,6.43Z"/>
        <path class="cls-2" d="M439.05,508.45c0-.84-.03-1.69,0-2.53.11-2.76,2.09-4.74,4.68-4.7,2.62.04,4.35,1.86,4.46,4.66.18,4.73.18,4.69,5.03,4.74,3.43.03,6.88-.01,10.29.3,2.41.22,3.82,2.17,3.77,4.42-.06,2.38-1.62,4.07-4.16,4.35-1.16.13-2.34.15-3.5.07-1.4-.09-1.85.5-1.74,1.83.08,1.03.07,2.08,0,3.12-.17,2.61-2.46,4.78-4.83,4.66-2.49-.13-4.28-2.1-4.37-4.8-.02-.52,0-1.04,0-1.56q0-2.9-2.85-3.61c-3.63-.9-6.63-4.69-6.77-8.6-.03-.78,0-1.56,0-2.34Z"/>
        <path class="cls-2" d="M257.68,586.8c-1.94-.13-3.69-.17-5.41-.37-2.38-.27-3.94-2.16-3.89-4.52.05-2.26,1.63-4.16,3.93-4.29,2.45-.14,4.94-.2,7.37.09,3.43.41,6.55,3.75,7.16,7.56.23,1.44.77,1.82,2.12,1.76,1.35-.06,2.73.02,4.05.27,2.04.38,3.61,2.32,3.63,4.23.02,1.88-1.53,3.89-3.56,4.29-1.44.28-2.96.33-4.43.3-1.29-.03-1.75.47-1.68,1.71.06,1.03.04,2.08,0,3.11-.09,2.79-1.85,4.6-4.44,4.63-2.63.03-4.65-1.87-4.7-4.64-.08-4.28-.02-8.57-.03-12.85,0-.38-.06-.76-.11-1.28Z"/>
        <path class="cls-2" d="M381.52,730.05c3.13,0,5.97.05,8.81-.06.38-.01,1-.74,1.06-1.2.16-1.15.04-2.33.07-3.5.06-2.49,1.51-4.33,3.61-4.6,2.65-.34,4.87.84,5.29,3.39.5,3.04.76,6.19-.51,9.18-1.41,3.3-3.82,5.54-7.46,5.7-4.26.19-8.57.25-12.8-.18-3.99-.41-7.03-4.24-7.2-8.28-.08-1.75-.06-3.5,0-5.25.07-2.79,1.84-4.6,4.44-4.63,2.66-.03,4.58,1.85,4.69,4.65.06,1.48,0,2.97,0,4.77Z"/>
        <path class="cls-2" d="M162.05,663.09c0,4.96-3.98,9.27-9.07,9.35-4.19.07-8.41-2.39-9.44-7.88-.24-1.29-.66-1.82-1.97-1.74-1.16.07-2.34.05-3.5-.05-2.34-.21-4.01-1.87-4.24-4.1-.21-2,1.37-4.08,3.59-4.69.31-.09.62-.26.93-.25,5.38.08,10.78-.11,16.13.37,4.44.4,7.57,4.54,7.57,8.99Z"/>
        <path class="cls-2" d="M262.48,329.32c2.92,0,5.84-.05,8.76.02,2.29.06,4.11.94,5.06,3.23.76,1.86.16,3.51-1.17,4.55-1.07.83-2.67,1.26-4.06,1.34-4.08.23-4.09.13-4.1,4.24-.01,3.93-2.71,6.19-6.05,5.07-1.92-.65-3.08-2.46-3.12-4.89q-.07-4.25-4.25-4.36c-3.21-.09-5.08-1.65-5.17-4.32-.1-2.79,1.89-4.75,5.16-4.86,2.98-.1,5.97-.02,8.95-.02Z"/>
        <path class="cls-2" d="M400.62,453.04c0,1.59.01,2.93,0,4.28-.04,3.12-1.83,5.14-4.57,5.16-2.87.02-4.55-1.84-4.59-5.06q-.05-4.25-4.23-4.38c-2.21-.07-4.03-.75-5.05-2.93-.81-1.72-.42-3.35.82-4.44,1.03-.9,2.58-1.64,3.92-1.68,6.02-.18,12.06-.15,18.08-.06,3.74.06,5.84,2.83,4.78,6.03-.63,1.89-2.19,2.94-4.71,3.06-1.36.06-2.72.01-4.45.01Z"/>
        <path class="cls-2" d="M352.82,672.55c2.26.2,4.21.22,6.09.58,2.15.41,3.52,2.29,3.5,4.31-.03,2.12-1.55,3.89-3.74,4.33-.44.09-.9.15-1.35.15-6.03,0-12.06.02-18.09,0-1.91,0-3.57-.55-4.51-2.45-.8-1.61-.66-3.14.29-4.61,1.02-1.58,2.66-1.98,4.38-2.08,1.29-.07,2.58-.01,4.23-.01,0-1.71-.08-3.3.02-4.88.13-2.22,1.59-3.94,3.52-4.34,2.25-.47,4.07.24,5.1,2.21.4.76.49,1.72.54,2.6.09,1.4.02,2.81.02,4.2Z"/>
        <path class="cls-2" d="M93.01,491.34c2.77.16,5.57.15,8.31.54,2.35.34,3.6,2.32,3.43,4.67-.16,2.19-1.69,3.92-4,4.01-4.21.16-8.43.18-12.65.08-1.87-.04-2.64.54-2.41,2.43.09.77.03,1.56,0,2.33-.06,2.72-1.39,4.3-3.93,4.71-2.26.36-4.52-.86-4.95-3.33-.71-4.04-.9-8.14,1.9-11.69,2.06-2.62,4.9-3.48,8.06-3.6,2.07-.07,4.15-.01,6.23-.01,0-.05,0-.1,0-.15Z"/>
        <path class="cls-2" d="M257.52,472.26c0,1.52.02,2.92,0,4.33-.05,2.97-1.87,4.93-4.58,4.96-2.77.04-4.52-1.82-4.57-4.88-.02-1.3-.02-2.59,0-3.89.04-5.63,3.59-9.52,9.19-9.73,4.66-.18,9.34-.1,14-.03,2.68.04,4.26,1.3,4.93,3.6.45,1.54-.38,3.8-2.04,4.64-1.1.56-2.45.82-3.7.86-3.69.11-7.39.03-11.09.04-.63,0-1.26.06-2.13.11Z"/>
        <path class="cls-2" d="M389.39,701.02c-2.14,0-4.28.03-6.42-.01-1.08-.02-1.53.38-1.47,1.48.06,1.16.05,2.34,0,3.5-.13,2.56-2.24,4.65-4.62,4.62-2.47-.03-4.42-2.04-4.5-4.68-.04-1.36-.01-2.72,0-4.09.01-5.79,3.64-9.72,9.44-9.94,4.53-.17,9.08-.09,13.62-.02,2.22.04,3.97.92,4.87,3.18.71,1.78.18,3.36-1.06,4.41-.99.84-2.49,1.31-3.83,1.47-1.98.24-4.01.06-6.02.06h0Z"/>
        <path class="cls-2" d="M207.76,691.78c5.56-.22,10.51,2.08,11.63,8.76.06.38.86.85,1.35.91,1.35.15,2.72.03,4.07.15,2.02.18,3.56,1.63,3.9,3.48.39,2.16-.57,4.1-2.47,5.02-4.19,2.02-11.61.28-14.27-3.51-.83-1.18-1.41-2.65-1.68-4.07-.24-1.31-.81-1.56-1.94-1.52-1.16.04-2.34.07-3.49-.07-2.4-.29-4.2-2.12-4.34-4.25-.13-2.07,1.55-4.08,3.96-4.58,1.07-.22,2.18-.22,3.27-.32Z"/>
        <path class="cls-2" d="M160.04,348.34c-1.34-.19-2.71-.25-4.01-.58-1.83-.47-3.14-2.39-3.12-4.24.02-1.95,1.42-3.86,3.36-4.21,1.45-.27,2.96-.27,4.45-.27,1.07,0,1.62-.28,1.84-1.44.96-5.05,4.37-8,9.58-8.24,1.79-.08,3.64,0,5.4.32,2.34.43,3.75,2.44,3.59,4.61-.18,2.34-1.87,4.25-4.33,4.11-3.21-.17-5.01.39-6.14,4.01-1.49,4.77-5.89,5.96-10.61,5.93Z"/>
        <path class="cls-2" d="M391.34,672.77c.17-3.08,1.28-5.54,3.51-7.31,3.86-3.06,8.33-2.35,12.66-1.59,1.7.3,2.65,2.46,2.49,4.4-.16,1.95-1.19,3.41-3.06,3.82-1.99.44-4.08.45-5.95.64-.6,1.56-1.04,3.13-1.78,4.54-1.31,2.5-3.43,4.12-6.25,4.43-2.31.25-4.66.26-6.98.12-2.3-.15-4.03-2.02-4.21-4.14-.17-1.98,1.46-4.06,3.7-4.59.93-.22,1.91-.26,2.87-.31.95-.05,1.91-.01,2.99-.01Z"/>
        <path class="cls-2" d="M119.44,644.27c2.98,0,5.96-.04,8.94.01,2.99.06,5.13,1.94,5.18,4.43.04,2.4-2.16,4.62-5.03,4.67-6.09.1-12.18.09-18.27,0-2.01-.03-3.84-.76-4.63-2.9-.65-1.79-.54-3.63.99-4.8,1.04-.8,2.55-1.27,3.88-1.35,2.97-.2,5.96-.06,8.94-.06Z"/>
        <path class="cls-2" d="M128.72,414.85c-2.99,0-5.98.04-8.96-.01-2.17-.04-3.86-.87-4.73-3.05-.71-1.77-.22-3.38,1.03-4.43,1.06-.88,2.63-1.53,4-1.57,5.91-.17,11.82-.14,17.73-.04,4.22.07,6.45,3.69,4.45,7.01-1.05,1.74-2.75,2.07-4.55,2.1-2.99.05-5.98.01-8.96.01h0Z"/>
        <path class="cls-2" d="M276.64,529.66c0,1.44.03,2.85,0,4.26-.08,2.88-2.08,4.94-4.71,4.89-2.69-.05-4.41-1.9-4.47-4.83-.03-1.49-.02-2.98,0-4.48.06-5.02,3.69-8.88,8.7-9.18,1.94-.11,3.9-.11,5.83.03,2.36.18,3.93,1.93,4.04,4.22.11,2.21-1.18,4.07-3.45,4.51-1.82.36-3.72.37-5.94.57Z"/>
        <path class="cls-2" d="M467.29,788.84c0,1.18.03,2.09,0,3-.11,2.66-2.1,4.63-4.58,4.59-2.35-.04-4.38-2.01-4.53-4.48-.07-1.16-.08-2.34,0-3.5.08-1.22-.48-1.6-1.6-1.58-1.36.02-2.73.02-4.08-.13-2.04-.22-3.56-1.85-3.76-3.84-.21-2.14.92-4.34,2.84-4.79,3.45-.81,6.98-.92,10.27.59,4.43,2.02,5.8,5.81,5.45,10.14Z"/>
        <path class="cls-2" d="M171.71,379.04c0,.91.07,1.82-.01,2.72-.23,2.55-2.43,4.61-4.75,4.52-2.46-.09-4.29-2.07-4.44-4.75-.09-1.53.27-3.53-.54-4.45-.69-.78-2.78-.33-4.26-.43-2.81-.18-4.56-1.72-4.78-4.19-.2-2.2,1.4-4.38,3.98-4.71,6.43-.84,11.3-.02,13.73,5.27.84,1.82,1,3.94,1.47,5.93-.13.03-.26.06-.39.09Z"/>
        <path class="cls-2" d="M467.75,603.75c0-.91-.04-1.82,0-2.72.13-2.47,1.73-4.19,4.05-4.41,2.33-.22,4.37,1.11,4.88,3.47.31,1.43.28,2.95.25,4.43-.02,1.17.39,1.61,1.57,1.58,1.42-.03,2.86-.01,4.25.23,2.17.39,3.55,2.1,3.61,4.18.06,2.15-1.3,4.2-3.58,4.36-2.98.2-6.1.21-8.99-.44-3.5-.78-5.86-4.37-6.05-7.97-.05-.9,0-1.81,0-2.72Z"/>
        <path class="cls-2" d="M305.32,643.69c-1.75,0-3.51.1-5.25-.02-2.24-.16-3.95-2.02-4.07-4.22-.11-1.94,1.32-4.29,3.34-4.42,3.97-.27,7.99-.29,11.96-.01,2.09.14,3.64,2.62,3.47,4.53-.2,2.2-2.06,4.04-4.39,4.17-1.68.09-3.37.02-5.06.02,0-.01,0-.02,0-.03Z"/>
        <path class="cls-2" d="M95.45,462.46c-1.75,0-3.51.1-5.24-.03-2.28-.17-3.92-2.01-3.99-4.24-.08-2.3,1.32-4.36,3.63-4.51,3.72-.24,7.48-.24,11.21-.02,2.41.15,3.81,2.2,3.7,4.62-.11,2.27-1.7,3.99-4.06,4.16-1.74.12-3.5.02-5.25.02,0,0,0,0,0-.01Z"/>
        <path class="cls-2" d="M219.51,338.45c-1.75,0-3.5.1-5.24-.02-2.34-.17-3.94-1.91-4.07-4.19-.12-2.15,1.22-4.33,3.43-4.49,3.9-.28,7.86-.3,11.76,0,2.33.18,3.56,2.33,3.39,4.68-.16,2.17-1.74,3.76-4.03,4-.9.09-1.81.07-2.72.09-.84.01-1.68,0-2.53,0,0-.02,0-.05,0-.07Z"/>
        <path class="cls-2" d="M467.76,414.92c0-1.56-.05-3.11.01-4.67.1-2.46,1.62-4.07,4.07-4.42,2.08-.3,4.6,1.13,4.77,3.35.31,3.91.33,7.88,0,11.79-.21,2.36-2.56,3.61-4.93,3.33-2.24-.26-3.81-1.95-3.92-4.32-.07-1.68-.01-3.37-.01-5.06,0,0,0,0,0,0Z"/>
        <path class="cls-2" d="M209.74,415.07c0,1.56.04,3.11,0,4.67-.09,2.7-1.77,4.48-4.27,4.6-2.52.12-4.73-1.63-4.87-4.26-.18-3.36-.18-6.75,0-10.11.13-2.43,2.56-4.35,4.81-4.19,2.51.19,4.24,2,4.32,4.62.05,1.55,0,3.11.01,4.67Z"/>
        <path class="cls-2" d="M372.37,462.72c0-1.55-.04-3.11,0-4.66.09-2.64,1.85-4.45,4.34-4.53,2.54-.08,4.66,1.74,4.76,4.34.12,3.3.12,6.61,0,9.91-.1,2.44-2.35,4.39-4.66,4.32-2.49-.08-4.33-1.92-4.42-4.51-.06-1.62-.01-3.24-.01-4.86Z"/>
        <path class="cls-2" d="M429.62,491.45c0-1.55-.03-3.11,0-4.66.07-2.77,1.81-4.58,4.43-4.65,2.41-.06,4.64,1.93,4.72,4.46.11,3.17.1,6.35,0,9.52-.09,2.7-2.24,4.61-4.82,4.52-2.61-.1-4.28-1.9-4.33-4.72-.03-1.49,0-2.98,0-4.47Z"/>
        <path class="cls-2" d="M85.7,424.74c0,1.49.02,2.98,0,4.47-.05,2.75-1.82,4.63-4.41,4.7-2.39.07-4.66-1.96-4.75-4.47-.11-3.17-.1-6.35,0-9.52.08-2.7,2.19-4.58,4.81-4.53,2.58.05,4.28,1.86,4.35,4.68.03,1.55,0,3.11,0,4.67Z"/>
        <path class="cls-2" d="M143.26,443.77c1.9.14,3.92.14,5.88.47,1.97.33,3.57,2.5,3.51,4.33-.06,1.8-1.61,3.99-3.51,4.1-3.92.23-7.86.27-11.78.02-2.11-.13-3.55-2.24-3.55-4.23,0-1.96,1.46-3.89,3.55-4.24,1.9-.32,3.85-.31,5.89-.45Z"/>
        <path class="cls-2" d="M372.16,358.15c1.62,0,3.25-.08,4.86.02,2.55.15,4.33,1.91,4.48,4.26.13,2.04-1.41,4.32-3.73,4.49-3.78.28-7.61.27-11.39-.03-2.22-.17-3.89-2.65-3.7-4.55.21-2.18,2.07-3.94,4.42-4.17.19-.02.39-.04.58-.04,1.49,0,2.98,0,4.48,0,0,0,0,.01,0,.02Z"/>
        <path class="cls-2" d="M191.09,472.45c0-1.56-.04-3.12,0-4.68.08-2.83,2.01-4.78,4.62-4.73,2.53.05,4.45,1.99,4.5,4.67.06,3.05.06,6.11,0,9.16-.05,2.85-1.95,4.71-4.63,4.69-2.61-.03-4.4-1.84-4.49-4.62-.05-1.49,0-2.99,0-4.48Z"/>
        <path class="cls-2" d="M229.28,786.99c0-1.55-.05-3.11.01-4.66.1-2.58,1.95-4.46,4.39-4.53,2.36-.07,4.59,1.81,4.69,4.28.15,3.36.15,6.73,0,10.09-.1,2.4-2.47,4.37-4.73,4.25-2.51-.14-4.27-1.95-4.36-4.57-.05-1.62,0-3.24,0-4.85Z"/>
        <path class="cls-2" d="M104.77,434.26c0,1.49.03,2.98,0,4.47-.06,2.81-1.78,4.64-4.35,4.68-2.61.05-4.71-1.86-4.78-4.56-.09-3.17-.1-6.35,0-9.52.08-2.49,2.39-4.54,4.75-4.47,2.51.08,4.29,1.89,4.37,4.54.05,1.62,0,3.24.01,4.86Z"/>
        <path class="cls-2" d="M534.23,586.86c2.05.15,4.06.15,6.03.48,1.94.32,3.38,2.27,3.41,4.17.03,1.83-1.44,4.12-3.31,4.22-4.04.23-8.11.23-12.15,0-1.85-.11-3.39-2.44-3.37-4.21.03-1.82,1.56-3.87,3.45-4.18,1.96-.32,3.98-.34,5.94-.48Z"/>
        <path class="cls-2" d="M410.32,577.18c-1.99-.14-4.01-.14-5.98-.47-1.91-.32-3.43-2.32-3.48-4.13-.05-1.88,1.5-4.19,3.49-4.3,3.98-.23,7.99-.22,11.97.02,1.88.11,3.39,2.37,3.38,4.19,0,1.82-1.52,3.79-3.39,4.22-1,.23-2.04.27-3.07.32-.97.05-1.94.01-2.91.01,0,.04,0,.09,0,.13Z"/>
        <path class="cls-2" d="M162.04,748.88c0,1.62.06,3.25-.01,4.87-.11,2.6-1.97,4.43-4.47,4.49-2.36.06-4.53-1.86-4.62-4.36-.12-3.24-.11-6.5-.01-9.74.08-2.68,2.07-4.46,4.69-4.42,2.49.04,4.3,1.84,4.41,4.48.06,1.56.01,3.12.01,4.68Z"/>
        <path class="cls-2" d="M133.52,681.91c-1.49,0-2.99.07-4.48-.01-2.76-.15-4.46-1.68-4.65-4.05-.21-2.56,1.15-4.6,3.96-4.83,3.66-.29,7.38-.2,11.03.12,2.36.21,3.62,2.14,3.56,4.38-.07,2.29-1.55,4.02-3.98,4.27-1.8.19-3.63.04-5.45.04,0,.03,0,.05,0,.08Z"/>
        <path class="cls-2" d="M371.86,763.22c.03,2.55-1.8,4.45-4.33,4.52-2.57.07-4.91-2.12-4.86-4.53.05-2.26,2.26-4.4,4.59-4.47,2.54-.07,4.58,1.91,4.6,4.48Z"/>
        <path class="cls-2" d="M390.94,477.06c.03,2.52-1.83,4.44-4.35,4.5-2.5.06-4.74-1.95-4.83-4.35-.09-2.28,2.2-4.61,4.58-4.67,2.5-.06,4.57,1.97,4.6,4.51Z"/>
        <path class="cls-2" d="M85.69,477.07c.02,2.52-1.85,4.45-4.35,4.5-2.54.05-4.74-1.94-4.83-4.35-.08-2.28,2.21-4.61,4.59-4.67,2.5-.06,4.57,1.98,4.59,4.53Z"/>
        <path class="cls-2" d="M243.3,462.48c-2.47-.02-4.69-2.21-4.62-4.56.08-2.41,2.3-4.45,4.8-4.39,2.55.06,4.37,1.91,4.38,4.46,0,2.62-1.92,4.51-4.56,4.49Z"/>
        <path class="cls-2" d="M429.63,333.73c.11-2.39,2.28-4.42,4.63-4.32,2.35.1,4.67,2.52,4.55,4.74-.14,2.43-2.35,4.39-4.87,4.31-2.59-.08-4.43-2.1-4.31-4.74Z"/>
        <path class="cls-2" d="M539.07,567.42c-2.58,0-4.57-1.99-4.55-4.53.02-2.47,1.96-4.4,4.45-4.43,2.54-.03,4.67,1.99,4.71,4.44.03,2.4-2.13,4.52-4.61,4.52Z"/>
        <path class="cls-2" d="M262.49,539.39c2.51.02,4.43,1.92,4.46,4.4.03,2.52-2.02,4.63-4.51,4.63-2.37,0-4.66-2.25-4.65-4.59.01-2.45,2.15-4.47,4.69-4.45Z"/>
        <path class="cls-2" d="M138.36,624.63c-2.52-.02-4.63-2.14-4.55-4.57.07-2.28,2.28-4.44,4.57-4.48,2.45-.03,4.57,2.09,4.56,4.58,0,2.57-1.98,4.49-4.58,4.47Z"/>
        <path class="cls-2" d="M228.79,524.76c0,2.51-2.07,4.63-4.54,4.62-2.3,0-4.68-2.4-4.65-4.65.04-2.29,2.19-4.37,4.57-4.41,2.64-.05,4.6,1.84,4.61,4.45Z"/>
        <path class="cls-2" d="M357.8,720.63c2.58,0,4.63,1.99,4.61,4.49-.02,2.47-2.12,4.49-4.64,4.46-2.49-.03-4.44-1.95-4.48-4.4-.04-2.55,1.94-4.54,4.51-4.55Z"/>
        <path class="cls-2" d="M138.5,643.73c-2.56.02-4.65-1.96-4.68-4.45-.03-2.33,2.27-4.63,4.62-4.62,2.37.01,4.45,2.06,4.51,4.45.06,2.57-1.88,4.59-4.45,4.61Z"/>
        <path class="cls-2" d="M147.92,481.56c-2.64-.02-4.52-1.95-4.47-4.58.04-2.41,2.08-4.44,4.48-4.45,2.36-.01,4.73,2.28,4.72,4.56-.01,2.35-2.27,4.49-4.73,4.47Z"/>
        <path class="cls-2" d="M266.95,400.75c.01,2.51-2.09,4.65-4.54,4.62-2.38-.03-4.65-2.33-4.61-4.65.05-2.35,2.13-4.37,4.54-4.4,2.62-.03,4.6,1.87,4.61,4.43Z"/>
        <path class="cls-2" d="M233.79,586.49c-2.58,0-4.53-1.97-4.5-4.54.02-2.46,1.97-4.39,4.45-4.41,2.51-.02,4.66,2.03,4.68,4.46.02,2.44-2.1,4.5-4.63,4.49Z"/>
        <path class="cls-2" d="M200.23,515.31c-.06,2.49-2.21,4.5-4.74,4.41-2.47-.08-4.42-2.1-4.39-4.55.03-2.49,2.24-4.56,4.72-4.44,2.45.11,4.46,2.21,4.41,4.58Z"/>
        <path class="cls-2" d="M324.21,505.66c.04,2.49-2.09,4.6-4.6,4.57-2.43-.03-4.5-2.08-4.52-4.47-.02-2.49,2.07-4.54,4.62-4.53,2.47,0,4.47,1.98,4.51,4.43Z"/>
        <path class="cls-2" d="M128.95,434.47c2.46.03,4.68,2.23,4.6,4.57-.08,2.39-2.31,4.42-4.81,4.37-2.52-.05-4.36-1.95-4.36-4.48,0-2.62,1.92-4.49,4.57-4.46Z"/>
        <path class="cls-2" d="M310.04,424.86c2.34-.06,4.69,2.16,4.74,4.49.05,2.27-2.27,4.55-4.66,4.56-2.46.01-4.46-1.92-4.52-4.38-.07-2.54,1.9-4.6,4.44-4.67Z"/>
        <path class="cls-2" d="M529.54,662.79c-2.47,0-4.71-2.14-4.69-4.48.02-2.28,2.44-4.63,4.72-4.58,2.48.06,4.51,2.19,4.47,4.7-.03,2.51-1.95,4.37-4.5,4.37Z"/>
        <path class="cls-2" d="M390.94,658.36c-.01,2.62-1.95,4.47-4.61,4.42-2.43-.05-4.53-2.07-4.56-4.4-.03-2.27,2.33-4.63,4.65-4.64,2.47-.01,4.54,2.1,4.53,4.62Z"/>
        <path class="cls-2" d="M534.04,410.23c.04,2.57-1.92,4.58-4.49,4.6-2.35.02-4.7-2.23-4.7-4.52,0-2.26,2.4-4.57,4.72-4.54,2.44.03,4.43,2.03,4.48,4.46Z"/>
        <path class="cls-2" d="M162.52,429.33c.03-2.52,2.16-4.56,4.64-4.47,2.4.09,4.64,2.4,4.54,4.67-.1,2.28-2.34,4.38-4.65,4.37-2.54,0-4.56-2.05-4.52-4.58Z"/>
        <path class="cls-2" d="M162.52,486.53c.04-2.45,2-4.38,4.48-4.39,2.43-.02,4.69,2.15,4.7,4.5.01,2.29-2.36,4.59-4.69,4.57-2.42-.02-4.52-2.21-4.49-4.67Z"/>
        <path class="cls-2" d="M371.86,715.61c-.03,2.57-2.1,4.55-4.63,4.45-2.33-.1-4.54-2.25-4.57-4.46-.03-2.25,2.34-4.57,4.68-4.59,2.51-.02,4.54,2.06,4.51,4.6Z"/>
        <path class="cls-2" d="M410.56,553.42c-.01-2.56,2-4.58,4.54-4.57,2.36.02,4.68,2.33,4.62,4.62-.06,2.27-2.25,4.4-4.57,4.44-2.59.04-4.58-1.9-4.59-4.49Z"/>
        <path class="cls-2" d="M390.93,791.76c.04,2.56-1.93,4.63-4.46,4.68-2.3.05-4.71-2.27-4.73-4.55-.02-2.3,2.3-4.53,4.69-4.51,2.54.02,4.45,1.88,4.49,4.38Z"/>
        <path class="cls-2" d="M252.8,662.79c-2.51-.03-4.42-1.94-4.43-4.43-.02-2.5,2.08-4.65,4.53-4.63,2.35.02,4.65,2.34,4.62,4.64-.04,2.42-2.2,4.45-4.72,4.42Z"/>
        <path class="cls-2" d="M267.46,391.18c.03-2.53,2.14-4.59,4.62-4.5,2.35.08,4.65,2.46,4.56,4.7-.09,2.26-2.35,4.36-4.65,4.34-2.64-.02-4.56-1.95-4.53-4.54Z"/>
        <path class="cls-2" d="M247.86,572.5c-.02,2.59-2.04,4.56-4.6,4.49-2.39-.06-4.66-2.37-4.57-4.64.09-2.28,2.3-4.38,4.63-4.4,2.55-.02,4.57,2,4.54,4.55Z"/>
        <path class="cls-2" d="M357.78,700.97c-2.55-.02-4.55-2.07-4.5-4.6.05-2.38,2.1-4.4,4.49-4.45,2.37-.05,4.65,2.19,4.64,4.55-.01,2.45-2.14,4.51-4.63,4.49Z"/>
        <path class="cls-2" d="M176.65,395.73c-2.51.05-4.63-1.99-4.65-4.47-.02-2.39,2.2-4.6,4.6-4.58,2.37.02,4.46,2.06,4.53,4.42.07,2.5-1.92,4.57-4.48,4.62Z"/>
        <path class="cls-2" d="M338.67,510.22c-2.53-.04-4.59-2.2-4.48-4.69.11-2.45,2.17-4.37,4.63-4.31,2.49.06,4.48,2.03,4.49,4.46.02,2.48-2.13,4.58-4.64,4.54Z"/>
        <path class="cls-2" d="M162.04,391.29c-.04,2.54-2.11,4.52-4.65,4.43-2.52-.09-4.57-2.21-4.48-4.64.09-2.29,2.3-4.41,4.6-4.39,2.46.02,4.57,2.15,4.53,4.6Z"/>
        <path class="cls-2" d="M410.01,715.61c-.02,2.58-2.04,4.54-4.61,4.45-2.37-.08-4.51-2.17-4.54-4.45-.03-2.29,2.27-4.57,4.64-4.59,2.53-.02,4.53,2.02,4.51,4.59Z"/>
        <path class="cls-2" d="M534.04,553.42c-.01,2.56-2.05,4.55-4.6,4.48-2.31-.06-4.54-2.22-4.59-4.43-.05-2.27,2.3-4.61,4.64-4.62,2.53-.01,4.56,2.03,4.55,4.57Z"/>
        <path class="cls-2" d="M390.94,715.5c.04,2.58-1.94,4.58-4.51,4.57-2.39-.01-4.69-2.25-4.67-4.55.02-2.28,2.41-4.55,4.75-4.51,2.46.04,4.4,2.01,4.44,4.49Z"/>
        <path class="cls-2" d="M272.04,567.96c2.39.05,4.66,2.35,4.59,4.63-.08,2.32-2.46,4.5-4.8,4.4-2.61-.11-4.46-2.11-4.37-4.71.08-2.44,2.13-4.38,4.59-4.32Z"/>
        <path class="cls-2" d="M142.95,486.7c-.04,2.49-2.22,4.6-4.64,4.49-2.36-.11-4.48-2.23-4.49-4.51-.02-2.4,2.17-4.55,4.61-4.53,2.61.02,4.56,1.99,4.52,4.56Z"/>
        <path class="cls-2" d="M534.03,572.42c.02,2.56-1.98,4.58-4.52,4.57-2.37-.01-4.69-2.29-4.66-4.56.03-2.23,2.23-4.39,4.56-4.49,2.5-.1,4.6,1.93,4.63,4.48Z"/>
        <path class="cls-2" d="M176.53,358.17c2.59-.03,4.6,1.92,4.6,4.46,0,2.42-2.21,4.62-4.6,4.58-2.31-.04-4.45-2.16-4.53-4.48-.08-2.49,1.94-4.53,4.52-4.56Z"/>
        <path class="cls-2" d="M109.89,415.39c2.47.03,4.66,2.22,4.57,4.58-.09,2.39-2.34,4.44-4.81,4.37-2.53-.07-4.35-1.97-4.34-4.51.01-2.61,1.94-4.47,4.58-4.44Z"/>
        <path class="cls-2" d="M338.8,662.78c-2.58.04-4.6-1.91-4.61-4.45,0-2.4,2.22-4.62,4.6-4.58,2.33.04,4.45,2.14,4.53,4.47.08,2.49-1.93,4.52-4.51,4.56Z"/>
        <path class="cls-2" d="M371.87,391.29c-.02,2.49-1.92,4.4-4.44,4.43-2.38.04-4.72-2.16-4.76-4.46-.03-2.25,2.37-4.6,4.68-4.6,2.48,0,4.53,2.1,4.51,4.62Z"/>
        <path class="cls-2" d="M104.76,410.26c.03,2.59-1.93,4.56-4.51,4.55-2.42-.01-4.67-2.22-4.63-4.55.04-2.24,2.21-4.39,4.54-4.49,2.49-.11,4.58,1.93,4.6,4.49Z"/>
        <path class="cls-2" d="M85.69,572.52c0,2.47-1.94,4.42-4.42,4.47-2.38.05-4.7-2.13-4.75-4.46-.05-2.27,2.28-4.57,4.65-4.58,2.55-.01,4.53,1.99,4.53,4.57Z"/>
        <path class="cls-2" d="M104.76,572.42c.03,2.6-1.91,4.57-4.5,4.57-2.37,0-4.68-2.27-4.65-4.56.03-2.27,2.18-4.39,4.53-4.48,2.53-.1,4.58,1.89,4.61,4.47Z"/>
        <path class="cls-2" d="M142.95,467.68c-.08,2.5-2.28,4.55-4.71,4.4-2.4-.15-4.45-2.27-4.42-4.57.03-2.37,2.29-4.53,4.69-4.47,2.57.07,4.53,2.1,4.45,4.64Z"/>
        <path class="cls-2" d="M267.45,448.52c-.01-2.58,1.96-4.57,4.53-4.57,2.37,0,4.68,2.27,4.64,4.57-.04,2.32-2.39,4.54-4.74,4.48-2.5-.07-4.42-2.01-4.43-4.48Z"/>
        <path class="cls-2" d="M505.47,410.36c-.03,2.45-2.19,4.52-4.66,4.46-2.49-.06-4.44-2-4.46-4.44-.03-2.46,2.08-4.58,4.55-4.59,2.43,0,4.61,2.16,4.58,4.57Z"/>
        <path class="cls-2" d="M123.85,429.36c.02,2.56-1.98,4.57-4.53,4.54-2.44-.03-4.65-2.21-4.61-4.56.04-2.24,2.2-4.38,4.53-4.47,2.5-.1,4.58,1.93,4.61,4.48Z"/>
        <path class="cls-2" d="M495.91,791.86c0,2.45-2.13,4.59-4.58,4.59-2.43,0-4.55-2.19-4.53-4.65.03-2.4,2.03-4.37,4.49-4.41,2.54-.05,4.6,1.96,4.61,4.48Z"/>
        <path class="cls-2" d="M181.13,715.62c-.04,2.48-2.19,4.53-4.66,4.44-2.52-.08-4.57-2.22-4.46-4.65.1-2.37,2.2-4.38,4.58-4.38,2.43,0,4.59,2.18,4.55,4.59Z"/>
        <path class="cls-2" d="M448.19,610.54c.05,2.51-1.97,4.6-4.49,4.64-2.37.03-4.66-2.2-4.65-4.55,0-2.39,2.21-4.52,4.65-4.51,2.45.01,4.43,1.97,4.48,4.42Z"/>
        <path class="cls-2" d="M190.66,496.2c-.01,2.53-2.05,4.48-4.64,4.44-2.48-.04-4.43-1.98-4.45-4.43-.02-2.44,2.14-4.64,4.56-4.65,2.4-.01,4.55,2.18,4.53,4.64Z"/>
        <path class="cls-2" d="M333.75,667.92c-.04,2.45-2.27,4.63-4.64,4.54-2.46-.09-4.52-2.27-4.45-4.73.06-2.45,2.03-4.32,4.54-4.33,2.58,0,4.59,1.99,4.55,4.51Z"/>
        <path class="cls-2" d="M486.38,734.78c.1-2.42-2-4.61-4.46-4.66-2.39-.05-4.51,1.9-4.66,4.28-.15,2.44,1.83,4.59,4.37,4.74,2.48.15,4.65-1.85,4.75-4.35Z"/>
        <path class="cls-2" d="M481.85,558.47c-2.58-.01-4.6,1.97-4.6,4.5,0,2.42,1.98,4.4,4.44,4.46,2.58.06,4.64-1.88,4.69-4.4.05-2.54-1.94-4.54-4.53-4.55Z"/>
        <path class="cls-2" d="M310.16,567.47c2.41-.02,4.69-2.3,4.62-4.61-.07-2.41-2.28-4.44-4.79-4.39-2.5.04-4.4,1.97-4.41,4.46,0,2.54,2.04,4.57,4.58,4.54Z"/>
        <path class="cls-2" d="M138.38,567.46c2.43.05,4.47-1.89,4.56-4.33.1-2.57-1.82-4.6-4.39-4.66-2.54-.06-4.67,1.91-4.74,4.39-.06,2.39,2.08,4.56,4.57,4.6Z"/>
        <path class="cls-2" d="M310.04,730.11c-2.55.07-4.5,2.13-4.43,4.67.07,2.46,2.07,4.39,4.53,4.37,2.38-.02,4.7-2.3,4.65-4.57-.06-2.32-2.41-4.54-4.74-4.48Z"/>
        <path class="cls-2" d="M305.6,391.14c-.04,2.58,1.89,4.56,4.49,4.59,2.38.03,4.71-2.2,4.69-4.5-.02-2.32-2.35-4.59-4.7-4.57-2.39.02-4.45,2.08-4.49,4.47Z"/>
        <path class="cls-2" d="M524.57,362.6c-.38-8.28-6.09-14.1-14.19-14.04-8.63.07-13.97,6.51-14.02,14.16-.05,7.73,6.27,13.91,14.04,13.94,7.82.02,14.22-6.33,14.17-14.06Z"/>
        <path class="cls-2" d="M123.86,763.29c.03-7.85-6.25-14.14-14.08-14.11-7.67.03-14.06,6.32-14.17,13.95-.11,7.59,6.27,14.21,14.11,14.19,8.41-.03,14.16-6.47,14.14-14.03Z"/>
        <path class="cls-2" d="M486.38,734.78c-.1,2.5-2.28,4.5-4.75,4.35-2.54-.15-4.53-2.3-4.37-4.74.15-2.38,2.28-4.32,4.66-4.28,2.45.05,4.56,2.25,4.46,4.66Z"/>
        <path class="cls-2" d="M481.85,558.47c2.59.01,4.57,2.01,4.53,4.55-.05,2.52-2.11,4.46-4.69,4.4-2.45-.05-4.43-2.04-4.44-4.46,0-2.53,2.02-4.51,4.6-4.5Z"/>
        <path class="cls-2" d="M310.16,567.47c-2.54.03-4.58-2-4.58-4.54,0-2.49,1.91-4.42,4.41-4.46,2.5-.04,4.71,1.99,4.79,4.39.07,2.31-2.21,4.59-4.62,4.61Z"/>
        <path class="cls-2" d="M138.38,567.46c-2.48-.05-4.63-2.21-4.57-4.6.06-2.48,2.19-4.45,4.74-4.39,2.58.06,4.49,2.1,4.39,4.66-.09,2.44-2.13,4.38-4.56,4.33Z"/>
        <path class="cls-2" d="M310.04,730.11c2.34-.06,4.69,2.15,4.74,4.48.06,2.27-2.27,4.55-4.65,4.57-2.46.02-4.46-1.92-4.53-4.37-.07-2.54,1.89-4.6,4.43-4.67Z"/>
        <path class="cls-2" d="M305.6,391.14c.04-2.4,2.1-4.45,4.49-4.47,2.35-.02,4.68,2.24,4.7,4.57.02,2.3-2.31,4.53-4.69,4.5-2.6-.04-4.54-2.02-4.49-4.59Z"/>
        <path class="cls-2" d="M123.86,362.59c0,7.82-6.09,13.99-13.9,14.06-7.8.08-14.49-6.21-14.3-13.92.2-7.87,5.39-14.04,14.07-14.17,8.45-.13,14.14,6.48,14.13,14.03Z"/>
        <path class="cls-2" d="M524.57,362.6c.05,7.73-6.35,14.08-14.17,14.06-7.78-.02-14.09-6.21-14.04-13.94.05-7.65,5.38-14.09,14.02-14.16,8.1-.06,13.81,5.76,14.19,14.04Z"/>
        <path class="cls-2" d="M123.86,763.29c.02,7.55-5.73,14-14.14,14.03-7.84.03-14.22-6.59-14.11-14.19.11-7.63,6.5-13.92,14.17-13.95,7.83-.03,14.11,6.26,14.08,14.11Z"/>
      </g>
    </g>
  </g>
</svg>