<svg width="60" height="34" viewBox="0 0 60 34" fill="none" xmlns="http://www.w3.org/2000/svg">
<path d="M49.6859 24.9612L58.3486 21.772L56.4343 20.495L56.2586 18.3947L59.8998 16.4886L55.8874 16.4071L55.4647 15.6101L54.2688 14.6732L52.8 15.7238L52.7435 15.1713H51.6697L55.948 11.8433L50.1096 11.4226L55.7961 6.7652L54.2212 5.1973L49.0338 3.19766L45.8948 6.09497L43.3324 3.61832L39.7399 4.2473L37.1308 8.51224L37.0336 8.27474L37.3194 7.61256L35.9915 6.84169L37.2976 1.65592L32.2531 0.688812L31.9971 3.70889L30.8151 2.73273L29.5825 11.8433H25.6764L25.3846 10.3639H27.2444V7.34688H24.2691V8.01812L22.8976 9.30224L23.7164 11.8433H22.6733L20.893 5.38951L19.2644 5.50122L18.2323 2.53649L15.0079 2.73675L13.1571 5.97521L11.4551 2.60995L5.92338 12.2569L11.3876 16.9063L11.3301 17.7577L10.0637 16.7432L9.71142 17.5192L6.31935 14.9811L1.66493 16.863L0.485945 18.2679L1.18758 20.5503L3.95741 21.7046L1.73639 21.7116L10.2185 24.9612H0.386703L16.3368 33.0342H44.0033L60 24.9612H49.6859Z" fill="#0114B1"/>
<path d="M43.5567 23.9345L37.0733 29.4614H23.3125L16.83 23.9345H0.386703V25.1774H16.3834L22.8659 30.7053H37.5208L44.0033 25.1774H60V23.9345H43.5567Z" fill="#FFC100"/>
<path d="M39.4164 12.2772H39.2517C38.0687 12.2772 36.8858 12.2752 35.7018 12.2802C35.5807 12.2802 35.5281 12.249 35.4954 12.1252C35.1093 10.6781 34.7164 9.23397 34.3224 7.78884C34.3065 7.72846 34.2678 7.67513 34.239 7.61776C34.2192 7.62481 34.1983 7.63185 34.1785 7.6389C34.237 9.17561 34.2966 10.7123 34.3561 12.2631H30.8142V2.7329C30.8678 2.72887 30.9154 2.72183 30.963 2.72183C32.1609 2.72183 33.3597 2.72384 34.5576 2.7178C34.6806 2.7178 34.7183 2.76611 34.7461 2.8758C35.0002 3.86203 35.2582 4.84726 35.5182 5.83248C35.5371 5.90394 35.5758 5.96935 35.6056 6.03778C35.6264 6.03074 35.6472 6.02369 35.6691 6.01665C35.6135 4.92475 35.5579 3.83386 35.5023 2.72988C35.5678 2.72586 35.6165 2.72082 35.6651 2.72082C36.6516 2.72082 37.639 2.72284 38.6255 2.7178C38.7624 2.7178 38.8011 2.75705 38.8101 2.89492C39.0046 5.93111 39.2031 8.96729 39.4015 12.0035C39.4075 12.089 39.4105 12.1735 39.4164 12.2772Z" fill="#FBFBFB"/>
<path d="M39.4343 6.17666C39.4809 5.69462 39.4789 5.19748 39.5841 4.72549C39.7975 3.76643 40.4574 3.19281 41.3337 2.85367C42.1505 2.53767 43.004 2.50446 43.8644 2.56082C44.4608 2.60006 45.0394 2.72083 45.5932 2.95833C46.7404 3.45144 47.4669 4.29678 47.7219 5.54668C47.9829 6.82274 48.1625 8.10988 48.2231 9.4121C48.2846 10.7284 47.5671 11.7408 46.2521 12.1987C45.359 12.5107 44.437 12.5429 43.5061 12.4523C42.9216 12.3949 42.3539 12.2601 41.818 12.0105C40.6202 11.452 39.8828 10.5322 39.725 9.1897C39.6079 8.1924 39.5305 7.19006 39.4353 6.17867L39.4343 6.17666ZM43.5845 5.39271C43.392 5.3917 43.3057 5.47724 43.3077 5.67046C43.3077 5.73185 43.3146 5.79223 43.3206 5.85362C43.387 6.51379 43.4525 7.17296 43.52 7.83313C43.5597 8.2236 43.5974 8.61507 43.6411 9.00553C43.6649 9.2209 43.8168 9.32757 44.0391 9.29839C44.2157 9.27524 44.2792 9.1736 44.2554 8.95119C44.2227 8.63721 44.1899 8.32222 44.1572 8.00823C44.0758 7.23233 43.9964 6.45744 43.913 5.68254C43.8932 5.49435 43.7731 5.39472 43.5855 5.39372L43.5845 5.39271Z" fill="#FBFBFB"/>
<path d="M48.7352 7.48589C48.8672 7.57345 48.9674 7.63785 49.0656 7.70528C49.7752 8.1984 50.5741 8.44395 51.4117 8.57981C51.7194 8.63012 52.029 8.6734 52.3396 8.69856C52.4567 8.70761 52.6334 8.77806 52.6741 8.57175C52.7038 8.41979 52.6135 8.33325 52.3863 8.29299C52.024 8.22959 51.6598 8.18129 51.2976 8.11889C50.8252 8.03838 50.3637 7.91863 49.9231 7.72038C48.9733 7.29368 48.4285 6.56206 48.2945 5.51645C48.2449 5.13001 48.2231 4.74256 48.3064 4.35914C48.4732 3.59129 48.9714 3.12132 49.67 2.84658C50.2158 2.63223 50.7895 2.55474 51.371 2.54065C52.7177 2.50845 54.0237 2.76607 55.3129 3.12937C55.3575 3.14245 55.4191 3.1978 55.424 3.23906C55.5521 4.39436 55.6741 5.55067 55.7962 6.70697C55.7982 6.72207 55.7962 6.73716 55.7962 6.76434C55.7734 6.7583 55.7555 6.75729 55.7416 6.74924C54.8901 6.26418 53.9622 6.05888 53.0016 5.97032C52.8209 5.95422 52.6413 5.93107 52.4607 5.92302C52.3575 5.91799 52.2334 5.90994 52.2136 6.05888C52.1927 6.20581 52.289 6.27927 52.4131 6.2994C52.8448 6.37085 53.2794 6.42821 53.7111 6.49966C54.2242 6.5842 54.7274 6.70395 55.1997 6.9334C56.1088 7.37519 56.6378 8.12191 56.868 9.09707C56.9345 9.37785 56.9811 9.66969 56.992 9.95751C57.0248 10.7968 56.6497 11.4177 55.948 11.8424C55.3427 12.2087 54.6698 12.3587 53.9791 12.4311C52.3535 12.6012 50.7537 12.4181 49.1689 12.0467C49.0537 12.0195 49.0309 11.9571 49.024 11.8565C48.9614 10.8783 48.8969 9.90115 48.8314 8.92398C48.8046 8.51641 48.7739 8.10984 48.7461 7.70226C48.7421 7.64188 48.7401 7.5815 48.7352 7.48489V7.48589Z" fill="#FBFBFB"/>
<path d="M7.02601 6.88523C6.29559 7.14889 5.59594 7.40149 4.87148 7.66314C4.93797 7.35821 4.9995 7.07342 5.06202 6.78761C5.19897 6.16669 5.33791 5.54677 5.47189 4.92585C5.49372 4.82521 5.53342 4.7608 5.63563 4.71652C7.19372 4.04126 8.74983 3.35895 10.3079 2.68368C10.4151 2.63739 10.5392 2.61726 10.6563 2.61323C10.9173 2.60317 11.1783 2.61022 11.4561 2.61022C11.4522 2.66557 11.4522 2.70985 11.4452 2.75111C10.9619 5.49947 10.4786 8.24784 9.99432 10.9952C9.92683 11.3766 9.85736 11.758 9.79484 12.1414C9.77995 12.23 9.75514 12.2733 9.65392 12.2733C8.44516 12.2703 7.23739 12.2713 6.02863 12.2703C5.99985 12.2703 5.97008 12.2632 5.92443 12.2572C6.29063 10.4729 6.65584 8.69667 7.027 6.88523H7.02601Z" fill="#FBFBFB"/>
<path d="M20.0156 17.663C19.2793 18.61 18.5429 19.556 17.7847 20.5311C17.3014 19.5509 16.833 18.6019 16.3655 17.654C16.3506 17.657 16.3358 17.659 16.3209 17.662C16.2435 18.2024 16.167 18.7438 16.0877 19.2843C15.9676 20.1065 15.8405 20.9286 15.7264 21.7518C15.7046 21.9098 15.653 21.9702 15.4882 21.9672C14.9484 21.9571 14.4085 21.9632 13.8269 21.9632C14.216 19.4886 14.6 17.0451 14.9891 14.5725C15.4198 14.5725 15.8395 14.5685 16.2603 14.5735C16.5362 14.5775 16.8697 14.502 17.0711 14.6319C17.2647 14.7567 17.3242 15.0988 17.4383 15.3474C17.7132 15.9462 17.9861 16.545 18.2759 17.178C18.3494 17.0874 18.4039 17.023 18.4546 16.9555C19.0004 16.2199 19.5482 15.4853 20.0881 14.7446C20.1774 14.6218 20.2677 14.5664 20.4215 14.5685C20.9713 14.5775 21.5211 14.5715 22.0709 14.5725C22.1404 14.5725 22.2099 14.5815 22.2972 14.5876C22.2019 15.3585 22.1096 16.1102 22.0173 16.862C21.8178 18.4812 21.6144 20.0994 21.4229 21.7196C21.3991 21.9169 21.3286 21.9702 21.14 21.9662C20.6002 21.9541 20.0603 21.9622 19.4827 21.9622C19.6782 20.516 19.8687 19.0991 20.0603 17.6831C20.0454 17.6761 20.0315 17.6691 20.0166 17.661L20.0156 17.663Z" fill="#FBFBFB"/>
<path d="M28.2467 21.8961C28.2963 21.3436 28.343 20.8082 28.3926 20.2719C28.5613 18.4383 28.735 16.6047 28.8967 14.7701C28.9136 14.5739 28.9722 14.5135 29.1667 14.5165C29.9954 14.5276 30.824 14.5205 31.6527 14.5215C33.5095 14.5215 34.7272 15.6537 34.8433 17.5305C34.9296 18.9203 34.5198 20.132 33.443 21.0528C32.787 21.6143 32.0189 21.9012 31.1595 21.9092C30.2673 21.9173 29.3751 21.9112 28.4829 21.9112C28.4134 21.9112 28.344 21.9032 28.2477 21.8971L28.2467 21.8961ZM30.4975 19.9478C31.9266 20.1612 32.652 19.4275 32.7682 18.2541C32.8882 17.0404 32.3067 16.4054 31.1088 16.4054C31.0533 16.4054 30.9967 16.4105 30.9411 16.4054C30.8141 16.3934 30.7813 16.4568 30.7724 16.5765C30.6841 17.6956 30.5908 18.8136 30.4975 19.9488V19.9478Z" fill="#FBFBFB"/>
<path d="M6.54662 17.2051C6.08317 16.8378 5.59292 16.6476 5.05403 16.5751C3.51679 16.3688 2.31696 17.4979 2.43704 19.0437C2.49063 19.7401 2.89355 20.1487 3.58228 20.2081C3.63786 20.2131 3.69443 20.2171 3.74901 20.2131C4.54393 20.1587 4.41294 20.2292 4.53897 19.4161H3.5277C3.63687 18.8927 3.73512 18.4047 3.84428 17.9186C3.85321 17.8814 3.94154 17.8391 3.99314 17.8391C4.80593 17.8351 5.61872 17.8381 6.4315 17.8401C6.45235 17.8401 6.47418 17.8552 6.50792 17.8683C6.32929 18.7881 6.15065 19.7059 5.97301 20.6227C5.93728 20.8048 5.88568 20.986 5.87178 21.1701C5.85491 21.3845 5.7517 21.4922 5.56017 21.5737C4.67593 21.947 3.7639 22.1252 2.80622 22.0356C1.265 21.8897 0.300373 20.8843 0.32816 19.3184C0.36091 17.501 1.1082 16.0246 2.68812 15.0958C3.97131 14.342 5.33687 14.3078 6.71831 14.8522C6.91283 14.9287 6.97733 15.0263 6.92771 15.2517C6.78679 15.8817 6.67762 16.5187 6.54563 17.2051H6.54662Z" fill="#FBFBFB"/>
<path d="M53.5891 17.1329C53.5027 17.0856 53.4412 17.0554 53.3826 17.0192C52.7951 16.6549 52.155 16.4878 51.4703 16.4999C50.4908 16.518 49.8645 17.1138 49.8229 18.1061C49.809 18.4372 49.8447 18.7924 49.9519 19.1034C50.3081 20.1399 51.2718 20.2687 52.0211 20.0997C52.0647 20.0896 52.1233 20.0171 52.1262 19.9709C52.1382 19.7796 52.1312 19.5874 52.1312 19.364H51.0812V17.8001H53.6962C53.7072 17.9702 53.723 18.1443 53.73 18.3174C53.7647 19.2785 53.8004 20.2396 53.8253 21.2006C53.8272 21.2862 53.7756 21.421 53.7111 21.4532C52.3565 22.1114 50.9721 22.2603 49.5906 21.573C48.493 21.0275 47.9512 20.0554 47.7785 18.8588C47.6544 18.0014 47.7398 17.1621 48.1129 16.3741C48.6389 15.2631 49.538 14.6583 50.723 14.4922C51.6152 14.3675 52.4895 14.4691 53.3191 14.8435C53.3995 14.8797 53.5077 14.9753 53.5117 15.0488C53.5494 15.7311 53.5662 16.4154 53.5901 17.1309L53.5891 17.1329Z" fill="#FBFBFB"/>
<path d="M13.3317 21.9633C12.6569 21.9633 12.0128 21.9673 11.3697 21.9553C11.3131 21.9543 11.2208 21.8526 11.2079 21.7862C11.1514 21.4853 11.1097 21.1804 11.0779 20.8755C11.0631 20.7305 11.0025 20.6883 10.8646 20.6893C10.2195 20.6953 9.57344 20.6863 8.92837 20.6983C8.84898 20.6993 8.73882 20.7748 8.70011 20.8473C8.5324 21.1582 8.38949 21.4833 8.22971 21.7993C8.19696 21.8627 8.12749 21.9523 8.07291 21.9533C7.43082 21.9643 6.78873 21.9603 6.10098 21.9603C6.25878 21.6514 6.39474 21.3806 6.53467 21.113C7.63724 19.0016 8.7418 16.8923 9.83841 14.7779C9.92178 14.6169 10.0141 14.5646 10.1877 14.5676C10.7614 14.5777 11.335 14.5746 11.9086 14.5696C12.0386 14.5686 12.1051 14.5938 12.1309 14.7437C12.5219 17.0925 12.9199 19.4394 13.3158 21.7872C13.3238 21.8335 13.3248 21.8808 13.3317 21.9623V21.9633ZM10.8279 19.0469C10.7375 18.3847 10.6492 17.7437 10.5619 17.1036C10.545 17.1016 10.5271 17.0996 10.5103 17.0986C10.1997 17.7417 9.88903 18.3837 9.56848 19.0479H10.8279V19.0469Z" fill="#FBFBFB"/>
<path d="M40.377 20.0986V21.893H35.3901C35.537 19.4435 35.6839 17.0041 35.8318 14.5435H40.6102C40.6102 14.7337 40.6152 14.933 40.6092 15.1312C40.5993 15.4623 40.5745 15.7934 40.5745 16.1245C40.5745 16.3107 40.5209 16.3741 40.3284 16.3711C39.5553 16.36 38.7822 16.3731 38.0091 16.362C37.8126 16.359 37.7412 16.4174 37.7471 16.6196C37.7541 16.8521 37.7293 17.0846 37.7173 17.3422H40.2212C40.2212 17.4348 40.2232 17.5032 40.2212 17.5717C40.2073 17.9672 40.1795 18.3637 40.1825 18.7592C40.1845 19.0007 40.122 19.0923 39.862 19.0842C39.201 19.0631 38.5391 19.0842 37.8781 19.0731C37.6846 19.0701 37.6072 19.1255 37.6112 19.3277C37.6161 19.5763 37.5923 19.8259 37.5804 20.0996H40.381L40.377 20.0986Z" fill="#FBFBFB"/>
<path d="M23.252 14.5908H28.0423C27.9878 15.1705 27.9401 15.732 27.8716 16.2905C27.8657 16.3419 27.7238 16.4133 27.6454 16.4143C26.8892 16.4234 26.1319 16.4204 25.3747 16.4204H25.0859C25.0462 16.7434 25.0085 17.0513 24.9659 17.3975H27.4767C27.4221 17.9631 27.3764 18.4924 27.3109 19.0188C27.305 19.0641 27.17 19.1234 27.0946 19.1244C26.4098 19.1325 25.7241 19.1375 25.0393 19.1244C24.8368 19.1204 24.7525 19.1737 24.7465 19.3861C24.7396 19.6347 24.7019 19.8832 24.6751 20.158H27.4935C27.4975 20.2344 27.5064 20.2888 27.5015 20.3401C27.4568 20.8141 27.4092 21.2881 27.3655 21.7631C27.3556 21.8738 27.3486 21.9674 27.1968 21.9674C25.6199 21.9624 24.0429 21.9624 22.465 21.9593C22.4501 21.9593 22.4362 21.9483 22.3806 21.9271C22.6694 19.4907 22.9602 17.0443 23.251 14.5928L23.252 14.5908Z" fill="#FBFBFB"/>
<path d="M40.9685 14.5212C41.6692 14.5212 42.3291 14.5162 42.9881 14.5303C43.0427 14.5313 43.1221 14.649 43.1439 14.7255C43.4714 15.8647 43.7909 17.0059 44.1125 18.1471C44.2038 18.4702 44.2971 18.7922 44.438 19.1132C44.5988 18.6101 44.7595 18.1069 44.9193 17.6027C45.223 16.6416 45.5237 15.6795 45.8343 14.7215C45.8601 14.643 45.9544 14.5313 46.0189 14.5293C46.6551 14.5152 47.2922 14.5202 47.9571 14.5202C47.9353 14.6068 47.9244 14.6742 47.9025 14.7376C47.1056 17.0623 46.3057 19.387 45.5128 21.7137C45.4632 21.8606 45.3977 21.916 45.2428 21.9139C44.6454 21.9059 44.047 21.9039 43.4496 21.9139C43.2759 21.917 43.1995 21.8636 43.1489 21.6935C42.5018 19.547 41.8468 17.4034 41.1938 15.2589C41.1233 15.0284 41.0529 14.798 40.9675 14.5212H40.9685Z" fill="#FBFBFB"/>
<path d="M54.0465 14.5315H59.7797C59.8194 15.1554 59.8591 15.7713 59.8997 16.4184H57.9913C58.0906 18.259 58.1878 20.0674 58.2871 21.9101C57.9407 21.9101 57.6172 21.9101 57.2927 21.9101C56.9979 21.9101 56.7032 21.901 56.4084 21.9131C56.2407 21.9201 56.1921 21.8598 56.1851 21.6937C56.1405 20.5394 56.0879 19.3861 56.0353 18.2318C56.0085 17.6431 55.9787 17.0554 55.9489 16.4284C55.6949 16.4284 55.4508 16.4284 55.2076 16.4284C54.8811 16.4284 54.5546 16.4345 54.2281 16.4224C54.1656 16.4204 54.0544 16.3439 54.0534 16.2996C54.0415 15.72 54.0455 15.1403 54.0455 14.5305L54.0465 14.5315Z" fill="#FBFBFB"/>
<path d="M32.8535 2.19135C32.6501 1.68314 32.4546 1.19204 32.2531 0.687854C32.6669 0.383933 33.0986 0.125299 33.6117 0.031708C34.0514 -0.0477943 34.4553 0.0196316 34.8403 0.26317C35.016 0.37387 35.2184 0.460417 35.4199 0.504696C35.7216 0.571116 36.0203 0.535894 36.2724 0.316508C36.3478 0.250088 36.4361 0.198764 36.5324 0.131338C36.7884 0.641561 37.0405 1.14373 37.2966 1.65597C36.9294 1.97197 36.5175 2.18028 36.0481 2.26985C35.5797 2.35942 35.146 2.28696 34.7272 2.04241C34.5138 1.91863 34.2687 1.83208 34.0275 1.78177C33.701 1.71434 33.3884 1.79485 33.1175 2.0082C33.0381 2.07059 32.9518 2.12292 32.8515 2.19135H32.8535Z" fill="#FBFBFB"/>
<path d="M25.9264 2.72198L20.5456 12.2794H30.4251L25.9274 2.72198H25.9264ZM25.5642 7.50118L26.3681 9.20998H24.6016L25.5642 7.50118Z" fill="#FBFBFB"/>
<path d="M20.9604 5.86278C20.8791 4.96411 20.5575 4.16003 19.9402 3.49482C19.712 3.24927 19.4569 3.04196 19.1642 2.87491L19.1602 2.87088C19.061 2.81654 18.9597 2.76723 18.8575 2.71993C18.8545 2.71892 18.8516 2.71691 18.8496 2.7159C17.5058 2.10806 15.911 2.17851 14.6308 2.91415C14.3857 3.04196 14.1584 3.18587 13.9441 3.35293C12.8415 4.20833 12.1845 5.34753 11.8759 6.70712C11.6853 7.54542 11.6139 8.38975 11.7608 9.24314C12.0595 10.9791 13.3228 12.2522 14.9782 12.4605C16.8449 12.696 18.397 12.065 19.5959 10.6108C20.7262 9.23912 21.1222 7.62391 20.9634 5.86178L20.9604 5.86278ZM17.9217 6.95267C17.874 7.56051 17.7986 8.16131 17.5257 8.71682C17.1635 9.45146 16.4499 9.79664 15.6639 9.6155C15.1637 9.50077 14.8442 9.12842 14.7817 8.5236C14.741 8.1291 14.7598 7.56756 14.7926 7.0684C14.8382 6.36999 15.2144 5.73699 15.7999 5.36363C16.2445 5.0114 16.9074 5.03656 17.3193 5.41999L17.3411 5.44011C17.7529 5.82354 17.9673 6.37703 17.9227 6.94261V6.95267H17.9217Z" fill="#FBFBFB"/>
<path d="M33.7775 30.1971H30.3586V26.8178C30.3586 26.5712 30.5561 26.3709 30.7992 26.3709C31.0424 26.3709 31.2399 26.5712 31.2399 26.8178V29.3045H33.7784C35.0964 29.3045 36.1682 28.2176 36.1682 26.8812C36.1682 25.5447 35.0964 24.4579 33.7784 24.4579H26.6093C25.2913 24.4579 24.2195 25.5447 24.2195 26.8812C24.2195 28.2176 25.2913 29.3045 26.6093 29.3045H28.8104V27.5826C28.8104 27.336 29.0079 27.1358 29.2511 27.1358C29.4942 27.1358 29.6917 27.336 29.6917 27.5826V30.1971H26.6102C24.807 30.1971 23.3402 28.7097 23.3402 26.8812C23.3402 25.0526 24.807 23.5652 26.6102 23.5652H33.7794C35.5827 23.5652 37.0494 25.0526 37.0494 26.8812C37.0494 28.7097 35.5827 30.1971 33.7794 30.1971H33.7775Z" fill="#FBFBFB"/>
<path d="M26.8206 28.2043C26.5775 28.2043 26.38 28.004 26.38 27.7574V25.9883C26.38 25.7417 26.5775 25.5414 26.8206 25.5414C27.0638 25.5414 27.2613 25.7417 27.2613 25.9883V27.7574C27.2613 28.004 27.0638 28.2043 26.8206 28.2043Z" fill="#FBFBFB"/>
<path d="M27.693 27.3199H25.9483C25.7052 27.3199 25.5077 27.1197 25.5077 26.8731C25.5077 26.6266 25.7052 26.4263 25.9483 26.4263H27.693C27.9361 26.4263 28.1336 26.6266 28.1336 26.8731C28.1336 27.1197 27.9361 27.3199 27.693 27.3199Z" fill="#FBFBFB"/>
<path d="M32.9597 26.6264C33.2375 26.6264 33.4628 26.398 33.4628 26.1162C33.4628 25.8344 33.2375 25.606 32.9597 25.606C32.6818 25.606 32.4565 25.8344 32.4565 26.1162C32.4565 26.398 32.6818 26.6264 32.9597 26.6264Z" fill="#FBFBFB"/>
<path d="M33.966 28.1561C34.2439 28.1561 34.4692 27.9277 34.4692 27.6459C34.4692 27.3641 34.2439 27.1357 33.966 27.1357C33.6881 27.1357 33.4628 27.3641 33.4628 27.6459C33.4628 27.9277 33.6881 28.1561 33.966 28.1561Z" fill="#FBFBFB"/>
</svg>

