<svg width="182" height="25" viewBox="0 0 182 25" fill="none" xmlns="http://www.w3.org/2000/svg">
<g clip-path="url(#clip0_50_2494)">
<path d="M7.40366 20.2251C3.17192 20.2251 0.32756 17.7862 0.32756 13.9385C0.32756 10.3029 3.0128 7.47018 7.5976 7.47018C9.22863 7.47018 10.7055 7.75295 11.899 8.32354V12.1359C10.7602 11.4037 9.38775 11.0149 7.86115 11.0149C5.40465 11.0149 4.38525 12.5095 4.38525 14.0951C4.38525 15.8573 5.47427 17.1954 7.5976 17.1954C8.02027 17.1954 8.45787 17.1601 8.88054 17.054V15.8624H6.86164V13.2064H12.0929V19.2253C10.8099 19.8312 9.21371 20.2251 7.40366 20.2251Z" fill="white"/>
<path d="M21.9736 17.9831H17.533L16.797 20.0685H12.8288L17.6921 7.59641H21.9736L26.8169 20.0685H22.7244L21.9686 17.9831H21.9736ZM21.0089 15.2918L19.7458 11.8026L18.4977 15.2918H21.0089Z" fill="white"/>
<path d="M31.347 20.0685H27.7468V7.59641H31.9239L35.0467 12.1207L38.1894 7.59641H42.3317V20.0685H38.6618L38.6817 14.2263L38.7016 12.767L38.1049 13.5699L34.997 17.7205L31.9089 13.5699L31.3122 12.7519L31.3321 14.2314L31.352 20.0736L31.347 20.0685Z" fill="white"/>
<path d="M44.2511 7.59641H53.8185V10.7877H48.2889V12.4792H53.2417V15.3826H48.2889V17.1096H53.8384V20.0685H44.2561V7.59641H44.2511Z" fill="white"/>
<path d="M55.5639 7.50552H61.2377C64.8727 7.50552 67.8563 9.83837 67.8563 13.7416C67.8563 17.6448 64.644 19.9776 61.1482 19.9776H55.5639V7.50552ZM59.6017 10.7675V16.8116H60.6708C62.6897 16.8116 63.7986 15.5998 63.7986 13.782C63.7986 12.1258 62.7096 10.7675 60.6708 10.7675H59.6017Z" fill="white"/>
<path d="M69.368 7.50552H78.9404V10.6968H73.4108V12.3883H78.3636V15.2918H73.4108V17.0187H78.9603V19.9776H69.373V7.50552H69.368Z" fill="white"/>
<path d="M88.7763 19.9827H84.4899L79.6266 7.50552H83.8584L86.6878 15.524L89.4626 7.50552H93.6247L88.7763 19.9827Z" fill="white"/>
<path d="M105.176 20.1443C100.944 20.1443 98.1001 17.7003 98.1001 13.8527C98.1001 10.2171 100.785 7.38434 105.37 7.38434C107.001 7.38434 108.478 7.66711 109.671 8.23769V12.05C108.528 11.3179 107.16 10.929 105.634 10.929C103.177 10.929 102.158 12.4237 102.158 14.0143C102.158 15.7765 103.247 17.1146 105.37 17.1146C105.793 17.1146 106.23 17.0793 106.653 16.9732V15.7816H104.634V13.1256H109.865V19.1495C108.582 19.7555 106.986 20.1493 105.176 20.1493V20.1443Z" fill="white"/>
<path d="M114.396 19.9827V10.8028H110.636V7.50552H122.208V10.8028H118.433V19.9827H114.396Z" fill="white"/>
<path d="M169.503 24.5171H157.136V12.2873C157.136 11.3936 157.847 10.6715 158.727 10.6715C159.607 10.6715 160.318 11.3936 160.318 12.2873V21.2854H169.498C174.261 21.2854 178.14 17.3519 178.14 12.5146C178.14 7.6772 174.261 3.74368 169.498 3.74368H143.575C138.811 3.74368 134.933 7.6772 134.933 12.5146C134.933 17.3519 138.811 21.2854 143.575 21.2854H151.536V15.0544C151.536 14.1607 152.247 13.4386 153.128 13.4386C154.008 13.4386 154.719 14.1607 154.719 15.0544V24.5171H143.575C137.056 24.5171 131.75 19.1344 131.75 12.5146C131.75 5.89475 137.056 0.51709 143.58 0.51709H169.503C176.022 0.51709 181.328 5.8998 181.328 12.5196C181.328 19.1394 176.022 24.5221 169.503 24.5221V24.5171Z" fill="white"/>
<path d="M144.346 17.3065C143.466 17.3065 142.755 16.5844 142.755 15.6907V9.28797C142.755 8.39422 143.466 7.67215 144.346 7.67215C145.226 7.67215 145.937 8.39422 145.937 9.28797V15.6907C145.937 16.5844 145.226 17.3065 144.346 17.3065Z" fill="white"/>
<path d="M147.499 14.1051H141.188C140.308 14.1051 139.597 13.3831 139.597 12.4893C139.597 11.5956 140.308 10.8735 141.188 10.8735H147.499C148.379 10.8735 149.09 11.5956 149.09 12.4893C149.09 13.3831 148.379 14.1051 147.499 14.1051Z" fill="white"/>
<path d="M166.544 11.5956C167.549 11.5956 168.364 10.7682 168.364 9.74748C168.364 8.7268 167.549 7.89938 166.544 7.89938C165.539 7.89938 164.724 8.7268 164.724 9.74748C164.724 10.7682 165.539 11.5956 166.544 11.5956Z" fill="white"/>
<path d="M170.184 17.1348C171.189 17.1348 172.004 16.3074 172.004 15.2867C172.004 14.266 171.189 13.4386 170.184 13.4386C169.179 13.4386 168.364 14.266 168.364 15.2867C168.364 16.3074 169.179 17.1348 170.184 17.1348Z" fill="white"/>
</g>
<defs>
<clipPath id="clip0_50_2494">
<rect width="181" height="24" fill="white" transform="translate(0.32756 0.51709)"/>
</clipPath>
</defs>
</svg>

