<?xml version="1.0" encoding="UTF-8"?>
<svg id="Layer_1" xmlns="http://www.w3.org/2000/svg" xmlns:xlink="http://www.w3.org/1999/xlink" viewBox="0 0 1920 1080">
  <defs>
    <style>
      .cls-1 {
        fill: none;
      }

      .cls-2 {
        fill: #006be3;
      }

      .cls-3 {
        fill: #194dd6;
      }

      .cls-4 {
        fill: #fff200;
      }

      .cls-5 {
        clip-path: url(#clippath);
      }
    </style>
    <clipPath id="clippath">
      <rect class="cls-1" width="1920" height="1080"/>
    </clipPath>
  </defs>
  <rect class="cls-2" width="1920" height="1080"/>
  <g class="cls-5">
    <g>
      <g id="_x33_Xw7vM.tif">
        <g>
          <path class="cls-3" d="M1.11,339.59c1.07.23,2.44.2,3.14.73,1.86,1.41,3.47,3.04,5.12,4.62,70.93,67.9,146.55,132.33,227.08,193.06,74.89,56.48,153.18,109.8,237.33,157.48,44.91,25.45,90.69,49.89,137.97,72.49,12.05,5.76,24.25,11.37,36.66,16.62,51.19,21.68,102.86,42.6,156.56,60.14,10.62,3.47,21.27,6.86,31.94,10.23,2.61.82,5.2,2.14,8.19.97-.16.6-.8,1.33.61,1.47.09,0,.35-.31.32-.34-.35-.34-.73-.65-1.11-.98-32.21-12.67-63.8-26.25-94.18-41.5-23.6-11.85-45.36-25.75-66.79-39.94-9.71-6.43-19.11-13.18-28.59-19.82-1.37-.96-2.47-2.18-3.76-3.33,2.05-.99,3.21-.1,4.41.4,7.87,3.31,15.74,6.62,23.58,9.98,68.11,29.17,138.41,54.58,210.37,77.08,45.48,14.23,92.35,25.11,139.46,35.32,32.7,7.09,65.54,13.75,98.9,18.58,16.1,2.33,32.3,4.23,48.49,6.16,9.94,1.19,19.93,2.14,29.92,3.04,9.13.83,18.29,1.56,27.45,2.12,9.74.59,19.52.85,29.26,1.41,11.84.68,23.57-.36,35.26-1.41,19.98-1.78,39.89-4.1,59.47-7.79,12.56-2.37,25.08-4.94,37.51-7.7,13.9-3.08,27.01-7.75,39.31-13.75,17.87-8.73,35.85-17.34,52.28-27.78,2.24-1.43,4.54-2.82,6.62-4.38,16.53-12.4,32.24-25.4,46.46-39.52,1.94-1.93,4.03-3.81,4.55-6.33-1.66-1.26-2.8-.21-3.91.3-7.94,3.68-15.73,7.57-23.79,11.08-43.13,18.79-88.98,31.78-137.02,39.91-12.07,2.04-24.32,3.39-36.5,5-3.89.51-7.81.73-12.59.16,3.25-2.26,6.64-2.84,9.71-3.84,29.98-9.74,57.74-22.5,83.04-38.61,26.16-16.66,49.23-35.7,69.48-56.92,33.93-35.54,58.82-74.63,72.66-117.95,2.39-7.49,3.36-15.27,4.81-22.93,1.84-9.74,1.82-19.57,1.97-29.4.43-28.38-5.41-55.95-16.91-82.77-3.05-7.12-6.69-14.1-10.43-21.02-4.77-8.81-9.82-17.52-14.92-26.21-6.68-11.4-14.19-22.44-22.8-33-5.31-6.51-10.34-13.17-15.82-19.6-21.08-24.72-46.22-46.61-74.3-66.39-9.25-6.51-18.54-13-28.16-19.16-7.59-4.87-15.69-9.23-23.61-13.77-1.35-.78-2.92-1.31-4.71-2.09,1.21,2.97,1.23,2.95,2.49,3.92,15.48,11.96,29.78,24.78,43.37,38.1,6.15,6.03,12.07,12.22,17.99,18.4,1.82,1.9,3.29,4,3.95,6.61-1.39-1.04-2.82-2.05-4.18-3.11-55.77-43.81-118.65-80.05-186.71-110.76-67.14-30.29-137.2-55.37-210.74-74.17-12.57-3.21-25.3-6.01-38.01-8.87-3.58-.81-7.32-1.13-10.98-1.74-1.93-.32-3.82-.78-5.66-1.96,8.31-.17,16.63-.31,24.94-.51,22.47-.54,44.73.99,66.96,3.68,19.03,2.3,38.02,4.78,56.82,8.03,63.48,10.98,125.83,25.11,186.99,42.57,56.29,16.07,111.31,34.43,164.37,56.42,46.95,19.47,92.19,41.13,134.71,66.28,17.77,10.51,35.16,21.38,50.53,34.14,1.96,1.63,3.92,3.26,5.89,4.91-1.42,1.41-2.06.09-2.82-.18-.75-.28-1.33-.85-2.01-1.27-16.33-10.1-32.36-20.53-49.05-30.23-29.72-17.28-61.21-32.4-93.55-46.37-2.46-1.06-4.7-2.74-7.87-2.39-.81-1.69-2.32-1.6-4-.99-.07-.5-.16-.98-.26-1.47-.25.03-.5.06-.74.09.41.41.82.81,1.24,1.22,1.28.36,2.56.72,3.84,1.07.16,2,2.44,2.34,4.02,3.17,23.04,12.1,45.06,25.29,66.37,39.24,1.49.97,2.86,2.06,5.04,3.64-3.73-.22-5.38-1.91-7.43-2.88-2.22-1.05-4.3-2.28-6.45-3.43-2.15-1.14-4.3-2.28-6.46-3.41-2.16-1.13-4.33-2.25-6.51-3.35-2.42-1.22-4.86-2.43-7.3-3.64-2.2-1.08-4.4-2.17-6.61-3.23-2.21-1.07-4.43-2.12-6.66-3.17-2.22-1.05-4.44-2.1-6.68-3.13-2.24-1.03-4.49-2.04-6.76-3.03-2.26-.99-4.54-1.96-6.83-2.92-2.28-.96-4.57-1.92-6.87-2.85-2.3-.93-4.63-1.83-6.95-2.73-2.32-.9-4.64-1.81-6.97-2.7-2.33-.89-4.67-1.77-7.02-2.61-2.61-.94-5.25-1.85-7.88-2.77-2.37-.83-4.73-1.66-7.11-2.46-2.38-.8-4.77-1.59-7.17-2.35-2.4-.76-4.81-1.5-7.23-2.23-2.42-.73-4.83-1.46-7.27-2.13-2.36-.65-4.75-1.23-8.34-2.16,2.81,2.92,5.85,3.52,8.5,4.56,19.32,7.6,38.23,15.77,56.66,24.66,90.68,43.72,166.66,100.07,228.61,168.4,8.05,8.87,14.92,18.42,22.31,27.67,1.54,1.93,2.86,3.96,4.47,5.85.28.33,1.51.15,2.26.23,0,.48.03.94.06,1.4-.07-.44-.15-.88-.22-1.31-6.79-16.05-15.46-31.46-25.24-46.49-15.93-24.45-34.85-47.28-58.21-67.69-.56-.49-1.04-1.04-1.58-1.59,1.26-1.26,1.96.01,2.67.33.98.44,1.77,1.14,2.64,1.74,24.23,16.63,46.16,34.99,65.38,55.36,10.01,10.6,19.62,21.42,28.12,32.84,1.01,1.36,2.19,2.65,4.08,3.76-.34-1.12-.53-2.28-1.04-3.34-5.53-11.53-11.79-22.81-18.94-33.76-1.16-1.77-2.21-3.58-4.1-6.66,4.19,1.98,5.82,4.01,7.72,5.77,19.27,17.9,36.97,36.75,53.7,56.18,43.56,50.56,79.12,104.43,105.01,162.2,16.03,35.76,28.15,72.38,36.06,109.87,3.28,15.56,5.73,31.18,7.77,46.85.59,4.54.37,9.13.77,13.69.22,2.46.98,4.89,1.49,7.33v76.78c-.51,2.42-1.41,4.84-1.47,7.27-.26,10.74-1.63,21.39-3.45,32.02-4.03,23.52-9.58,46.81-16.95,69.81-3.89,12.14-8.39,24.16-12.62,36.24h-938.31c-1.69-2.19-4.68-2.39-7.38-3.03-42.37-10.16-83.72-22.63-125.09-35.02-39.77-11.91-78.96-24.99-117.41-39.45-15.31-5.76-30.8-11.22-46.14-16.95-13.26-4.95-26.41-10.06-39.59-15.14-11.9-4.58-23.61-9.46-34.59-15.34-3.31-1.77-6.35-3.9-9.32-6.02-.87-.62-1.09-1.82-2.04-3.54,2.66.5,4.33.69,5.87,1.14,10.24,2.99,20.46,6.01,30.67,9.07,15.85,4.75,31.6,9.7,47.54,14.26,14.59,4.17,29.38,7.89,44.05,11.87,18.76,5.09,37.61,9.95,57,13.26,24.42,4.18,48.88,8.2,73.39,12.03,14.97,2.34,30.13,3.54,45.43,3.01,1.57-.05,3.58.42,4.35-1.6-1.55-1.98-4.22-2.96-6.83-3.78-8.01-2.49-15.96-5.21-24.2-7.11-34.73-8.02-69.47-16.05-104.38-23.57-44.93-9.68-88.98-21.55-132.94-33.58-42.35-11.59-83.91-24.93-125.12-38.91-39.37-13.35-78.21-27.63-116.35-43.08-66.92-27.11-130.59-58.58-192.82-91.91-38.37-20.55-76.2-41.73-113.06-63.98-11.91-7.19-23.76-14.39-34.79-22.45-3.37-2.46-7.15-4.59-10.94-6.63-11.42-6.15-22.93-12.18-34.42-18.24-1.12-.59-2.29-1.12-3.43-1.68.38,1.77,1.47,2.96,2.71,4.04,5.24,4.55,10.61,9.01,15.79,13.6,45.36,40.19,93.5,78.16,144.79,113.55,56.96,39.31,117.59,74.74,181.17,106.99,57.75,29.29,117.65,55.34,181.11,76.06,8.23,2.69,16.45,5.42,24.6,8.26,1.68.59,4.07.85,4.22,2.95l.15.21c-.49-.23-.95-.54-1.48-.66-37.59-8.48-74.43-18.65-110.6-30.42-36.44-11.85-72.39-24.51-106.81-39.74-46.44-20.54-92.03-42.23-136.98-64.76-1.84-.92-3.8-1.69-5.71-2.52-.02,1.51.58,2.45,1.5,3.12,4.88,3.54,9.71,7.13,14.8,10.47,64.11,42.25,132.97,78.98,205.44,111.49,31.03,13.92,62.9,26.53,95.23,38.41,5.2,1.91,10.16,4.23,15.16,6.46,1.15.51,2.01,1.42,4.16,3-3.11-.14-4.78.03-6.24-.33-5.76-1.41-11.47-2.94-17.17-4.51-44.8-12.3-88.69-26.41-132.13-41.46-49.54-17.15-97.9-36.13-145.1-57.05-89.24-39.56-171.35-86.96-246.94-141.55-1.49-1.07-2.93-2.22-4.62-3.06-.79-.4-2.11-.14-3.18-.18,0-94.15,0-188.3,0-282.45,1.87-.07,3.25.64,4.52,1.66,3.02,2.44,6.1,4.83,9.16,7.25,43.64,34.47,89.13,67.26,137.92,97.12,52.18,31.94,106.7,61.07,163.97,86.9,25.73,11.6,52.14,22.13,79.86,30.48,1.84.55,3.53,1.44,5.28,2.16.41-.06.82-.12,1.22-.17-.43.03-.86.05-1.28.08,1.38-1.84-.64-2.45-1.97-3.08-8.88-4.21-17.87-8.28-26.74-12.5-27.35-13.04-54.52-26.35-80.6-40.95-60.57-33.91-116.43-72.18-167.78-114.65-41.29-34.14-79.79-70.15-115.59-107.99-1.55-1.64-3.08-3.32-4.88-4.78-.61-.49-2.04-.34-3.09-.48,0-28.34,0-56.67,0-85.01ZM1427.16,1001.63s-.19-.14-.19-.14c-1.14.56-2.2,1.42-3.44,1.63-15.08,2.67-30.36,4.43-45.75,5.36-11.39.69-22.86,1.22-34.26.91-14.26-.38-28.48-1.7-42.8-2.57-2.06-.34-4.12-.86-6.15.31,2.13-.14,4.26-.29,6.39-.43.75.61,1.36,1.55,2.26,1.78,2.73.69,5.55,1.17,8.36,1.62,33.11,5.31,66.49,7.52,100.28,5.81,24.14-1.22,48-3.77,71.61-7.95,33.24-5.88,64.98-15.14,95.74-26.65,52.83-19.77,99.98-45.83,139.61-80.11,22.27-19.27,41.55-40.34,56.24-63.79,19.68-31.42,30.88-64.83,34.49-99.79.53-5.17-.57-10.46-1.11-15.69-.09-.84-1.18-1.61-2.23-2.95-2.77,8.98-5.05,17.22-7.9,25.34-2.86,8.13-6.1,16.18-9.52,24.17-3.38,7.89-6.77,15.81-12.59,24.24,0-2.4-.14-3.53.02-4.63,1.21-7.93,2.64-15.84,3.7-23.78,3-22.44,1.13-44.73-4.2-66.83-1.16-4.8-2.42-9.71-6.15-15.37-.22,2.19-.39,3.01-.38,3.82.22,10.55-1.44,20.96-3.3,31.37-5.87,32.86-18.63,63.99-37.12,93.67-1.25,2-2.97,3.82-4.48,5.73l.22.18c-.87-1.88.07-3.56.8-5.3,9.2-21.99,14.92-44.55,17.14-67.64,1.34-13.9,2.09-27.83-1.15-41.67-.18-.76.16-1.9-2.06-2.02-1.9,9.78-3.64,19.6-5.74,29.37-2.09,9.69-5.43,19.14-9.33,28.47-3.97,9.49-8.13,18.92-14.24,27.99-.55-.59-.83-.76-.8-.88.6-2.44,1.11-4.9,1.88-7.3,6.14-19.09,10-38.47,11.07-58.14,1.39-25.45-1.64-50.65-8.37-75.55-2.77-10.27-6.2-20.42-11.97-29.95-.61-1.01-1.64-1.86-3.53-3.96,2.77,13.43,4.77,25.4,5.56,37.48,1.18,18.11.73,29.87-1.93,37.15-.67-2.51-1.3-4.2-1.57-5.93-4.83-30.46-13.38-60.21-26.97-89-6.56-13.9-13.34-27.75-22.74-40.62-13.44-18.39-28.6-35.87-45.63-52.3-1.21-1.17-2.6-2.22-5.19-4.42.8,2.2.95,3.05,1.4,3.78,2.03,3.28,4.19,6.5,6.23,9.77,11.78,18.88,21.28,38.45,26.99,59.07,6.96,25.17,8.44,50.64,5.7,76.29-.66,6.14-1.42,12.28-2.34,18.4-1.3,8.61-2.59,17.23-4.26,25.8-3.52,18.06-8.46,35.88-14.45,53.53-13.37,39.4-34.8,75.35-70.56,105.24-9.9,8.27-19.66,16.66-30.95,23.8-4.27,2.7-8.44,5.5-12.72,8.2-13.06,8.24-26.55,16.02-40.84,22.84-13.04,6.23-26.59,11.66-40.85,16.06-24.4,7.53-49.23,13.79-74.82,18.16-2.45.42-4.86.96-7.29,1.44,4.28.94,8.46,1.16,12.65,1.31,44.57,1.68,88.34-2,131.02-12.64,10.09-2.52,20.22-5.04,29.61-9.04l-.04.03c.5.89.66,1.76-.58,2.35-2.46,1.17-4.89,2.4-7.45,3.42-26.54,10.62-54.47,18.21-83.27,23.87-18.7,3.67-37.72,5.97-56.73,8.32-1.33.16-2.99.15-2.3,2.31,12.45.46,25.03,1.51,37.67,1.23,25.86-.56,51.63-1.82,77.28-4.82,41.95-4.91,82.76-13,122.1-25.66,1.3-.42,2.76-.5,4.15-.75l-.17-.16c.11,1.81-1.92,2.13-3.27,2.71-11.11,4.77-22.12,9.7-33.48,14.08-28.2,10.87-57.53,19.46-87.53,26.63-53.71,12.84-108.53,19.54-164.69,18.62-14.64-.24-29.27-.82-43.9-1.19-2.9-.07-5.87-.5-10.7.36,53.02,11.78,104.8,12.24,157.06,6.64-2.86,1.02-5.73,1.76-8.67,2.19-17.24,2.52-34.58,4.36-52.16,4.41-4.88.01-9.76.3-14.62.59-1.16.07-2.28.64-5.18,1.51,4.94.69,7.99,1.37,11.08,1.5,20.38.87,40.75.99,61.12-.31,5.72-.37,11.45-.63,17.18-.94Z"/>
          <path class="cls-3" d="M1.11,919.58c1.28.4,2.84.56,3.78,1.26,2.3,1.71,4.3,3.67,6.42,5.53,34.6,30.21,69.65,60.08,107.67,87.62,30.56,22.14,61.96,43.49,95.72,62.56,1.57.89,3.65,1.51,3.75,3.45H1.11c0-53.47,0-106.95,0-160.42Z"/>
          <path class="cls-3" d="M1.11,812.63c1.06.24,2.42.24,3.12.78,1.64,1.26,2.97,2.78,4.4,4.21,61.73,62.23,134.35,115.12,216.89,159.45,14.28,7.67,28.97,14.86,43.45,22.29,4.05,2.08,8.38,3.91,11.41,7.22-3.24,1.46-5.43-.24-7.59-.99-17.37-6.03-34.79-11.99-51.45-19.2-27.75-12.01-55.61-23.87-83.06-36.3-44.73-20.27-87.38-43.12-128.97-67.21-2.43-1.41-4.42-3.81-8.19-3.05,0-22.4,0-44.79,0-67.19Z"/>
          <path class="cls-3" d="M1300.97,1006.71c-2.13.14-4.26.29-6.39.43,2.03-1.17,4.09-.65,6.19-.34.04-.02.2-.09.2-.09Z"/>
          <path class="cls-3" d="M1504.56,300.25c1.7-.62,3.21-.72,4.02.98,0,0,.07-.07.07-.07-1.28-.36-2.56-.72-3.84-1.07l-.25.17Z"/>
          <path class="cls-3" d="M1766.27,521.49c.07.44.15.88.22,1.31-.03-.46-.06-.92-.06-1.4.04-.02-.16.09-.16.09Z"/>
          <path class="cls-3" d="M1504.82,300.08c-.41-.41-.82-.81-1.24-1.22.25-.03.5-.06.74-.09.09.48.18.97.26,1.47-.02.01.24-.16.24-.16Z"/>
          <path class="cls-3" d="M844.94,856.1c.38.32.76.64,1.11.98.03.03-.23.35-.32.34-1.41-.14-.77-.87-.61-1.47.02-.02-.18.16-.18.16Z"/>
          <path class="cls-3" d="M401.75,709.03c.43-.03.86-.05,1.28-.08-.41.06-.81.11-1.22.17,0,0-.06-.09-.06-.09Z"/>
          <path class="cls-3" d="M581.61,979.08c.42-.02.84-.03,1.26-.05-.37.07-.75.15-1.11.24,0,.02-.15-.19-.15-.19Z"/>
          <path class="cls-3" d="M1427.16,1001.63c1.47-.35,2.94-.69,4.99-1.17-1.79,1.86-3.52,1.19-5.17,1.04-.01,0,.18.13.18.13Z"/>
          <path class="cls-3" d="M1424.78,991.85c-.21-.12-.43-.23-.64-.35.26-.07.54-.2.78-.18.23.02.43.21.64.33-.26.06-.52.13-.79.19Z"/>
          <path class="cls-3" d="M1439.13,999.96c-.23,0-.46.03-.68,0-.03,0-.03-.22-.04-.33.23,0,.46-.03.68,0,.03,0,.03.21.04.33Z"/>
          <path class="cls-3" d="M1724.3,816.71c-.19.35-.38.71-.58,1.06-.18-.2-.35-.4-.53-.6.44-.1.88-.2,1.32-.29,0,0-.22-.17-.22-.17Z"/>
          <path class="cls-3" d="M1514.28,914.68c.7.08,1.4.16,2.09.24-.01.04-.02.08-.03.13-.7-.11-1.39-.23-2.1-.34,0,0,.04-.03.04-.03Z"/>
          <path class="cls-3" d="M1605.1,924.99c.3-.32.53-.78.93-.91.24-.08.75.35,1.14.55-.22.12-.44.34-.67.35-.51.01-1.03-.08-1.56-.13,0,0,.16.15.16.15Z"/>
        </g>
      </g>
      <path class="cls-4" d="M1.11,766.01c1.08.04,2.39-.22,3.18.18,1.68.84,3.13,1.99,4.62,3.06,75.59,54.59,157.7,101.98,246.94,141.55,47.19,20.92,95.56,39.9,145.1,57.05,43.45,15.04,87.34,29.16,132.13,41.46,5.7,1.56,11.41,3.1,17.17,4.51,1.46.36,3.12.19,6.24.33-2.16-1.58-3.02-2.49-4.16-3-5-2.23-9.97-4.55-15.16-6.46-32.34-11.88-64.21-24.49-95.23-38.41-72.47-32.51-141.33-69.24-205.44-111.49-5.08-3.35-9.91-6.94-14.8-10.47-.92-.67-1.52-1.61-1.5-3.12,1.91.84,3.87,1.6,5.71,2.52,44.95,22.53,90.54,44.22,136.98,64.76,34.42,15.23,70.37,27.89,106.81,39.74,36.18,11.76,73.01,21.94,110.6,30.42.53.12.99.44,1.47.64.37-.09.74-.17,1.11-.24-.42.02-.84.03-1.26.05-.15-2.1-2.54-2.36-4.22-2.95-8.15-2.84-16.36-5.58-24.6-8.26-63.45-20.71-123.36-46.76-181.11-76.06-63.58-32.25-124.21-67.68-181.17-106.99-51.29-35.4-99.43-73.36-144.79-113.55-5.18-4.59-10.55-9.05-15.79-13.6-1.24-1.08-2.33-2.27-2.71-4.04,1.15.56,2.31,1.09,3.43,1.68,11.49,6.07,23,12.1,34.42,18.24,3.8,2.04,7.58,4.18,10.94,6.63,11.03,8.05,22.88,15.26,34.79,22.45,36.87,22.25,74.69,43.43,113.06,63.98,62.23,33.32,125.9,64.79,192.82,91.91,38.14,15.45,76.98,29.73,116.35,43.08,41.21,13.97,82.77,27.32,125.12,38.91,43.96,12.03,88.01,23.9,132.94,33.58,34.91,7.52,69.65,15.55,104.38,23.57,8.24,1.9,16.19,4.62,24.2,7.11,2.61.81,5.28,1.79,6.83,3.78-.77,2.02-2.78,1.54-4.35,1.6-15.3.53-30.46-.67-45.43-3.01-24.51-3.83-48.97-7.85-73.39-12.03-19.39-3.32-38.25-8.17-57-13.26-14.67-3.98-29.46-7.7-44.05-11.87-15.94-4.55-31.69-9.51-47.54-14.26-10.21-3.06-20.43-6.08-30.67-9.07-1.55-.45-3.22-.63-5.87-1.14.96,1.73,1.17,2.92,2.04,3.54,2.97,2.13,6.01,4.25,9.32,6.02,10.98,5.88,22.69,10.76,34.59,15.34,13.18,5.07,26.34,10.19,39.59,15.14,15.33,5.73,30.82,11.19,46.14,16.95,38.44,14.46,77.63,27.54,117.41,39.45,41.37,12.39,82.72,24.86,125.09,35.02,2.7.65,5.69.84,7.38,3.03H218.44c-.09-1.94-2.17-2.57-3.75-3.45-33.75-19.07-65.16-40.42-95.72-62.56-38.02-27.54-73.07-57.42-107.67-87.62-2.13-1.86-4.13-3.82-6.42-5.53-.93-.7-2.5-.85-3.78-1.26,0-13.25,0-26.51,0-39.76,3.77-.76,5.76,1.65,8.19,3.05,41.6,24.1,84.24,46.95,128.97,67.21,27.45,12.43,55.31,24.29,83.06,36.3,16.66,7.21,34.08,13.18,51.45,19.2,2.16.75,4.35,2.44,7.59.99-3.03-3.31-7.36-5.14-11.41-7.22-14.48-7.43-29.17-14.62-43.45-22.29-82.54-44.33-155.16-97.22-216.89-159.45-1.42-1.43-2.76-2.95-4.4-4.21-.7-.54-2.06-.54-3.12-.78,0-15.54,0-31.08,0-46.62Z"/>
      <path class="cls-4" d="M1287.28,702.6c39.39-15.38,70.15-38.55,94.88-66.98,13.83-15.9,25.73-32.72,34.75-50.76,8.71-17.41,14.67-35.37,17.95-53.91,2.08-11.75,3.42-23.51,3.44-35.4.02-11.68-1.15-23.22-4.06-34.66-.16-.62-.17-1.27-.25-1.94.65.12,1.34.07,1.57.3,4.02,4.17,7.98,8.35,10.58,13.27,7.95,15.04,13.17,30.69,16.94,46.67,2.81,11.89,4.58,23.9,4.38,35.98-.31,19.18-3.69,38.04-11.79,56.22-5.62,12.63-12.21,24.93-20.68,36.55-.93,1.27-2.28,2.34-3.44,3.51l.18.14c-.93-2.08.52-3.84,1.28-5.68,2.76-6.68,4.91-13.46,5.95-20.45.81-5.42.61-10.82.33-16.05-2.03-.72-2.44.23-2.81,1-1.59,3.27-3.13,6.55-4.66,9.84-13.2,28.32-34.2,52.38-62.73,72.27-9.34,6.52-19.44,12.26-30.37,17-4.08,1.77-8.13,3.75-13.01,3.89l.21.15c1.17-.83,2.23-1.8,3.53-2.47,28.86-14.7,50.45-34.56,65.86-58.77,2.21-3.47,3.9-7.15,5.89-10.83-2.76-.6-3.19,1.06-4.04,1.91-19.58,19.77-43.69,35.27-70.96,47.83-10.08,4.64-20.67,8.3-31.88,10.84-2.42.55-4.75,1.19-7.25.36l.2.19Z"/>
      <path class="cls-4" d="M1453.36,418.81c-41.53-32.49-89.92-56.75-145.33-74.79,4.69-1.52,7.27-.89,9.81-.43,17.02,3.05,33.48,7.37,49.12,13.58,1.71.68,3.53,1.2,5.32,1.75.16.05.46-.19,1.17-.52-.69-.83-1.25-1.73-2.06-2.44-15.59-13.68-31.74-26.92-49.61-38.73-4.65-3.07-9.9-5.56-14.92-8.27-1.54-.83-3.35-1.37-5.3-3.11,3.71.02,6.19.68,8.73,1.36,10.79,2.89,20.8,7.11,30.58,11.61,42.69,19.68,76.81,46.33,101.81,80.19,4.04,5.47,7.16,11.37,10.66,17.09.44.72,1.35,1.5.02,2.7Z"/>
    </g>
  </g>
</svg>